<?xml version="1.0" encoding="UTF-8" standalone="no"?><!DOCTYPE svg PUBLIC "-//W3C//DTD SVG 1.1//EN" "http://www.w3.org/Graphics/SVG/1.1/DTD/svg11.dtd"><svg width="100%" height="100%" viewBox="0 0 512 512" version="1.1" xmlns="http://www.w3.org/2000/svg" xmlns:xlink="http://www.w3.org/1999/xlink" xml:space="preserve" xmlns:serif="http://www.serif.com/" style="fill-rule:evenodd;clip-rule:evenodd;stroke-linejoin:round;stroke-miterlimit:2;"><path d="M5.988,315.562l499.945,-8.131c0.068,0.078 0.068,0.193 0,0.271l0,46.214c-1.33,8.995 -7.043,16.741 -15.247,20.667l-204.503,122.716c-21.697,11.9 -47.82,12.532 -70.066,1.694l-195.085,-113.23c-7.502,-3.49 -14.081,-13.534 -15.044,-21.752c-0.068,-0.631 -0,0 -0,0l-0,-48.449Z" style="fill:#717275;fill-rule:nonzero;"/><path d="M287.134,168.452c4.281,2.372 9.309,5.15 9.512,5.286l195.561,113.229c18.959,10.978 18.279,29.476 -1.562,41.403l-205.075,122.647c-21.739,11.968 -47.967,12.601 -70.261,1.694l-195.629,-113.161c-18.891,-11.046 -18.211,-29.545 1.631,-41.403l205.143,-122.717c4.005,-2.402 8.296,-4.291 12.775,-5.624" style="fill:#b4b4b3;fill-rule:nonzero;"/><path d="M288.468,222.665c23.442,1.273 46.307,7.744 66.941,18.944c47.598,27.699 45.767,74.341 -4.219,104.349c-49.906,30.008 -129.024,31.838 -176.702,4.219c-47.678,-27.7 -45.767,-74.422 4.139,-104.35c19.133,-11.03 40.212,-18.273 62.084,-21.331l47.757,-1.831Z" style="fill:#606c6c;fill-rule:nonzero;"/><path d="M289.423,231.513c14.27,1.552 28.093,5.914 40.667,12.838c34.29,19.878 32.882,53.588 -2.981,75.123c-35.947,21.617 -93.097,22.942 -127.304,3.064c-34.29,-19.877 -32.965,-53.588 2.982,-75.205c11.451,-6.648 23.938,-11.325 36.94,-13.833l49.696,-1.987Z" style="fill:#a5b4b4;fill-rule:nonzero;"/><path d="M241.478,141.52l-0,133.519c-0.014,8.269 4.389,15.918 11.549,20.057c7.161,4.139 15.986,4.139 23.146,0c7.16,-4.139 11.563,-11.787 11.549,-20.057l0,-133.519c-15.332,2.256 -30.911,2.256 -46.244,-0Z" style="fill:#717275;fill-rule:nonzero;"/><path d="M213.491,413.843c0,-13.798 19.043,-25 42.497,-25c23.455,0 42.498,11.202 42.498,25c-0,13.798 -19.043,25 -42.498,25c-23.454,0 -42.497,-11.202 -42.497,-25Z" style="fill:#d8625e;"/><circle cx="264.59" cy="100.608" r="90" style="fill:#d8625e;"/></svg>