<?xml version="1.0" encoding="UTF-8" standalone="no"?><!DOCTYPE svg PUBLIC "-//W3C//DTD SVG 1.1//EN" "http://www.w3.org/Graphics/SVG/1.1/DTD/svg11.dtd"><svg width="100%" height="100%" viewBox="0 0 512 512" version="1.1" xmlns="http://www.w3.org/2000/svg" xmlns:xlink="http://www.w3.org/1999/xlink" xml:space="preserve" style="fill-rule:evenodd;clip-rule:evenodd;stroke-linejoin:round;stroke-miterlimit:2;"><path d="M72.284,18c-22.092,0 -40,17.909 -40,40l-0,283.505l223.716,43.694l223.716,-43.694l0,-283.494c0,-22.097 -17.914,-40.011 -40.011,-40.011l-367.421,0Z" style="fill:#7be6ff;fill-rule:nonzero;"/><path d="M72.284,18c-22.092,0 -40,17.909 -40,40l-0,283.505l223.716,43.694l-0,-367.199l-183.716,0Z" style="fill:#64c8ff;fill-rule:nonzero;"/><path d="M145.877,467.067l220.245,-0l-42.839,-81.867l-134.567,0l-42.839,81.867Z" style="fill:#c588ff;fill-rule:nonzero;"/><path d="M145.877,467.067l110.122,-0l0,-81.867l-67.283,0l-42.839,81.867Z" style="fill:#9a6cff;fill-rule:nonzero;"/><path d="M479.716,341.505l-447.432,-0l-0,21.172c-0,22.092 17.908,40 40,40l367.432,0c22.091,0 40,-17.908 40,-40l0,-21.172Z" style="fill:#767ea1;fill-rule:nonzero;"/><path d="M429.687,475.179c0,-9.657 -7.827,-17.484 -17.484,-17.484l-312.407,-0c-9.657,-0 -17.484,7.827 -17.484,17.484l-0,0.002c-0,9.657 7.827,17.484 17.484,17.484l312.407,0c9.657,0 17.484,-7.827 17.484,-17.484l0,-0.002Z" style="fill:#777ea2;fill-rule:nonzero;"/><path d="M255.999,457.695l-156.203,-0c-9.657,-0 -17.484,7.827 -17.484,17.484l-0,0.002c-0,9.657 7.827,17.484 17.484,17.484l156.203,0l0,-34.97Z" style="fill:#4d5380;fill-rule:nonzero;"/><path d="M256,341.505l-223.716,-0l-0,21.172c-0,22.092 17.908,40 40,40l183.716,0l-0,-61.172Z" style="fill:#4d5380;fill-rule:nonzero;"/></svg>