<?xml version="1.0" encoding="UTF-8" standalone="no"?>
<!DOCTYPE svg PUBLIC "-//W3C//DTD SVG 1.1//EN" "http://www.w3.org/Graphics/SVG/1.1/DTD/svg11.dtd">
<svg width="100%" height="100%" viewBox="0 0 512 512" version="1.1" xmlns="http://www.w3.org/2000/svg" xmlns:xlink="http://www.w3.org/1999/xlink" xml:space="preserve" style="fill-rule:evenodd;clip-rule:evenodd;stroke-linejoin:round;stroke-miterlimit:2;">
    <g>
        <g transform="matrix(-1,0,0,1,512,3.19744e-14)">
            <path d="M256,63.735C149.815,63.735 63.734,149.815 63.734,256.001C63.734,304.325 81.567,348.481 111.004,382.259L156.232,337.03C138.252,314.919 127.468,286.721 127.468,256C127.468,185.014 185.013,127.469 255.999,127.469L271.933,127.469L271.933,63.735L256,63.735Z" style="fill:rgb(48,187,236);fill-rule:nonzero;"/>
        </g>
        <g transform="matrix(-1,0,0,1,512,3.19744e-14)">
            <path d="M400.996,129.742L355.768,174.971C373.748,197.082 384.532,225.28 384.532,256.001C384.532,326.987 326.987,384.532 256.001,384.532L240.067,384.532L240.067,448.266L256,448.266C362.185,448.266 448.266,362.186 448.266,256C448.266,207.676 430.433,163.52 400.996,129.742Z" style="fill:rgb(31,141,205);fill-rule:nonzero;"/>
        </g>
        <g transform="matrix(-1,0,0,1,512,3.19744e-14)">
            <path d="M256,0L256,191.204L351.602,95.602L256,0Z" style="fill:rgb(22,165,217);fill-rule:nonzero;"/>
            <path d="M256,512L256,320.796L160.398,416.398L256,512Z" style="fill:rgb(22,165,217);fill-rule:nonzero;"/>
        </g>
    </g>
</svg>
