<?xml version="1.0" encoding="UTF-8" standalone="no"?><!DOCTYPE svg PUBLIC "-//W3C//DTD SVG 1.1//EN" "http://www.w3.org/Graphics/SVG/1.1/DTD/svg11.dtd"><svg width="100%" height="100%" viewBox="0 0 512 512" version="1.1" xmlns="http://www.w3.org/2000/svg" xmlns:xlink="http://www.w3.org/1999/xlink" xml:space="preserve" style="fill-rule:evenodd;clip-rule:evenodd;stroke-linejoin:round;stroke-miterlimit:2;"><path d="M481.001,331.705c-0,-27.236 -22.112,-49.348 -49.349,-49.348l-130.303,-0c-27.237,-0 -49.348,22.112 -49.348,49.348l-0,98.697c-0,27.236 22.111,49.348 49.348,49.348l130.303,-0c27.237,-0 49.349,-22.112 49.349,-49.348l-0,-98.697Z" style="fill:#222;"/><path d="M174,69.5c-0,-19.869 -16.131,-36 -36,-36l-72,-0c-19.869,-0 -36,16.131 -36,36l-0,374.25c-0,19.869 16.131,36 36,36l72,-0c19.869,-0 36,-16.131 36,-36l-0,-374.25Z" style="fill:#222;"/><path d="M483.502,76.812c0,-23.905 -19.407,-43.312 -43.312,-43.312l-144.877,0c-23.904,0 -43.311,19.407 -43.311,43.312l-0,86.623c-0,23.904 19.407,43.311 43.311,43.311l144.877,0c23.905,0 43.312,-19.407 43.312,-43.311l0,-86.623Z" style="fill:#222;"/><path d="M501.001,331.705c0,-38.274 -31.074,-69.348 -69.349,-69.348l-130.303,-0c-38.275,-0 -69.349,31.074 -69.349,69.348l0,98.697c0,38.274 31.074,69.348 69.349,69.348l130.303,-0c38.275,-0 69.349,-31.074 69.349,-69.348l0,-98.697Zm-40,0l-0,98.697c-0,16.198 -13.15,29.348 -29.349,29.348l-130.303,0c-16.198,0 -29.348,-13.15 -29.348,-29.348l-0,-98.697c-0,-16.198 13.15,-29.348 29.348,-29.348l130.303,-0c16.199,-0 29.349,13.15 29.349,29.348Z" style="fill:url(#_Linear1);"/><path d="M194,69.5c-0,-30.907 -25.093,-56.001 -56,-56.001l-72,0c-30.907,0 -56,25.094 -56,56.001l0,374.25c0,30.906 25.093,56 56,56l72,0c30.907,0 56,-25.094 56,-56l-0,-374.25Zm-40,-0l0,374.25c0,8.83 -7.169,15.999 -16,15.999l-72,0c-8.831,0 -16,-7.169 -16,-15.999l-0,-374.25c-0,-8.831 7.169,-16 16,-16l72,0c8.831,0 16,7.169 16,16Z" style="fill:url(#_Linear2);"/><path d="M503.502,76.812c0,-34.943 -28.369,-63.312 -63.312,-63.312l-144.877,0c-34.942,0 -63.311,28.369 -63.311,63.312l-0,86.623c-0,34.942 28.369,63.311 63.311,63.311l144.877,0c34.943,0 63.312,-28.369 63.312,-63.311l0,-86.623Zm-40,-0l0,86.623c0,12.866 -10.446,23.311 -23.312,23.311l-144.877,0c-12.866,0 -23.312,-10.445 -23.312,-23.311l0,-86.623c0,-12.866 10.446,-23.312 23.312,-23.312l144.877,-0c12.866,-0 23.312,10.446 23.312,23.312Z" style="fill:url(#_Linear3);"/><defs><linearGradient id="_Linear1" x1="0" y1="0" x2="1" y2="0" gradientUnits="userSpaceOnUse" gradientTransform="matrix(-473.502,486.251,-486.251,-473.502,483.502,13.4994)"><stop offset="0" style="stop-color:#1cfff7;stop-opacity:1"/><stop offset="1" style="stop-color:#007f7a;stop-opacity:1"/></linearGradient><linearGradient id="_Linear2" x1="0" y1="0" x2="1" y2="0" gradientUnits="userSpaceOnUse" gradientTransform="matrix(-473.502,484.487,-484.487,-473.502,483.502,7.95059)"><stop offset="0" style="stop-color:#1cfff7;stop-opacity:1"/><stop offset="1" style="stop-color:#007f7a;stop-opacity:1"/></linearGradient><linearGradient id="_Linear3" x1="0" y1="0" x2="1" y2="0" gradientUnits="userSpaceOnUse" gradientTransform="matrix(-485.159,466.25,-466.25,-485.159,495.159,33.4999)"><stop offset="0" style="stop-color:#1cfff7;stop-opacity:1"/><stop offset="1" style="stop-color:#007f7a;stop-opacity:1"/></linearGradient></defs></svg>