<?xml version="1.0" encoding="UTF-8" standalone="no"?><!DOCTYPE svg PUBLIC "-//W3C//DTD SVG 1.1//EN" "http://www.w3.org/Graphics/SVG/1.1/DTD/svg11.dtd"><svg width="100%" height="100%" viewBox="0 0 512 512" version="1.1" xmlns="http://www.w3.org/2000/svg" xmlns:xlink="http://www.w3.org/1999/xlink" xml:space="preserve" xmlns:serif="http://www.serif.com/" style="fill-rule:evenodd;clip-rule:evenodd;stroke-linejoin:round;stroke-miterlimit:2;"><path d="M471.617,120.785l-84.26,-94.785l-131.365,0l0,460l162.619,-0c14.285,-0 27.981,-5.684 38.07,-15.797c10.087,-10.112 15.738,-23.823 15.702,-38.108c-0.25,-101.596 -0.766,-311.31 -0.766,-311.31Z" style="fill:#085aae;fill-rule:nonzero;"/><path d="M255.992,26l-156.174,0c-16.006,0 -31.355,6.358 -42.673,17.676c-11.318,11.317 -17.676,26.667 -17.676,42.673l0,345.745c0,14.296 5.679,28.007 15.789,38.117c10.109,10.11 23.82,15.789 38.117,15.789l162.617,-0l0,-460Z" style="fill:#0a77e8;fill-rule:nonzero;"/><path d="M364.703,26l-108.711,0l-26.953,94.785l26.953,94.785l108.711,0l0,-189.57Z" style="fill:#c0c0c0;fill-rule:nonzero;"/><rect x="147.281" y="26" width="108.711" height="189.57" style="fill:#d2d2d2;"/><path d="M418.609,301.342c0,-32.485 -26.334,-58.819 -58.818,-58.819l-103.799,0l-53.906,121.739l53.906,121.738l102.388,-0c15.974,-0 31.294,-6.346 42.589,-17.641c11.295,-11.295 17.64,-26.614 17.64,-42.589l0,-124.428Z" style="fill:#65eaff;fill-rule:nonzero;"/><path d="M93.375,302.596c0,-33.177 26.896,-60.073 60.073,-60.073l102.544,0l0,243.477l-101.763,-0c-16.139,-0 -31.618,-6.412 -43.031,-17.823c-11.411,-11.413 -17.823,-26.892 -17.823,-43.031l0,-122.55Z" style="fill:#b2f5ff;fill-rule:nonzero;"/><path d="M364.703,302.27l-108.711,0l-17.968,20.215l17.968,20.215l108.711,0l0,-40.43Z" style="fill:#242424;fill-rule:nonzero;"/><rect x="147.281" y="302.27" width="108.711" height="40.43" style="fill:#163f69;"/><path d="M364.703,388.519l-108.711,-0l-17.968,18.867l17.968,18.867l108.711,-0l0,-37.734Z" style="fill:#242424;fill-rule:nonzero;"/><rect x="147.281" y="388.519" width="108.711" height="37.734" style="fill:#163f69;"/><rect x="283.844" y="52.953" width="53.906" height="135.664" style="fill:#085aae;"/></svg>