<?xml version="1.0" encoding="UTF-8" standalone="no"?>
<!DOCTYPE svg PUBLIC "-//W3C//DTD SVG 1.1//EN" "http://www.w3.org/Graphics/SVG/1.1/DTD/svg11.dtd">
<svg width="100%" height="100%" viewBox="0 0 512 512" version="1.1" xmlns="http://www.w3.org/2000/svg" xmlns:xlink="http://www.w3.org/1999/xlink" xml:space="preserve" style="fill-rule:evenodd;clip-rule:evenodd;stroke-linejoin:round;stroke-miterlimit:2;">
    <g transform="matrix(0.880975,2.46519e-32,-2.46519e-32,0.880975,31.3515,26.9466)">
        <path d="M205.699,526.75L277.199,526.75C296.93,526.75 312.949,510.731 312.949,491C312.949,471.269 296.93,455.25 277.199,455.25L205.699,455.25C185.968,455.25 169.949,471.269 169.949,491C169.949,510.731 185.968,526.75 205.699,526.75ZM388.685,525.663C420.762,521.804 449.772,507.909 472.455,487.192C487.024,473.886 488.05,451.255 474.744,436.686C461.438,422.117 438.807,421.091 424.237,434.397C412.295,445.304 397.033,452.643 380.145,454.675C360.556,457.031 346.565,474.849 348.921,494.439C351.278,514.028 369.096,528.019 388.685,525.663ZM14.385,460.472C31.911,486.229 57.193,506.288 86.849,517.312C105.343,524.187 125.94,514.753 132.815,496.259C139.69,477.764 130.256,457.167 111.761,450.293C96.096,444.47 82.756,433.855 73.499,420.25C62.399,403.937 40.143,399.704 23.831,410.804C7.518,421.904 3.286,444.159 14.385,460.472ZM521.75,364.236L521.75,292.736C521.75,273.005 505.731,256.986 486,256.986C466.269,256.986 450.25,273.005 450.25,292.736L450.25,364.236C450.25,383.967 466.269,399.986 486,399.986C505.731,399.986 521.75,383.967 521.75,364.236ZM-11.75,265.633L-11.75,337.133C-11.75,356.864 4.269,372.883 24,372.883C43.731,372.883 59.75,356.864 59.75,337.133L59.75,265.633C59.75,245.902 43.731,229.883 24,229.883C4.269,229.883 -11.75,245.902 -11.75,265.633ZM450.25,144.5L450.25,185.485C450.25,205.216 466.269,221.235 486,221.235C505.731,221.235 521.75,205.216 521.75,185.485L521.75,144.5C521.75,111.783 511.336,81.481 493.656,56.718C482.191,40.66 459.846,36.932 443.788,48.397C427.73,59.862 424.001,82.208 435.466,98.266C444.777,111.307 450.25,127.27 450.25,144.5ZM6.695,72.106C-5.057,93.616 -11.75,118.283 -11.75,144.5C-11.75,144.5 -11.75,149.638 -11.75,158.382C-11.75,178.113 4.269,194.132 24,194.132C43.731,194.132 59.75,178.113 59.75,158.382L59.75,144.5C59.75,130.699 63.255,117.709 69.441,106.386C78.901,89.071 72.523,67.333 55.208,57.873C37.892,48.413 16.154,54.791 6.695,72.106ZM194.434,-6.75L139.5,-6.75C132.172,-6.75 124.965,-6.226 117.915,-5.215C98.384,-2.414 84.801,15.717 87.601,35.248C90.402,54.779 108.532,68.362 128.064,65.561C131.799,65.026 135.617,64.75 139.5,64.75L194.434,64.75C214.165,64.75 230.184,48.731 230.184,29C230.184,9.269 214.165,-6.75 194.434,-6.75ZM374,-6.71C372.837,-6.737 371.67,-6.75 370.5,-6.75C370.5,-6.75 340.271,-6.75 301.684,-6.75C281.953,-6.75 265.934,9.269 265.934,29C265.934,48.731 281.953,64.75 301.684,64.75L370.5,64.75C371.124,64.75 371.746,64.757 372.367,64.771C392.093,65.222 408.474,49.573 408.924,29.847C409.375,10.121 393.726,-6.259 374,-6.71Z" style="fill:rgb(0,200,193);"/>
    </g>
</svg>
