<?xml version="1.0" encoding="UTF-8" standalone="no"?><!DOCTYPE svg PUBLIC "-//W3C//DTD SVG 1.1//EN" "http://www.w3.org/Graphics/SVG/1.1/DTD/svg11.dtd"><svg width="100%" height="100%" viewBox="0 0 512 512" version="1.1" xmlns="http://www.w3.org/2000/svg" xmlns:xlink="http://www.w3.org/1999/xlink" xml:space="preserve" style="fill-rule:evenodd;clip-rule:evenodd;stroke-linejoin:round;stroke-miterlimit:2;"><path d="M255.999,76.752l-135.946,-1.325c-35.866,0 -65.017,29.151 -65.017,65.018l-0,295.535c-0,35.866 29.151,65.018 65.017,65.018l135.946,0l0,-424.246Zm0,-0l135.945,-1.325c35.867,0 65.019,29.151 65.019,65.018l-0,295.535c-0,35.866 -29.152,65.018 -65.019,65.018l-135.945,0l0,-424.246Z" style="fill:#8f5409;fill-rule:nonzero;"/><path d="M255.999,75.758l-135.945,-0.331c-35.867,-0 -65.019,29.152 -65.019,65.018l0,295.535c0,35.867 29.152,65.019 65.019,65.019l135.945,-0l0,-425.241Z" style="fill:#7a4708;fill-rule:nonzero;"/><path d="M344.66,52.481l-26.102,0c-7.731,-23.914 -32.863,-41.481 -62.559,-41.481c-29.694,0 -54.827,17.567 -62.559,41.481l-26.101,0c-9.789,0 -17.733,6.969 -17.733,15.556l0,27.577c0,20.015 18.56,36.296 41.376,36.296l130.036,0c22.815,0 41.374,-16.281 41.374,-36.296l0,-27.577c0,-8.587 -7.944,-15.556 -17.732,-15.556Z" style="fill:#647293;fill-rule:nonzero;"/><path d="M255.999,11c-29.694,-0 -54.827,17.567 -62.559,41.481l-26.101,-0c-9.789,-0 -17.733,6.969 -17.733,15.555l0,27.578c0,20.014 18.56,36.296 41.376,36.296l65.017,-0l0,-120.91Z" style="fill:#465067;fill-rule:nonzero;"/><path d="M275.347,435.951c-0,4.579 -1.819,8.968 -5.056,12.206c-3.186,3.187 -7.491,4.999 -11.991,5.055l-0.215,0.001l-40.833,0c-4.582,0 -8.976,-1.82 -12.217,-5.061c-3.24,-3.24 -5.06,-7.635 -5.06,-12.217l-0,-2.063l-0.001,-0.097l-0,-99.339l-100.535,0c-9.542,0 -17.277,-7.735 -17.277,-17.277l-0,-2.06l-0.001,-0.101l-0,-35.856l0.001,-0.1l-0,-2.058c-0,-9.542 7.735,-17.277 17.277,-17.277l2.011,-0l0.149,-0.001l98.375,-0l-0,-98.375c-0,-5.156 2.048,-10.1 5.694,-13.745c3.644,-3.645 8.588,-5.693 13.744,-5.693l36.497,-0c5.154,-0 10.098,2.048 13.744,5.693c3.645,3.645 5.694,8.589 5.694,13.745l-0,98.375l98.374,-0c5.155,-0 10.099,2.048 13.745,5.693c3.645,3.645 5.694,8.589 5.694,13.743l-0,35.856c-0,5.156 -2.049,10.099 -5.694,13.745c-3.646,3.645 -8.59,5.692 -13.745,5.692l-52.348,-0l0.001,0.001l-46.027,0l-0,101.515Z" style="fill-opacity:0.75;fill-rule:nonzero;"/><path d="M294.026,417.272c-0,4.579 -1.818,8.968 -5.056,12.206c-3.186,3.187 -7.491,4.999 -11.991,5.055l-0.215,0.001l-40.833,-0c-4.582,-0 -8.976,-1.82 -12.217,-5.061c-3.24,-3.24 -5.06,-7.635 -5.06,-12.217l0,-2.063l-0.001,-0.097l-0,-99.339l-100.535,-0c-9.542,-0 -17.277,-7.735 -17.277,-17.277l0,-2.06l-0.001,-0.101l0,-35.856l0.001,-0.1l0,-2.058c0,-9.542 7.735,-17.277 17.277,-17.277l2.011,-0l0.149,-0.002l98.375,0l-0,-98.375c-0,-5.155 2.048,-10.099 5.694,-13.744c3.645,-3.645 8.588,-5.693 13.744,-5.693l36.497,-0c5.154,-0 10.098,2.048 13.744,5.693c3.645,3.645 5.694,8.589 5.694,13.744l-0,98.375l98.374,0c5.155,0 10.099,2.049 13.745,5.693c3.645,3.646 5.694,8.59 5.694,13.744l-0,35.856c-0,5.155 -2.049,10.099 -5.694,13.745c-3.646,3.644 -8.59,5.692 -13.745,5.692l-52.348,-0l0.001,0.001l-46.027,-0l-0,101.515Z" style="fill:url(#_Linear1);fill-rule:nonzero;"/><defs><linearGradient id="_Linear1" x1="0" y1="0" x2="1" y2="0" gradientUnits="userSpaceOnUse" gradientTransform="matrix(-244.159,232.999,-232.999,-244.159,344.999,195)"><stop offset="0" style="stop-color:#97f157;stop-opacity:1"/><stop offset="1" style="stop-color:#58d300;stop-opacity:1"/></linearGradient></defs></svg>