<?xml version="1.0" encoding="UTF-8" standalone="no"?>
<!DOCTYPE svg PUBLIC "-//W3C//DTD SVG 1.1//EN" "http://www.w3.org/Graphics/SVG/1.1/DTD/svg11.dtd">
<svg width="100%" height="100%" viewBox="0 0 512 512" version="1.1" xmlns="http://www.w3.org/2000/svg" xmlns:xlink="http://www.w3.org/1999/xlink" xml:space="preserve" style="fill-rule:evenodd;clip-rule:evenodd;stroke-linejoin:round;stroke-miterlimit:2;">
    <g>
        <path d="M327.642,279.669L470.009,218.319C500.613,205.123 514.731,169.619 501.545,139.015C497.497,129.63 486.619,125.301 477.234,129.349L344.779,186.424C333.515,191.279 322.04,195.616 310.416,199.417L292.186,241.824L327.642,279.669Z" style="fill:rgb(178,176,188);fill-rule:nonzero;"/>
        <path d="M189.77,193.911C161.052,159.214 111.879,146.019 68.421,164.737C15.533,187.529 -8.812,248.967 14.181,301.819C37.131,354.557 98.999,378.183 151.817,355.427L229.927,321.767L252.221,264.541L229.927,215.369C214.44,213.779 199.927,206.194 189.77,193.911ZM129.666,306.859C103.995,317.921 74.109,306.034 63.047,280.363C51.985,254.701 63.872,224.815 89.543,213.753C115.214,202.691 145.091,214.578 156.153,240.25C167.215,265.911 155.328,295.797 129.666,306.859Z" style="fill:rgb(153,0,0);fill-rule:nonzero;"/>
        <path d="M229.927,215.369L229.927,60.341C229.927,43.678 236.679,28.595 247.6,17.673C258.521,6.751 273.605,0 290.268,0C300.487,0 308.766,8.279 308.766,18.498L308.766,162.727C308.766,174.993 309.319,187.231 310.416,199.416L274.614,228.962L229.927,215.369Z" style="fill:rgb(199,197,203);fill-rule:nonzero;"/>
        <path d="M199.022,202.894L199.022,335.084L229.927,321.766L252.221,264.54L229.927,215.368C218.676,214.214 207.948,209.881 199.022,202.894Z" style="fill:rgb(255,101,101);fill-rule:nonzero;"/>
        <path d="M351.843,257.699C346.639,237.726 343.058,217.179 341.197,196.63L340.437,188.236C330.568,192.354 320.554,196.101 310.417,199.416L292.187,241.823L327.642,279.669L356.35,267.298C355.719,266.418 355.131,265.505 354.601,264.555C353.397,262.412 352.469,260.099 351.843,257.699Z" style="fill:rgb(161,157,174);fill-rule:nonzero;"/>
        <path d="M363.234,308.053C347.931,303.576 335.227,293.251 327.642,279.669C325.166,275.253 323.243,270.504 321.936,265.491C316.29,243.823 312.436,221.717 310.417,199.417C289.136,206.397 267.328,211.612 245.194,215.001C240.076,215.782 234.949,215.896 229.927,215.37L229.927,406.813C229.927,464.327 276.107,511.806 333.613,512C391.259,512.202 438.044,465.539 438.044,407.947C438.043,360.624 406.464,320.686 363.234,308.053ZM333.981,458.638C306.036,458.638 283.297,435.898 283.297,407.946C283.297,379.992 306.036,357.253 333.981,357.253C361.935,357.253 384.673,379.993 384.673,407.946C384.674,435.899 361.935,458.638 333.981,458.638Z" style="fill:rgb(255,0,0);fill-rule:nonzero;"/>
        <circle cx="274.615" cy="253.847" r="17.572" style="fill:rgb(199,197,203);"/>
    </g>
</svg>
