<?xml version="1.0" encoding="UTF-8" standalone="no"?>
<!DOCTYPE svg PUBLIC "-//W3C//DTD SVG 1.1//EN" "http://www.w3.org/Graphics/SVG/1.1/DTD/svg11.dtd">
<svg width="100%" height="100%" viewBox="0 0 512 512" version="1.1" xmlns="http://www.w3.org/2000/svg" xmlns:xlink="http://www.w3.org/1999/xlink" xml:space="preserve" style="fill-rule:evenodd;clip-rule:evenodd;stroke-linejoin:round;stroke-miterlimit:2;">
    <g transform="matrix(0.93617,0,0,0.93617,16.3403,16.3403)">
        <g transform="matrix(1.50558,0,0,-1.50558,-129.429,641.423)">
            <path d="M335.53,255.997L403.486,188.042C414.952,176.575 414.952,157.985 403.486,146.518L365.479,108.511C354.013,97.045 335.423,97.045 323.955,108.511L255.999,176.467L188.044,108.511C176.577,97.045 157.986,97.045 146.52,108.511L108.513,146.518C97.047,157.984 97.047,176.575 108.513,188.042L176.469,255.997L108.513,323.953C97.047,335.42 97.047,354.01 108.513,365.477L146.52,403.484C157.986,414.95 176.576,414.95 188.044,403.484L255.999,335.528L323.955,403.484C335.422,414.95 354.012,414.95 365.479,403.484L403.486,365.477C414.952,354.011 414.952,335.42 403.486,323.953L335.53,255.997Z" style="fill:rgb(234,50,55);fill-rule:nonzero;"/>
        </g>
        <g transform="matrix(1.50558,0,0,-1.50558,-129.429,641.423)">
            <path d="M273.574,194.042L359.103,108.512C360.109,107.506 361.185,106.621 362.291,105.792C350.791,97.166 334.417,98.051 323.956,108.512L256.001,176.468L273.574,194.042Z" style="fill:rgb(156,13,16);fill-rule:nonzero;"/>
        </g>
        <g transform="matrix(1.50558,0,0,-1.50558,-129.429,641.423)">
            <path d="M181.667,403.483L143.661,365.476C132.195,354.01 132.195,335.419 143.661,323.952L211.617,255.996L143.661,188.041C132.195,176.574 132.195,157.984 143.661,146.517L181.667,108.51C182.673,107.504 183.75,106.619 184.856,105.79C173.354,97.164 156.981,98.049 146.521,108.51L108.514,146.517C97.048,157.983 97.048,176.574 108.514,188.041L176.47,255.996L108.514,323.952C97.048,335.419 97.048,354.009 108.514,365.476L146.521,403.483C156.981,413.944 173.355,414.829 184.856,406.203C183.751,405.374 182.673,404.489 181.667,403.483Z" style="fill:rgb(156,13,16);fill-rule:nonzero;"/>
        </g>
        <g transform="matrix(1.50558,0,0,-1.50558,-129.429,641.423)">
            <path d="M359.103,403.483L273.574,317.953L256.001,335.527L323.956,403.483C334.417,413.944 350.791,414.829 362.291,406.203C361.185,405.374 360.109,404.489 359.103,403.483Z" style="fill:rgb(156,13,16);fill-rule:nonzero;"/>
        </g>
    </g>
</svg>
