<?xml version="1.0" encoding="UTF-8" standalone="no"?>
<!DOCTYPE svg PUBLIC "-//W3C//DTD SVG 1.1//EN" "http://www.w3.org/Graphics/SVG/1.1/DTD/svg11.dtd">
<svg width="100%" height="100%" viewBox="0 0 512 512" version="1.1" xmlns="http://www.w3.org/2000/svg" xmlns:xlink="http://www.w3.org/1999/xlink" xml:space="preserve" xmlns:serif="http://www.serif.com/" style="fill-rule:evenodd;clip-rule:evenodd;stroke-linejoin:round;stroke-miterlimit:2;">
    <g transform="matrix(1.15996e-16,-1.89436,2.1577,1.32121e-16,-273.48,1005.91)">
        <g transform="matrix(3.13793e-17,0.449918,-0.512462,2.75495e-17,474.784,133.427)">
            <path d="M457.429,120.429L390.286,120.429C371.757,120.429 356.715,135.471 356.715,154C356.715,172.529 371.757,187.571 390.286,187.571L457.429,187.571C475.957,187.571 491,172.529 491,154C491,135.471 475.957,120.429 457.429,120.429Z" style="fill:rgb(0,200,193);"/>
        </g>
        <g transform="matrix(3.13793e-17,0.449918,-0.512462,2.75495e-17,576.251,127.063)">
            <path d="M121.714,318.429L54.571,318.429C36.043,318.429 21,333.471 21,352C21,370.529 36.043,385.571 54.571,385.571L121.714,385.571C140.243,385.571 155.286,370.529 155.286,352C155.286,333.471 140.243,318.429 121.714,318.429Z" style="fill:rgb(0,200,193);"/>
        </g>
        <g transform="matrix(3.13793e-17,0.449918,-0.512462,2.75495e-17,527.055,130.213)">
            <path d="M289.571,222.429L222.428,222.429C203.9,222.429 188.857,237.471 188.857,256C188.857,274.529 203.9,289.571 222.428,289.571L289.571,289.571C308.1,289.571 323.143,274.529 323.143,256C323.143,237.471 308.1,222.429 289.571,222.429Z" style="fill:rgb(0,200,193);"/>
        </g>
    </g>
</svg>
