<?xml version="1.0" encoding="UTF-8" standalone="no"?>
<!DOCTYPE svg PUBLIC "-//W3C//DTD SVG 1.1//EN" "http://www.w3.org/Graphics/SVG/1.1/DTD/svg11.dtd">
<svg width="100%" height="100%" viewBox="0 0 512 512" version="1.1" xmlns="http://www.w3.org/2000/svg" xmlns:xlink="http://www.w3.org/1999/xlink" xml:space="preserve" xmlns:serif="http://www.serif.com/" style="fill-rule:evenodd;clip-rule:evenodd;stroke-linejoin:round;stroke-miterlimit:2;">
    <g transform="matrix(0.973182,0,0,0.973182,15.9597,16)">
        <g transform="matrix(1.17018,0,0,1.17018,21.4772,-30.5416)">
            <path d="M192.43,79.447L73.053,78.284C41.558,78.284 15.96,103.882 15.96,135.377L15.96,394.892C15.96,426.387 41.558,451.986 73.053,451.986L192.43,451.986L192.43,79.447ZM192.43,79.447L311.806,78.284C343.301,78.284 368.9,103.882 368.9,135.377L368.9,394.892C368.9,426.387 343.301,451.986 311.806,451.986L192.43,451.986L192.43,79.447Z" style="fill:rgb(143,84,9);fill-rule:nonzero;"/>
        </g>
        <g transform="matrix(1.1388,0,0,1.1388,40.153,-11.8187)">
            <path d="M181.333,64.299L58.667,64C26.304,64 0,90.304 0,122.667L0,389.333C0,421.696 26.304,448 58.667,448L181.333,448L181.333,64.299Z" style="fill:rgb(122,71,8);fill-rule:nonzero;"/>
        </g>
        <g transform="matrix(1.1388,0,0,0.998989,40.153,-5.13779)">
            <path d="M261.333,42.667L237.781,42.667C230.805,18.069 208.128,0 181.333,0C154.539,0 131.861,18.069 124.885,42.667L101.333,42.667C92.501,42.667 85.333,49.835 85.333,58.667L85.333,101.333C85.333,121.92 102.08,138.667 122.667,138.667L240,138.667C260.587,138.667 277.333,121.92 277.333,101.333L277.333,58.667C277.333,49.835 270.165,42.667 261.333,42.667Z" style="fill:rgb(100,114,147);fill-rule:nonzero;"/>
        </g>
        <g transform="matrix(1.1388,0,0,0.998989,40.153,-5.13779)">
            <path d="M181.333,0C154.539,0 131.861,18.069 124.885,42.667L101.333,42.667C92.501,42.667 85.333,49.835 85.333,58.667L85.333,101.333C85.333,121.92 102.08,138.667 122.667,138.667L181.333,138.667L181.333,0Z" style="fill:rgb(70,80,103);fill-rule:nonzero;"/>
        </g>
    </g>
    <g transform="matrix(0.963449,0,0,0.963449,-180.724,-94.2552)">
        <g transform="matrix(1.1388,0,0,1.1388,15.9926,-18.9638)">
            <path d="M474.667,213.333L293.333,213.333C272.725,213.333 256,230.059 256,250.667L256,474.667C256,495.275 272.725,512 293.333,512L474.667,512C495.275,512 512,495.275 512,474.667L512,250.667C512,230.059 495.275,213.333 474.667,213.333Z" style="fill:rgb(236,239,241);fill-rule:nonzero;"/>
        </g>
        <g transform="matrix(1.1388,0,0,1.1388,15.9926,-6.13634)">
            <path d="M429.333,405.333L333.333,405.333C324.501,405.333 317.333,398.165 317.333,389.333C317.333,380.501 324.501,373.333 333.333,373.333L429.333,373.333C438.165,373.333 445.333,380.501 445.333,389.333C445.333,398.165 438.165,405.333 429.333,405.333Z" style="fill:rgb(144,164,174);fill-rule:nonzero;"/>
        </g>
        <g transform="matrix(1.1388,0,0,1.1388,15.9926,-6.13634)">
            <path d="M429.333,341.333L333.333,341.333C324.501,341.333 317.333,334.165 317.333,325.333C317.333,316.501 324.501,309.333 333.333,309.333L429.333,309.333C438.165,309.333 445.333,316.501 445.333,325.333C445.333,334.165 438.165,341.333 429.333,341.333Z" style="fill:rgb(144,164,174);fill-rule:nonzero;"/>
        </g>
        <g transform="matrix(1.1388,0,0,1.1388,15.9926,-6.13634)">
            <path d="M384,373.333L333.333,373.333C324.501,373.333 317.333,380.501 317.333,389.333C317.333,398.165 324.501,405.333 333.333,405.333L384,405.333L384,373.333Z" style="fill:rgb(125,143,151);fill-rule:nonzero;"/>
        </g>
        <g transform="matrix(1.1388,0,0,1.1388,15.9926,-6.13634)">
            <path d="M384,309.333L333.333,309.333C324.501,309.333 317.333,316.501 317.333,325.333C317.333,334.165 324.501,341.333 333.333,341.333L384,341.333L384,309.333Z" style="fill:rgb(125,143,151);fill-rule:nonzero;"/>
        </g>
    </g>
</svg>
