<?xml version="1.0" encoding="UTF-8" standalone="no"?><!DOCTYPE svg PUBLIC "-//W3C//DTD SVG 1.1//EN" "http://www.w3.org/Graphics/SVG/1.1/DTD/svg11.dtd"><svg width="100%" height="100%" viewBox="0 0 512 512" version="1.1" xmlns="http://www.w3.org/2000/svg" xmlns:xlink="http://www.w3.org/1999/xlink" xml:space="preserve" xmlns:serif="http://www.serif.com/" style="fill-rule:evenodd;clip-rule:evenodd;stroke-linejoin:round;stroke-miterlimit:2;"><path d="M140,36c5.304,-0 10.391,2.107 14.142,5.858c3.751,3.751 5.858,8.838 5.858,14.142c-0,23.104 -0,60.894 -0,83.998c-0,5.305 -2.107,10.392 -5.858,14.142c-3.751,3.751 -8.838,5.858 -14.142,5.858c-23.105,0 -60.895,0 -84,0c-5.304,0 -10.391,-2.107 -14.142,-5.858c-3.751,-3.75 -5.858,-8.837 -5.858,-14.142c-0,-23.104 -0,-60.894 -0,-83.998c0,-5.304 2.107,-10.391 5.858,-14.142c3.751,-3.751 8.838,-5.858 14.142,-5.858c23.105,0 60.895,0 84,0Z" style="fill:url(#_Linear1);"/><path d="M456,36c5.304,-0 10.391,2.107 14.142,5.858c3.751,3.751 5.858,8.838 5.858,14.142c-0,23.104 -0,60.894 -0,83.998c-0,5.305 -2.107,10.392 -5.858,14.142c-3.751,3.751 -8.838,5.858 -14.142,5.858c-23.105,0 -60.895,0 -84,0c-5.304,0 -10.391,-2.107 -14.142,-5.858c-3.751,-3.75 -5.858,-8.837 -5.858,-14.142c-0,-23.104 -0,-60.894 -0,-83.998c0,-5.304 2.107,-10.391 5.858,-14.142c3.751,-3.751 8.838,-5.858 14.142,-5.858c23.105,0 60.895,0 84,0Z" style="fill:url(#_Linear2);"/><path d="M140,352.002c5.304,-0 10.391,2.107 14.142,5.858c3.751,3.75 5.858,8.837 5.858,14.142c0,23.104 0,60.894 0,83.998c-0,5.304 -2.107,10.391 -5.858,14.142c-3.751,3.751 -8.838,5.858 -14.142,5.858c-23.105,-0 -60.895,-0 -84,-0c-5.304,0 -10.391,-2.107 -14.142,-5.858c-3.751,-3.751 -5.858,-8.838 -5.858,-14.142c0,-23.104 0,-60.894 0,-83.998c0,-5.305 2.107,-10.392 5.858,-14.142c3.751,-3.751 8.838,-5.858 14.142,-5.858c23.105,-0 60.895,-0 84,-0Z" style="fill:url(#_Linear3);"/><path d="M456,352.002c5.304,-0 10.391,2.107 14.142,5.858c3.751,3.75 5.858,8.837 5.858,14.142c-0,23.104 -0,60.894 -0,83.998c-0,5.304 -2.107,10.391 -5.858,14.142c-3.751,3.751 -8.838,5.858 -14.142,5.858c-23.105,-0 -60.895,-0 -84,-0c-5.304,0 -10.391,-2.107 -14.142,-5.858c-3.751,-3.751 -5.858,-8.838 -5.858,-14.142c-0,-23.104 -0,-60.894 -0,-83.998c0,-5.305 2.107,-10.392 5.858,-14.142c3.751,-3.751 8.838,-5.858 14.142,-5.858c23.105,-0 60.895,-0 84,-0Z" style="fill:url(#_Linear4);"/><defs><linearGradient id="_Linear1" x1="0" y1="0" x2="1" y2="0" gradientUnits="userSpaceOnUse" gradientTransform="matrix(-118.129,120.126,-120.126,-118.129,157.069,38.4302)"><stop offset="0" style="stop-color:#e0e9eb;stop-opacity:1"/><stop offset="1" style="stop-color:#c2d4d7;stop-opacity:1"/></linearGradient><linearGradient id="_Linear2" x1="0" y1="0" x2="1" y2="0" gradientUnits="userSpaceOnUse" gradientTransform="matrix(-118.129,120.126,-120.126,-118.129,473.069,38.4302)"><stop offset="0" style="stop-color:#e0e9eb;stop-opacity:1"/><stop offset="1" style="stop-color:#c2d4d7;stop-opacity:1"/></linearGradient><linearGradient id="_Linear3" x1="0" y1="0" x2="1" y2="0" gradientUnits="userSpaceOnUse" gradientTransform="matrix(-118.129,120.126,-120.126,-118.129,157.069,354.432)"><stop offset="0" style="stop-color:#e0e9eb;stop-opacity:1"/><stop offset="1" style="stop-color:#c2d4d7;stop-opacity:1"/></linearGradient><linearGradient id="_Linear4" x1="0" y1="0" x2="1" y2="0" gradientUnits="userSpaceOnUse" gradientTransform="matrix(-118.129,120.126,-120.126,-118.129,473.069,354.432)"><stop offset="0" style="stop-color:#e0e9eb;stop-opacity:1"/><stop offset="1" style="stop-color:#c2d4d7;stop-opacity:1"/></linearGradient></defs></svg>