<?xml version="1.0" encoding="UTF-8" standalone="no"?><!DOCTYPE svg PUBLIC "-//W3C//DTD SVG 1.1//EN" "http://www.w3.org/Graphics/SVG/1.1/DTD/svg11.dtd"><svg width="100%" height="100%" viewBox="0 0 512 512" version="1.1" xmlns="http://www.w3.org/2000/svg" xmlns:xlink="http://www.w3.org/1999/xlink" xml:space="preserve" xmlns:serif="http://www.serif.com/" style="fill-rule:evenodd;clip-rule:evenodd;stroke-linejoin:round;stroke-miterlimit:2;"><path d="M91.998,159.998l-35.998,0c-5.304,0 -10.391,-2.107 -14.142,-5.858c-3.751,-3.75 -5.858,-8.837 -5.858,-14.142l-0,-83.998c0,-5.304 2.107,-10.391 5.858,-14.142c3.751,-3.751 8.838,-5.858 14.142,-5.858l84,0c5.304,-0 10.391,2.107 14.142,5.858c3.751,3.751 5.858,8.838 5.858,14.142l0,36l-28.002,0c-10.609,-0 -20.783,4.214 -28.284,11.716c-7.502,7.501 -11.716,17.675 -11.716,28.284l-0,27.998Z" style="fill:url(#_Linear1);"/><path d="M352,92l-0,-36c0,-5.304 2.107,-10.391 5.858,-14.142c3.751,-3.751 8.838,-5.858 14.142,-5.858l84,0c5.304,-0 10.391,2.107 14.142,5.858c3.751,3.751 5.858,8.838 5.858,14.142l-0,83.998c-0,5.305 -2.107,10.392 -5.858,14.142c-3.751,3.751 -8.838,5.858 -14.142,5.858l-35.998,0l0,-27.998c0,-10.609 -4.214,-20.783 -11.716,-28.284c-7.501,-7.502 -17.675,-11.716 -28.284,-11.716l-28.002,0Z" style="fill:url(#_Linear2);"/><path d="M160,420l0,36c-0,5.304 -2.107,10.391 -5.858,14.142c-3.751,3.751 -8.838,5.858 -14.142,5.858l-84,-0c-5.304,0 -10.391,-2.107 -14.142,-5.858c-3.751,-3.751 -5.858,-8.838 -5.858,-14.142l0,-83.998c0,-5.305 2.107,-10.392 5.858,-14.142c3.751,-3.751 8.838,-5.858 14.142,-5.858l35.998,-0l-0,27.998c-0,10.609 4.214,20.783 11.716,28.284c7.501,7.502 17.675,11.716 28.284,11.716l28.002,-0Z" style="fill:url(#_Linear3);"/><path d="M420.002,352.002l35.998,-0c5.304,-0 10.391,2.107 14.142,5.858c3.751,3.75 5.858,8.837 5.858,14.142l-0,83.998c-0,5.304 -2.107,10.391 -5.858,14.142c-3.751,3.751 -8.838,5.858 -14.142,5.858l-84,-0c-5.304,0 -10.391,-2.107 -14.142,-5.858c-3.751,-3.751 -5.858,-8.838 -5.858,-14.142l-0,-36l28.002,-0c10.609,0 20.783,-4.214 28.284,-11.716c7.502,-7.501 11.716,-17.675 11.716,-28.284l0,-27.998Z" style="fill:url(#_Linear4);"/><defs><linearGradient id="_Linear1" x1="0" y1="0" x2="1" y2="0" gradientUnits="userSpaceOnUse" gradientTransform="matrix(-118.129,120.126,-120.126,-118.129,157.069,38.4302)"><stop offset="0" style="stop-color:#e0e9eb;stop-opacity:1"/><stop offset="1" style="stop-color:#c2d4d7;stop-opacity:1"/></linearGradient><linearGradient id="_Linear2" x1="0" y1="0" x2="1" y2="0" gradientUnits="userSpaceOnUse" gradientTransform="matrix(-118.129,120.126,-120.126,-118.129,473.069,38.4302)"><stop offset="0" style="stop-color:#e0e9eb;stop-opacity:1"/><stop offset="1" style="stop-color:#c2d4d7;stop-opacity:1"/></linearGradient><linearGradient id="_Linear3" x1="0" y1="0" x2="1" y2="0" gradientUnits="userSpaceOnUse" gradientTransform="matrix(-118.129,120.126,-120.126,-118.129,157.069,354.432)"><stop offset="0" style="stop-color:#e0e9eb;stop-opacity:1"/><stop offset="1" style="stop-color:#c2d4d7;stop-opacity:1"/></linearGradient><linearGradient id="_Linear4" x1="0" y1="0" x2="1" y2="0" gradientUnits="userSpaceOnUse" gradientTransform="matrix(-118.129,120.126,-120.126,-118.129,473.069,354.432)"><stop offset="0" style="stop-color:#e0e9eb;stop-opacity:1"/><stop offset="1" style="stop-color:#c2d4d7;stop-opacity:1"/></linearGradient></defs></svg>