<?xml version="1.0" encoding="UTF-8" standalone="no"?><!DOCTYPE svg PUBLIC "-//W3C//DTD SVG 1.1//EN" "http://www.w3.org/Graphics/SVG/1.1/DTD/svg11.dtd"><svg width="100%" height="100%" viewBox="0 0 512 512" version="1.1" xmlns="http://www.w3.org/2000/svg" xmlns:xlink="http://www.w3.org/1999/xlink" xml:space="preserve" style="fill-rule:evenodd;clip-rule:evenodd;stroke-linejoin:round;stroke-miterlimit:2;"><path d="M180,112l152,0l-0,27.998c0,10.609 4.214,20.783 11.716,28.284c7.501,7.502 17.675,11.716 28.284,11.716l28.002,0l0,152.004l-28.002,-0c-10.609,-0 -20.783,4.214 -28.284,11.716c-7.502,7.501 -11.716,17.675 -11.716,28.284l-0,27.998l-152,-0l0,-27.998c-0,-10.609 -4.214,-20.783 -11.716,-28.284c-7.501,-7.502 -17.675,-11.716 -28.284,-11.716l-28.002,-0l-0,-152.004l28.002,0c10.609,0 20.783,-4.214 28.284,-11.716c7.502,-7.501 11.716,-17.675 11.716,-28.284l0,-27.998Z" style="fill:url(#_Linear1);"/><defs><linearGradient id="_Linear1" x1="0" y1="0" x2="1" y2="0" gradientUnits="userSpaceOnUse" gradientTransform="matrix(-274.999,279.372,-279.372,-274.999,394.054,117.28)"><stop offset="0" style="stop-color:#09a2c1;stop-opacity:1"/><stop offset="1" style="stop-color:#0094b2;stop-opacity:1"/></linearGradient></defs></svg>