<?xml version="1.0" encoding="UTF-8" standalone="no"?><!DOCTYPE svg PUBLIC "-//W3C//DTD SVG 1.1//EN" "http://www.w3.org/Graphics/SVG/1.1/DTD/svg11.dtd"><svg width="100%" height="100%" viewBox="0 0 513 513" version="1.1" xmlns="http://www.w3.org/2000/svg" xmlns:xlink="http://www.w3.org/1999/xlink" xml:space="preserve" xmlns:serif="http://www.serif.com/" style="fill-rule:evenodd;clip-rule:evenodd;stroke-linejoin:round;stroke-miterlimit:2;"><path d="M249.718,148.588l-195.549,94.401c-10.889,5.257 -10.889,20.767 0,26.023l195.549,94.402c3.969,1.915 8.595,1.915 12.563,-0l195.549,-94.402c10.89,-5.256 10.89,-20.766 0,-26.023l-195.549,-94.401c-3.968,-1.916 -8.594,-1.916 -12.563,-0Z" style="fill:url(#_Linear1);fill-rule:nonzero;"/><path d="M71.705,258.506c-0,0 -14.966,-6.153 -16.779,-15.883l-0.757,0.366c-1.701,0.821 -3.137,1.893 -4.306,3.137c-6.317,6.717 -4.881,18.451 4.307,22.887l166.974,80.606l28.574,13.794c3.673,1.774 8.336,2.041 12.563,0l13.368,-6.453l-203.944,-98.454Z" style="fill-opacity:0.24;fill-rule:nonzero;"/><defs><linearGradient id="_Linear1" x1="0" y1="0" x2="1" y2="0" gradientUnits="userSpaceOnUse" gradientTransform="matrix(-192.57,112.22,-112.22,-192.57,333.991,192.694)"><stop offset="0" style="stop-color:#e0e9eb;stop-opacity:1"/><stop offset="1" style="stop-color:#c2d4d7;stop-opacity:1"/></linearGradient></defs></svg>