<?xml version="1.0" encoding="UTF-8" standalone="no"?><!DOCTYPE svg PUBLIC "-//W3C//DTD SVG 1.1//EN" "http://www.w3.org/Graphics/SVG/1.1/DTD/svg11.dtd"><svg width="100%" height="100%" viewBox="0 0 513 513" version="1.1" xmlns="http://www.w3.org/2000/svg" xmlns:xlink="http://www.w3.org/1999/xlink" xml:space="preserve" xmlns:serif="http://www.serif.com/" style="fill-rule:evenodd;clip-rule:evenodd;stroke-linejoin:round;stroke-miterlimit:2;"><path d="M249.719,49.032l-195.549,94.402c-10.889,5.256 -10.889,20.767 0,26.023l195.549,94.402c3.969,1.915 8.594,1.915 12.563,-0l195.549,-94.402c10.89,-5.256 10.89,-20.767 -0,-26.023l-195.549,-94.402c-3.969,-1.916 -8.594,-1.916 -12.563,0Z" style="fill:url(#_Linear1);fill-rule:nonzero;"/><path d="M51.09,145.425c-7.681,6.434 -6.659,19.33 3.08,24.031l195.549,94.402c3.969,1.915 8.594,1.915 12.563,-0l13.368,-6.454l-203.945,-98.452c-0,-0 -13.867,-5.768 -20.615,-13.527Z" style="fill-opacity:0.24;fill-rule:nonzero;"/><defs><linearGradient id="_Linear1" x1="0" y1="0" x2="1" y2="0" gradientUnits="userSpaceOnUse" gradientTransform="matrix(-194.623,108.17,-108.17,-194.623,356.825,106.363)"><stop offset="0" style="stop-color:#d5eeec;stop-opacity:1"/><stop offset="1" style="stop-color:#a0b2b0;stop-opacity:1"/></linearGradient></defs></svg>