<?xml version="1.0" encoding="UTF-8" standalone="no"?><!DOCTYPE svg PUBLIC "-//W3C//DTD SVG 1.1//EN" "http://www.w3.org/Graphics/SVG/1.1/DTD/svg11.dtd"><svg width="100%" height="100%" viewBox="0 0 1024 1024" version="1.1" xmlns="http://www.w3.org/2000/svg" xmlns:xlink="http://www.w3.org/1999/xlink" xml:space="preserve" style="fill-rule:evenodd;clip-rule:evenodd;stroke-linejoin:round;stroke-miterlimit:2;"><circle cx="512" cy="598.341" r="165" style="fill:url(#_Linear1);"/><path d="M230.214,887.715l-6.402,-0.132l-0.82,-0.051l-0.632,-0.016l-1.633,-0.125l-3.25,-0.201l-1.685,-0.174l-1.183,-0.09l-1.36,-0.173l-2.035,-0.211l-2.689,-0.39l-1.555,-0.198l-0.832,-0.149l-1.11,-0.161l-4.371,-0.819l-1.204,-0.215l-0.235,-0.054c-2.28,-0.471 -4.541,-0.992 -6.778,-1.567l-0.373,-0.086l-1.408,-0.4l-3.674,-1.003l-1.244,-0.395l-0.919,-0.261l-1.399,-0.474l-2.263,-0.718l-2.091,-0.756l-1.341,-0.454l-0.959,-0.379l-1.332,-0.482l-3.235,-1.32l-1.407,-0.555l-0.426,-0.193c-2.092,-0.892 -4.16,-1.831 -6.205,-2.807l-0.133,-0.06l-0.826,-0.423l-4.263,-2.149l-0.843,-0.468l-0.653,-0.334l-1.34,-0.771l-2.422,-1.344l-1.554,-0.944l-1.079,-0.62l-1.017,-0.653l-1.478,-0.897l-2.398,-1.588l-1.303,-0.836l-0.558,-0.397l-0.735,-0.487l-4.134,-2.977l-0.561,-0.399l-0.074,-0.058c-1.796,-1.345 -3.562,-2.729 -5.29,-4.158l-0.406,-0.319l-1.162,-1.007l-2.498,-2.112l-1.078,-0.986l-0.804,-0.696l-0.992,-0.947l-1.53,-1.399l-1.71,-1.689l-1.073,-1.023l-0.619,-0.65l-0.843,-0.833l-2.636,-2.816l-0.96,-1.006l-0.215,-0.249c-1.5,-1.656 -2.965,-3.346 -4.392,-5.07l-0.194,-0.223l-0.831,-1.057l-2.492,-3.114l-0.673,-0.913l-0.54,-0.686l-0.875,-1.23l-1.463,-1.983l-1.13,-1.663l-0.791,-1.112l-0.597,-0.931l-0.847,-1.246l-1.676,-2.688l-0.854,-1.332l-0.28,-0.486c-1.162,-1.923 -2.282,-3.873 -3.364,-5.849l-2.751,-5.298l-0.352,-0.748l-0.306,-0.598l-0.659,-1.456l-1.251,-2.663l-0.649,-1.538l-0.501,-1.107l-0.48,-1.215l-0.726,-1.72l-0.946,-2.518l-0.584,-1.481l-0.254,-0.751l-0.354,-0.94l-1.423,-4.307l-0.371,-1.096l-0.121,-0.392l0.009,0c-4.397,-14.226 -6.759,-29.339 -6.759,-44.999l0,-305.428c0,-16.267 2.549,-31.944 7.295,-46.645l-0.028,0c0.622,-1.937 1.282,-3.858 1.981,-5.766l0.025,-0.075l0.227,-0.575l1.906,-4.911l0.345,-0.794l0.258,-0.654l0.657,-1.452l1.13,-2.602l0.758,-1.57l0.515,-1.139l0.572,-1.117l0.753,-1.561l1.325,-2.495l0.724,-1.412l0.352,-0.611l0.399,-0.75l2.599,-4.461l0.329,-0.573l0.046,-0.072c1.161,-1.907 2.362,-3.787 3.608,-5.626l0.32,-0.498l0.92,-1.294l1.739,-2.513l0.933,-1.243l0.667,-0.938l0.82,-1.043l1.138,-1.515l1.625,-2l0.953,-1.212l0.525,-0.607l0.631,-0.776l2.917,-3.319l0.728,-0.84l0.135,-0.141c1.497,-1.644 3.029,-3.254 4.597,-4.822l0.326,-0.342l1.101,-1.05l2.41,-2.35l1.039,-0.938l0.755,-0.72l1.045,-0.905l1.553,-1.402l1.83,-1.529l1.114,-0.965l0.701,-0.551l0.898,-0.75l3.13,-2.416l1.041,-0.819l0.243,-0.173c1.789,-1.333 3.607,-2.627 5.458,-3.882l0.287,-0.204l1.169,-0.75l3.159,-2.07l1.079,-0.648l0.789,-0.506l1.243,-0.715l1.988,-1.195l1.945,-1.067l1.219,-0.702l0.876,-0.449l1.185,-0.65l3.238,-1.617l1.286,-0.658l0.368,-0.167c2.037,-0.976 4.099,-1.909 6.182,-2.796l0.214,-0.097l1.087,-0.429l4.007,-1.619l1.058,-0.38l0.781,-0.308l1.412,-0.478l2.428,-0.871l1.977,-0.621l1.277,-0.433l1.047,-0.297l1.48,-0.465l3.248,-0.879l1.47,-0.418l0.506,-0.117c2.235,-0.57 4.49,-1.09 6.764,-1.562l0.116,-0.027l0.771,-0.138l5.021,-0.932l0.986,-0.142l0.739,-0.132l1.546,-0.197l2.863,-0.412l1.936,-0.198l1.294,-0.165l1.21,-0.092l1.769,-0.182l3.176,-0.195l1.596,-0.121l0.651,-0.017c2.387,-0.126 4.788,-0.182 7.203,-0.182l50.968,0l72.865,-105.898c15.212,-22.108 40.329,-35.315 67.166,-35.315l182.232,0c26.425,0 51.157,13.004 66.136,34.774l73.237,106.439l50.968,0l6.346,0.13l0.857,0.052l0.651,0.017l1.596,0.121l3.176,0.195l1.769,0.182l1.21,0.092l1.294,0.165l1.936,0.198l2.863,0.412l1.546,0.197l0.739,0.132l0.986,0.142l5.021,0.932l0.771,0.138l0.116,0.027c2.275,0.467 4.532,0.986 6.764,1.562l0.506,0.117l1.47,0.418l3.248,0.879l1.48,0.465l1.047,0.297l1.277,0.433l1.977,0.621l2.428,0.871l1.412,0.478l0.781,0.308l1.058,0.38l4.007,1.619l1.087,0.429l0.214,0.097c2.087,0.886 4.15,1.818 6.182,2.796l0.368,0.167l1.286,0.658l3.238,1.617l1.185,0.65l0.876,0.449l1.219,0.702l1.945,1.067l1.988,1.195l1.243,0.715l0.789,0.506l1.079,0.648l3.159,2.07l1.169,0.75l0.287,0.204c1.85,1.256 3.67,2.551 5.458,3.882l0.243,0.173l1.041,0.819l3.13,2.416l0.898,0.75l0.701,0.551l1.114,0.965l1.83,1.529l1.553,1.402l1.045,0.905l0.755,0.72l1.039,0.938l2.41,2.35l1.101,1.05l0.326,0.342c1.566,1.574 3.098,3.183 4.597,4.822l0.135,0.141l0.728,0.84l2.917,3.319l0.631,0.776l0.525,0.607l0.953,1.212l1.625,2l1.138,1.515l0.82,1.043l0.667,0.938l0.933,1.243l1.739,2.513l0.92,1.294l0.32,0.498c1.24,1.848 2.441,3.725 3.608,5.626l0.046,0.072l0.329,0.573l2.599,4.461l0.399,0.75l0.352,0.611l0.724,1.412l1.325,2.495l0.753,1.561l0.572,1.117l0.515,1.139l0.758,1.57l1.13,2.602l0.657,1.452l0.258,0.654l0.345,0.794l1.906,4.911l0.227,0.575l0.025,0.075c0.699,1.908 1.359,3.829 1.981,5.766l-0.028,0c4.746,14.701 7.295,30.378 7.295,46.645l0,305.428c0,15.66 -2.362,30.773 -6.759,44.999l0.009,0l-0.121,0.392l-0.371,1.096l-1.423,4.307l-0.354,0.94l-0.254,0.751l-0.584,1.481l-0.946,2.518l-0.726,1.72l-0.48,1.215l-0.501,1.107l-0.649,1.538l-1.251,2.663l-0.659,1.456l-0.306,0.598l-0.352,0.748l-2.751,5.298c-1.077,1.979 -2.196,3.932 -3.364,5.849l-0.28,0.486l-0.854,1.332l-1.676,2.688l-0.847,1.246l-0.597,0.931l-0.791,1.112l-1.13,1.663l-1.463,1.983l-0.875,1.23l-0.54,0.686l-0.673,0.913l-2.492,3.114l-0.831,1.057l-0.194,0.223c-1.426,1.722 -2.889,3.411 -4.392,5.07l-0.215,0.249l-0.96,1.006l-2.636,2.816l-0.843,0.833l-0.619,0.65l-1.073,1.023l-1.71,1.689l-1.53,1.399l-0.992,0.947l-0.804,0.696l-1.078,0.986l-2.498,2.112l-1.162,1.007l-0.406,0.319c-1.733,1.422 -3.498,2.806 -5.29,4.158l-0.074,0.058l-0.561,0.399l-4.134,2.977l-0.735,0.487l-0.558,0.397l-1.303,0.836l-2.398,1.588l-1.478,0.897l-1.017,0.653l-1.079,0.62l-1.554,0.944l-2.422,1.344l-1.34,0.771l-0.653,0.334l-0.843,0.468l-4.263,2.149l-0.826,0.423l-0.133,0.06c-2.043,0.983 -4.111,1.922 -6.205,2.807l-0.426,0.193l-1.407,0.555l-3.235,1.32l-1.332,0.482l-0.959,0.379l-1.341,0.454l-2.091,0.756l-2.263,0.718l-1.399,0.474l-0.919,0.261l-1.244,0.395l-3.674,1.003l-1.408,0.4l-0.373,0.086c-2.24,0.573 -4.5,1.096 -6.778,1.567l-0.235,0.054l-1.204,0.215l-4.371,0.819l-1.11,0.161l-0.832,0.149l-1.555,0.198l-2.689,0.39l-2.035,0.211l-1.36,0.173l-1.183,0.09l-1.685,0.174l-3.25,0.201l-1.633,0.125l-0.632,0.016c-2.39,0.126 -4.8,0.183 -7.222,0.183l-563.572,0Zm281.786,-514.374l0.727,0.001c123.857,0.402 224.273,101.067 224.273,224.999c-0,124.181 -100.819,225 -225,225c-124.181,0 -225,-100.819 -225,-225c-0,-124.181 100.819,-225 225,-225Zm-303,-45.5c41.394,0 75,33.606 75,75c-0,41.394 -33.606,75 -75,75c-41.394,0 -75,-33.606 -75,-75c-0,-41.394 33.606,-75 75,-75Zm227.198,-148.251l151.604,0c44.153,0 80,35.846 80,80c-0,44.153 -35.847,80 -80,80l-151.604,0c-44.153,0 -80,-35.847 -80,-80c-0,-44.154 35.847,-80 80,-80Z" style="fill:url(#_Linear2);"/><circle cx="209" cy="402.841" r="50" style="fill:#ff0101;"/><path d="M634.852,259.59c0,-12.996 -5.163,-25.459 -14.352,-34.648c-9.189,-9.19 -21.653,-14.352 -34.648,-14.352l-147.703,-0c-12.996,-0 -25.459,5.162 -34.648,14.352c-9.189,9.189 -14.352,21.652 -14.352,34.648c0,12.996 5.163,25.459 14.352,34.648c9.189,9.19 21.652,14.352 34.648,14.352l147.703,-0c12.995,-0 25.459,-5.162 34.648,-14.352c9.189,-9.189 14.352,-21.652 14.352,-34.648Z" style="fill:url(#_Linear3);"/><defs><linearGradient id="_Linear1" x1="0" y1="0" x2="1" y2="0" gradientUnits="userSpaceOnUse" gradientTransform="matrix(-161,264.159,-264.159,-161,587,460.841)"><stop offset="0" style="stop-color:#fff;stop-opacity:1"/><stop offset="1" style="stop-color:#508ffd;stop-opacity:1"/></linearGradient><linearGradient id="_Linear2" x1="0" y1="0" x2="1" y2="0" gradientUnits="userSpaceOnUse" gradientTransform="matrix(-238,789,-789,-238,792,290)"><stop offset="0" style="stop-color:#9ac1ff;stop-opacity:1"/><stop offset="1" style="stop-color:#1837ff;stop-opacity:1"/></linearGradient><linearGradient id="_Linear3" x1="0" y1="0" x2="1" y2="0" gradientUnits="userSpaceOnUse" gradientTransform="matrix(-218,73,-73,-218,617,223.999)"><stop offset="0" style="stop-color:#ffc965;stop-opacity:1"/><stop offset="1" style="stop-color:#ff8103;stop-opacity:1"/></linearGradient></defs></svg>