<?xml version="1.0" encoding="UTF-8" standalone="no"?><!DOCTYPE svg PUBLIC "-//W3C//DTD SVG 1.1//EN" "http://www.w3.org/Graphics/SVG/1.1/DTD/svg11.dtd"><svg width="100%" height="100%" viewBox="0 0 512 512" version="1.1" xmlns="http://www.w3.org/2000/svg" xmlns:xlink="http://www.w3.org/1999/xlink" xml:space="preserve" xmlns:serif="http://www.serif.com/" style="fill-rule:evenodd;clip-rule:evenodd;stroke-linejoin:round;stroke-miterlimit:2;"><circle cx="255.982" cy="255.993" r="256" style="fill:#08c;"/><circle cx="255.982" cy="255.993" r="185" style="fill:#069;"/><path d="M74.963,74.973c99.907,-99.907 262.131,-99.907 362.039,0c99.907,99.908 99.907,262.132 -0,362.039c-13.463,-104.182 -72.267,-165.969 -181.02,-181.019c-103.404,-16.034 -162.538,-77.372 -181.019,-181.02Z" style="fill:#0af;"/><path d="M412.452,354.684c-28.771,-54.772 -80.402,-88.164 -156.47,-98.691c-73.416,-11.385 -124.517,-45.606 -154.596,-101.594c33.094,-50.229 90.001,-83.406 154.596,-83.406c102.105,-0 185,82.895 185,185c0,36.273 -10.462,70.122 -28.53,98.691Z" style="fill:#0077b3;"/></svg>