<?xml version="1.0" encoding="UTF-8" standalone="no"?><!DOCTYPE svg PUBLIC "-//W3C//DTD SVG 1.1//EN" "http://www.w3.org/Graphics/SVG/1.1/DTD/svg11.dtd"><svg width="100%" height="100%" viewBox="0 0 513 513" version="1.1" xmlns="http://www.w3.org/2000/svg" xmlns:xlink="http://www.w3.org/1999/xlink" xml:space="preserve" style="fill-rule:evenodd;clip-rule:evenodd;stroke-linejoin:round;stroke-miterlimit:2;"><path d="M273.362,290.098l0,49.859l2.899,0c9.588,0 17.362,7.774 17.362,17.362c0,9.588 -7.774,17.362 -17.362,17.362l-2.899,0l0,66.595l2.899,0c9.588,0 17.362,7.774 17.362,17.362c0,9.588 -7.774,17.362 -17.362,17.362l-40.522,0c-9.588,0 -17.362,-7.774 -17.362,-17.362c0,-9.588 7.774,-17.362 17.362,-17.362l2.899,0l0,-66.595l-2.899,0c-9.588,0 -17.362,-7.774 -17.362,-17.362c0,-9.588 7.774,-17.362 17.362,-17.362l2.899,0l0,-49.859c0,0 11.114,-18.598 17.362,-18.598c6.248,0 17.362,18.598 17.362,18.598Zm-34.724,-68.196l-0,-49.859l-2.899,0c-9.588,0 -17.362,-7.774 -17.362,-17.362c-0,-9.588 7.774,-17.362 17.362,-17.362l2.899,0l-0,-66.595l-2.899,0c-9.588,0 -17.362,-7.774 -17.362,-17.362c-0,-9.588 7.774,-17.362 17.362,-17.362l40.522,0c9.588,0 17.362,7.774 17.362,17.362c-0,9.588 -7.774,17.362 -17.362,17.362l-2.899,0l-0,66.595l2.899,0c9.588,0 17.362,7.773 17.362,17.362c-0,9.588 -7.774,17.361 -17.362,17.361l-2.899,0l-0,49.86c-0,0 -11.114,20.098 -17.362,20.098c-6.248,0 -17.362,-20.098 -17.362,-20.098Z" style="fill:#bbff2f;fill-rule:nonzero;"/></svg>