<?xml version="1.0" encoding="UTF-8" standalone="no"?><!DOCTYPE svg PUBLIC "-//W3C//DTD SVG 1.1//EN" "http://www.w3.org/Graphics/SVG/1.1/DTD/svg11.dtd"><svg width="100%" height="100%" viewBox="0 0 512 512" version="1.1" xmlns="http://www.w3.org/2000/svg" xmlns:xlink="http://www.w3.org/1999/xlink" xml:space="preserve" style="fill-rule:evenodd;clip-rule:evenodd;stroke-linejoin:round;stroke-miterlimit:2;"><path d="M456.001,256c-0,110.383 -89.618,200.001 -200.001,200.001c-110.382,-0 -199.999,-89.618 -199.999,-200.001c-0,-110.383 89.617,-200.001 199.999,-200.001c110.383,0 200.001,89.618 200.001,200.001Z" style="fill:url(#_Linear1);"/><path d="M71.216,332.598l55.181,-54.497l173.14,173.139c-14.017,3.117 -28.586,4.761 -43.537,4.761c-83.255,-0 -154.697,-50.982 -184.784,-123.403Z" style="fill:url(#_Linear2);"/><path d="M159.389,431.127l220.841,-224.359l72.753,84.004c-16.478,93.833 -98.458,165.229 -196.983,165.229c-35.028,-0 -67.965,-9.025 -96.611,-24.874Z" style="fill:url(#_Linear3);"/><circle cx="241.321" cy="189.11" r="58.297" style="fill-opacity:0.49;"/><circle cx="246.679" cy="183.768" r="58.297" style="fill:url(#_Linear4);"/><circle cx="246.679" cy="176.045" r="58.297" style="fill:url(#_Linear5);"/><defs><linearGradient id="_Linear1" x1="0" y1="0" x2="1" y2="0" gradientUnits="userSpaceOnUse" gradientTransform="matrix(-369.032,371.099,-371.099,-369.032,442.443,68.5415)"><stop offset="0" style="stop-color:#3affff;stop-opacity:1"/><stop offset="1" style="stop-color:#0090ce;stop-opacity:1"/></linearGradient><linearGradient id="_Linear2" x1="0" y1="0" x2="1" y2="0" gradientUnits="userSpaceOnUse" gradientTransform="matrix(37.1429,71.7242,-71.7242,37.1429,321.284,280.146)"><stop offset="0" style="stop-color:#7dfa1d;stop-opacity:1"/><stop offset="1" style="stop-color:#4bad00;stop-opacity:1"/></linearGradient><linearGradient id="_Linear3" x1="0" y1="0" x2="1" y2="0" gradientUnits="userSpaceOnUse" gradientTransform="matrix(25.727,87.2918,-87.2918,25.727,229.126,247.738)"><stop offset="0" style="stop-color:#c6ff7b;stop-opacity:1"/><stop offset="1" style="stop-color:#8efb00;stop-opacity:1"/></linearGradient><linearGradient id="_Linear4" x1="0" y1="0" x2="1" y2="0" gradientUnits="userSpaceOnUse" gradientTransform="matrix(-7.12206e-15,116.312,116.312,7.12206e-15,246.679,125.686)"><stop offset="0" style="stop-color:#beb52b;stop-opacity:1"/><stop offset="0.01" style="stop-color:#beb52b;stop-opacity:1"/><stop offset="1" style="stop-color:#bd8b3e;stop-opacity:1"/></linearGradient><linearGradient id="_Linear5" x1="0" y1="0" x2="1" y2="0" gradientUnits="userSpaceOnUse" gradientTransform="matrix(-7.12206e-15,116.312,116.312,7.12206e-15,246.679,117.98)"><stop offset="0" style="stop-color:#fcf039;stop-opacity:1"/><stop offset="0.01" style="stop-color:#fcf039;stop-opacity:1"/><stop offset="1" style="stop-color:#fbb953;stop-opacity:1"/></linearGradient></defs></svg>