<?xml version="1.0" encoding="UTF-8" standalone="no"?><!DOCTYPE svg PUBLIC "-//W3C//DTD SVG 1.1//EN" "http://www.w3.org/Graphics/SVG/1.1/DTD/svg11.dtd"><svg width="100%" height="100%" viewBox="0 0 1024 1024" version="1.1" xmlns="http://www.w3.org/2000/svg" xmlns:xlink="http://www.w3.org/1999/xlink" xml:space="preserve" style="fill-rule:evenodd;clip-rule:evenodd;stroke-linejoin:round;stroke-miterlimit:2;"><path d="M475.895,95.784l0,-37.68c0,-9.575 3.804,-18.759 10.575,-25.529c6.77,-6.772 15.954,-10.575 25.53,-10.575l0.002,0c9.575,0 18.759,3.803 25.529,10.575c6.771,6.77 10.575,15.954 10.575,25.529l-0,37.68c201.821,17.296 362.832,178.312 380.111,380.111l37.68,0c9.575,0 18.759,3.804 25.529,10.575c6.772,6.77 10.575,15.954 10.575,25.53l0,0.002c0,9.575 -3.803,18.759 -10.575,25.529c-6.77,6.771 -15.954,10.575 -25.529,10.575l-37.68,-0c-17.296,201.821 -178.311,362.832 -380.111,380.111l-0,37.68c-0,9.575 -3.804,18.759 -10.575,25.529c-6.77,6.772 -15.954,10.575 -25.529,10.575l-0.002,0c-9.576,0 -18.76,-3.803 -25.53,-10.575c-6.771,-6.77 -10.575,-15.954 -10.575,-25.529l0,-37.68c-201.821,-17.296 -362.832,-178.311 -380.111,-380.111l-37.68,-0c-9.575,-0 -18.759,-3.804 -25.529,-10.575c-6.772,-6.77 -10.575,-15.954 -10.575,-25.529l0,-0.002c0,-9.576 3.803,-18.76 10.575,-25.53c6.77,-6.771 15.954,-10.575 25.529,-10.575l37.68,0c17.296,-201.821 178.312,-362.832 380.111,-380.111Zm0,768.595c-166.696,-16.911 -299.38,-149.604 -316.273,-316.273l316.273,-0l0,316.273Zm388.484,-316.273c-16.911,166.696 -149.604,299.38 -316.273,316.273l-0,-316.273l316.273,-0Zm-388.484,-388.484l0,316.273l-316.273,0c16.911,-166.696 149.604,-299.38 316.273,-316.273Zm72.211,0c166.696,16.911 299.38,149.604 316.273,316.273l-316.273,0l-0,-316.273Z" style="fill:url(#_Radial1);"/><defs><radialGradient id="_Radial1" cx="0" cy="0" r="1" gradientUnits="userSpaceOnUse" gradientTransform="matrix(-604,7.39687e-14,-7.39687e-14,-604,512.001,512.001)"><stop offset="0" style="stop-color:#fc0000;stop-opacity:1"/><stop offset="0.55" style="stop-color:#e70000;stop-opacity:1"/><stop offset="1" style="stop-color:#970000;stop-opacity:1"/></radialGradient></defs></svg>