<?xml version="1.0" encoding="UTF-8" standalone="no"?><!DOCTYPE svg PUBLIC "-//W3C//DTD SVG 1.1//EN" "http://www.w3.org/Graphics/SVG/1.1/DTD/svg11.dtd"><svg width="100%" height="100%" viewBox="0 0 513 513" version="1.1" xmlns="http://www.w3.org/2000/svg" xmlns:xlink="http://www.w3.org/1999/xlink" xml:space="preserve" style="fill-rule:evenodd;clip-rule:evenodd;stroke-linejoin:round;stroke-miterlimit:2;"><path d="M290.098,238.638l49.859,0l0,-2.899c0,-9.588 7.774,-17.362 17.362,-17.362c9.588,0 17.362,7.774 17.362,17.362l0,2.899l66.595,0l0,-2.899c0,-9.588 7.774,-17.362 17.362,-17.362c9.588,0 17.362,7.774 17.362,17.362l0,40.522c0,9.588 -7.774,17.362 -17.362,17.362c-9.588,0 -17.362,-7.774 -17.362,-17.362l0,-2.899l-66.595,0l0,2.899c0,9.588 -7.774,17.362 -17.362,17.362c-9.588,0 -17.362,-7.774 -17.362,-17.362l0,-2.899l-49.859,0c0,0 -18.837,-11.114 -18.837,-17.362c0,-6.248 18.837,-17.362 18.837,-17.362Zm-68.196,34.724l-49.86,0l0,2.899c0,9.588 -7.773,17.362 -17.361,17.362c-9.589,0 -17.362,-7.774 -17.362,-17.362l0,-2.899l-66.595,0l0,2.899c0,9.588 -7.774,17.362 -17.362,17.362c-9.588,0 -17.362,-7.774 -17.362,-17.362l0,-40.522c0,-9.589 7.774,-17.361 17.362,-17.361c9.588,0 17.362,7.774 17.362,17.362l0,2.899l66.595,0l0,-2.899c0,-9.588 7.773,-17.362 17.362,-17.362c9.588,0 17.361,7.774 17.361,17.362l0,2.899l49.86,0c0,0 20.098,11.113 20.098,17.361c-0,6.248 -20.098,17.362 -20.098,17.362Z" style="fill:#ff005f;fill-rule:nonzero;"/></svg>