<?xml version="1.0" encoding="UTF-8" standalone="no"?><!DOCTYPE svg PUBLIC "-//W3C//DTD SVG 1.1//EN" "http://www.w3.org/Graphics/SVG/1.1/DTD/svg11.dtd"><svg width="100%" height="100%" viewBox="0 0 512 512" version="1.1" xmlns="http://www.w3.org/2000/svg" xmlns:xlink="http://www.w3.org/1999/xlink" xml:space="preserve" style="fill-rule:evenodd;clip-rule:evenodd;stroke-linejoin:round;stroke-miterlimit:2;"><circle cx="256" cy="256" r="230" style="fill:#ffb700;"/><path d="M89.729,97.149c41.89,-43.831 100.915,-71.149 166.271,-71.149c126.94,0 230,103.06 230,230c-0,65.356 -27.318,124.381 -71.149,166.271c37.954,-41.039 61.159,-95.913 61.159,-156.164c0,-127.005 -103.112,-230.117 -230.117,-230.117c-60.251,-0 -115.125,23.205 -156.164,61.159Z" style="fill:#fd3;"/><path d="M423.389,413.672c-41.954,44.52 -101.45,72.328 -167.389,72.328c-126.94,-0 -230,-103.06 -230,-230c0,-65.939 27.808,-125.435 72.328,-167.389c-38.76,41.176 -62.523,96.625 -62.523,157.58c-0,126.943 103.061,230.004 230.004,230.004c60.955,0 116.404,-23.763 157.58,-62.523Z" style="fill:#e68600;"/><path d="M450.047,247.991c0.108,2.657 0.175,5.325 0.175,8.01c0,107.265 -86.955,194.221 -194.222,194.221c-107.266,-0 -194.222,-86.957 -194.222,-194.223c-0,-2.685 0.067,-5.354 0.176,-8.012c-0,-0.228 0.003,-0.374 0.005,-0.434c4.423,-103.347 89.606,-185.775 194.041,-185.775c104.437,0 189.619,82.428 194.042,185.775c0.002,0.06 0.004,0.208 0.005,0.438Z" style="fill-opacity:0.25;"/><path d="M439.834,248.413c0.103,2.516 0.166,5.044 0.166,7.588c-0,101.62 -82.379,183.998 -184,183.998c-101.62,0 -184,-82.379 -184,-184c0,-2.544 0.063,-5.072 0.167,-7.591c-0,-0.215 0.003,-0.353 0.005,-0.41c4.19,-97.908 84.889,-175.997 183.828,-175.997c98.94,-0 179.639,78.089 183.829,175.997c0.002,0.057 0.004,0.197 0.005,0.415Z" style="fill:#e4eef9;"/><path d="M322.837,191.442c-5.245,-5.172 -13.69,-5.115 -18.861,0.129l-31.296,31.73l3.144,15.105l14.619,4.87l32.524,-32.973c5.171,-5.244 5.114,-13.688 -0.13,-18.861Z" style="fill:#405b6c;fill-rule:nonzero;"/><path d="M237.122,224.515l-70.977,-63.25c-5.5,-4.902 -13.93,-4.416 -18.831,1.084c-4.9,5.499 -4.415,13.929 1.085,18.83l72.374,64.496l15.082,-5.03l1.267,-16.13Z" style="fill:#405b6c;fill-rule:nonzero;"/><path d="M350.435,341.995c-1.514,-0 -3.035,-0.512 -4.285,-1.563l-84.476,-70.956c-2.819,-2.369 -3.186,-6.575 -0.817,-9.395c2.368,-2.82 6.575,-3.187 9.395,-0.818l84.475,70.958c2.82,2.368 3.187,6.576 0.818,9.395c-1.319,1.57 -3.208,2.379 -5.11,2.379Z" style="fill:#ff5876;fill-rule:nonzero;"/><path d="M220.773,245.675l12.456,11.099l15.995,-5.435l-0.867,-16.812l-11.234,-10.012c-7.817,4.697 -13.734,12.223 -16.35,21.16Z" style="fill:#2d4456;fill-rule:nonzero;"/><path d="M272.679,223.302l-10.59,10.735l0,21.074l16.681,0l11.673,-11.834c-3.208,-8.679 -9.605,-15.805 -17.764,-19.975Z" style="fill:#2d4456;fill-rule:nonzero;"/><path d="M277.347,247.997c-3.24,-8.639 -11.576,-14.789 -21.347,-14.789c-9.77,0 -18.106,6.15 -21.346,14.789c-0.934,2.49 -0.062,22.793 21.346,22.793c21.409,0 22.281,-20.303 21.347,-22.793Z" style="fill:#ffb700;fill-rule:nonzero;"/><path d="M256,262.788c-9.77,0 -18.103,-6.151 -21.343,-14.789c-0.934,2.49 -1.448,5.184 -1.448,8.002c-0,12.587 10.203,22.791 22.791,22.791c12.588,-0 22.79,-10.205 22.79,-22.791c0,-2.818 -0.514,-5.512 -1.447,-8.002c-3.239,8.637 -11.572,14.789 -21.343,14.789Z" style="fill:#e68600;fill-rule:nonzero;"/><path d="M264.001,118.136l-0,-24.779c-0,-4.419 -3.583,-8 -8.001,-8c-4.417,0 -7.999,3.581 -7.999,8l-0,24.779c-0,4.417 3.581,7.999 7.999,7.999c4.419,0 8.001,-3.582 8.001,-7.999Z" style="fill:#405b6c;fill-rule:nonzero;"/><path d="M248.001,393.865l-0,24.779c-0,4.417 3.581,8 7.999,8c4.419,-0 8.001,-3.583 8.001,-8l-0,-24.779c-0,-4.418 -3.583,-7.999 -8.001,-7.999c-4.417,0 -7.999,3.581 -7.999,7.999Z" style="fill:#405b6c;fill-rule:nonzero;"/><path d="M418.644,264c4.419,0 7.999,-3.581 7.999,-7.999c0,-4.419 -3.581,-8.001 -7.999,-8.001l-24.779,0c-4.417,0 -7.999,3.582 -7.999,8.001c-0,4.418 3.582,7.999 7.999,7.999l24.779,0Z" style="fill:#405b6c;fill-rule:nonzero;"/><path d="M93.356,248c-4.418,0 -7.999,3.582 -7.999,8.001c-0,4.418 3.581,7.999 7.999,7.999l24.779,0c4.42,0 7.999,-3.581 7.999,-7.999c0,-4.419 -3.581,-8.001 -7.999,-8.001l-24.779,0Z" style="fill:#405b6c;fill-rule:nonzero;"/></svg>