<?xml version="1.0" encoding="UTF-8" standalone="no"?><!DOCTYPE svg PUBLIC "-//W3C//DTD SVG 1.1//EN" "http://www.w3.org/Graphics/SVG/1.1/DTD/svg11.dtd"><svg width="100%" height="100%" viewBox="0 0 512 512" version="1.1" xmlns="http://www.w3.org/2000/svg" xmlns:xlink="http://www.w3.org/1999/xlink" xml:space="preserve" style="fill-rule:evenodd;clip-rule:evenodd;stroke-linejoin:round;stroke-miterlimit:2;"><path d="M277.347,247.997c-3.24,-8.639 -11.576,-14.789 -21.347,-14.789c-9.77,0 -18.106,6.15 -21.346,14.789c-0.934,2.49 -0.062,22.793 21.346,22.793c21.409,0 22.281,-20.303 21.347,-22.793Z" style="fill:#ffb700;fill-rule:nonzero;"/><path d="M256,262.788c-9.77,0 -18.103,-6.151 -21.343,-14.789c-0.934,2.49 -1.448,5.184 -1.448,8.002c-0,12.587 10.203,22.791 22.791,22.791c12.588,-0 22.79,-10.205 22.79,-22.791c0,-2.818 -0.514,-5.512 -1.447,-8.002c-3.239,8.637 -11.572,14.789 -21.343,14.789Z" style="fill:#e68600;fill-rule:nonzero;"/></svg>