<?xml version="1.0" encoding="UTF-8" standalone="no"?><!DOCTYPE svg PUBLIC "-//W3C//DTD SVG 1.1//EN" "http://www.w3.org/Graphics/SVG/1.1/DTD/svg11.dtd"><svg width="100%" height="100%" viewBox="0 0 512 512" version="1.1" xmlns="http://www.w3.org/2000/svg" xmlns:xlink="http://www.w3.org/1999/xlink" xml:space="preserve" xmlns:serif="http://www.serif.com/" style="fill-rule:evenodd;clip-rule:evenodd;stroke-linejoin:round;stroke-miterlimit:2;"><circle cx="256" cy="256" r="230" style="fill:#d32e34;"/><path d="M89.729,97.149c41.89,-43.831 100.915,-71.149 166.271,-71.149c126.94,0 230,103.06 230,230c0,65.356 -27.318,124.381 -71.149,166.271c37.954,-41.039 61.159,-95.913 61.159,-156.164c0,-127.005 -103.112,-230.117 -230.117,-230.117c-60.251,0 -115.125,23.205 -156.164,61.159Z" style="fill:#e06c71;"/><path d="M423.389,413.672c-41.954,44.52 -101.45,72.328 -167.389,72.328c-126.94,0 -230,-103.06 -230,-230c0,-65.939 27.808,-125.435 72.328,-167.389c-38.76,41.176 -62.523,96.625 -62.523,157.58c0,126.943 103.061,230.004 230.004,230.004c60.955,0 116.404,-23.763 157.58,-62.523Z" style="fill:#931f25;"/><path d="M450.047,247.991c0.108,2.657 0.175,5.325 0.175,8.01c0,107.265 -86.955,194.221 -194.222,194.221c-107.266,0 -194.222,-86.957 -194.222,-194.223c0,-2.685 0.067,-5.354 0.176,-8.012c0,-0.228 0.003,-0.374 0.005,-0.434c4.423,-103.347 89.606,-185.775 194.041,-185.775c104.437,0 189.619,82.428 194.042,185.775c0.002,0.06 0.004,0.208 0.005,0.438Z" style="fill-opacity:0.25;"/><path d="M439.834,248.413c0.103,2.516 0.166,5.044 0.166,7.588c0,101.62 -82.379,183.998 -184,183.998c-101.62,0 -184,-82.379 -184,-184c0,-2.544 0.063,-5.072 0.167,-7.591c0,-0.215 0.003,-0.353 0.005,-0.41c4.19,-97.908 84.889,-175.997 183.828,-175.997c98.94,0 179.639,78.089 183.829,175.997c0.002,0.057 0.004,0.197 0.005,0.415Z" style="fill:#e4eef9;"/><path d="M264.001,118.136l-0,-24.779c-0,-4.419 -3.583,-8 -8.001,-8c-4.417,0 -7.999,3.581 -7.999,8l-0,24.779c-0,4.417 3.581,7.999 7.999,7.999c4.419,0 8.001,-3.582 8.001,-7.999Z" style="fill:#405b6c;fill-rule:nonzero;"/><path d="M248.001,393.865l0,24.779c0,4.417 3.581,8 7.999,8c4.419,0 8.001,-3.583 8.001,-8l0,-24.779c0,-4.418 -3.583,-7.999 -8.001,-7.999c-4.417,0 -7.999,3.581 -7.999,7.999Z" style="fill:#405b6c;fill-rule:nonzero;"/><path d="M418.644,264c4.419,0 7.999,-3.581 7.999,-7.999c0,-4.419 -3.581,-8.001 -7.999,-8.001l-24.779,0c-4.417,0 -7.999,3.582 -7.999,8.001c0,4.418 3.582,7.999 7.999,7.999l24.779,0Z" style="fill:#405b6c;fill-rule:nonzero;"/><path d="M93.356,248c-4.418,0 -7.999,3.582 -7.999,8.001c-0,4.418 3.581,7.999 7.999,7.999l24.779,0c4.42,0 7.999,-3.581 7.999,-7.999c-0,-4.419 -3.581,-8.001 -7.999,-8.001l-24.779,0Z" style="fill:#405b6c;fill-rule:nonzero;"/></svg>