<?xml version="1.0" encoding="UTF-8" standalone="no"?><!DOCTYPE svg PUBLIC "-//W3C//DTD SVG 1.1//EN" "http://www.w3.org/Graphics/SVG/1.1/DTD/svg11.dtd"><svg width="100%" height="100%" viewBox="0 0 410 410" version="1.1" xmlns="http://www.w3.org/2000/svg" xmlns:xlink="http://www.w3.org/1999/xlink" xml:space="preserve" style="fill-rule:evenodd;clip-rule:evenodd;stroke-linejoin:round;stroke-miterlimit:2;"><path d="M103.539,211.896c-1.692,1.692 -9.022,-3.766 -16.972,-6.896c-9.292,-3.659 -24.071,4.722 -25.439,10.349c-4.221,17.366 -3.927,26.591 9,52.626c15.625,31.469 43.381,53.189 64.154,68.154c17.414,12.545 42.009,16.637 64.485,16.637l46.737,0c27.655,0 46.652,-4.773 66.189,-24.311c11.191,-11.191 18.502,-25.529 23.561,-38.371c3.773,-9.578 14.534,-110.932 13.752,-154.289c0,-12.663 -11.136,-25.278 -23.701,-23.7c-19.132,2.403 -17.729,13.903 -19.702,20.703c-1.813,6.246 -6.396,11.919 -10.357,11.727c-4.976,-0.242 -9.946,-1.797 -9.345,-9.345l-1.003,-18.416c0,-13.06 -10.639,-23.7 -23.7,-23.7c-6.343,-0.002 -12.305,2.469 -16.773,6.937c-4.468,4.468 -6.939,10.429 -6.941,16.749l-4,15.418c0,2.59 -1.056,4.918 -2.747,6.61c-1.692,1.692 -4.033,2.735 -6.61,2.747c-5.156,0 -9.345,-4.19 -9.345,-9.345l-3,-17.245c0,-13.061 -10.64,-23.701 -23.701,-23.701c-13.06,0 -23.977,13.194 -23.7,23.701c0.697,26.46 -9.43,31.233 -17.704,22.449c-4.967,-5.273 -13.037,-24.7 -25.7,-24.7c-6.332,0.015 -12.281,2.474 -16.749,6.942c-4.468,4.468 -6.939,10.429 -6.939,16.746l9,65.901c0,2.589 -1.058,7.931 -2.75,9.623Zm83.286,1.521c0,-13.645 -11.078,-24.724 -24.724,-24.724c-13.645,0 -24.723,11.079 -24.723,24.724l0,68.553c0,13.644 11.078,24.724 24.723,24.724c13.646,0 24.724,-11.08 24.724,-24.724l0,-68.553Zm117.089,-0c0,-13.645 -11.079,-24.724 -24.724,-24.724c-13.646,-0 -24.724,11.079 -24.724,24.724l0,68.553c0,13.644 11.078,24.724 24.724,24.724c13.645,0 24.724,-11.08 24.724,-24.724l0,-68.553Zm-58.341,-0.204c0,-13.645 -11.078,-24.723 -24.724,-24.723c-13.646,0 -24.724,11.078 -24.724,24.723l0,68.553c0,13.646 11.078,24.724 24.724,24.724c13.646,0 24.724,-11.078 24.724,-24.724l0,-68.553Z" style="fill:url(#_Linear1);"/><path d="M229.349,215.095c-0,-6.88 -3.808,-10.199 -8.5,-10.199c-4.691,0 -8.5,3.319 -8.5,10.199l-0,64.789c-0,6.881 3.809,10.2 8.5,10.2c4.692,0 8.5,-3.319 8.5,-10.2l-0,-64.789Z" style="fill:#cd5f0f;"/><path d="M287.69,215.299c0,-6.881 -3.809,-10.2 -8.5,-10.2c-4.692,0 -8.5,3.319 -8.5,10.2l0,64.789c0,6.88 3.808,10.2 8.5,10.2c4.691,0 8.5,-3.32 8.5,-10.2l0,-64.789Z" style="fill:#cd5f0f;"/><path d="M170.601,215.298c0,-6.881 -3.808,-10.2 -8.5,-10.2c-4.691,0 -8.5,3.319 -8.5,10.2l0,64.791c0,6.88 3.809,10.2 8.5,10.2c4.692,0 8.5,-3.32 8.5,-10.2l0,-64.791Z" style="fill:#cd5f0f;"/><defs><linearGradient id="_Linear1" x1="0" y1="0" x2="1" y2="0" gradientUnits="userSpaceOnUse" gradientTransform="matrix(-259,228,-228,-259,321,129)"><stop offset="0" style="stop-color:#00b0b5;stop-opacity:1"/><stop offset="1" style="stop-color:#005b5e;stop-opacity:1"/></linearGradient></defs></svg>