<?xml version="1.0" encoding="UTF-8" standalone="no"?><!DOCTYPE svg PUBLIC "-//W3C//DTD SVG 1.1//EN" "http://www.w3.org/Graphics/SVG/1.1/DTD/svg11.dtd"><svg width="100%" height="100%" viewBox="0 0 1024 1024" version="1.1" xmlns="http://www.w3.org/2000/svg" xmlns:xlink="http://www.w3.org/1999/xlink" xml:space="preserve" xmlns:serif="http://www.serif.com/" style="fill-rule:evenodd;clip-rule:evenodd;stroke-linejoin:round;stroke-miterlimit:2;"><path d="M288.912,556.789l-103.821,103.821c-10.109,10.109 -17.267,22.785 -20.701,36.663l-27.471,113.082c-6.106,24.675 45.816,84.693 70.492,78.587l119.312,-29.334c13.877,-3.432 26.554,-10.59 36.662,-20.7l103.823,-103.823l-178.296,-178.296Z" style="fill:url(#_Linear1);fill-rule:nonzero;"/><path d="M681.45,458.015c-0.622,0.758 -1.289,1.497 -1.999,2.207l-354.363,354.365c7.948,3.968 15.4,9.264 22.026,15.892c2.621,2.62 5.035,5.369 7.239,8.226c2.122,2.752 6.189,2.992 8.661,0.55c0.124,-0.12 0.245,-0.24 0.365,-0.363l349.475,-349.473l-31.404,-31.404Z" style="fill:url(#_Linear2);fill-rule:nonzero;"/><path d="M605.778,240.83l178.293,178.293l-420.687,419.785c-0.122,0.123 -0.242,0.243 -0.366,0.363c-2.476,2.444 -6.565,2.164 -8.691,-0.589c-2.197,-2.842 -4.6,-5.578 -7.209,-8.188c-11.778,-11.777 -26.16,-19.352 -41.292,-22.738c-7.113,-1.591 -12.692,-7.17 -14.283,-14.283c-3.384,-15.131 -10.959,-29.515 -22.738,-41.291c-11.779,-11.779 -26.161,-19.354 -41.293,-22.738c-7.111,-1.591 -12.69,-7.171 -14.281,-14.283c-3.386,-15.132 -10.961,-29.516 -22.739,-41.293c-1.66,-1.66 -3.367,-3.233 -5.116,-4.726c-2.569,-2.186 -2.717,-6.097 -0.332,-8.482l420.734,-419.83Z" style="fill:url(#_Linear3);fill-rule:nonzero;"/><path d="M648.025,204.829c-4.877,-4.876 -12.794,-4.876 -17.67,0l-45.438,45.437c-4.876,4.877 -4.876,12.794 0,17.671l171.283,171.283c4.877,4.876 12.794,4.876 17.67,0l45.438,-45.438c4.876,-4.876 4.876,-12.794 0,-17.67l-171.283,-171.283Z" style="fill:url(#_Linear4);"/><path d="M201.621,817.567c-17.301,-17.298 -39.206,-27.154 -61.766,-29.623l-10.113,40.869c-4.737,19.142 -5.206,47.942 6.682,60.562c12.641,13.42 38.414,9.924 58.77,4.887l36.541,-9.043c-1.287,-24.611 -11.317,-48.852 -30.114,-67.652Z" style="fill:url(#_Linear5);fill-rule:nonzero;"/><path d="M897.506,222.955c11.252,11.252 17.573,26.513 17.573,42.426c0,15.913 -6.321,31.174 -17.573,42.427c-38.781,38.78 -90.133,90.132 -90.133,90.132l-181.692,-181.692c-0,-0 51.352,-51.352 90.132,-90.133c11.253,-11.252 26.514,-17.573 42.427,-17.573c15.913,-0 31.174,6.321 42.426,17.573c29.148,29.148 67.692,67.692 96.84,96.84Z" style="fill:url(#_Linear6);"/><defs><linearGradient id="_Linear1" x1="0" y1="0" x2="1" y2="0" gradientUnits="userSpaceOnUse" gradientTransform="matrix(231.293,0,0,231.293,120.092,564.657)"><stop offset="0" style="stop-color:#ffdcbd;stop-opacity:1"/><stop offset="0" style="stop-color:#ffdcbd;stop-opacity:1"/><stop offset="1" style="stop-color:#ffa9b1;stop-opacity:1"/></linearGradient><linearGradient id="_Linear2" x1="0" y1="0" x2="1" y2="0" gradientUnits="userSpaceOnUse" gradientTransform="matrix(646.476,0,0,646.476,124.267,534.853)"><stop offset="0" style="stop-color:#ffe177;stop-opacity:1"/><stop offset="0.57" style="stop-color:#feb137;stop-opacity:1"/><stop offset="1" style="stop-color:#fe646f;stop-opacity:1"/></linearGradient><linearGradient id="_Linear3" x1="0" y1="0" x2="1" y2="0" gradientUnits="userSpaceOnUse" gradientTransform="matrix(677.332,0,0,677.332,139.238,534.849)"><stop offset="0" style="stop-color:#ffe177;stop-opacity:1"/><stop offset="0.57" style="stop-color:#feb137;stop-opacity:1"/><stop offset="1" style="stop-color:#fe646f;stop-opacity:1"/></linearGradient><linearGradient id="_Linear4" x1="0" y1="0" x2="1" y2="0" gradientUnits="userSpaceOnUse" gradientTransform="matrix(179.797,177.565,-177.565,179.797,612.028,232.223)"><stop offset="0" style="stop-color:#fbfaf9;stop-opacity:1"/><stop offset="1" style="stop-color:#f6ece7;stop-opacity:1"/></linearGradient><linearGradient id="_Linear5" x1="0" y1="0" x2="1" y2="0" gradientUnits="userSpaceOnUse" gradientTransform="matrix(62.5814,-62.5759,62.5759,62.5814,136.424,889.375)"><stop offset="0" style="stop-color:#000;stop-opacity:1"/><stop offset="1" style="stop-color:#503030;stop-opacity:1"/></linearGradient><linearGradient id="_Linear6" x1="0" y1="0" x2="1" y2="0" gradientUnits="userSpaceOnUse" gradientTransform="matrix(248.852,36.2694,-36.2694,248.852,645.201,216.971)"><stop offset="0" style="stop-color:#fc4754;stop-opacity:1"/><stop offset="1" style="stop-color:#ee2735;stop-opacity:1"/></linearGradient></defs></svg>