<?xml version="1.0" encoding="UTF-8" standalone="no"?>
<!DOCTYPE svg PUBLIC "-//W3C//DTD SVG 1.1//EN" "http://www.w3.org/Graphics/SVG/1.1/DTD/svg11.dtd">
<svg width="100%" height="100%" viewBox="0 0 1024 1024" version="1.1" xmlns="http://www.w3.org/2000/svg" xmlns:xlink="http://www.w3.org/1999/xlink" xml:space="preserve" xmlns:serif="http://www.serif.com/" style="fill-rule:evenodd;clip-rule:evenodd;stroke-linejoin:round;stroke-miterlimit:2;">
    <g transform="matrix(6.18483e-17,1.01006,-1.13892,6.97387e-17,1148.65,-116.257)">
        <g transform="matrix(6.65706e-17,-0.964175,0.930234,5.05157e-17,145.72,1052.65)">
            <path d="M848.94,315.106C848.94,206.437 773.451,118.212 680.47,118.212L343.53,118.212C250.549,118.212 175.06,206.437 175.06,315.106L175.06,708.894C175.06,817.563 250.549,905.788 343.53,905.788L680.47,905.788C773.451,905.788 848.94,817.563 848.94,708.894L848.94,315.106Z" style="fill:rgb(233,36,40);"/>
        </g>
        <g transform="matrix(6.65588e-17,-0.964003,1.08699,5.90282e-17,65.462,1052.56)">
            <path d="M175,586.203L175,680.5C175,773.498 250.502,849 343.5,849L630.178,849L175,586.203Z" style="fill-opacity:0.3;"/>
        </g>
        <g transform="matrix(6.65588e-17,-0.964003,1.08699,5.90282e-17,65.462,1052.56)">
            <path d="M427.75,175L343.5,175C262.499,175 194.771,232.279 178.644,308.512L848.368,695.177C848.786,690.345 849,685.447 849,680.5L849,418.209L427.75,175Z" style="fill-opacity:0.1;"/>
        </g>
        <g transform="matrix(6.65588e-17,-0.964003,1.08699,5.90282e-17,65.462,1052.56)">
            <path d="M178.546,308.981C176.222,320.124 175,331.671 175,343.5L175,585.786L630.901,849L680.5,849C768.383,849 840.642,781.575 848.324,695.678L178.546,308.981Z" style="fill-opacity:0.2;"/>
        </g>
    </g>
</svg>
