<?xml version="1.0" encoding="UTF-8" standalone="no"?><!DOCTYPE svg PUBLIC "-//W3C//DTD SVG 1.1//EN" "http://www.w3.org/Graphics/SVG/1.1/DTD/svg11.dtd"><svg width="100%" height="100%" viewBox="0 0 1024 1024" version="1.1" xmlns="http://www.w3.org/2000/svg" xmlns:xlink="http://www.w3.org/1999/xlink" xml:space="preserve" xmlns:serif="http://www.serif.com/" style="fill-rule:evenodd;clip-rule:evenodd;stroke-linejoin:round;stroke-miterlimit:2;"><path d="M841.234,460.608c18.017,10.857 29.031,30.356 29.031,51.389c0,21.034 -11.014,40.533 -29.031,51.389c-138.632,83.545 -411.665,248.084 -553.881,333.789c-18.533,11.168 -41.642,11.493 -60.481,0.85c-18.838,-10.642 -30.488,-30.603 -30.488,-52.24l0,-667.575c0,-21.638 11.65,-41.598 30.488,-52.241c18.839,-10.643 41.948,-10.318 60.481,0.85c142.216,85.705 415.249,250.244 553.881,333.789Z" style="fill:#63eb47;"/><path d="M196.385,599.357l298.853,172.543l-207.884,125.279c-18.532,11.168 -41.642,11.493 -60.481,0.851c-18.839,-10.643 -30.488,-30.604 -30.488,-52.241l0,-246.432Z" style="fill-opacity:0.2;"/><path d="M728.444,631.362l-233.253,140.567l-298.806,-172.516l0,-275.235l532.059,307.184Z" style="fill-opacity:0.1;"/></svg>