<?xml version="1.0" encoding="UTF-8" standalone="no"?><!DOCTYPE svg PUBLIC "-//W3C//DTD SVG 1.1//EN" "http://www.w3.org/Graphics/SVG/1.1/DTD/svg11.dtd"><svg width="100%" height="100%" viewBox="0 0 512 512" version="1.1" xmlns="http://www.w3.org/2000/svg" xmlns:xlink="http://www.w3.org/1999/xlink" xml:space="preserve" xmlns:serif="http://www.serif.com/" style="fill-rule:evenodd;clip-rule:evenodd;stroke-linejoin:round;stroke-miterlimit:2;"><path d="M206.429,444.787l0,31.184c0,3.719 3.044,6.763 6.763,6.763l90.063,-0c3.72,-0 6.763,-3.044 6.763,-6.763l0,-31.184l-103.589,-0Z" style="fill:#eb2429;fill-rule:nonzero;"/><path d="M154.217,294.092c0,-11.031 0.414,-22.032 1.188,-32.953c-32.545,18.327 -54.966,59.155 -54.966,106.423c0,24.964 6.207,48.772 17.95,68.849c1.102,1.886 3.097,2.964 5.169,2.964c0.758,0 1.525,-0.144 2.262,-0.445c15.432,-6.309 31.924,-9.55 49.025,-9.685c-13.503,-41.564 -20.628,-87.981 -20.628,-135.153Z" style="fill:#eb2429;fill-rule:nonzero;"/><path d="M115.777,367.562c0,-39.041 15.305,-73.674 38.966,-94.878c0.182,-3.857 0.391,-7.706 0.663,-11.545c-32.544,18.327 -54.966,59.155 -54.966,106.423c0,24.964 6.208,48.772 17.95,68.849c1.102,1.886 3.097,2.964 5.17,2.964c0.757,0 1.524,-0.144 2.261,-0.445c2.543,-1.04 5.127,-1.966 7.725,-2.838c-11.623,-20.011 -17.769,-43.697 -17.769,-68.53Z" style="fill-opacity:0.25;fill-rule:nonzero;"/><path d="M361.043,261.139c0.773,10.922 1.187,21.923 1.187,32.953c0,47.17 -7.124,93.588 -20.629,135.153c17.103,0.135 33.593,3.376 49.025,9.685c0.737,0.301 1.506,0.445 2.262,0.445c2.073,0 4.067,-1.08 5.17,-2.964c11.743,-20.077 17.949,-43.885 17.949,-68.849c0.002,-47.268 -22.42,-88.096 -54.964,-106.423Z" style="fill:#eb2429;fill-rule:nonzero;"/><path d="M229.433,475.971l0,-31.184l-23.004,0l0,31.184c0,3.719 3.044,6.763 6.763,6.763l23.005,0c-3.72,0 -6.764,-3.044 -6.764,-6.763Z" style="fill-opacity:0.25;fill-rule:nonzero;"/><path d="M340.538,151.525l-164.628,0c-15.088,43.491 -23.045,92.443 -23.045,142.567c0,52.106 8.642,103.324 24.99,148.114c0.863,2.362 3.108,3.933 5.623,3.933l149.492,0c2.515,0 4.761,-1.571 5.623,-3.933c16.348,-44.79 24.99,-96.008 24.99,-148.114c0.001,-50.124 -7.956,-99.074 -23.045,-142.567Z" style="fill:#eef6ff;fill-rule:nonzero;"/><path d="M197.026,442.206c-16.35,-44.79 -24.99,-96.008 -24.99,-148.114c0,-50.124 7.957,-99.076 23.044,-142.567l-19.169,0c-15.087,43.491 -23.045,92.443 -23.045,142.567c0,52.106 8.642,103.324 24.99,148.114c0.863,2.362 3.108,3.933 5.623,3.933l19.17,0c-2.515,0 -4.76,-1.571 -5.623,-3.933Z" style="fill-opacity:0.25;fill-rule:nonzero;"/><path d="M219.24,151.525l0,22.446c0,3.719 3.043,6.763 6.763,6.763l64.443,0c3.719,0 6.763,-3.044 6.763,-6.763l0,-22.446l-77.969,0Z" style="fill:#ea2a3d;fill-rule:nonzero;"/><path d="M234.576,173.971l0,-22.446l-15.336,0l0,22.446c0,3.719 3.043,6.763 6.763,6.763l15.336,0c-3.719,0 -6.763,-3.044 -6.763,-6.763Z" style="fill-opacity:0.25;fill-rule:nonzero;"/><path d="M258.224,29.357c-1.335,0 -2.668,0.445 -3.767,1.334c-30.215,24.468 -55.666,61.584 -73.598,107.337c-1.907,4.868 -3.7,9.833 -5.419,14.85l165.567,0c-1.719,-5.017 -3.511,-9.982 -5.418,-14.85c-17.932,-45.753 -43.382,-82.869 -73.599,-107.337c-1.097,-0.889 -2.431,-1.334 -3.766,-1.334Z" style="fill:#eb2429;fill-rule:nonzero;"/><path d="M267.809,35.617c-1.919,-1.692 -3.857,-3.338 -5.817,-4.926c-1.099,-0.889 -2.433,-1.334 -3.768,-1.334c-1.335,0 -2.668,0.445 -3.767,1.334c-30.215,24.468 -55.666,61.584 -73.598,107.337c-1.907,4.868 -3.7,9.833 -5.419,14.85l19.17,0c1.719,-5.017 3.511,-9.982 5.418,-14.85c16.77,-42.785 40.114,-78.011 67.781,-102.411Z" style="fill-opacity:0.25;fill-rule:nonzero;"/><circle cx="258.224" cy="274.09" r="69.012" style="fill:url(#_Linear1);"/><path d="M226.916,242.785c17.279,-17.278 45.334,-17.278 62.612,-0c17.278,17.278 17.278,45.333 -0,62.611c-17.278,17.279 -45.333,17.279 -62.612,0c-17.278,-17.278 -17.278,-45.333 0,-62.611Z" style="fill:#abb3ba;"/><path d="M238.396,293.922c15.329,15.329 39.096,17.058 56.341,5.205c-1.517,2.206 -3.243,4.311 -5.205,6.273c-17.291,17.291 -45.323,17.289 -62.613,-0.001c-17.291,-17.291 -17.29,-45.322 -0,-62.612c1.96,-1.961 4.067,-3.688 6.272,-5.205c-11.852,17.245 -10.125,41.01 5.205,56.34Z" style="fill-opacity:0.26;fill-rule:nonzero;"/><defs><linearGradient id="_Linear1" x1="0" y1="0" x2="1" y2="0" gradientUnits="userSpaceOnUse" gradientTransform="matrix(-78.1317,101.166,-101.166,-78.1317,292.083,223.764)"><stop offset="0" style="stop-color:#25292d;stop-opacity:1"/><stop offset="1" style="stop-color:#140e0e;stop-opacity:1"/></linearGradient></defs></svg>