<?xml version="1.0" encoding="UTF-8" standalone="no"?><!DOCTYPE svg PUBLIC "-//W3C//DTD SVG 1.1//EN" "http://www.w3.org/Graphics/SVG/1.1/DTD/svg11.dtd"><svg width="100%" height="100%" viewBox="0 0 512 512" version="1.1" xmlns="http://www.w3.org/2000/svg" xmlns:xlink="http://www.w3.org/1999/xlink" xml:space="preserve" style="fill-rule:evenodd;clip-rule:evenodd;stroke-linejoin:round;stroke-miterlimit:2;"><path d="M61.148,368.502l-0.001,-0.001c-1.765,-3.058 -2.74,-6.572 -2.741,-10.226l-0.005,-204.544c-0,-7.308 3.898,-14.061 10.227,-17.715l177.139,-102.276c3.164,-1.826 6.694,-2.74 10.226,-2.74c3.532,0 7.063,0.913 10.228,2.741l177.144,102.268c6.329,3.654 10.227,10.406 10.227,17.714l0.006,204.544c0.001,3.653 -0.973,7.17 -2.739,10.228c-1.766,3.058 -4.323,5.661 -7.488,7.487l-177.139,102.277c-6.328,3.654 -14.125,3.654 -20.455,0l-177.144,-102.269c-3.165,-1.827 -5.721,-4.429 -7.487,-7.487l0.002,-0.001Zm25.114,-14.501l-0.002,0.002c1.538,2.664 3.765,4.93 6.522,6.522l154.313,89.088c5.514,3.183 12.306,3.183 17.818,-0l154.308,-89.095c2.757,-1.591 4.985,-3.858 6.523,-6.522c1.539,-2.664 2.387,-5.728 2.386,-8.91l-0.005,-178.181c-0,-6.366 -3.396,-12.248 -8.909,-15.431l-154.312,-89.087c-2.757,-1.592 -5.833,-2.387 -8.91,-2.387c-3.076,-0 -6.152,0.796 -8.908,2.386l-154.308,89.094c-5.514,3.183 -8.909,9.066 -8.909,15.432l0.004,178.181c0.001,3.183 0.851,6.244 2.389,8.908Z" style="fill:url(#_Linear1);"/><defs><linearGradient id="_Linear1" x1="0" y1="0" x2="1" y2="0" gradientUnits="userSpaceOnUse" gradientTransform="matrix(-200.187,324.256,-324.256,-200.187,356.144,92.4097)"><stop offset="0" style="stop-color:#ffa648;stop-opacity:1"/><stop offset="1" style="stop-color:#8f4a00;stop-opacity:1"/></linearGradient></defs></svg>