<?xml version="1.0" encoding="UTF-8" standalone="no"?><!DOCTYPE svg PUBLIC "-//W3C//DTD SVG 1.1//EN" "http://www.w3.org/Graphics/SVG/1.1/DTD/svg11.dtd"><svg width="100%" height="100%" viewBox="0 0 512 512" version="1.1" xmlns="http://www.w3.org/2000/svg" xmlns:xlink="http://www.w3.org/1999/xlink" xml:space="preserve" style="fill-rule:evenodd;clip-rule:evenodd;stroke-linejoin:round;stroke-miterlimit:2;"><g><path d="M125.395,341.63c-0.342,0.594 -0.643,1.209 -0.903,1.84c-0.768,1.866 -1.051,3.647 -1.051,5.259c0,18.033 33.905,29.233 88.474,29.233c54.563,0 88.463,-11.2 88.463,-29.228c0.001,-1.664 -0.302,-3.51 -1.129,-5.443c-0.168,-0.396 -0.353,-0.784 -0.561,-1.165l-81.49,-160.29c-1.039,-2.04 -3.116,-3.225 -5.283,-3.221c-2.166,-0.004 -4.243,1.182 -5.283,3.221l-81.237,159.794Z" style="fill:url(#_Linear1);"/><path d="M214.069,179.015c0.213,0.771 0.155,1.807 -0.303,3.123c-8.004,23.023 -63.093,175.567 -74.287,184.957c-10.392,-4.787 -16.038,-11.008 -16.038,-18.366c-0,-1.612 0.283,-3.393 1.051,-5.259c0.26,-0.631 0.561,-1.246 0.903,-1.84l81.237,-159.794c1.04,-2.039 3.117,-3.225 5.283,-3.221c0.741,-0.002 1.472,0.136 2.154,0.4Z" style="fill-opacity:0.25;"/></g><defs><linearGradient id="_Linear1" x1="0" y1="0" x2="1" y2="0" gradientUnits="userSpaceOnUse" gradientTransform="matrix(-113.967,99.6735,-99.6735,-113.967,244.597,278.288)"><stop offset="0" style="stop-color:#99f53d;stop-opacity:1"/><stop offset="1" style="stop-color:#61c200;stop-opacity:1"/></linearGradient></defs></svg>