<?xml version="1.0" encoding="UTF-8" standalone="no"?><!DOCTYPE svg PUBLIC "-//W3C//DTD SVG 1.1//EN" "http://www.w3.org/Graphics/SVG/1.1/DTD/svg11.dtd"><svg width="100%" height="100%" viewBox="0 0 512 512" version="1.1" xmlns="http://www.w3.org/2000/svg" xmlns:xlink="http://www.w3.org/1999/xlink" xml:space="preserve" xmlns:serif="http://www.serif.com/" style="fill-rule:evenodd;clip-rule:evenodd;stroke-linejoin:round;stroke-miterlimit:2;"><g><path d="M219.125,112.683c31.394,-20.348 73.402,-11.38 93.75,20.014c20.348,31.394 11.38,73.402 -20.014,93.75c-31.394,20.348 -73.402,11.38 -93.75,-20.014c-20.348,-31.394 -11.38,-73.402 20.014,-93.75Z" style="fill:url(#_Linear1);"/><path d="M191.892,147.483c-0.046,1.131 -0.069,2.265 -0.069,3.403c0,45.726 37.123,82.849 82.849,82.849c1.138,0 2.272,-0.022 3.403,-0.069c-6.924,2.388 -14.353,3.685 -22.082,3.685c-37.412,0 -67.785,-30.374 -67.785,-67.786c0,-7.729 1.296,-15.158 3.684,-22.082Z" style="fill-opacity:0.22;"/></g><defs><linearGradient id="_Linear1" x1="0" y1="0" x2="1" y2="0" gradientUnits="userSpaceOnUse" gradientTransform="matrix(28.9478,-139.867,139.867,28.9478,235.979,263.316)"><stop offset="0" style="stop-color:#ff4d5e;stop-opacity:1"/><stop offset="1" style="stop-color:#fff200;stop-opacity:1"/></linearGradient></defs></svg>