<?xml version="1.0" encoding="UTF-8" standalone="no"?><!DOCTYPE svg PUBLIC "-//W3C//DTD SVG 1.1//EN" "http://www.w3.org/Graphics/SVG/1.1/DTD/svg11.dtd"><svg width="100%" height="100%" viewBox="0 0 512 512" version="1.1" xmlns="http://www.w3.org/2000/svg" xmlns:xlink="http://www.w3.org/1999/xlink" xml:space="preserve" style="fill-rule:evenodd;clip-rule:evenodd;stroke-linejoin:round;stroke-miterlimit:2;"><path d="M245.585,34.415l-151.503,106.376l7.07,10.07l151.503,-106.377l-7.07,-10.069Z" style="fill:#a89b8a;"/><path d="M267.203,34.415l151.503,106.376l-7.069,10.07l-151.504,-106.377l7.07,-10.069Z" style="fill:#a89b8a;"/><path d="M454.458,216.049c0,-40.605 -32.916,-73.521 -73.521,-73.521l-250.321,0c-17.405,0 -34.097,6.914 -46.405,19.222c-12.306,12.307 -19.22,28.999 -19.22,46.404l0,183.48c0,34.609 28.055,62.666 62.665,62.666l255.871,0c39.174,0 70.931,-31.757 70.931,-70.931l0,-167.32Z" style="fill:url(#_Linear1);"/><path d="M302.354,454.3l-141.298,-140.618l-96.065,90.501l42.337,50.117l195.026,0Z" style="fill:url(#_Linear2);fill-rule:nonzero;"/><path d="M402.223,454.3l36.907,-27.942l15.328,-52.341l-107.45,-112.592l-196.529,192.875l251.744,0Z" style="fill:url(#_Linear3);fill-rule:nonzero;"/><circle cx="231.423" cy="251.369" r="54.519" style="fill-opacity:0.49;"/><circle cx="236.434" cy="246.373" r="54.519" style="fill:url(#_Linear4);"/><circle cx="236.434" cy="239.15" r="54.519" style="fill:url(#_Linear5);"/><path d="M468.362,212.741l0,170.759c0,47.123 -38.257,85.38 -85.38,85.38l-253.964,0c-47.123,0 -85.38,-38.257 -85.38,-85.38l0,-170.759c0,-47.122 38.257,-85.379 85.38,-85.379l253.964,0c47.123,0 85.38,38.257 85.38,85.379Zm-29.307,2.952c0,-35.745 -29.021,-64.766 -64.766,-64.766l-236.578,0c-35.745,0 -64.766,29.021 -64.766,64.766l0,164.857c0,35.745 29.021,64.765 64.766,64.765l236.578,0c35.745,0 64.766,-29.02 64.766,-64.765l0,-164.857Z" style="fill:url(#_Linear6);"/><circle cx="256" cy="53.242" r="34.362" style="fill:url(#_Linear7);"/><path d="M266.931,85.825c-3.434,1.153 -7.11,1.778 -10.931,1.778c-18.965,0 -34.362,-15.397 -34.362,-34.361c0,-3.821 0.626,-7.497 1.778,-10.931c1.331,26.357 18.092,43.261 43.515,43.514Z" style="fill-opacity:0.25;"/><defs><linearGradient id="_Linear1" x1="0" y1="0" x2="1" y2="0" gradientUnits="userSpaceOnUse" gradientTransform="matrix(-350.652,271.219,-271.219,-350.652,432.698,163.56)"><stop offset="0" style="stop-color:#3affff;stop-opacity:1"/><stop offset="1" style="stop-color:#0090ce;stop-opacity:1"/></linearGradient><linearGradient id="_Linear2" x1="0" y1="0" x2="1" y2="0" gradientUnits="userSpaceOnUse" gradientTransform="matrix(-49.7925,96.1512,-96.1512,-49.7925,171.296,340.988)"><stop offset="0" style="stop-color:#7dfa1d;stop-opacity:1"/><stop offset="1" style="stop-color:#4bad00;stop-opacity:1"/></linearGradient><linearGradient id="_Linear3" x1="0" y1="0" x2="1" y2="0" gradientUnits="userSpaceOnUse" gradientTransform="matrix(-44.1667,149.857,-149.857,-44.1667,332.12,287.284)"><stop offset="0" style="stop-color:#c6ff7b;stop-opacity:1"/><stop offset="1" style="stop-color:#8efb00;stop-opacity:1"/></linearGradient><linearGradient id="_Linear4" x1="0" y1="0" x2="1" y2="0" gradientUnits="userSpaceOnUse" gradientTransform="matrix(6.66067e-15,108.777,-108.777,6.66067e-15,236.434,192.054)"><stop offset="0" style="stop-color:#beb52b;stop-opacity:1"/><stop offset="0.01" style="stop-color:#beb52b;stop-opacity:1"/><stop offset="1" style="stop-color:#bd8b3e;stop-opacity:1"/></linearGradient><linearGradient id="_Linear5" x1="0" y1="0" x2="1" y2="0" gradientUnits="userSpaceOnUse" gradientTransform="matrix(6.66067e-15,108.777,-108.777,6.66067e-15,236.434,184.847)"><stop offset="0" style="stop-color:#fcf039;stop-opacity:1"/><stop offset="0.01" style="stop-color:#fcf039;stop-opacity:1"/><stop offset="1" style="stop-color:#fbb953;stop-opacity:1"/></linearGradient><linearGradient id="_Linear6" x1="0" y1="0" x2="1" y2="0" gradientUnits="userSpaceOnUse" gradientTransform="matrix(-342.833,284.773,-284.773,-342.833,425.488,152.159)"><stop offset="0" style="stop-color:#f2b827;stop-opacity:1"/><stop offset="1" style="stop-color:#ad5d02;stop-opacity:1"/></linearGradient><linearGradient id="_Linear7" x1="0" y1="0" x2="1" y2="0" gradientUnits="userSpaceOnUse" gradientTransform="matrix(-42.7939,38.7821,-38.7821,-42.7939,277.807,34.4259)"><stop offset="0" style="stop-color:#fce93c;stop-opacity:1"/><stop offset="1" style="stop-color:#fbc24f;stop-opacity:1"/></linearGradient></defs></svg>