<?xml version="1.0" encoding="UTF-8" standalone="no"?><!DOCTYPE svg PUBLIC "-//W3C//DTD SVG 1.1//EN" "http://www.w3.org/Graphics/SVG/1.1/DTD/svg11.dtd"><svg width="100%" height="100%" viewBox="0 0 512 512" version="1.1" xmlns="http://www.w3.org/2000/svg" xmlns:xlink="http://www.w3.org/1999/xlink" xml:space="preserve" style="fill-rule:evenodd;clip-rule:evenodd;stroke-linejoin:round;stroke-miterlimit:2;"><path d="M291.328,445.59c-29.791,-6.489 -46.731,-17.804 -46.731,-32.579c-0,-2.137 0.371,-4.497 1.376,-6.972c0.34,-0.836 0.733,-1.65 1.18,-2.439l106.266,-211.843c1.36,-2.704 4.077,-4.276 6.91,-4.271c2.835,-0.005 5.552,1.567 6.911,4.271l81.801,163.071l-157.713,90.762Z" style="fill:url(#_Linear1);"/><path d="M265.577,437.36c-13.594,-6.345 -20.98,-14.593 -20.98,-24.349c0,-2.137 0.371,-4.497 1.376,-6.972c0.34,-0.836 0.733,-1.65 1.18,-2.439l106.266,-211.843c1.36,-2.704 4.077,-4.276 6.91,-4.271c0.97,-0.001 1.926,0.181 2.818,0.531c0.278,1.022 0.202,2.395 -0.396,4.141c-10.47,30.521 -82.532,232.754 -97.174,245.202Z" style="fill-opacity:0.25;"/><defs><linearGradient id="_Linear1" x1="0" y1="0" x2="1" y2="0" gradientUnits="userSpaceOnUse" gradientTransform="matrix(-157.021,115.654,-115.654,-157.021,401.619,306.325)"><stop offset="0" style="stop-color:#99f53d;stop-opacity:1"/><stop offset="1" style="stop-color:#61c200;stop-opacity:1"/></linearGradient></defs></svg>