<?xml version="1.0" encoding="UTF-8" standalone="no"?><!DOCTYPE svg PUBLIC "-//W3C//DTD SVG 1.1//EN" "http://www.w3.org/Graphics/SVG/1.1/DTD/svg11.dtd"><svg width="100%" height="100%" viewBox="0 0 512 512" version="1.1" xmlns="http://www.w3.org/2000/svg" xmlns:xlink="http://www.w3.org/1999/xlink" xml:space="preserve" xmlns:serif="http://www.serif.com/" style="fill-rule:evenodd;clip-rule:evenodd;stroke-linejoin:round;stroke-miterlimit:2;"><g><path d="M255.994,31c-3.532,0 -7.063,0.914 -10.227,2.74l-177.139,102.276c-6.329,3.654 -10.227,10.407 -10.227,17.715l0.005,204.544c0.001,3.654 0.976,7.168 2.741,10.226l6.078,2.555l382.822,-3.029l-188.78,-335.57l-5.273,-1.457Z" style="fill:url(#_Linear1);fill-rule:nonzero;"/><path d="M450.859,368.495c1.766,-3.058 2.74,-6.575 2.739,-10.228l-0.006,-204.544c-0,-7.308 -3.898,-14.06 -10.227,-17.714l-177.144,-102.268c-3.165,-1.828 -6.696,-2.74 -10.228,-2.74l0.007,224.998l194.859,112.496Z" style="fill:url(#_Linear2);fill-rule:nonzero;"/><path d="M443.371,375.982c3.165,-1.826 5.722,-4.428 7.488,-7.486l-194.859,-112.496l-194.854,112.503c1.766,3.058 4.322,5.66 7.487,7.487l177.144,102.269c6.33,3.654 14.127,3.654 20.455,0l177.139,-102.277Z" style="fill:url(#_Linear3);fill-rule:nonzero;"/></g><defs><linearGradient id="_Linear1" x1="0" y1="0" x2="1" y2="0" gradientUnits="userSpaceOnUse" gradientTransform="matrix(-123.296,-86.4834,86.4834,-123.296,190.941,233.12)"><stop offset="0" style="stop-color:#26e5f2;stop-opacity:1"/><stop offset="1" style="stop-color:#00a2ad;stop-opacity:1"/></linearGradient><linearGradient id="_Linear2" x1="0" y1="0" x2="1" y2="0" gradientUnits="userSpaceOnUse" gradientTransform="matrix(102.826,-104.989,104.989,102.826,331.26,256)"><stop offset="0" style="stop-color:#0dcbd9;stop-opacity:1"/><stop offset="1" style="stop-color:#007c85;stop-opacity:1"/></linearGradient><linearGradient id="_Linear3" x1="0" y1="0" x2="1" y2="0" gradientUnits="userSpaceOnUse" gradientTransform="matrix(-156.354,117.101,-117.101,-156.354,333.261,308.544)"><stop offset="0" style="stop-color:#098790;stop-opacity:1"/><stop offset="1" style="stop-color:#004347;stop-opacity:1"/></linearGradient></defs></svg>