<?xml version="1.0" encoding="UTF-8" standalone="no"?><!DOCTYPE svg PUBLIC "-//W3C//DTD SVG 1.1//EN" "http://www.w3.org/Graphics/SVG/1.1/DTD/svg11.dtd"><svg width="100%" height="100%" viewBox="0 0 512 512" version="1.1" xmlns="http://www.w3.org/2000/svg" xmlns:xlink="http://www.w3.org/1999/xlink" xml:space="preserve" style="fill-rule:evenodd;clip-rule:evenodd;stroke-linejoin:round;stroke-miterlimit:2;"><path d="M100.142,96.801c-3.111,-7.409 -1.02,-15.98 5.156,-21.122c8.161,-6.813 16.773,-13.07 25.778,-18.722c6.797,-4.282 15.593,-3.624 21.675,1.623c8.847,7.623 21.639,18.657 29.88,25.766c4.872,4.201 11.592,5.534 17.696,3.508c0.62,-0.223 1.247,-0.426 1.874,-0.627c6.125,-1.947 10.776,-6.97 12.246,-13.226c2.503,-10.593 6.366,-27.038 9.036,-38.406c1.839,-7.823 8.568,-13.528 16.586,-14.059c10.61,-0.715 21.253,-0.715 31.861,0.007c8.016,0.53 14.746,6.232 16.582,14.053c2.676,11.367 6.538,27.812 9.028,38.408c1.47,6.262 6.124,11.289 12.253,13.239c0.634,0.185 1.261,0.388 1.887,0.595c6.098,2.024 12.813,0.694 17.679,-3.503c8.253,-7.098 21.044,-18.132 29.887,-25.759c6.084,-5.248 14.883,-5.908 21.681,-1.624c9.003,5.657 17.615,11.914 25.773,18.732c6.172,5.14 8.264,13.709 5.153,21.116c-4.515,10.767 -11.056,26.342 -15.271,36.38c-2.491,5.929 -1.68,12.731 2.133,17.912c0.403,0.522 0.79,1.054 1.174,1.59c3.746,5.222 9.959,8.093 16.364,7.557c10.848,-0.891 27.681,-2.298 39.318,-3.272c8.008,-0.67 15.514,3.968 18.495,11.43c3.96,9.868 7.248,19.992 9.841,30.303c1.97,7.787 -1.372,15.949 -8.243,20.112c-9.983,6.058 -24.428,14.813 -33.737,20.456c-5.5,3.333 -8.845,9.313 -8.804,15.745c0.019,0.659 0.019,1.318 0.016,1.978c-0.04,6.426 3.301,12.4 8.796,15.732c9.301,5.654 23.746,14.41 33.732,20.463c6.873,4.165 10.219,12.328 8.245,20.118c-2.598,10.31 -5.886,20.434 -9.851,30.3c-2.981,7.458 -10.484,12.096 -18.489,11.426c-11.638,-0.968 -28.471,-2.375 -39.318,-3.282c-6.41,-0.536 -12.629,2.337 -16.378,7.563c-0.371,0.546 -0.758,1.078 -1.148,1.61c-3.811,5.175 -4.62,11.972 -2.132,17.896l12.843,30.623c-0,0 1.08,2.572 2.42,5.762c3.11,7.408 1.019,15.98 -5.156,21.121c-8.161,6.815 -16.773,13.071 -25.778,18.723c-6.797,4.283 -15.593,3.623 -21.675,-1.624c-8.847,-7.622 -21.638,-18.657 -29.88,-25.765c-4.871,-4.201 -11.592,-5.533 -17.695,-3.507c-0.621,0.222 -1.248,0.424 -1.875,0.626c-6.125,1.947 -10.776,6.97 -12.244,13.226c-2.506,10.593 -6.368,27.038 -9.039,38.405c-1.836,7.824 -8.569,13.528 -16.585,14.057c-10.61,0.717 -21.253,0.717 -31.861,-0.004c-8.016,-0.531 -14.744,-6.233 -16.582,-14.054c-2.676,-11.366 -6.539,-27.811 -9.028,-38.408c-1.47,-6.261 -6.124,-11.288 -12.254,-13.237c-0.633,-0.187 -1.26,-0.389 -1.886,-0.596c-6.098,-2.025 -12.813,-0.694 -17.679,3.503c-8.252,7.097 -21.044,18.132 -29.887,25.759c-6.084,5.249 -14.882,5.907 -21.681,1.625c-9.003,-5.658 -17.615,-11.914 -25.772,-18.733c-6.173,-5.141 -8.265,-13.709 -5.155,-21.116c4.516,-10.768 11.057,-26.343 15.272,-36.379c2.491,-5.93 1.681,-12.733 -2.132,-17.912c-0.404,-0.523 -0.791,-1.055 -1.175,-1.591c-3.745,-5.223 -9.959,-8.093 -16.362,-7.558c-10.85,0.892 -27.683,2.299 -39.32,3.272c-8.007,0.67 -15.514,-3.967 -18.496,-11.428c-3.959,-9.869 -7.248,-19.993 -9.84,-30.304c-1.972,-7.788 1.372,-15.95 8.242,-20.112c9.984,-6.058 24.431,-14.814 33.738,-20.455c5.5,-3.335 8.845,-9.314 8.804,-15.747c-0.019,-0.658 -0.019,-1.317 -0.015,-1.976c0.039,-6.427 -3.3,-12.401 -8.797,-15.733c-9.299,-5.655 -23.746,-14.41 -33.732,-20.462c-6.873,-4.166 -10.218,-12.33 -8.245,-20.119c2.597,-10.31 5.886,-20.434 9.851,-30.3c2.981,-7.458 10.484,-12.095 18.488,-11.427c11.639,0.969 28.472,2.376 39.32,3.283c6.409,0.535 12.628,-2.337 16.377,-7.564c0.371,-0.545 0.758,-1.077 1.148,-1.608c3.811,-5.175 4.62,-11.973 2.132,-17.898c-5.017,-11.985 -12.843,-30.622 -12.843,-30.622l-2.42,-5.762Z" style="fill:url(#_Linear1);stroke:#808080;stroke-width:8px;"/><path d="M249.572,459.889c-0.632,1.38 -2.026,2.334 -3.637,2.334c-0.001,0 2.635,-0.46 3.637,-2.334Zm31.759,-18.802l-5.802,25.019c-0.342,1.479 -1.6,2.568 -3.112,2.697c-10.925,0.93 -21.909,0.93 -32.834,0c-1.512,-0.129 -2.77,-1.218 -3.112,-2.697c0,0 -2.788,-12.022 -5.802,-25.019c2.453,0.374 4.923,0.695 7.409,0.96c1.97,8.498 3.571,15.404 3.899,16.816c0.698,3.01 3.335,3.311 3.335,3.311c0.133,0.021 0.268,0.036 0.402,0.043c6.852,0.379 13.72,0.379 20.572,0c1.776,-0.098 3.274,-1.357 3.676,-3.09l3.96,-17.08c2.486,-0.265 4.956,-0.586 7.409,-0.96Zm-50.661,-370.174l5.801,-25.018c0.342,-1.478 1.6,-2.568 3.112,-2.696c10.925,-0.931 21.909,-0.931 32.834,0c1.512,0.128 2.77,1.218 3.112,2.696c0,0 2.788,12.021 5.801,25.018c-2.453,-0.374 -4.922,-0.695 -7.408,-0.96l-3.96,-17.078c-0.402,-1.733 -1.9,-2.992 -3.676,-3.09c-6.852,-0.379 -13.72,-0.379 -20.572,0c-1.776,0.098 -3.274,1.357 -3.676,3.09l-3.96,17.078c-2.486,0.265 -4.956,0.586 -7.408,0.96Zm217.263,254.177c1.117,1.028 1.594,2.648 1.097,4.181c-0.001,0.001 0.376,-2.649 -1.097,-4.181Zm-8.073,-36.013l22.004,13.246c1.301,0.782 1.948,2.315 1.604,3.793c-2.49,10.678 -5.883,21.125 -10.142,31.228c-0.59,1.399 -2.014,2.258 -3.526,2.128c0,0 -12.296,-1.062 -25.588,-2.211c1.113,-2.217 2.181,-4.467 3.202,-6.749c8.69,0.75 15.753,1.361 17.197,1.485c3.079,0.266 4.18,-2.149 4.18,-2.149c0.061,-0.12 0.116,-0.244 0.165,-0.369c2.476,-6.4 4.597,-12.932 6.354,-19.566c0.455,-1.72 -0.28,-3.534 -1.804,-4.451l-15.021,-9.042c0.515,-2.446 0.973,-4.895 1.375,-7.343Zm-367.722,-66.154l-22.002,-13.244c-1.301,-0.783 -1.948,-2.315 -1.604,-3.793c2.49,-10.678 5.883,-21.125 10.142,-31.228c0.59,-1.399 2.014,-2.258 3.526,-2.128c-0,0 12.294,1.062 25.586,2.21c-1.113,2.218 -2.181,4.468 -3.202,6.75l-17.465,-1.509c-1.772,-0.153 -3.433,0.883 -4.075,2.542c-2.476,6.4 -4.597,12.932 -6.354,19.566c-0.455,1.72 0.28,3.534 1.804,4.451l15.019,9.041c-0.515,2.446 -0.973,4.894 -1.375,7.342Zm379.799,-23.668c1.508,0.176 2.846,1.207 3.342,2.74c0.001,0.001 -1.25,-2.365 -3.342,-2.74Zm-27.677,-24.415l25.589,-2.195c1.513,-0.13 2.936,0.73 3.525,2.13c4.253,10.105 7.64,20.554 10.123,31.234c0.344,1.478 -0.304,3.01 -1.606,3.792c-0,0 -10.577,6.359 -22.011,13.233c-0.401,-2.449 -0.858,-4.897 -1.371,-7.344c7.476,-4.494 13.552,-8.147 14.794,-8.893c2.649,-1.593 2.122,-4.195 2.122,-4.195c-0.021,-0.133 -0.049,-0.265 -0.083,-0.395c-1.753,-6.635 -3.87,-13.168 -6.343,-19.57c-0.641,-1.659 -2.301,-2.696 -4.073,-2.544l-17.468,1.499c-1.02,-2.283 -2.086,-4.534 -3.198,-6.752Zm-336.522,162.322l-25.587,2.195c-1.513,0.13 -2.937,-0.731 -3.525,-2.13c-4.254,-10.106 -7.64,-20.555 -10.123,-31.234c-0.344,-1.479 0.304,-3.01 1.605,-3.792c0,0 10.577,-6.358 22.011,-13.232c0.4,2.449 0.857,4.897 1.37,7.344l-15.024,9.032c-1.525,0.916 -2.261,2.73 -1.807,4.45c1.753,6.635 3.87,13.168 6.343,19.57c0.641,1.659 2.301,2.696 4.073,2.544l17.466,-1.499c1.02,2.283 2.086,4.534 3.198,6.752Zm43.313,80.082c-1.322,0.746 -3.011,0.699 -4.315,-0.247c-0.001,-0.001 2.403,1.176 4.315,0.247Zm36.746,3.435l-19.389,16.842c-1.146,0.996 -2.803,1.139 -4.103,0.355c-9.388,-5.663 -18.279,-12.114 -26.574,-19.284c-1.149,-0.992 -1.527,-2.612 -0.936,-4.01c-0,0 4.805,-11.368 9.999,-23.657c1.766,1.743 3.577,3.453 5.433,5.128c-3.396,8.034 -6.157,14.565 -6.721,15.899c-1.203,2.847 0.755,4.64 0.755,4.64c0.095,0.095 0.195,0.185 0.3,0.27c5.323,4.331 10.882,8.365 16.65,12.083c1.495,0.964 3.447,0.824 4.79,-0.342l13.237,-11.498c2.168,1.245 4.355,2.436 6.559,3.574Zm176.407,-329.357l19.388,-16.842c1.146,-0.995 2.803,-1.138 4.103,-0.354c9.388,5.663 18.279,12.114 26.574,19.284c1.149,0.992 1.527,2.612 0.936,4.01c0,0 -4.805,11.367 -9.999,23.655c-1.765,-1.743 -3.576,-3.453 -5.432,-5.128l6.825,-16.147c0.693,-1.639 0.22,-3.538 -1.16,-4.66c-5.323,-4.331 -10.882,-8.365 -16.65,-12.083c-1.495,-0.964 -3.447,-0.824 -4.79,0.342l-13.235,11.496c-2.168,-1.244 -4.355,-2.436 -6.56,-3.573Zm26.486,333.373c0.3,1.489 -0.267,3.08 -1.57,4.028c-0.001,0 1.861,-1.922 1.57,-4.028Zm14.632,-33.882l10.019,23.648c0.592,1.398 0.216,3.018 -0.932,4.012c-8.289,7.176 -17.174,13.635 -26.557,19.307c-1.299,0.785 -2.957,0.643 -4.104,-0.351c0,0 -9.324,-8.085 -19.404,-16.826c2.204,-1.14 4.39,-2.333 6.557,-3.58c6.59,5.715 11.947,10.359 13.042,11.309c2.335,2.024 4.645,0.717 4.645,0.717c0.12,-0.061 0.237,-0.129 0.35,-0.202c5.765,-3.723 11.32,-7.761 16.64,-12.096c1.379,-1.124 1.85,-3.024 1.156,-4.662l-6.84,-16.143c1.855,-1.676 3.664,-3.388 5.428,-5.133Zm-258.645,-269.626l-10.018,-23.647c-0.592,-1.397 -0.216,-3.018 0.932,-4.011c8.289,-7.177 17.174,-13.635 26.557,-19.307c1.299,-0.785 2.957,-0.643 4.104,0.351c0,0 9.323,8.084 19.402,16.825c-2.204,1.139 -4.39,2.332 -6.557,3.579l-13.244,-11.484c-1.344,-1.166 -3.297,-1.304 -4.791,-0.339c-5.765,3.723 -11.32,7.762 -16.64,12.097c-1.379,1.124 -1.85,3.023 -1.156,4.661l6.839,16.142c-1.854,1.676 -3.664,3.388 -5.428,5.133Z" style="fill:#d32e34;fill-opacity:0.35;"/><defs><linearGradient id="_Linear1" x1="0" y1="0" x2="1" y2="0" gradientUnits="userSpaceOnUse" gradientTransform="matrix(-257.455,361.378,-361.378,-257.455,386.557,74.7898)"><stop offset="0" style="stop-color:#b4bbc2;stop-opacity:1"/><stop offset="1" style="stop-color:#8f9aa4;stop-opacity:1"/></linearGradient></defs></svg>