<?xml version="1.0" encoding="UTF-8" standalone="no"?><!DOCTYPE svg PUBLIC "-//W3C//DTD SVG 1.1//EN" "http://www.w3.org/Graphics/SVG/1.1/DTD/svg11.dtd"><svg width="100%" height="100%" viewBox="0 0 512 512" version="1.1" xmlns="http://www.w3.org/2000/svg" xmlns:xlink="http://www.w3.org/1999/xlink" xml:space="preserve" xmlns:serif="http://www.serif.com/" style="fill-rule:evenodd;clip-rule:evenodd;stroke-linejoin:round;stroke-miterlimit:2;"><circle cx="256" cy="256" r="76.5" style="fill:url(#_Linear1);"/><path d="M256,179.5c42.221,0 76.5,34.279 76.5,76.5c0,42.221 -34.279,76.5 -76.5,76.5c-42.221,0 -76.5,-34.279 -76.5,-76.5c0,-42.221 34.279,-76.5 76.5,-76.5Zm0,14.735c-34.089,0 -61.765,27.676 -61.765,61.765c0,34.089 27.676,61.765 61.765,61.765c34.089,-0 61.765,-27.676 61.765,-61.765c-0,-34.089 -27.676,-61.765 -61.765,-61.765Z" style="fill-opacity:0.79;"/><defs><linearGradient id="_Linear1" x1="0" y1="0" x2="1" y2="0" gradientUnits="userSpaceOnUse" gradientTransform="matrix(-204.078,227.864,-227.864,-204.078,304.19,193.734)"><stop offset="0" style="stop-color:#bf4044;stop-opacity:1"/><stop offset="1" style="stop-color:#861317;stop-opacity:1"/></linearGradient></defs></svg>