<?xml version="1.0" encoding="UTF-8" standalone="no"?><!DOCTYPE svg PUBLIC "-//W3C//DTD SVG 1.1//EN" "http://www.w3.org/Graphics/SVG/1.1/DTD/svg11.dtd"><svg width="100%" height="100%" viewBox="0 0 512 512" version="1.1" xmlns="http://www.w3.org/2000/svg" xmlns:xlink="http://www.w3.org/1999/xlink" xml:space="preserve" style="fill-rule:evenodd;clip-rule:evenodd;stroke-linejoin:round;stroke-miterlimit:2;"><g><path d="M256.926,117.116l50.6,-50.6c40.254,-40.254 104.046,-42.13 142.003,-4.173c37.956,37.956 36.08,101.748 -4.174,142.002l-50.6,50.6l-32.448,-9.96l-9.96,-32.449l50.599,-50.599c0.337,-0.337 0.666,-0.678 0.989,-1.023c0.322,-0.3 0.64,-0.607 0.953,-0.92c14.629,-14.629 14.629,-38.382 0,-53.011c-14.629,-14.629 -38.382,-14.629 -53.011,0c-0.316,0.316 -0.625,0.637 -0.926,0.959c-0.342,0.32 -0.681,0.648 -1.016,0.983l-50.6,50.6l-32.448,-9.96l-9.961,-32.449Z" style="fill:#e61a20;fill-rule:nonzero;"/><path d="M324.236,240.646c-3.108,3.108 -3.251,7.994 -0.321,10.924l31.807,31.807c2.93,2.93 7.815,2.786 10.923,-0.322l28.111,-28.11l-42.409,-42.41l-28.111,28.111Z" style="fill:#edf5ff;fill-rule:nonzero;"/><path d="M228.495,156.15l31.806,31.806c2.931,2.931 7.816,2.788 10.924,-0.321l28.11,-28.11l-42.409,-42.409l-28.11,28.11c-3.109,3.108 -3.252,7.993 -0.321,10.924Z" style="fill:#edf5ff;fill-rule:nonzero;"/></g></svg>