<?xml version="1.0" encoding="UTF-8" standalone="no"?><!DOCTYPE svg PUBLIC "-//W3C//DTD SVG 1.1//EN" "http://www.w3.org/Graphics/SVG/1.1/DTD/svg11.dtd"><svg width="100%" height="100%" viewBox="0 0 512 512" version="1.1" xmlns="http://www.w3.org/2000/svg" xmlns:xlink="http://www.w3.org/1999/xlink" xml:space="preserve" style="fill-rule:evenodd;clip-rule:evenodd;stroke-linejoin:round;stroke-miterlimit:2;"><path d="M456,377c0,48.728 -39.561,88.29 -88.29,88.29l-223.42,-0c-48.729,-0 -88.29,-39.562 -88.29,-88.29c0,-48.728 39.561,-88.29 88.29,-88.29l223.42,0c48.729,0 88.29,39.562 88.29,88.29Z" style="fill:url(#_Linear1);"/><path d="M56,135c0,-48.728 39.561,-88.29 88.29,-88.29l223.42,0c48.729,0 88.29,39.562 88.29,88.29c0,48.728 -39.561,88.29 -88.29,88.29l-223.42,-0c-48.729,-0 -88.29,-39.562 -88.29,-88.29Z" style="fill:url(#_Linear2);"/><path d="M101.159,299.959c12.758,-7.163 27.471,-11.249 43.131,-11.249l223.42,0c48.729,0 88.29,39.562 88.29,88.29c-0,31.601 -16.638,59.346 -41.624,74.946l-10.827,5.637c25.307,-12.602 41.087,-50.415 41.087,-80.583c0,-42.457 -34.469,-76.926 -76.926,-76.926l-223.42,-0c-10.716,-0 -14.323,-0.258 -43.131,-0.115Z" style="fill:#fff;fill-opacity:0.25;"/><path d="M101.159,57.959c12.758,-7.163 27.471,-11.249 43.131,-11.249l223.42,0c48.729,0 88.29,39.562 88.29,88.29c0,31.601 -16.638,59.346 -41.624,74.946l-10.827,5.637c25.307,-12.602 41.087,-50.415 41.087,-80.583c0,-42.457 -34.469,-76.926 -76.926,-76.926l-223.42,-0c-10.716,-0 -20.84,-0.172 -43.131,-0.115Z" style="fill:#fff;fill-opacity:0.25;"/><defs><linearGradient id="_Linear1" x1="0" y1="0" x2="1" y2="0" gradientUnits="userSpaceOnUse" gradientTransform="matrix(-372.365,194.913,-194.913,-372.365,395.637,303.104)"><stop offset="0" style="stop-color:#eb4a82;stop-opacity:1"/><stop offset="1" style="stop-color:#c40044;stop-opacity:1"/></linearGradient><linearGradient id="_Linear2" x1="0" y1="0" x2="1" y2="0" gradientUnits="userSpaceOnUse" gradientTransform="matrix(-382.502,188.751,-188.751,-382.502,405.775,66.8182)"><stop offset="0" style="stop-color:#8ed75d;stop-opacity:1"/><stop offset="1" style="stop-color:#51b50e;stop-opacity:1"/></linearGradient></defs></svg>