<?xml version="1.0" encoding="UTF-8" standalone="no"?>
<!DOCTYPE svg PUBLIC "-//W3C//DTD SVG 1.1//EN" "http://www.w3.org/Graphics/SVG/1.1/DTD/svg11.dtd">
<svg width="100%" height="100%" viewBox="0 0 1024 1024" version="1.1" xmlns="http://www.w3.org/2000/svg" xmlns:xlink="http://www.w3.org/1999/xlink" xml:space="preserve" xmlns:serif="http://www.serif.com/" style="fill-rule:evenodd;clip-rule:evenodd;stroke-linejoin:round;stroke-miterlimit:2;">
    <path d="M634,326.36L544.437,236.797C538.715,231.075 537.005,222.469 540.105,214.994C543.204,207.519 550.503,202.649 558.595,202.655C627.972,202.711 752.746,202.81 801.167,202.849C812.2,202.858 821.142,211.8 821.151,222.833C821.19,271.254 821.289,396.028 821.345,465.405C821.351,473.497 816.481,480.796 809.006,483.895C801.531,486.995 792.925,485.285 787.203,479.563L697.64,390L390,697.64L479.563,787.203C485.285,792.925 486.995,801.531 483.895,809.006C480.796,816.481 473.497,821.351 465.405,821.345C396.028,821.289 271.254,821.19 222.833,821.151C211.8,821.142 202.858,812.2 202.849,801.167C202.81,752.746 202.711,627.972 202.655,558.595C202.649,550.503 207.519,543.204 214.994,540.105C222.469,537.005 231.075,538.715 236.797,544.437L326.36,634L634,326.36Z" style="fill:url(#_Linear1);"/>
    <defs>
        <linearGradient id="_Linear1" x1="0" y1="0" x2="1" y2="0" gradientUnits="userSpaceOnUse" gradientTransform="matrix(-578.249,569.249,-569.249,-578.249,799.249,224.751)"><stop offset="0" style="stop-color:rgb(255,136,0);stop-opacity:1"/><stop offset="1" style="stop-color:rgb(203,47,0);stop-opacity:1"/></linearGradient>
    </defs>
</svg>
