<?xml version="1.0" encoding="UTF-8" standalone="no"?>
<!DOCTYPE svg PUBLIC "-//W3C//DTD SVG 1.1//EN" "http://www.w3.org/Graphics/SVG/1.1/DTD/svg11.dtd">
<svg width="100%" height="100%" viewBox="0 0 1024 1024" version="1.1" xmlns="http://www.w3.org/2000/svg" xmlns:xlink="http://www.w3.org/1999/xlink" xml:space="preserve" style="fill-rule:evenodd;clip-rule:evenodd;stroke-linejoin:round;stroke-miterlimit:2;">
    <path d="M471.396,265.719L397.925,265.719C389.833,265.719 382.538,260.843 379.444,253.365C376.35,245.888 378.067,237.283 383.794,231.566C419.151,196.265 472.633,142.869 497.869,117.672C505.677,109.877 518.323,109.877 526.131,117.672C551.367,142.869 604.849,196.265 640.206,231.566C645.933,237.283 647.65,245.888 644.556,253.365C641.462,260.843 634.167,265.719 626.075,265.719L552.604,265.719L552.604,471.396L758.281,471.396L758.281,397.925C758.281,389.833 763.157,382.538 770.635,379.444C778.112,376.35 786.717,378.067 792.434,383.794C827.735,419.151 881.131,472.633 906.328,497.869C914.123,505.677 914.123,518.323 906.328,526.131C881.131,551.367 827.735,604.849 792.434,640.206C786.717,645.933 778.112,647.65 770.635,644.556C763.157,641.462 758.281,634.167 758.281,626.075L758.281,552.604L552.604,552.604L552.604,758.281L626.075,758.281C634.167,758.281 641.462,763.157 644.556,770.635C647.65,778.112 645.933,786.717 640.206,792.434C604.849,827.735 551.367,881.131 526.131,906.328C518.323,914.123 505.677,914.123 497.869,906.328C472.633,881.131 419.151,827.735 383.794,792.434C378.067,786.717 376.35,778.112 379.444,770.635C382.538,763.157 389.833,758.281 397.925,758.281L471.396,758.281L471.396,552.604L265.719,552.604L265.719,626.075C265.719,634.167 260.843,641.462 253.365,644.556C245.888,647.65 237.283,645.933 231.566,640.206C196.265,604.849 142.869,551.367 117.672,526.131C109.877,518.323 109.877,505.677 117.672,497.869C142.869,472.633 196.265,419.151 231.566,383.794C237.283,378.067 245.888,376.35 253.365,379.444C260.843,382.538 265.719,389.833 265.719,397.925L265.719,471.396L471.396,471.396L471.396,265.719Z" style="fill:url(#_Linear1);"/>
    <defs>
        <linearGradient id="_Linear1" x1="0" y1="0" x2="1" y2="0" gradientUnits="userSpaceOnUse" gradientTransform="matrix(-219,550,-550,-219,626,240)"><stop offset="0" style="stop-color:rgb(235,73,130);stop-opacity:1"/><stop offset="1" style="stop-color:rgb(207,0,73);stop-opacity:1"/></linearGradient>
    </defs>
</svg>
