<?xml version="1.0" encoding="UTF-8" standalone="no"?>
<!DOCTYPE svg PUBLIC "-//W3C//DTD SVG 1.1//EN" "http://www.w3.org/Graphics/SVG/1.1/DTD/svg11.dtd">
<svg width="100%" height="100%" viewBox="0 0 1024 1024" version="1.1" xmlns="http://www.w3.org/2000/svg" xmlns:xlink="http://www.w3.org/1999/xlink" xml:space="preserve" style="fill-rule:evenodd;clip-rule:evenodd;stroke-linejoin:round;stroke-miterlimit:2;">
    <g transform="matrix(0.954188,0,0,0.954188,26.2845,21.9439)">
        <path d="M649.4,178.023L700.225,118.28C706.109,111.364 715.155,107.988 724.131,109.357C733.108,110.726 740.736,116.645 744.291,125.001C772.283,190.799 828.8,323.648 859.232,395.181C863.117,404.313 861.509,414.856 855.078,422.415C848.648,429.973 838.499,433.25 828.862,430.879C753.376,412.305 613.188,377.809 543.753,360.724C534.936,358.554 527.871,351.974 525.081,343.333C522.291,334.691 524.174,325.222 530.058,318.305L581.817,257.464C560.254,251.776 537.869,248.848 515.19,248.848C369.953,248.848 252.038,366.763 252.038,512C252.038,657.237 369.953,775.152 515.19,775.152C588.171,775.152 657.874,744.844 707.647,691.469C713.417,685.281 723.111,684.943 729.298,690.713L777.721,735.868C783.909,741.638 784.247,751.332 778.477,757.519C710.387,830.538 615.03,872 515.19,872C316.501,872 155.19,710.689 155.19,512C155.19,313.311 316.501,152 515.19,152C561.617,152 607.141,160.969 649.4,178.023Z" style="fill:url(#_Linear1);"/>
    </g>
    <defs>
        <linearGradient id="_Linear1" x1="0" y1="0" x2="1" y2="0" gradientUnits="userSpaceOnUse" gradientTransform="matrix(-335.163,401.689,-401.689,-335.163,569.923,182.049)"><stop offset="0" style="stop-color:rgb(142,215,93);stop-opacity:1"/><stop offset="1" style="stop-color:rgb(79,141,35);stop-opacity:1"/></linearGradient>
    </defs>
</svg>
