<?xml version="1.0" encoding="UTF-8" standalone="no"?><!DOCTYPE svg PUBLIC "-//W3C//DTD SVG 1.1//EN" "http://www.w3.org/Graphics/SVG/1.1/DTD/svg11.dtd"><svg width="100%" height="100%" viewBox="0 0 512 512" version="1.1" xmlns="http://www.w3.org/2000/svg" xmlns:xlink="http://www.w3.org/1999/xlink" xml:space="preserve" style="fill-rule:evenodd;clip-rule:evenodd;stroke-linejoin:round;stroke-miterlimit:2;"><path d="M293.698,273.698l0,-217.698c0,-5.304 2.108,-10.391 5.858,-14.142c3.751,-3.751 8.838,-5.858 14.142,-5.858l142.302,0c5.304,0 10.391,2.107 14.142,5.858c3.751,3.751 5.858,8.838 5.858,14.142l-0,217.698l-182.302,0Z" style="fill:url(#_Linear1);"/><path d="M140.696,85.018l-0,95.681l47.16,0c4.045,0 7.691,2.437 9.239,6.174c1.548,3.736 0.692,8.038 -2.168,10.898c-21.1,21.1 -56.04,56.04 -70.928,70.927c-3.905,3.906 -10.237,3.906 -14.142,0c-14.888,-14.887 -49.827,-49.827 -70.928,-70.927c-2.86,-2.86 -3.715,-7.162 -2.168,-10.898c1.548,-3.737 5.195,-6.174 9.239,-6.174c20.685,0 47.161,0 47.161,0l-0,-95.681l-0.298,0l-0,-16.947c-0,-7.956 3.161,-15.587 8.787,-21.213c5.626,-5.626 13.256,-8.787 21.213,-8.787l116.655,0c5.304,0 10.391,2.107 14.142,5.858c3.751,3.751 5.858,8.838 5.858,14.142l-0,6.947c-0,5.304 -2.107,10.391 -5.858,14.142c-3.751,3.751 -8.838,5.858 -14.142,5.858c-33.857,0 -98.822,0 -98.822,0Z" style="fill:#e0e9eb;"/><defs><linearGradient id="_Linear1" x1="0" y1="0" x2="1" y2="0" gradientUnits="userSpaceOnUse" gradientTransform="matrix(-160.787,209.356,-209.356,-160.787,463.178,51.9906)"><stop offset="0" style="stop-color:#e0e9eb;stop-opacity:1"/><stop offset="1" style="stop-color:#c2d4d7;stop-opacity:1"/></linearGradient></defs></svg>