<?xml version="1.0" encoding="UTF-8" standalone="no"?><!DOCTYPE svg PUBLIC "-//W3C//DTD SVG 1.1//EN" "http://www.w3.org/Graphics/SVG/1.1/DTD/svg11.dtd"><svg width="100%" height="100%" viewBox="0 0 512 512" version="1.1" xmlns="http://www.w3.org/2000/svg" xmlns:xlink="http://www.w3.org/1999/xlink" xml:space="preserve" xmlns:serif="http://www.serif.com/" style="fill-rule:evenodd;clip-rule:evenodd;stroke-linejoin:round;stroke-miterlimit:2;"><path d="M256,401.471c-7.145,-0 -13.748,3.812 -17.321,10l-26.602,46.076c-5.523,9.566 -17.754,12.843 -27.32,7.321l-74.02,-42.736c-9.566,-5.522 -12.843,-17.754 -7.321,-27.32l26.603,-46.077c3.572,-6.188 3.572,-13.812 -0,-20c-3.573,-6.188 -10.175,-10 -17.321,-10l-53.204,0c-11.046,0 -20,-8.954 -20,-20l-0,-85.47c-0,-11.046 8.954,-20 20,-20l53.204,-0c7.146,-0 13.748,-3.812 17.321,-10c3.572,-6.188 3.572,-13.812 -0,-20l-26.603,-46.077c-5.522,-9.566 -2.245,-21.798 7.321,-27.32l74.02,-42.736c9.566,-5.522 21.797,-2.245 27.32,7.321l26.602,46.076c3.573,6.188 10.176,10 17.321,10l0,290.942Z" style="fill:url(#_Linear1);"/><defs><linearGradient id="_Linear1" x1="0" y1="0" x2="1" y2="0" gradientUnits="userSpaceOnUse" gradientTransform="matrix(-144.978,209.437,-209.437,-144.978,240.556,157.585)"><stop offset="0" style="stop-color:#09a2c1;stop-opacity:1"/><stop offset="1" style="stop-color:#0095b3;stop-opacity:1"/></linearGradient></defs></svg>