<?xml version="1.0" encoding="UTF-8" standalone="no"?><!DOCTYPE svg PUBLIC "-//W3C//DTD SVG 1.1//EN" "http://www.w3.org/Graphics/SVG/1.1/DTD/svg11.dtd"><svg width="100%" height="100%" viewBox="0 0 512 512" version="1.1" xmlns="http://www.w3.org/2000/svg" xmlns:xlink="http://www.w3.org/1999/xlink" xml:space="preserve" xmlns:serif="http://www.serif.com/" style="fill-rule:evenodd;clip-rule:evenodd;stroke-linejoin:round;stroke-miterlimit:2;"><path d="M41.858,293.698c-5.304,0 -10.391,2.108 -14.142,5.858c-3.751,3.751 -5.858,8.838 -5.858,14.142c0,35.066 0,107.237 0,142.302c0,5.304 2.107,10.391 5.858,14.142c3.751,3.751 8.838,5.858 14.142,5.858c73.291,0 326.709,0 400,0c5.304,0 10.392,-2.107 14.142,-5.858c3.751,-3.751 5.858,-8.838 5.858,-14.142c0,-35.065 0,-107.236 0,-142.302c0,-5.304 -2.107,-10.391 -5.858,-14.142c-3.75,-3.75 -8.838,-5.858 -14.142,-5.858c-73.291,0 -326.709,0 -400,0Z" style="fill:url(#_Linear1);"/><defs><linearGradient id="_Linear1" x1="0" y1="0" x2="1" y2="0" gradientUnits="userSpaceOnUse" gradientTransform="matrix(-416.617,160.464,160.464,416.617,449.924,307.251)"><stop offset="0" style="stop-color:#09a2c1;stop-opacity:1"/><stop offset="1" style="stop-color:#0094b2;stop-opacity:1"/></linearGradient></defs></svg>