<?xml version="1.0" encoding="UTF-8" standalone="no"?><!DOCTYPE svg PUBLIC "-//W3C//DTD SVG 1.1//EN" "http://www.w3.org/Graphics/SVG/1.1/DTD/svg11.dtd"><svg width="100%" height="100%" viewBox="0 0 512 512" version="1.1" xmlns="http://www.w3.org/2000/svg" xmlns:xlink="http://www.w3.org/1999/xlink" xml:space="preserve" style="fill-rule:evenodd;clip-rule:evenodd;stroke-linejoin:round;stroke-miterlimit:2;"><path d="M152.837,148.361l23.694,23.694c6.184,6.183 8.033,15.483 4.687,23.563c-3.347,8.079 -11.231,13.347 -19.976,13.347l-85.579,0c-5.734,0 -11.234,-2.278 -15.289,-6.333c-4.054,-4.055 -6.332,-9.554 -6.332,-15.289l-0,-85.578c-0,-8.745 5.268,-16.629 13.347,-19.976c8.079,-3.347 17.379,-1.497 23.563,4.687l23.962,23.962c36.016,-34.903 85.101,-56.397 139.166,-56.397c110.404,0 200.038,89.635 200.038,200.039c0,110.404 -89.634,200.038 -200.038,200.038c-71.078,0 -133.548,-37.149 -169.028,-93.071c-4.027,-6.333 -5.218,-14.063 -3.283,-21.313c1.932,-7.242 6.805,-13.344 13.438,-16.831c0.093,-0.05 0.186,-0.099 0.28,-0.148c12.231,-6.413 27.337,-2.351 34.701,9.329c25.942,41.087 71.751,68.404 123.892,68.404c80.805,0 146.408,-65.603 146.408,-146.408c0,-80.805 -65.603,-146.408 -146.408,-146.408c-39.265,-0 -74.94,15.491 -101.243,40.689Z" style="fill:url(#_Linear1);"/><defs><linearGradient id="_Linear1" x1="0" y1="0" x2="1" y2="0" gradientUnits="userSpaceOnUse" gradientTransform="matrix(-271.254,242.423,-242.423,-271.254,377.582,122.791)"><stop offset="0" style="stop-color:#dfe9eb;stop-opacity:1"/><stop offset="1" style="stop-color:#c2d4d7;stop-opacity:1"/></linearGradient></defs></svg>