<?xml version="1.0" encoding="UTF-8" standalone="no"?><!DOCTYPE svg PUBLIC "-//W3C//DTD SVG 1.1//EN" "http://www.w3.org/Graphics/SVG/1.1/DTD/svg11.dtd"><svg width="100%" height="100%" viewBox="0 0 512 512" version="1.1" xmlns="http://www.w3.org/2000/svg" xmlns:xlink="http://www.w3.org/1999/xlink" xml:space="preserve" xmlns:serif="http://www.serif.com/" style="fill-rule:evenodd;clip-rule:evenodd;stroke-linejoin:round;stroke-miterlimit:2;"><path d="M212.077,457.547c-5.523,9.566 -17.754,12.843 -27.32,7.321c-20.296,-11.718 -53.724,-31.018 -74.02,-42.736c-9.566,-5.522 -12.843,-17.754 -7.321,-27.32c7.452,-12.907 17.814,-30.855 26.603,-46.077c3.572,-6.188 3.572,-13.812 -0,-20c-3.573,-6.188 -10.175,-10 -17.321,-10l-53.204,0c-11.046,0 -20,-8.954 -20,-20c-0,-23.435 -0,-62.035 -0,-85.47c-0,-11.046 8.954,-20 20,-20c14.903,-0 35.628,-0 53.204,-0c7.146,-0 13.748,-3.812 17.321,-10c3.572,-6.188 3.572,-13.812 -0,-20c-8.789,-15.222 -19.151,-33.17 -26.603,-46.077c-5.522,-9.566 -2.245,-21.798 7.321,-27.32c20.296,-11.718 53.724,-31.018 74.02,-42.736c9.566,-5.522 21.797,-2.245 27.32,7.321c7.452,12.906 17.814,30.854 26.602,46.076c3.573,6.188 10.176,10 17.321,10c7.145,0 13.748,-3.812 17.321,-10c8.788,-15.222 19.15,-33.17 26.602,-46.076c5.523,-9.566 17.754,-12.843 27.32,-7.321c20.296,11.718 53.724,31.018 74.02,42.736c9.566,5.522 12.843,17.754 7.321,27.32c-7.452,12.907 -17.814,30.855 -26.603,46.077c-3.572,6.188 -3.572,13.812 0,20c3.573,6.188 10.175,10 17.321,10l53.204,-0c11.046,-0 20,8.954 20,20c0,23.435 0,62.035 0,85.47c0,11.046 -8.954,20 -20,20c-14.903,0 -35.628,0 -53.204,0c-7.146,0 -13.748,3.812 -17.321,10c-3.572,6.188 -3.572,13.812 0,20c8.789,15.222 19.151,33.17 26.603,46.077c5.522,9.566 2.245,21.798 -7.321,27.32c-20.296,11.718 -53.724,31.018 -74.02,42.736c-9.566,5.522 -21.797,2.245 -27.32,-7.321c-7.452,-12.906 -17.814,-30.854 -26.602,-46.076c-3.573,-6.188 -10.176,-10 -17.321,-10c-7.145,-0 -13.748,3.812 -17.321,10c-8.788,15.222 -19.15,33.17 -26.602,46.076Z" style="fill:url(#_Linear1);"/><defs><linearGradient id="_Linear1" x1="0" y1="0" x2="1" y2="0" gradientUnits="userSpaceOnUse" gradientTransform="matrix(-200.589,223.625,-223.625,-200.589,391.251,179.449)"><stop offset="0" style="stop-color:#e0e9eb;stop-opacity:1"/><stop offset="1" style="stop-color:#c4d5d8;stop-opacity:1"/></linearGradient></defs></svg>