<?xml version="1.0" encoding="UTF-8" standalone="no"?><!DOCTYPE svg PUBLIC "-//W3C//DTD SVG 1.1//EN" "http://www.w3.org/Graphics/SVG/1.1/DTD/svg11.dtd"><svg width="100%" height="100%" viewBox="0 0 512 512" version="1.1" xmlns="http://www.w3.org/2000/svg" xmlns:xlink="http://www.w3.org/1999/xlink" xml:space="preserve" style="fill-rule:evenodd;clip-rule:evenodd;stroke-linejoin:round;stroke-miterlimit:2;"><path d="M445.596,359.101c0,-16.907 -13.727,-30.633 -30.633,-30.633l-317.926,0c-16.906,0 -30.633,13.726 -30.633,30.633l0,61.266c0,16.907 13.727,30.633 30.633,30.633l317.926,0c16.906,0 30.633,-13.726 30.633,-30.633l0,-61.266Z" style="fill:url(#_Linear1);"/><path d="M411.165,373.797c0,-4.531 -3.679,-8.209 -8.21,-8.209l-293.909,0c-4.531,0 -8.21,3.678 -8.21,8.209l0,31.874c0,4.531 3.679,8.21 8.21,8.21l293.909,0c4.531,0 8.21,-3.679 8.21,-8.21l0,-31.874Z" style="fill:url(#_Linear2);"/><defs><linearGradient id="_Linear1" x1="0" y1="0" x2="1" y2="0" gradientUnits="userSpaceOnUse" gradientTransform="matrix(-333.473,102.122,-102.122,-333.473,417.474,337.051)"><stop offset="0" style="stop-color:#66a3cc;stop-opacity:1"/><stop offset="1" style="stop-color:#186faa;stop-opacity:1"/></linearGradient><linearGradient id="_Linear2" x1="0" y1="0" x2="1" y2="0" gradientUnits="userSpaceOnUse" gradientTransform="matrix(-388.466,68.0335,-68.0335,-388.466,402.616,373.054)"><stop offset="0" style="stop-color:#325374;stop-opacity:1"/><stop offset="1" style="stop-color:#0e2943;stop-opacity:1"/></linearGradient></defs></svg>