<?xml version="1.0" encoding="UTF-8" standalone="no"?><!DOCTYPE svg PUBLIC "-//W3C//DTD SVG 1.1//EN" "http://www.w3.org/Graphics/SVG/1.1/DTD/svg11.dtd"><svg width="100%" height="100%" viewBox="0 0 512 512" version="1.1" xmlns="http://www.w3.org/2000/svg" xmlns:xlink="http://www.w3.org/1999/xlink" xml:space="preserve" style="fill-rule:evenodd;clip-rule:evenodd;stroke-linejoin:round;stroke-miterlimit:2;"><rect x="233.729" y="169.262" width="44.543" height="220.472" style="fill:url(#_Linear1);"/><rect x="233.729" y="169.262" width="44.543" height="220.472" style="fill:url(#_Linear2);"/><g><circle cx="256.001" cy="150.476" r="89.476" style="fill:url(#_Linear3);"/><path d="M345.477,150.476c-0,49.415 -40.059,89.476 -89.476,89.476c-49.417,-0 -89.477,-40.061 -89.477,-89.476c0,-10.703 1.886,-20.963 5.332,-30.475l168.29,0c3.445,9.512 5.331,19.772 5.331,30.475Z" style="fill:url(#_Linear4);fill-rule:nonzero;"/><path d="M319.27,213.746c-34.943,34.942 -91.596,34.942 -126.539,-0c-34.943,-34.943 -34.943,-91.597 0,-126.539c7.568,-7.567 16.157,-13.49 25.32,-17.779l118.998,118.998c-4.29,9.163 -10.212,17.751 -17.779,25.32Z" style="fill:url(#_Linear5);fill-rule:nonzero;"/></g><defs><linearGradient id="_Linear1" x1="0" y1="0" x2="1" y2="0" gradientUnits="userSpaceOnUse" gradientTransform="matrix(37.1263,0,0,48.6627,236.699,279.498)"><stop offset="0" style="stop-color:#eaf9fa;stop-opacity:1"/><stop offset="1" style="stop-color:#b3dafe;stop-opacity:1"/></linearGradient><linearGradient id="_Linear2" x1="0" y1="0" x2="1" y2="0" gradientUnits="userSpaceOnUse" gradientTransform="matrix(4.43341e-15,-94.9009,72.403,5.81101e-15,256,301.129)"><stop offset="0" style="stop-color:#b3dafe;stop-opacity:0"/><stop offset="0.24" style="stop-color:#acd5fa;stop-opacity:0.24"/><stop offset="0.59" style="stop-color:#9ac5f0;stop-opacity:0.59"/><stop offset="0.99" style="stop-color:#7cacdf;stop-opacity:0.99"/><stop offset="1" style="stop-color:#7bacdf;stop-opacity:1"/></linearGradient><linearGradient id="_Linear3" x1="0" y1="0" x2="1" y2="0" gradientUnits="userSpaceOnUse" gradientTransform="matrix(-83.9674,83.9674,83.9674,83.9674,291.271,115.206)"><stop offset="0" style="stop-color:#fe646f;stop-opacity:1"/><stop offset="1" style="stop-color:#c41926;stop-opacity:1"/></linearGradient><linearGradient id="_Linear4" x1="0" y1="0" x2="1" y2="0" gradientUnits="userSpaceOnUse" gradientTransform="matrix(-5.04914e-15,82.4587,82.4587,5.04914e-15,256.001,151.776)"><stop offset="0" style="stop-color:#a72b2b;stop-opacity:0"/><stop offset="0.2" style="stop-color:#a32b2a;stop-opacity:0.2"/><stop offset="0.4" style="stop-color:#972926;stop-opacity:0.4"/><stop offset="0.6" style="stop-color:#832820;stop-opacity:0.6"/><stop offset="0.79" style="stop-color:#672517;stop-opacity:0.79"/><stop offset="0.99" style="stop-color:#44210c;stop-opacity:0.99"/><stop offset="1" style="stop-color:#42210b;stop-opacity:1"/></linearGradient><linearGradient id="_Linear5" x1="0" y1="0" x2="1" y2="0" gradientUnits="userSpaceOnUse" gradientTransform="matrix(-48.8123,48.8123,48.8123,48.8123,241.234,165.243)"><stop offset="0" style="stop-color:#a72b2b;stop-opacity:0"/><stop offset="0.2" style="stop-color:#a32b2a;stop-opacity:0.2"/><stop offset="0.4" style="stop-color:#972926;stop-opacity:0.4"/><stop offset="0.6" style="stop-color:#832820;stop-opacity:0.6"/><stop offset="0.79" style="stop-color:#672517;stop-opacity:0.79"/><stop offset="0.99" style="stop-color:#44210c;stop-opacity:0.99"/><stop offset="1" style="stop-color:#42210b;stop-opacity:1"/></linearGradient></defs></svg>