<?xml version="1.0" encoding="UTF-8" standalone="no"?>
<!DOCTYPE svg PUBLIC "-//W3C//DTD SVG 1.1//EN" "http://www.w3.org/Graphics/SVG/1.1/DTD/svg11.dtd">
<svg width="100%" height="100%" viewBox="0 0 2048 1024" version="1.1" xmlns="http://www.w3.org/2000/svg" xmlns:xlink="http://www.w3.org/1999/xlink" xml:space="preserve" style="fill-rule:evenodd;clip-rule:evenodd;stroke-linejoin:round;stroke-miterlimit:2;">
    <rect x="0" y="0" width="2048" height="1024" style="fill:rgb(0,153,255);"/>
    <path d="M374,0C374,0 568.5,231.833 589,358C609.5,484.167 489.833,646 497,757C503.426,856.522 632,1024 632,1024L950,1024C950,1024 793,782.833 817,676C841,569.167 971.333,439.333 1075,447C1178.67,454.667 1323,662.667 1439,722C1543.29,775.342 1688.5,762.5 1790,739C1888.25,716.253 2048,1024 2048,1024L2048,0C2048,0 1832.41,373.527 1747,347C1649.33,316.667 1559.17,226.167 1516,144C1497.09,107.998 1416,0 1416,0L1116,0C1116,0 1152.22,223.662 965,208C857.915,199.042 637,0 637,0L374,0Z" style="fill:rgb(0,116,205);"/>
    <path d="M0,120C0,120 262.167,270.667 297,366C331.833,461.333 255.306,589.41 209,692C159.5,801.667 0,1024 0,1024L0,120Z" style="fill:rgb(0,116,205);"/>
    <path d="M0,854C0,854 152.698,870.773 196.017,814.169C235.353,762.77 109.841,674.154 97,647C49.822,547.232 169.402,468.088 223,438.733C277.167,409.067 469,394.833 505,435C541,475.167 393.667,605.667 407,671C420.333,736.333 536.333,768.167 585,827C633.358,885.46 699,1024 699,1024L0,1024L0,854Z" style="fill:url(#_Linear1);"/>
    <path d="M774,0C774,0 617.5,70.5 605,120C592.5,169.5 649.046,252.645 699,297C757,348.5 898.833,373 953,429C1003.06,480.752 957.167,619.167 1024,633C1090.83,646.833 1265.33,564 1354,512C1433.93,465.121 1569.33,376.333 1556,321C1542.67,265.667 1310.83,233.5 1274,180C1238.08,127.819 1335,0 1335,0L774,0Z" style="fill:url(#_Linear2);"/>
    <path d="M979,806C921.849,765.883 876.833,657.833 837,652C797.167,646.167 724.667,723.167 740,771C755.333,818.833 853,916.833 929,939C1005,961.167 1187.67,926.167 1196,904C1204.33,881.833 1038.83,848 979,806Z" style="fill:rgb(164,226,118);"/>
    <path d="M342,0C342,0 255,106.167 198,142C141,177.833 0,240 0,240L0,0L342,0Z" style="fill:rgb(164,226,118);"/>
    <path d="M2048,1024L2048,855C2048,855 1875.24,768.961 1849.24,717.128C1823.24,665.294 1915.5,510.333 1892,476C1868.5,441.667 1752.33,427.333 1693,449C1633.67,470.667 1587.96,553.299 1536,606C1477.33,665.5 1325.67,766.667 1341,806C1356.33,845.333 1592.17,805.667 1628,842C1663.83,878.333 1556,1024 1556,1024L2048,1024Z" style="fill:url(#_Linear3);"/>
    <path d="M1775,89C1774.5,121.167 1629.83,160.667 1653,193C1676.17,225.333 1848.17,288 1914,283C1973.79,278.459 2048,240 2048,240L2048,0L1656,0C1656,0 1775.5,56.833 1775,89Z" style="fill:url(#_Linear4);"/>
    <defs>
        <linearGradient id="_Linear1" x1="0" y1="0" x2="1" y2="0" gradientUnits="userSpaceOnUse" gradientTransform="matrix(-547,670,-670,-547,472,455)"><stop offset="0" style="stop-color:rgb(164,226,118);stop-opacity:1"/><stop offset="1" style="stop-color:rgb(97,213,11);stop-opacity:1"/></linearGradient>
        <linearGradient id="_Linear2" x1="0" y1="0" x2="1" y2="0" gradientUnits="userSpaceOnUse" gradientTransform="matrix(-553,385,-385,-553,1270,24)"><stop offset="0" style="stop-color:rgb(164,226,118);stop-opacity:1"/><stop offset="1" style="stop-color:rgb(97,213,11);stop-opacity:1"/></linearGradient>
        <linearGradient id="_Linear3" x1="0" y1="0" x2="1" y2="0" gradientUnits="userSpaceOnUse" gradientTransform="matrix(-205,582,-582,-205,1792,557)"><stop offset="0" style="stop-color:rgb(164,226,118);stop-opacity:1"/><stop offset="1" style="stop-color:rgb(97,213,11);stop-opacity:1"/></linearGradient>
        <linearGradient id="_Linear4" x1="0" y1="0" x2="1" y2="0" gradientUnits="userSpaceOnUse" gradientTransform="matrix(-475,484,-484,-475,2012,28)"><stop offset="0" style="stop-color:rgb(164,226,118);stop-opacity:1"/><stop offset="1" style="stop-color:rgb(97,213,11);stop-opacity:1"/></linearGradient>
    </defs>
</svg>
