<?xml version="1.0" encoding="UTF-8" standalone="no"?>
<!DOCTYPE svg PUBLIC "-//W3C//DTD SVG 1.1//EN" "http://www.w3.org/Graphics/SVG/1.1/DTD/svg11.dtd">
<svg width="100%" height="100%" viewBox="0 0 512 512" version="1.1" xmlns="http://www.w3.org/2000/svg" xmlns:xlink="http://www.w3.org/1999/xlink" xml:space="preserve" xmlns:serif="http://www.serif.com/" style="fill-rule:evenodd;clip-rule:evenodd;stroke-linejoin:round;stroke-miterlimit:2;">
    <g transform="matrix(4.17391,0,0,5.5814,-121.74,-296.492)">
        <path d="M148,73.917C148,64.022 137.273,56 124.042,56L56.969,56C50.612,56 44.515,57.888 40.02,61.25C35.525,64.611 33,69.171 33,73.924L33,124.083C33,133.978 43.727,142 56.958,142L124.042,142C137.273,142 148,133.978 148,124.083L148,73.917Z" style="fill:rgb(41,222,240);"/>
    </g>
    <g transform="matrix(-1.71556,0,0,1.71556,699.791,-164.891)">
        <path d="M224.428,385.747L349.34,260.835L398.581,309.466L398.581,328.127C398.581,343.645 392.393,358.523 381.389,369.464C370.384,380.405 355.471,386.506 339.953,386.416C289.382,386.123 224.428,385.747 224.428,385.747Z" style="fill:url(#_Linear1);fill-rule:nonzero;"/>
    </g>
    <g transform="matrix(-2.19697,0,0,2.19697,867.537,-299.845)">
        <path d="M214.631,362.278C189.493,362.278 169.114,341.899 169.114,316.761L169.114,273.932L210.5,226.145L344.498,362.278L214.631,362.278Z" style="fill:url(#_Linear2);fill-rule:nonzero;"/>
    </g>
    <g transform="matrix(-1.98456,0,0,1.98456,822.818,-209.801)">
        <circle cx="294.49" cy="194.3" r="35.25" style="fill-opacity:0.49;"/>
    </g>
    <g transform="matrix(-1.98456,0,0,1.98456,824.818,-209.801)">
        <circle cx="291.25" cy="186.4" r="35.25" style="fill:url(#_Linear3);"/>
    </g>
    <defs>
        <linearGradient id="_Linear1" x1="0" y1="0" x2="1" y2="0" gradientUnits="userSpaceOnUse" gradientTransform="matrix(47.5427,91.8066,-91.8066,47.5427,339.563,286.907)"><stop offset="0" style="stop-color:rgb(125,250,29);stop-opacity:1"/><stop offset="1" style="stop-color:rgb(75,173,0);stop-opacity:1"/></linearGradient>
        <linearGradient id="_Linear2" x1="0" y1="0" x2="1" y2="0" gradientUnits="userSpaceOnUse" gradientTransform="matrix(32.9304,111.733,-111.733,32.9304,221.601,245.425)"><stop offset="0" style="stop-color:rgb(198,255,123);stop-opacity:1"/><stop offset="1" style="stop-color:rgb(142,251,0);stop-opacity:1"/></linearGradient>
        <linearGradient id="_Linear3" x1="0" y1="0" x2="1" y2="0" gradientUnits="userSpaceOnUse" gradientTransform="matrix(4.30647e-15,70.33,-70.33,4.30647e-15,291.25,151.29)"><stop offset="0" style="stop-color:rgb(252,240,57);stop-opacity:1"/><stop offset="0.01" style="stop-color:rgb(252,240,57);stop-opacity:1"/><stop offset="1" style="stop-color:rgb(251,185,83);stop-opacity:1"/></linearGradient>
    </defs>
</svg>
