<?xml version="1.0" encoding="UTF-8" standalone="no"?><!DOCTYPE svg PUBLIC "-//W3C//DTD SVG 1.1//EN" "http://www.w3.org/Graphics/SVG/1.1/DTD/svg11.dtd"><svg width="100%" height="100%" viewBox="0 0 512 512" version="1.1" xmlns="http://www.w3.org/2000/svg" xmlns:xlink="http://www.w3.org/1999/xlink" xml:space="preserve" style="fill-rule:evenodd;clip-rule:evenodd;stroke-linejoin:round;stroke-miterlimit:2;"><path d="M249.644,32.454l-201.506,97.279c-2.527,1.22 -4.132,3.778 -4.132,6.583l0,239.368c0,2.806 1.606,5.363 4.132,6.583l201.506,97.279c4.016,1.939 8.697,1.939 12.712,0l201.506,-97.279c2.527,-1.22 4.132,-3.777 4.132,-6.583l-0,-239.368c-0,-2.805 -1.606,-5.363 -4.132,-6.583l-201.506,-97.279c-4.015,-1.938 -8.696,-1.938 -12.712,-0Z" style="fill:#ffe17d;fill-rule:nonzero;"/><path d="M45.222,132.314c-0.768,1.17 -1.216,2.547 -1.216,4.002l0,239.368c0,2.806 1.606,5.363 4.132,6.583l201.506,97.278c2.007,0.97 4.182,1.454 6.356,1.454l0,-246.929l-210.778,-101.756Z" style="fill:#ffc350;fill-rule:nonzero;"/><path d="M466.778,132.314c0.769,1.17 1.216,2.547 1.216,4.002l-0,239.368c-0,2.806 -1.606,5.363 -4.132,6.583l-201.506,97.278c-2.007,0.97 -4.182,1.455 -6.356,1.455l0,-246.93l210.778,-101.756Z" style="fill:#ffd164;fill-rule:nonzero;"/><path d="M119.19,383.925c-1.476,-0 -2.982,-0.327 -4.398,-1.01l-43.163,-20.838c-5.051,-2.437 -7.16,-8.498 -4.724,-13.539c2.427,-5.041 8.508,-7.141 13.539,-4.724l43.163,20.839c5.051,2.437 7.161,8.498 4.724,13.539c-1.742,3.623 -5.367,5.733 -9.141,5.733Z" style="fill:#ffe17d;fill-rule:nonzero;"/><path d="M158.917,358.065c-1.476,-0 -2.982,-0.327 -4.398,-1.01l-82.832,-39.984c-5.041,-2.437 -7.16,-8.498 -4.724,-13.539c2.427,-5.032 8.518,-7.141 13.54,-4.724l82.83,39.984c5.041,2.436 7.161,8.498 4.724,13.539c-1.741,3.623 -5.366,5.734 -9.14,5.734Z" style="fill:#fff6d8;fill-rule:nonzero;"/><path d="M395.35,166.68l-211.52,-102.185l-55.757,27.027l211.994,102.342l55.283,-27.184Z" style="fill:#ff8087;fill-rule:nonzero;"/><path d="M340.067,193.864l-0,79.284c-0,2.694 2.816,4.463 5.244,3.291l45.907,-22.162c2.527,-1.219 4.132,-3.777 4.132,-6.583l-0,-81.014l-55.283,27.184Z" style="fill:#e6646e;fill-rule:nonzero;"/></svg>