<?xml version="1.0" encoding="UTF-8" standalone="no"?><!DOCTYPE svg PUBLIC "-//W3C//DTD SVG 1.1//EN" "http://www.w3.org/Graphics/SVG/1.1/DTD/svg11.dtd"><svg width="100%" height="100%" viewBox="0 0 512 512" version="1.1" xmlns="http://www.w3.org/2000/svg" xmlns:xlink="http://www.w3.org/1999/xlink" xml:space="preserve" style="fill-rule:evenodd;clip-rule:evenodd;stroke-linejoin:round;stroke-miterlimit:2;"><circle cx="444.216" cy="188.117" r="46.785" style="fill:#00fff6;"/><path d="M434.831,233.948c16.954,3.472 33.632,-2.693 44.372,-14.755c-9.389,5.168 -20.603,7.15 -31.925,4.832c-25.308,-5.178 -41.631,-29.904 -36.443,-55.21c1.707,-8.364 5.553,-15.751 10.849,-21.698c-11.608,6.381 -20.435,17.625 -23.305,31.62c-5.178,25.307 11.145,50.032 36.452,55.211Z" style="fill:#00b5af;fill-rule:nonzero;"/><circle cx="81.122" cy="79.449" r="46.785" style="fill:#00fff6;"/><path d="M34.339,79.448c0,25.84 20.948,46.788 46.778,46.788c13.887,0 26.363,-6.045 34.923,-15.662c-6.667,3.649 -14.32,5.731 -22.467,5.731c-25.84,-0 -46.788,-20.939 -46.788,-46.778c-0,-11.944 4.477,-22.842 11.845,-31.107c-14.477,7.939 -24.291,23.344 -24.291,41.028Z" style="fill:#00b5af;fill-rule:nonzero;"/><circle cx="357.588" cy="162.64" r="61.373" style="fill:#eb7aa0;"/><path d="M296.212,162.64c0,33.899 27.477,61.376 61.376,61.376c17.328,-0 32.97,-7.18 44.125,-18.729c-9.242,5.582 -20.08,8.798 -31.678,8.798c-33.888,-0 -61.366,-27.478 -61.366,-61.366c0,-16.599 6.588,-31.648 17.289,-42.686c-17.822,10.741 -29.746,30.279 -29.746,52.607Z" style="fill:#e13672;fill-rule:nonzero;"/><circle cx="67.794" cy="333.129" r="46.785" style="fill:#ffdf24;"/><path d="M49.125,376.029c19.034,8.284 40.584,2.909 53.653,-11.816c-12.26,6.717 -27.389,7.901 -41.206,1.884c-23.69,-10.307 -34.539,-37.873 -24.222,-61.562c2.031,-4.666 4.723,-8.828 7.929,-12.427c-8.768,4.822 -16.076,12.466 -20.377,22.348c-10.316,23.69 0.523,51.255 24.223,61.573Z" style="fill:#ff7f53;fill-rule:nonzero;"/><circle cx="417.829" cy="394.322" r="61.373" style="fill:#ffdf24;"/><path d="M356.453,394.319c0,33.899 27.477,61.376 61.375,61.376c17.319,-0 32.952,-7.171 44.106,-18.71c-9.242,5.582 -20.081,8.787 -31.66,8.787c-33.887,0 -61.365,-27.477 -61.365,-61.375c-0,-16.579 6.558,-31.61 17.24,-42.646c-17.802,10.741 -29.696,30.269 -29.696,52.568Z" style="fill:#ff7f53;fill-rule:nonzero;"/><circle cx="128.401" cy="144.485" r="79.529" style="fill:#ffdf24;"/><path d="M48.872,144.482c-0,43.928 35.604,79.532 79.532,79.532c21.589,-0 41.156,-8.601 55.486,-22.576c-12.407,8.008 -27.181,12.654 -43.04,12.654c-43.919,0 -79.532,-35.614 -79.532,-79.532c0,-22.309 9.192,-42.468 23.986,-56.907c-21.925,14.143 -36.432,38.79 -36.432,66.829Z" style="fill:#ff7f53;fill-rule:nonzero;"/><circle cx="127.905" cy="399.786" r="79.529" style="fill:#00fff6;"/><path d="M96.164,472.702c30.555,13.305 64.896,5.908 87.343,-16.036c-21.609,13.936 -49.559,17.151 -74.896,6.114c-40.27,-17.535 -58.713,-64.392 -41.177,-104.661c4.24,-9.735 10.187,-18.187 17.348,-25.17c-12.752,8.215 -23.295,20.149 -29.795,35.091c-17.535,40.279 0.899,87.136 41.177,104.662Z" style="fill:#00b5af;fill-rule:nonzero;"/><circle cx="294.094" cy="321.329" r="77.394" style="fill:#d861ff;"/><path d="M216.697,321.333c0,42.738 34.651,77.389 77.398,77.389c20.875,-0 39.828,-8.27 53.742,-21.707c-12.139,7.913 -26.638,12.505 -42.198,12.505c-42.747,-0 -77.398,-34.651 -77.398,-77.398c0,-21.854 9.056,-41.594 23.628,-55.663c-21.176,13.802 -35.172,37.705 -35.172,64.874Z" style="fill:#c518ff;fill-rule:nonzero;"/><circle cx="179.318" cy="234.898" r="46.785" style="fill:#eb7aa0;"/><path d="M169.937,280.733c16.944,3.462 33.621,-2.702 44.362,-14.754c-9.389,5.167 -20.593,7.15 -31.915,4.832c-25.317,-5.188 -41.63,-29.904 -36.452,-55.221c1.716,-8.364 5.563,-15.751 10.849,-21.698c-11.608,6.391 -20.435,17.634 -23.295,31.62c-5.189,25.318 11.134,50.033 36.451,55.221Z" style="fill:#e13672;fill-rule:nonzero;"/><circle cx="223.669" cy="432.517" r="46.785" style="fill:#eb7aa0;"/><path d="M204.998,475.412c19.035,8.295 40.575,2.91 53.653,-11.815c-12.259,6.726 -27.388,7.9 -41.205,1.894c-23.691,-10.316 -34.539,-37.882 -24.223,-61.573c2.031,-4.654 4.724,-8.817 7.93,-12.416c-8.769,4.802 -16.077,12.457 -20.377,22.339c-10.316,23.689 0.532,51.255 24.222,61.571Z" style="fill:#e13672;fill-rule:nonzero;"/><circle cx="235.483" cy="125.744" r="46.785" style="fill:#8ae789;"/><path d="M226.102,171.573c16.944,3.472 33.621,-2.693 44.352,-14.745c-9.39,5.158 -20.584,7.14 -31.906,4.822c-25.307,-5.178 -41.63,-29.904 -36.452,-55.211c1.716,-8.364 5.563,-15.751 10.849,-21.698c-11.608,6.391 -20.435,17.625 -23.295,31.62c-5.178,25.309 11.135,50.034 36.452,55.212Z" style="fill:#33b030;fill-rule:nonzero;"/><circle cx="371.871" cy="77.697" r="38.904" style="fill:#ffdf24;"/><path d="M364.073,115.813c14.568,2.989 28.907,-2.604 37.774,-13.315c-7.554,3.817 -16.392,5.207 -25.327,3.383c-21.046,-4.3 -34.617,-24.864 -30.318,-45.911c1.322,-6.48 4.192,-12.249 8.157,-17.012c-10.257,5.167 -18.128,14.813 -20.603,26.934c-4.311,21.047 9.261,41.611 30.317,45.921Z" style="fill:#ff7f53;fill-rule:nonzero;"/></svg>