<?xml version="1.0" encoding="UTF-8" standalone="no"?><!DOCTYPE svg PUBLIC "-//W3C//DTD SVG 1.1//EN" "http://www.w3.org/Graphics/SVG/1.1/DTD/svg11.dtd"><svg width="100%" height="100%" viewBox="0 0 512 512" version="1.1" xmlns="http://www.w3.org/2000/svg" xmlns:xlink="http://www.w3.org/1999/xlink" xml:space="preserve" style="fill-rule:evenodd;clip-rule:evenodd;stroke-linejoin:round;stroke-miterlimit:2;"><path d="M161.719,149.115l-0,212.582c55.176,7.588 108.016,28.15 154.062,60.286l22.782,15.899l-0,-364.955l-22.782,15.902c-46.046,32.132 -98.886,52.696 -154.062,60.286Z" style="fill:url(#_Linear1);fill-rule:nonzero;"/><path d="M481,256c-0,-113.724 -44.194,-205.918 -98.715,-205.918c-54.517,0 -98.715,92.194 -98.715,205.918c0,113.724 44.198,205.918 98.715,205.918c54.521,-0 98.715,-92.194 98.715,-205.918Z" style="fill:url(#_Linear2);fill-rule:nonzero;"/><path d="M453.321,256c-0,-91.116 -29.904,-164.979 -66.791,-164.979c-36.89,0 -66.794,73.863 -66.794,164.979c-0,91.117 29.904,164.979 66.794,164.979c36.887,-0 66.791,-73.862 66.791,-164.979Z" style="fill:url(#_Linear3);fill-rule:nonzero;"/><path d="M323.057,209.15c11.408,-10.794 26.805,-17.416 43.735,-17.416c35.141,-0 63.67,28.529 63.67,63.669c0,35.141 -28.529,63.671 -63.67,63.671c-17.021,-0 -32.493,-6.695 -43.924,-17.595c-2.037,-14.39 -3.134,-29.674 -3.134,-45.512c0,-16.317 1.165,-32.046 3.323,-46.817Z" style="fill:#7816b5;"/><path d="M366.789,191.733c-2.71,0 -5.376,0.189 -7.998,0.517c-1.936,20.567 -7.123,41.059 -7.123,63.153c-0,21.383 5.12,43.169 6.934,63.135c2.683,0.341 5.41,0.536 8.187,0.536c35.162,-0 63.672,-28.505 63.672,-63.668c0,-35.169 -28.51,-63.673 -63.672,-63.673Z" style="fill:#9f2de5;fill-rule:nonzero;"/><path d="M161.719,149.115c-15.888,2.185 -31.973,3.295 -48.143,3.295c-45.604,-0 -82.576,36.969 -82.576,82.572l-0,40.844c-0,45.604 36.972,82.576 82.576,82.576c15.774,-0 31.463,1.055 46.972,3.135c-17.559,-20.562 -28.164,-47.251 -28.164,-76.417l-0,-58.24c-0,-29.803 11.073,-57.02 29.335,-77.765Z" style="fill:#8e99a3;fill-rule:nonzero;"/><path d="M198.115,142.146c-11.981,2.953 -24.131,5.281 -36.396,6.969c-18.262,20.745 -34.776,38.151 -35.471,106.289c-0.633,61.989 16.741,85.571 34.3,106.133c11.992,1.609 23.876,3.83 35.606,6.65c-13.316,-21.995 -27.988,-46.891 -28.141,-112.187c-0.148,-63.238 15.578,-91.185 30.102,-113.854Z" style="fill:#9f2de5;fill-rule:nonzero;"/><circle cx="197.592" cy="256.099" r="12.81" style="fill:#8e99a3;"/><circle cx="210.401" cy="180.61" r="12.81" style="fill:#8e99a3;"/><circle cx="210.401" cy="330.044" r="12.81" style="fill:#8e99a3;"/><path d="M100.918,153.374c-39.597,6.093 -69.918,40.309 -69.918,81.608l-0,40.844c-0,41.394 30.462,75.677 70.187,81.652c-17.589,-19.813 -28.27,-45.89 -28.27,-74.46l0,-55.492c0,-28.427 10.574,-54.385 28.001,-74.152Z" style="fill:#78838c;fill-rule:nonzero;"/><defs><linearGradient id="_Linear1" x1="0" y1="0" x2="1" y2="0" gradientUnits="userSpaceOnUse" gradientTransform="matrix(1.48201e-14,242.03,-242.03,1.48201e-14,197.161,178.478)"><stop offset="0" style="stop-color:#fef5ff;stop-opacity:1"/><stop offset="1" style="stop-color:#a1b5d8;stop-opacity:1"/></linearGradient><linearGradient id="_Linear2" x1="0" y1="0" x2="1" y2="0" gradientUnits="userSpaceOnUse" gradientTransform="matrix(-183.126,459.49,-459.49,-183.126,404.986,72.9266)"><stop offset="0" style="stop-color:#ffc85b;stop-opacity:1"/><stop offset="1" style="stop-color:#ff4b0e;stop-opacity:1"/></linearGradient><linearGradient id="_Linear3" x1="0" y1="0" x2="1" y2="0" gradientUnits="userSpaceOnUse" gradientTransform="matrix(-96.4629,5.25744e-14,-5.46514e-14,-92.7968,426.278,256)"><stop offset="0" style="stop-color:#fefcf9;stop-opacity:1"/><stop offset="1" style="stop-color:#53617b;stop-opacity:1"/></linearGradient></defs></svg>