<?xml version="1.0" encoding="UTF-8" standalone="no"?><!DOCTYPE svg PUBLIC "-//W3C//DTD SVG 1.1//EN" "http://www.w3.org/Graphics/SVG/1.1/DTD/svg11.dtd"><svg width="100%" height="100%" viewBox="0 0 512 512" version="1.1" xmlns="http://www.w3.org/2000/svg" xmlns:xlink="http://www.w3.org/1999/xlink" xml:space="preserve" style="fill-rule:evenodd;clip-rule:evenodd;stroke-linejoin:round;stroke-miterlimit:2;"><path d="M255.999,385.343c-24.234,-0 -44.062,19.828 -44.062,44.063c-0,24.234 19.828,44.063 44.062,44.063c24.235,-0 44.063,-19.829 44.063,-44.063c0,-24.235 -19.828,-44.063 -44.063,-44.063Zm117.501,-29.374c-24.235,-0 -44.063,19.828 -44.063,44.063c-0,24.234 19.828,44.062 44.063,44.062c24.234,0 44.062,-19.828 44.062,-44.062c0,-24.235 -19.828,-44.063 -44.062,-44.063Zm-235,-0c-24.234,-0 -44.063,19.828 -44.063,44.063c0,24.234 19.829,44.062 44.063,44.062c24.235,0 44.063,-19.828 44.063,-44.062c0,-24.235 -19.828,-44.063 -44.063,-44.063Z" style="fill:#ff9544;fill-rule:nonzero;"/><path d="M121.059,234.609c74.539,-45.898 195.343,-45.898 269.882,0c74.539,45.899 74.539,120.438 0,165.968c-74.539,45.899 -195.343,45.899 -269.882,0c-74.54,-45.898 -74.54,-120.07 -0,-165.968Z" style="fill:#a500dc;fill-rule:nonzero;"/><path d="M139.418,389.562c-71.969,-44.429 -74.54,-115.297 -7.344,-161.195c-3.672,1.836 -7.344,4.039 -11.015,6.242c-74.54,45.899 -74.54,120.438 -0,165.968c74.539,45.899 195.343,45.899 269.882,0c2.571,-1.468 5.141,-3.305 7.344,-4.773c-74.907,39.656 -188,37.453 -258.867,-6.242Z" style="fill-opacity:0.2;fill-rule:nonzero;"/><path d="M89.848,152.726c91.797,-54.343 240.507,-54.343 332.304,0c91.797,54.344 91.797,142.836 0,197.179c-91.797,54.344 -240.507,54.344 -332.304,0c-91.798,-54.343 -91.797,-142.468 -0,-197.179Z" style="fill:url(#_Linear1);fill-rule:nonzero;"/><path d="M437.207,335.585c-91.797,54.344 -240.507,54.344 -332.304,0c-74.172,-44.063 -88.493,-109.789 -43.329,-162.297c-62.054,54.344 -52.507,128.883 28.274,176.985c91.797,54.343 240.507,54.343 332.304,-0c17.625,-10.649 31.946,-22.399 42.961,-34.883c-8.078,6.977 -17.258,13.586 -27.906,20.195Z" style="fill-opacity:0.2;fill-rule:nonzero;"/><path d="M256.183,38.531c81.148,0 146.874,65.726 146.874,146.875c0,81.148 -65.726,117.5 -146.874,117.5c-81.148,-0 -146.874,-36.352 -146.874,-117.5c-0,-81.149 65.726,-146.875 146.874,-146.875Z" style="fill:#f6f7f7;fill-rule:nonzero;"/><path d="M109.309,185.406c-0,80.781 65.359,117.132 145.773,117.5l1.102,-0l-0,-264.375c-81.149,0 -146.875,65.726 -146.875,146.875Z" style="fill:#ebecec;fill-rule:nonzero;"/><path d="M256.183,303.906c33.047,-0 63.523,-5.876 88.125,-18.727l-0,-98.773c-0,-48.837 -39.29,-88.125 -88.125,-88.125c-48.835,-0 -88.125,39.289 -88.125,88.125l0,98.773c24.602,12.851 55.078,18.727 88.125,18.727Z" style="fill:#3db39e;fill-rule:nonzero;"/><path d="M168.058,186.406l0,98.773c24.235,12.485 54.711,18.727 87.39,18.727l0.735,-0l0,-205.625c-48.835,-0 -88.125,39.657 -88.125,88.125Z" style="fill:#3aaa96;fill-rule:nonzero;"/><path d="M256.183,156.031c24.235,0 44.063,19.829 44.063,44.063c-0,24.235 -19.828,44.063 -44.063,44.063c-24.234,0 -44.063,-19.828 -44.063,-44.063c0,-24.234 19.829,-44.063 44.063,-44.063Z" style="fill:#fff;fill-rule:nonzero;"/><path d="M256.183,156.031c-24.234,0 -44.063,19.829 -44.063,44.063c0,24.235 19.829,44.063 44.063,44.063l0,-88.126Z" style="fill:#f2f2f2;fill-rule:nonzero;"/><path d="M256.183,178.062c12.117,-0 22.031,9.914 22.031,22.031c0,12.118 -9.914,22.032 -22.031,22.032c-12.117,-0 -22.031,-9.914 -22.031,-22.032c-0,-12.117 9.915,-22.031 22.031,-22.031Z" style="fill:#324d5b;fill-rule:nonzero;"/><path d="M256.183,178.062c-12.117,-0 -22.031,9.914 -22.031,22.031c-0,12.118 9.914,22.032 22.031,22.032l0,-44.063Z" style="fill:#2f4956;fill-rule:nonzero;"/><defs><linearGradient id="_Linear1" x1="0" y1="0" x2="1" y2="0" gradientUnits="userSpaceOnUse" gradientTransform="matrix(-400.908,102.812,-102.812,-400.908,446.845,200.093)"><stop offset="0" style="stop-color:#ffdc26;stop-opacity:1"/><stop offset="1" style="stop-color:#ff6658;stop-opacity:1"/></linearGradient></defs></svg>