<?xml version="1.0" encoding="UTF-8" standalone="no"?><!DOCTYPE svg PUBLIC "-//W3C//DTD SVG 1.1//EN" "http://www.w3.org/Graphics/SVG/1.1/DTD/svg11.dtd"><svg width="100%" height="100%" viewBox="0 0 512 512" version="1.1" xmlns="http://www.w3.org/2000/svg" xmlns:xlink="http://www.w3.org/1999/xlink" xml:space="preserve" xmlns:serif="http://www.serif.com/" style="fill-rule:evenodd;clip-rule:evenodd;stroke-linejoin:round;stroke-miterlimit:2;"><path d="M79.027,464.634c-0,-0 -16.688,-2.722 -26.715,-11.455c-9.982,-8.777 -16.312,-26.019 -16.312,-38.62l0.001,-0.39c0.045,-8.125 1.52,-15.59 4.504,-22.261l0.073,-0.163l129.968,-303.894c6.424,-15.334 15.115,-27.235 26.072,-35.703l0.143,-0.111l0.103,-0.079l0.036,-0.027l0.047,-0.037l0.102,-0.077l0.071,-0.054l0.05,-0.038l0.087,-0.065l0.082,-0.061l0.044,-0.034l0.059,-0.044l0.13,-0.097l0.056,-0.043l0.024,-0.018l0.062,-0.046l0.185,-0.136l0.027,-0.02c0.111,-0.081 0.222,-0.164 0.336,-0.246c10.011,-7.279 21.841,-11.811 35.49,-13.595l0.01,-0.002c0.2,-0.027 0.401,-0.052 0.601,-0.077l0.31,-0.039l0.285,-0.032l0.02,-0.003c0.198,-0.024 0.396,-0.046 0.594,-0.068l0.311,-0.035l0.289,-0.031l0.032,-0.003c0.196,-0.021 0.39,-0.039 0.585,-0.06l0.02,-0.001l0.035,-0.004l0.259,-0.026l0.294,-0.026l0.03,-0.003l0.012,-0.001c0.194,-0.019 0.386,-0.036 0.579,-0.053l0.027,-0.002l0.049,-0.004l0.236,-0.021l0.302,-0.025l0.036,-0.003l0.014,-0.001c0.192,-0.014 0.382,-0.029 0.573,-0.044l0.037,-0.003l0.058,-0.004l0.218,-0.016l0.31,-0.022l0.041,-0.003l0.016,-0.001c0.188,-0.013 0.378,-0.026 0.568,-0.038l0.045,-0.003l0.065,-0.003l0.203,-0.012l0.319,-0.019l0.06,-0.004c0.188,-0.01 0.377,-0.021 0.566,-0.03l0.053,-0.002l0.07,-0.004l0.187,-0.01l0.334,-0.015l0.044,-0.002l0.014,-0.001c0.189,-0.008 0.378,-0.017 0.567,-0.024l0.058,-0.003l0.073,-0.002l0.176,-0.006l0.351,-0.012l0.041,-0.002l0.011,-0c0.19,-0.007 0.379,-0.013 0.569,-0.019l0.063,-0.002l0.074,-0.001l0.167,-0.005l0.373,-0.009l0.04,-0.001c0.19,-0.004 0.381,-0.008 0.573,-0.011l0.067,-0.001l0.074,-0.001l0.156,-0.002l0.4,-0.006l0.024,0c0.192,-0.002 0.385,-0.004 0.578,-0.005l0.143,0l0.15,-0.001l0.433,-0.001l0.433,0.001l0.432,0.002c0.721,0.005 1.437,0.017 2.147,0.035c0.284,0.007 0.565,0.016 0.85,0.026c0.735,0.023 1.465,0.055 2.194,0.094l0.336,0.018l0.171,0.01c0.998,0.058 1.988,0.129 2.966,0.213l0.176,0.015c0.943,0.084 1.877,0.179 2.799,0.286l0.047,0.005c16.798,1.963 -4.94,93.849 -4.94,93.849l-176.208,333.63Z" style="fill:#720028;"/><path d="M333.639,88.37c-0,0 -24.663,62.002 -61.814,35.056c-20.417,-14.812 2.971,-41.945 -1.665,-62.443c-2.545,-11.258 -38.633,-23.373 -36.408,-23.663l0.01,-0.002c0.2,-0.027 0.401,-0.052 0.601,-0.077l0.31,-0.039l0.285,-0.032l0.02,-0.003c0.198,-0.024 0.396,-0.046 0.594,-0.068l0.311,-0.035l0.289,-0.031l0.032,-0.003c0.196,-0.021 0.39,-0.039 0.585,-0.06l0.02,-0.001l0.035,-0.004l0.259,-0.026l0.294,-0.026l0.03,-0.003l0.012,-0.001c0.194,-0.019 0.386,-0.036 0.579,-0.053l0.027,-0.002l0.049,-0.004l0.236,-0.021l0.302,-0.025l0.036,-0.003l0.014,-0.001c0.192,-0.014 0.382,-0.029 0.573,-0.044l0.037,-0.003l0.058,-0.004l0.218,-0.016l0.31,-0.022l0.041,-0.003l0.016,-0.001c0.188,-0.013 0.378,-0.026 0.568,-0.038l0.045,-0.003l0.065,-0.003l0.203,-0.012l0.319,-0.019l0.06,-0.004c0.188,-0.01 0.377,-0.021 0.566,-0.03l0.053,-0.002l0.07,-0.004l0.187,-0.01l0.334,-0.015l0.044,-0.002l0.014,-0.001c0.189,-0.008 0.378,-0.017 0.567,-0.024l0.058,-0.003l0.073,-0.002l0.176,-0.006l0.351,-0.012l0.041,-0.002l0.011,-0c0.19,-0.007 0.379,-0.013 0.569,-0.019l0.063,-0.002l0.074,-0.001l0.167,-0.005l0.373,-0.009l0.04,-0.001c0.19,-0.004 0.381,-0.008 0.573,-0.011l0.067,-0.001l0.074,-0.001l0.156,-0.002l0.4,-0.006l0.024,0c0.192,-0.002 0.385,-0.004 0.578,-0.005l0.143,0l0.15,-0.001l0.433,-0.001l0.433,0.001l0.432,0.002c0.721,0.005 1.437,0.017 2.147,0.035c0.284,0.007 0.565,0.016 0.85,0.026c0.735,0.023 1.465,0.055 2.194,0.094l0.336,0.018l0.171,0.01c0.998,0.058 1.988,0.129 2.966,0.213l0.176,0.015c0.943,0.084 1.877,0.179 2.799,0.286l0.047,0.005c16.798,1.963 30.888,8.014 42.272,18.161c1.482,1.321 4.311,4.173 4.311,4.173c-0,-0 22.188,17.908 26.881,28.881Z" style="fill:#7d2846;"/><path d="M233.566,308.176l61.608,-0c9.93,-0.256 29.405,-0 20.494,-24.94l-48.545,-127.701c-1.107,-3.131 -4.391,-3.131 -5.5,-0l-48.543,127.701c-8.918,24.94 10.556,24.684 20.486,24.94Zm107.888,-204.477l129.967,303.892c3.082,6.826 4.579,14.472 4.579,22.814c0,12.601 -5.016,23.249 -14.992,32.027c-10.029,8.731 -22.467,13.118 -37.267,13.118c-26.559,-0 -43.526,-10.644 -50.955,-31.975l-11.954,-35.24c-5.688,-16.731 -23.815,-16.731 -37.066,-16.731l-118.786,-0c-13.257,-0 -31.384,-0 -37.065,16.731l-11.955,35.24c-7.428,21.331 -24.395,31.975 -50.956,31.975c-14.798,-0 -27.238,-4.387 -37.265,-13.118c-9.983,-8.778 -14.992,-19.426 -14.992,-32.027c-0,-8.342 1.496,-15.988 4.579,-22.814l129.966,-303.894c14.361,-34.281 40.059,-51.401 77.077,-51.401c37.028,0 62.719,17.12 77.085,51.401l0,0.002Z" style="fill:#eb4a82;"/><path d="M261.481,155.883l-48.401,127.353c-8.918,24.94 10.556,24.684 20.486,24.94l48.982,-0c-1.644,28.983 -6.364,56.919 -13.838,83.428l-63.73,-0c-13.257,-0 -31.384,-0 -37.065,16.725l-11.955,35.241c-7.428,21.336 -24.395,31.98 -50.956,31.98c-14.798,-0 -27.238,-4.387 -37.265,-13.125c-9.983,-8.777 -14.992,-19.419 -14.992,-32.02c-0,-8.342 1.496,-15.994 4.579,-22.814l129.966,-303.892c6.746,-16.076 16.005,-28.421 27.715,-36.937c19.184,26.38 34.951,56.402 46.474,89.121Z" style="fill:#cf0048;"/><path d="M318.982,116.793c-14.981,-35.75 -61.613,-64.497 -54.612,-64.497c37.027,0 62.717,17.12 77.083,51.402l129.969,303.893c3.081,6.827 4.578,14.472 4.578,22.814c0,10.745 -3.648,20.07 -10.907,28.027l-146.111,-341.639Z" style="fill:#fff;fill-opacity:0.22;"/><path d="M70.441,464.636c-0.921,-0.701 -1.821,-1.434 -2.702,-2.201c-9.983,-8.779 -14.992,-19.428 -14.992,-32.029c-0,-8.341 1.496,-15.988 4.578,-22.814l129.967,-303.894c14.362,-34.281 40.058,-51.402 77.079,-51.402c31.069,0 54.156,12.054 69.268,36.186c-19.509,-3.94 -38.208,-5.853 -51.094,-5.853c-37.019,-0 -62.717,17.12 -77.077,51.401l-129.969,303.895c-3.081,6.826 -4.577,14.472 -4.577,22.813c-0,1.134 -0.174,2.446 -0.481,3.898Z" style="fill-opacity:0.22;"/></svg>