<?xml version="1.0" encoding="UTF-8" standalone="no"?><!DOCTYPE svg PUBLIC "-//W3C//DTD SVG 1.1//EN" "http://www.w3.org/Graphics/SVG/1.1/DTD/svg11.dtd"><svg width="100%" height="100%" viewBox="0 0 512 512" version="1.1" xmlns="http://www.w3.org/2000/svg" xmlns:xlink="http://www.w3.org/1999/xlink" xml:space="preserve" xmlns:serif="http://www.serif.com/" style="fill-rule:evenodd;clip-rule:evenodd;stroke-linejoin:round;stroke-miterlimit:2;"><path d="M376.562,111.493l-2.535,358.732l64.648,-30.422l1.268,-361.268l-63.381,32.958Z" style="fill:#66cfff;"/><path d="M55.858,198.958l-5.071,75.422l323.24,195.845l0,-73.521l-318.169,-197.746Z" style="fill:#008bcc;"/><path d="M50.787,198.958l323.24,-160.986l60.845,40.563l-314.366,159.719l-69.719,-39.296Z" style="fill:#00a9fd;"/><path d="M190.224,207.831l-67.183,30.423l183.803,121.69l3.803,-70.986l-120.423,-81.127Z" style="fill:#01afff;"/><path d="M188.957,207.831l57.042,39.296l128.028,-59.578l0,-72.253l-185.07,92.535Z" style="fill:#35bfff;"/><path d="M310.647,220.507l-0,139.437l63.38,32.957l0,-202.817l-63.38,30.423Z" style="fill:#008bcc;"/><path d="M443.115,72.4l-64.286,-40.179c-2.378,-1.486 -5.352,-1.623 -7.859,-0.369l-321.429,160.714c-2.716,1.358 -4.435,4.138 -4.435,7.184l-0,72.321c-0,2.773 1.43,5.344 3.777,6.815l321.428,200.893c2.419,1.502 5.384,1.607 7.851,0.377l64.286,-32.143c2.724,-1.366 4.444,-4.146 4.444,-7.192l-0,-361.607c-0,-2.772 -1.431,-5.344 -3.777,-6.814Zm-12.295,291.134l-48.214,24.107l-0,-54.354l48.214,-24.107l0,54.354Zm-112.5,-133.208l48.215,30.134l-0,53.365l-48.215,-30.134l0,-53.365Zm-16.071,43.32l-39.841,-24.902l39.841,-19.921l-0,44.823Zm24.444,-57.045l39.842,-19.921l-0,44.823l-39.842,-24.902Zm-72.659,18.361l0,-54.353l48.215,-24.107l-0,54.353l-48.215,24.107Zm-16.071,-1.494l-39.841,-24.903l39.841,-19.921l0,44.824Zm-8.373,13.717l-47.435,23.721l-48.311,-30.198l47.435,-23.722l48.311,30.199Zm15.967,9.98l48.311,30.198l-47.435,23.722l-48.311,-30.198l47.435,-23.722Zm56.692,43.98l-0,44.823l-39.841,-24.903l39.841,-19.92Zm16.071,1.502l48.215,30.134l-0,53.365l-48.215,-30.134l0,-53.365Zm48.215,-123.935l-48.215,24.107l0,-54.353l48.215,-24.107l-0,54.353Zm-55.809,-44.413l-48.31,-30.198l47.435,-23.722l48.318,30.198l-47.443,23.722Zm-16.85,8.421l-47.435,23.714l-48.311,-30.198l47.435,-23.722l48.311,30.206Zm-64.286,32.143l-47.435,23.722l-48.311,-30.199l47.435,-23.721l48.311,30.198Zm-64.286,32.143l-47.435,23.714l-48.311,-30.199l47.435,-23.721l48.311,30.206Zm8.373,77.561l0,53.365l-48.214,-30.134l-0,-53.365l48.214,30.134Zm16.072,10.045l48.214,30.133l0,53.366l-48.214,-30.134l-0,-53.365Zm64.285,40.178l48.215,30.134l-0,53.365l-48.215,-30.134l0,-53.365Zm64.286,40.179l48.215,30.134l-0,53.365l-48.215,-30.134l0,-53.365Zm112.5,-83.757l-48.214,24.108l-0,-54.354l48.214,-24.107l0,54.353Zm0,-72.321l-48.214,24.107l-0,-54.354l48.214,-24.107l0,54.354Zm0,-72.322l-48.214,24.108l-0,-54.354l48.214,-24.107l0,54.353Zm-56.692,-98.333l48.319,30.199l-47.435,23.721l-48.319,-30.198l47.435,-23.722Zm-312.951,166.018l48.214,30.134l0,53.365l-48.214,-30.133l0,-53.366Zm321.429,245.709l-0,-54.354l48.214,-24.107l0,54.353l-48.214,24.108Z" style="fill-rule:nonzero;"/></svg>