<?xml version="1.0" encoding="UTF-8" standalone="no"?><!DOCTYPE svg PUBLIC "-//W3C//DTD SVG 1.1//EN" "http://www.w3.org/Graphics/SVG/1.1/DTD/svg11.dtd"><svg width="100%" height="100%" viewBox="0 0 512 512" version="1.1" xmlns="http://www.w3.org/2000/svg" xmlns:xlink="http://www.w3.org/1999/xlink" xml:space="preserve" xmlns:serif="http://www.serif.com/" style="fill-rule:evenodd;clip-rule:evenodd;stroke-linejoin:round;stroke-miterlimit:2;"><path d="M400.492,206.985c-9.075,4.432 -18.968,8.137 -29.494,10.921c-0.779,0.209 -1.564,0.402 -2.345,0.6c-22.522,5.628 -44.516,6.151 -63.462,2.421c-28.633,-5.654 -50.282,-21.031 -56.165,-43.256c-7.762,-29.328 14.206,-61.859 51.718,-81.899c4.768,-2.538 8.716,-6.197 11.588,-10.583c2.866,-4.365 4.655,-9.456 5.092,-14.835c1.451,-17.782 -11.271,-33.612 -28.967,-35.958c-24.256,-3.233 -59.46,-4.866 -94.219,4.336c-116.767,30.913 -185.829,153.75 -156.505,270.924c30.546,122.041 154.938,195.13 276.156,162.872c99.557,-26.485 166.184,-117.013 167.109,-215.749c0.008,-0.79 -0.01,-1.665 -0.063,-2.632c-2.177,-39.734 -44.676,-64.626 -80.443,-47.162Zm34.358,96.387c-0,26.161 -21.207,47.368 -47.369,47.368c-26.163,0 -47.368,-21.207 -47.368,-47.368c0,-26.163 21.205,-47.373 47.368,-47.373c26.162,-0 47.369,21.21 47.369,47.373Z" style="fill:url(#_Linear1);fill-rule:nonzero;"/><path d="M340.113,393.803c0,26.163 -21.206,47.367 -47.369,47.367c-26.161,0 -47.369,-21.204 -47.369,-47.367c0,-26.163 21.208,-47.373 47.369,-47.373c26.163,-0 47.369,21.21 47.369,47.373Z" style="fill:#00b8b1;fill-rule:nonzero;"/><path d="M435.113,303.997c-0,26.161 -21.206,47.367 -47.369,47.367c-26.161,0 -47.369,-21.206 -47.369,-47.367c0,-26.163 21.208,-47.373 47.369,-47.373c26.163,-0 47.369,21.21 47.369,47.373Z" style="fill-rule:nonzero;"/><path d="M228.201,366.083c0,26.162 -21.208,47.368 -47.364,47.368c-26.162,-0 -47.371,-21.206 -47.371,-47.368c0,-26.16 21.209,-47.37 47.371,-47.37c26.156,0 47.364,21.21 47.364,47.37Z" style="fill:#8fd75d;fill-rule:nonzero;"/><path d="M161.999,268.919c0,26.16 -21.206,47.365 -47.366,47.365c-26.161,0 -47.37,-21.205 -47.37,-47.365c-0,-26.162 21.209,-47.371 47.37,-47.371c26.16,-0 47.366,21.209 47.366,47.371Z" style="fill:#fa21b8;fill-rule:nonzero;"/><path d="M195.251,156.668c0,26.161 -21.209,47.37 -47.371,47.37c-26.16,-0 -47.367,-21.209 -47.367,-47.37c0,-26.162 21.207,-47.368 47.367,-47.368c26.162,0 47.371,21.206 47.371,47.368Z" style="fill:#ffc757;fill-rule:nonzero;"/><defs><linearGradient id="_Linear1" x1="0" y1="0" x2="1" y2="0" gradientUnits="userSpaceOnUse" gradientTransform="matrix(-293.751,293.751,-293.751,-293.751,323.5,187.249)"><stop offset="0" style="stop-color:#fff;stop-opacity:1"/><stop offset="1" style="stop-color:#e5e5e5;stop-opacity:1"/></linearGradient></defs></svg>