<?xml version="1.0" encoding="UTF-8" standalone="no"?>
<!DOCTYPE svg PUBLIC "-//W3C//DTD SVG 1.1//EN" "http://www.w3.org/Graphics/SVG/1.1/DTD/svg11.dtd">
<svg width="100%" height="100%" viewBox="0 0 512 512" version="1.1" xmlns="http://www.w3.org/2000/svg" xmlns:xlink="http://www.w3.org/1999/xlink" xml:space="preserve" xmlns:serif="http://www.serif.com/" style="fill-rule:evenodd;clip-rule:evenodd;stroke-linejoin:round;stroke-miterlimit:2;">
    <g>
        <g transform="matrix(-1.5433,0,0,1.5433,651.086,-21.8196)">
            <path d="M296.603,66.912L266.605,36.914C260.746,31.055 251.254,31.055 245.395,36.914L215.397,66.912C209.538,72.771 209.538,82.263 215.397,88.122C221.255,93.981 230.748,93.981 236.607,88.122L241.001,83.727L241.001,212.85L271,212.85L271,83.727L275.394,88.122C281.254,93.981 290.746,93.981 296.604,88.122C302.463,82.262 302.463,72.771 296.603,66.912Z" style="fill:rgb(187,255,47);fill-rule:nonzero;"/>
        </g>
        <g transform="matrix(-1.71039,0,0,1.71039,881.719,-337.863)">
            <path d="M511.488,449.615L500.503,408.631C498.335,400.633 490.22,395.917 482.106,398.026C474.108,400.165 469.362,408.397 471.501,416.394L473.092,422.315L370.825,363.066L360.267,391.624L458.202,448.363L452.108,449.996C444.111,452.134 439.365,460.366 441.504,468.363C443.667,476.352 451.871,481.11 459.901,478.968L500.885,467.982C508.88,465.844 513.626,457.612 511.488,449.615Z" style="fill:rgb(255,144,0);fill-rule:nonzero;"/>
        </g>
        <g transform="matrix(-1.71038,0,0,1.71038,506,-336.462)">
            <path d="M153.023,390.877L140.599,363.4L38.91,422.314L40.501,416.393C42.64,408.396 37.894,400.164 29.896,398.025C21.84,395.946 13.667,400.632 11.499,408.63L0.513,449.615C-1.626,457.612 3.12,465.844 11.117,467.982L52.101,478.968C60.128,481.108 68.334,476.355 70.498,468.363C72.637,460.366 67.891,452.134 59.894,449.996L53.8,448.363L153.023,390.877Z" style="fill:rgb(255,0,95);fill-rule:nonzero;"/>
        </g>
    </g>
    <g transform="matrix(-0.888939,0,0,0.888939,483.569,24.4311)">
        <path d="M256,362.5C231.188,362.5 211.003,342.316 211.003,317.503C211.003,292.69 231.188,272.506 256,272.506C280.813,272.506 300.998,292.69 300.998,317.503C300.998,342.316 280.813,362.5 256,362.5Z" style="fill:rgb(51,51,51);fill-rule:nonzero;"/>
    </g>
</svg>
