<?xml version="1.0" encoding="UTF-8" standalone="no"?><!DOCTYPE svg PUBLIC "-//W3C//DTD SVG 1.1//EN" "http://www.w3.org/Graphics/SVG/1.1/DTD/svg11.dtd"><svg width="100%" height="100%" viewBox="0 0 512 512" version="1.1" xmlns="http://www.w3.org/2000/svg" xmlns:xlink="http://www.w3.org/1999/xlink" xml:space="preserve" style="fill-rule:evenodd;clip-rule:evenodd;stroke-linejoin:round;stroke-miterlimit:2;"><circle cx="171.909" cy="163.759" r="38.904" style="fill:#1b2a38;"/><circle cx="340.496" cy="163.759" r="38.904" style="fill:#1b2a38;"/><path d="M402.096,182.401c-12.158,-25.937 -40.121,-41.742 -69.3,-37.69c-4.052,0.406 -64.639,19.048 -76.797,19.048c-12.563,-0 -72.338,-18.642 -76.39,-19.048c-29.178,-4.052 -57.141,12.158 -69.299,37.69l-34.042,72.136l179.935,-34.042l179.934,34.042l-34.041,-72.136Z" style="fill:#3f4b5b;fill-rule:nonzero;"/><path d="M349.817,308.435c-59.978,-24.721 -127.657,-24.721 -187.635,0c-8.916,-21.884 -18.236,-43.767 -27.152,-66.057c77.404,-32.015 164.535,-32.015 241.938,0c-8.914,21.885 -17.83,43.769 -27.151,66.057Z" style="fill:#1b2a38;fill-rule:nonzero;"/><circle cx="151.241" cy="282.904" r="80.241" style="fill:#2b3b4e;"/><circle cx="151.227" cy="282.918" r="61.586" style="fill:#4f9ac0;"/><circle cx="151.227" cy="282.918" r="44.568" style="fill:#69cdff;"/><circle cx="151.227" cy="282.918" r="8.103" style="fill:#d9eafc;"/><circle cx="118.814" cy="259.419" r="11.75" style="fill:#d9eafc;"/><circle cx="360.759" cy="282.904" r="80.241" style="fill:#2b3b4e;"/><circle cx="360.759" cy="282.904" r="61.599" style="fill:#54c0eb;"/><circle cx="360.759" cy="282.904" r="44.578" style="fill:#84dbff;"/><circle cx="256.203" cy="252.104" r="15.805" style="fill:#324a5e;"/><circle cx="360.759" cy="282.904" r="61.586" style="fill:#4f9ac0;"/><circle cx="360.759" cy="282.904" r="44.568" style="fill:#69cdff;"/><circle cx="360.759" cy="282.904" r="8.103" style="fill:#d9eafc;"/><circle cx="328.345" cy="259.405" r="11.75" style="fill:#d9eafc;"/></svg>