<?xml version="1.0" encoding="UTF-8" standalone="no"?><!DOCTYPE svg PUBLIC "-//W3C//DTD SVG 1.1//EN" "http://www.w3.org/Graphics/SVG/1.1/DTD/svg11.dtd"><svg width="100%" height="100%" viewBox="0 0 512 512" version="1.1" xmlns="http://www.w3.org/2000/svg" xmlns:xlink="http://www.w3.org/1999/xlink" xml:space="preserve" xmlns:serif="http://www.serif.com/" style="fill-rule:evenodd;clip-rule:evenodd;stroke-linejoin:round;stroke-miterlimit:2;"><g><g><path d="M6,106.05c0,-55.256 44.794,-100.05 100.05,-100.05l299.95,0c26.521,0 51.957,10.536 70.711,29.289c18.753,18.754 29.289,44.189 29.289,70.711l-0,300c-0,26.521 -10.536,51.957 -29.289,70.711c-18.754,18.753 -44.19,29.289 -70.711,29.289l-300,-0c-26.522,-0 -51.957,-10.536 -70.711,-29.289c-18.753,-18.754 -29.289,-44.19 -29.289,-70.711l0,-299.95Z" style="fill:#ffdf00;fill-rule:nonzero;"/></g><g><path d="M308.398,318.073c13.372,21.833 30.77,37.881 61.539,37.881c25.848,-0 42.36,-12.919 42.36,-30.77c-0,-21.391 -16.965,-28.967 -45.416,-41.411l-15.595,-6.692c-45.017,-19.178 -74.921,-43.204 -74.921,-93.994c-0,-46.786 35.648,-82.402 91.359,-82.402c39.663,0 68.177,13.804 88.724,49.947l-48.577,31.191c-10.695,-19.178 -22.233,-26.733 -40.147,-26.733c-18.272,-0 -29.853,11.591 -29.853,26.733c0,18.715 11.592,26.291 38.356,37.882l15.595,6.681c53.004,22.729 82.929,45.9 82.929,97.997c-0,56.164 -44.12,86.934 -103.372,86.934c-57.934,-0 -95.363,-27.608 -113.677,-63.794l50.696,-29.45Zm-220.368,5.405c9.8,17.387 18.715,32.087 40.148,32.087c20.495,-0 33.424,-8.02 33.424,-39.199l0,-212.118l62.382,0l-0,212.96c-0,64.593 -37.871,93.993 -93.151,93.993c-49.947,0 -78.872,-25.848 -93.583,-56.981l50.78,-30.742Z" style="fill-rule:nonzero;"/></g></g></svg>