<?xml version="1.0" encoding="UTF-8" standalone="no"?><!DOCTYPE svg PUBLIC "-//W3C//DTD SVG 1.1//EN" "http://www.w3.org/Graphics/SVG/1.1/DTD/svg11.dtd"><svg width="100%" height="100%" viewBox="0 0 512 512" version="1.1" xmlns="http://www.w3.org/2000/svg" xmlns:xlink="http://www.w3.org/1999/xlink" xml:space="preserve" xmlns:serif="http://www.serif.com/" style="fill-rule:evenodd;clip-rule:evenodd;stroke-linejoin:round;stroke-miterlimit:2;"><g id="Layer1"><path d="M241.747,236.07l1.519,223.507l12.733,22.952c0.953,-0 1.906,-0.213 2.786,-0.638l203.583,-117.472c2.41,-1.165 3.616,-3.464 3.617,-5.764l-0,0.001l0.013,-243.464l0.002,-0.003l-0.003,0c0,-0.34 -0.035,-0.678 -0.088,-1.015c-0.267,1.988 -16.25,-0.944 -18.352,0.071l-183.932,84.766l-21.878,37.059Z" style="fill:#f60056;fill-rule:nonzero;"/><path d="M46.003,353.83l-0,0.056c-0,2.3 1.205,4.598 3.616,5.764l203.596,122.241c0.88,0.425 1.833,0.638 2.786,0.638l-0,-264.439l-0.002,-0c-0.952,-0 -1.906,-0.212 -2.786,-0.638l2.78,-15.425l-191.553,-88.003c-2.077,-1.004 -18.077,2.183 -18.364,0.221l-0.076,0.945l0.002,0.003l-0,238.694l0.001,-0.057Z" style="fill:#f66e02;fill-rule:nonzero;"/><path d="M255.934,29.471l-0,0l-0.001,0l-0,0c-0.953,0 -1.905,0.213 -2.784,0.638l-203.531,79.319c-2.409,1.164 -3.614,3.462 -3.616,5.76l-0,0.027c0.008,2.292 1.212,4.58 3.615,5.741l203.596,98.396c0.88,0.425 1.834,0.638 2.787,0.638l-0,-0.001c0.952,0 1.905,-0.212 2.785,-0.638l203.597,-98.396c2.587,-1.249 3.773,-3.806 3.583,-6.268c-0.009,-0.119 -0.008,-0.238 -0.024,-0.356c-0.02,-0.151 -0.059,-0.299 -0.089,-0.448c-0.028,-0.133 -0.045,-0.268 -0.081,-0.4c-0.038,-0.144 -0.097,-0.284 -0.146,-0.426c-0.045,-0.131 -0.081,-0.264 -0.136,-0.392c-0.055,-0.132 -0.13,-0.257 -0.195,-0.386c-0.067,-0.132 -0.125,-0.267 -0.201,-0.396c-0.078,-0.129 -0.174,-0.248 -0.261,-0.373c-0.083,-0.118 -0.156,-0.241 -0.247,-0.353c-0.121,-0.149 -0.262,-0.284 -0.399,-0.423c-0.076,-0.079 -0.142,-0.164 -0.223,-0.238c-0.452,-0.415 -0.979,-0.778 -1.581,-1.069l-203.664,-79.318c-0.879,-0.426 -1.831,-0.638 -2.784,-0.638Z" style="fill:#aaff2c;fill-rule:nonzero;"/></g></svg>