<?xml version="1.0" encoding="UTF-8" standalone="no"?><!DOCTYPE svg PUBLIC "-//W3C//DTD SVG 1.1//EN" "http://www.w3.org/Graphics/SVG/1.1/DTD/svg11.dtd"><svg width="100%" height="100%" viewBox="0 0 512 512" version="1.1" xmlns="http://www.w3.org/2000/svg" xmlns:xlink="http://www.w3.org/1999/xlink" xml:space="preserve" xmlns:serif="http://www.serif.com/" style="fill-rule:evenodd;clip-rule:evenodd;stroke-linejoin:round;stroke-miterlimit:2;"><path d="M224.699,396.134c10.245,-0 19.683,5.152 25.247,13.783c0.137,0.213 0.367,0.35 0.619,0.369c0.021,0.001 0.042,0.002 0.062,0.002c0.232,0 0.453,-0.099 0.607,-0.273c8.341,-9.436 20.333,-14.847 32.901,-14.847c4.282,-0 8.419,0.627 12.334,1.776l-14.452,-37.046l-51.138,-0l-14.61,37.45c2.676,-0.786 5.504,-1.214 8.43,-1.214Z" style="fill:#d9eafc;fill-rule:nonzero;"/><path d="M237.546,359.897l-6.667,0l-14.61,37.45c2.274,-0.666 4.661,-1.058 7.122,-1.166l14.155,-36.284Z" style="fill:#aec1ed;fill-rule:nonzero;"/><path d="M198.852,437.116c0.039,0.26 0.18,0.493 0.391,0.649c0.169,0.125 0.374,0.19 0.581,0.19c0.052,0 0.104,-0.003 0.155,-0.011c3.511,-0.559 7.038,-0.842 10.48,-0.842c16.819,-0 32.863,6.319 45.179,17.794c0.189,0.176 0.43,0.264 0.671,0.264c0.241,0 0.482,-0.088 0.671,-0.264c12.315,-11.475 28.36,-17.794 45.179,-17.794c3.441,-0 6.969,0.283 10.48,0.842c0.052,0.008 0.103,0.011 0.155,0.011c0.207,0 0.412,-0.065 0.581,-0.19c0.211,-0.156 0.352,-0.389 0.391,-0.649c1.818,-12.234 6.422,-23.821 13.33,-33.934c-9.716,-9.12 -22.779,-14.717 -37.159,-14.717c-16.207,0 -30.747,7.108 -40.698,18.366c-6.665,-10.339 -18.274,-17.192 -31.491,-17.192c-12.678,-0 -23.875,6.306 -30.652,15.946c6.03,9.531 10.081,20.254 11.756,31.531Z" style="fill:#aec1ed;fill-rule:nonzero;"/><path d="M196.027,425.118c-6.285,-42.309 -42.752,-74.77 -86.809,-74.77c-30.585,0 -57.506,15.65 -73.218,39.371c24.057,40.405 58.93,73.604 100.622,95.637c4.458,-30.879 28.666,-55.354 59.405,-60.238Z" style="fill:#9faed6;fill-rule:nonzero;"/><path d="M117.982,361.14c22.384,0 42.902,7.94 58.931,21.136c-16.098,-19.494 -40.438,-31.928 -67.695,-31.928c-30.585,0 -57.506,15.65 -73.218,39.371c2.075,3.485 4.237,6.914 6.471,10.29c16.835,-23.527 44.375,-38.869 75.511,-38.869Z" style="fill:#293d7c;fill-opacity:0.51;fill-rule:nonzero;"/><path d="M402.784,350.348c-44.057,0 -80.524,32.462 -86.809,74.77c30.738,4.884 54.946,29.359 59.405,60.238c41.69,-22.033 76.565,-55.233 100.622,-95.637c-15.712,-23.721 -42.633,-39.371 -73.218,-39.371Z" style="fill:#a6b5d9;fill-rule:nonzero;"/><path d="M408.094,350.511c-1.757,-0.104 -3.526,-0.163 -5.31,-0.163c-44.057,0 -80.524,32.462 -86.809,74.77c3.275,0.52 6.471,1.276 9.581,2.226c8.733,-39.979 41.573,-70.936 82.538,-76.833Z" style="fill:#293d7c;fill-opacity:0.5;fill-rule:nonzero;"/><path d="M304.682,424.212c-18.815,-0 -35.922,7.285 -48.681,19.174c-12.76,-11.89 -29.866,-19.174 -48.682,-19.174c-35.964,-0 -65.713,26.575 -70.7,61.158c35.643,18.837 76.262,29.519 119.382,29.519c43.12,0 83.739,-10.682 119.382,-29.519c-4.987,-34.583 -34.737,-61.158 -70.701,-61.158Z" style="fill:#6c85ce;fill-rule:nonzero;"/><path d="M219.686,433.681c9.435,0 18.439,1.835 26.68,5.162c-11.423,-8.569 -25.6,-13.666 -40.979,-13.666c-34.435,0 -62.92,25.446 -67.695,58.558c4.023,2.126 8.114,4.14 12.265,6.044c7.007,-32.075 35.551,-56.098 69.729,-56.098Z" style="fill:#1a2b63;fill-opacity:0.49;fill-rule:nonzero;"/><path d="M274.692,359.897l-12.244,0l1.562,12.359c0.421,3.328 3.464,5.683 6.787,5.264c3.328,-0.421 5.686,-3.46 5.264,-6.787l-1.369,-10.836Z" style="fill:#aec1ed;fill-rule:nonzero;"/><path d="M238.204,359.897l-3.212,25.413c-0.42,3.327 1.937,6.367 5.265,6.787c0.258,0.032 0.515,0.049 0.769,0.049c3.015,-0.001 5.631,-2.245 6.019,-5.314l3.405,-26.936l-12.246,0l0,0.001Z" style="fill:#aec1ed;fill-rule:nonzero;"/><path d="M186.461,250.479c0,-7.391 0.277,-14.762 0.796,-22.079c-21.805,12.279 -36.827,39.634 -36.827,71.303c-0,16.727 4.159,32.678 12.026,46.129c0.738,1.264 2.075,1.986 3.464,1.986c0.507,0 1.021,-0.096 1.515,-0.298c10.34,-4.227 21.389,-6.398 32.847,-6.489c-9.048,-27.848 -13.821,-58.947 -13.821,-90.552Z" style="fill:#fe3745;fill-rule:nonzero;"/><path d="M160.706,299.703c-0,-26.157 10.254,-49.361 26.108,-63.568c0.121,-2.584 0.262,-5.163 0.444,-7.735c-21.805,12.279 -36.827,39.634 -36.827,71.303c-0,16.727 4.158,32.678 12.026,46.129c0.738,1.264 2.075,1.986 3.464,1.986c0.507,0 1.021,-0.096 1.515,-0.298c1.704,-0.697 3.435,-1.317 5.175,-1.901c-7.787,-13.408 -11.905,-29.277 -11.905,-45.916Z" style="fill:#b7092b;fill-rule:nonzero;"/><path d="M325.034,228.4c0.518,7.318 0.796,14.689 0.796,22.079c-0,31.604 -4.774,62.703 -13.822,90.552c11.459,0.091 22.507,2.262 32.847,6.489c0.494,0.202 1.008,0.298 1.515,0.298c1.389,0 2.725,-0.723 3.464,-1.986c7.868,-13.451 12.026,-29.402 12.026,-46.129c0.001,-31.669 -15.021,-59.024 -36.826,-71.303Z" style="fill:#fe3745;fill-rule:nonzero;"/><path d="M221.443,351.444l-0,20.893c-0,2.492 2.039,4.531 4.531,4.531l60.342,0c2.493,0 4.532,-2.039 4.532,-4.531l-0,-20.893l-69.405,0Z" style="fill:#fe3745;fill-rule:nonzero;"/><path d="M236.856,372.337l-0,-20.893l-15.413,0l-0,20.893c-0,2.492 2.039,4.531 4.531,4.531l15.413,0c-2.492,0 -4.531,-2.039 -4.531,-4.531Z" style="fill:#b7092b;fill-rule:nonzero;"/><path d="M311.296,154.959l-110.301,0c-10.109,29.139 -15.44,61.937 -15.44,95.52c-0,34.911 5.79,69.227 16.743,99.236c0.578,1.582 2.083,2.635 3.767,2.635l100.16,0c1.685,0 3.19,-1.053 3.768,-2.635c10.953,-30.009 16.743,-64.325 16.743,-99.236c0.001,-33.583 -5.331,-66.38 -15.44,-95.52Z" style="fill:#eef6ff;fill-rule:nonzero;"/><path d="M215.143,349.715c-10.954,-30.009 -16.744,-64.325 -16.744,-99.236c0,-33.583 5.332,-66.381 15.44,-95.52l-12.843,0c-10.109,29.139 -15.44,61.937 -15.44,95.52c-0,34.911 5.79,69.227 16.743,99.236c0.578,1.582 2.083,2.635 3.767,2.635l12.844,0c-1.685,0 -3.189,-1.053 -3.767,-2.635Z" style="fill:#d9eafc;fill-rule:nonzero;"/><path d="M230.026,154.959l0,15.039c0,2.492 2.039,4.531 4.532,4.531l43.176,-0c2.492,-0 4.531,-2.039 4.531,-4.531l0,-15.039l-52.239,0Z" style="fill:#ea2a3d;fill-rule:nonzero;"/><path d="M240.301,169.998l0,-15.039l-10.275,0l0,15.039c0,2.492 2.039,4.531 4.532,4.531l10.275,-0c-2.492,-0 -4.532,-2.039 -4.532,-4.531Z" style="fill:#b7092b;fill-rule:nonzero;"/><path d="M256.146,73.107c-0.895,-0 -1.788,0.298 -2.524,0.893c-20.244,16.394 -37.297,41.262 -49.311,71.916c-1.278,3.262 -2.479,6.588 -3.631,9.949l110.93,0c-1.152,-3.361 -2.352,-6.687 -3.63,-9.949c-12.015,-30.654 -29.066,-55.522 -49.311,-71.916c-0.735,-0.595 -1.629,-0.893 -2.523,-0.893Z" style="fill:#fe3745;fill-rule:nonzero;"/><path d="M262.568,77.301c-1.286,-1.134 -2.585,-2.237 -3.898,-3.301c-0.736,-0.595 -1.63,-0.893 -2.524,-0.893c-0.895,-0 -1.788,0.298 -2.524,0.893c-20.244,16.394 -37.297,41.262 -49.311,71.916c-1.278,3.262 -2.479,6.588 -3.631,9.949l12.844,0c1.152,-3.361 2.353,-6.687 3.631,-9.949c11.235,-28.666 26.876,-52.267 45.413,-68.615Z" style="fill:#b7092b;fill-rule:nonzero;"/><circle cx="256.146" cy="237.078" r="46.238" style="fill:#445ea0;"/><circle cx="256.146" cy="237.078" r="29.663" style="fill:#69cdff;"/><path d="M237.357,237.08c0,14.524 10.441,26.603 24.226,29.158c-1.763,0.326 -3.578,0.505 -5.437,0.505c-16.384,0 -29.663,-13.281 -29.663,-29.663c-0,-16.383 13.28,-29.664 29.663,-29.664c1.858,0 3.674,0.18 5.437,0.506c-13.785,2.555 -24.226,14.633 -24.226,29.158Z" style="fill:#52bbef;fill-rule:nonzero;"/><path d="M108.954,253.367c-1.039,-0 -1.977,-0.626 -2.374,-1.587c-5.06,-12.216 -8.79,-15.945 -21.006,-21.004c-0.961,-0.398 -1.586,-1.335 -1.586,-2.375c0,-1.039 0.626,-1.976 1.586,-2.374c12.217,-5.062 15.946,-8.792 21.006,-21.007c0.397,-0.96 1.335,-1.587 2.374,-1.587c1.039,0 1.977,0.627 2.374,1.587c5.061,12.215 8.791,15.945 21.007,21.007c0.96,0.398 1.587,1.335 1.587,2.374c-0,1.04 -0.627,1.978 -1.587,2.375c-12.216,5.058 -15.946,8.788 -21.007,21.004c-0.397,0.961 -1.335,1.587 -2.374,1.587Z" style="fill:#ffd00d;fill-rule:nonzero;"/><path d="M111.717,246.642c-5.059,-12.215 -8.79,-15.944 -21.005,-21.004c-0.604,-0.249 -1.074,-0.713 -1.342,-1.281c-1.172,0.55 -2.423,1.101 -3.796,1.67c-0.961,0.398 -1.586,1.335 -1.586,2.374c0,1.04 0.626,1.978 1.586,2.375c12.216,5.059 15.946,8.788 21.006,21.004c0.397,0.961 1.335,1.587 2.374,1.587c1.039,-0 1.977,-0.626 2.374,-1.587c0.569,-1.373 1.121,-2.624 1.669,-3.795c-0.567,-0.268 -1.03,-0.739 -1.28,-1.343Z" style="fill:#ffaf10;fill-rule:nonzero;"/><path d="M397.042,255.633c-0.913,-0 -1.737,-0.551 -2.087,-1.395c-4.447,-10.738 -7.726,-14.016 -18.463,-18.463c-0.844,-0.349 -1.395,-1.173 -1.395,-2.087c-0,-0.914 0.55,-1.737 1.395,-2.087c10.738,-4.449 14.016,-7.728 18.463,-18.464c0.35,-0.845 1.174,-1.395 2.087,-1.395c0.914,0 1.737,0.55 2.087,1.395c4.448,10.737 7.727,14.015 18.465,18.464c0.844,0.35 1.394,1.173 1.394,2.087c0,0.914 -0.55,1.738 -1.394,2.087c-10.738,4.447 -14.017,7.725 -18.465,18.463c-0.349,0.844 -1.172,1.395 -2.087,1.395Z" style="fill:#fff;fill-rule:nonzero;"/><path d="M399.471,249.722c-4.448,-10.738 -7.726,-14.015 -18.464,-18.463c-0.53,-0.22 -0.945,-0.627 -1.179,-1.126c-1.031,0.482 -2.131,0.967 -3.337,1.467c-0.844,0.35 -1.395,1.173 -1.395,2.087c0,0.914 0.55,1.738 1.395,2.087c10.738,4.448 14.016,7.725 18.463,18.463c0.35,0.845 1.174,1.395 2.087,1.395c0.914,-0 1.738,-0.55 2.087,-1.395c0.5,-1.206 0.985,-2.307 1.468,-3.337c-0.498,-0.234 -0.905,-0.648 -1.125,-1.178Z" style="fill:#d9eafc;fill-rule:nonzero;"/><path d="M144.042,116.633c-0.914,-0 -1.738,-0.551 -2.087,-1.395c-4.447,-10.738 -7.726,-14.016 -18.464,-18.463c-0.843,-0.349 -1.394,-1.173 -1.394,-2.087c-0,-0.914 0.55,-1.737 1.394,-2.087c10.739,-4.449 14.017,-7.728 18.464,-18.464c0.349,-0.845 1.173,-1.395 2.087,-1.395c0.913,0 1.737,0.55 2.087,1.395c4.448,10.737 7.727,14.015 18.465,18.464c0.844,0.35 1.394,1.173 1.394,2.087c-0,0.914 -0.55,1.738 -1.395,2.087c-10.737,4.447 -14.016,7.725 -18.464,18.463c-0.349,0.844 -1.173,1.395 -2.087,1.395Z" style="fill:#fff;fill-rule:nonzero;"/><path d="M146.471,110.722c-4.448,-10.738 -7.726,-14.015 -18.465,-18.463c-0.53,-0.22 -0.944,-0.627 -1.179,-1.126c-1.03,0.482 -2.13,0.967 -3.337,1.467c-0.843,0.35 -1.394,1.173 -1.394,2.087c-0,0.914 0.55,1.738 1.394,2.087c10.739,4.448 14.017,7.725 18.464,18.463c0.35,0.845 1.173,1.395 2.087,1.395c0.913,-0 1.737,-0.55 2.087,-1.395c0.499,-1.206 0.984,-2.307 1.467,-3.337c-0.497,-0.234 -0.904,-0.648 -1.124,-1.178Z" style="fill:#d9eafc;fill-rule:nonzero;"/><path d="M373.479,160.173c-1.065,-0 -2.024,-0.642 -2.432,-1.625c-5.182,-12.512 -9.002,-16.332 -21.514,-21.513c-0.983,-0.407 -1.624,-1.368 -1.624,-2.432c-0,-1.065 0.642,-2.024 1.624,-2.432c12.513,-5.184 16.333,-9.004 21.514,-21.514c0.408,-0.984 1.367,-1.626 2.432,-1.626c1.065,0 2.025,0.642 2.433,1.626c5.183,12.511 9.003,16.331 21.514,21.514c0.984,0.408 1.624,1.367 1.624,2.432c0,1.064 -0.641,2.025 -1.624,2.432c-12.512,5.181 -16.331,9.002 -21.515,21.513c-0.407,0.983 -1.367,1.625 -2.432,1.625Z" style="fill:#ff9518;fill-rule:nonzero;"/><path d="M376.31,153.286c-5.183,-12.511 -9.003,-16.331 -21.515,-21.513c-0.618,-0.255 -1.1,-0.73 -1.374,-1.311c-1.2,0.563 -2.482,1.127 -3.889,1.709c-0.983,0.408 -1.624,1.367 -1.624,2.432c0,1.064 0.642,2.025 1.624,2.432c12.512,5.182 16.333,9.002 21.514,21.513c0.408,0.983 1.367,1.625 2.432,1.625c1.065,-0 2.025,-0.642 2.433,-1.625c0.582,-1.407 1.147,-2.688 1.709,-3.888c-0.581,-0.274 -1.055,-0.756 -1.31,-1.374Z" style="fill:#ef8318;fill-rule:nonzero;"/></svg>