<?xml version="1.0" encoding="UTF-8" standalone="no"?><!DOCTYPE svg PUBLIC "-//W3C//DTD SVG 1.1//EN" "http://www.w3.org/Graphics/SVG/1.1/DTD/svg11.dtd"><svg width="100%" height="100%" viewBox="0 0 512 512" version="1.1" xmlns="http://www.w3.org/2000/svg" xmlns:xlink="http://www.w3.org/1999/xlink" xml:space="preserve" xmlns:serif="http://www.serif.com/" style="fill-rule:evenodd;clip-rule:evenodd;stroke-linejoin:round;stroke-miterlimit:2;"><path d="M255.996,-4c-143.594,0 -260,116.406 -260,260c-0,143.594 116.406,260 260,260c143.594,0 260,-116.406 260,-260c0,-143.594 -116.406,-260 -260,-260Zm0,359.323c-54.856,0 -99.324,-44.467 -99.324,-99.323c0,-54.856 44.468,-99.323 99.324,-99.323c54.856,0 99.323,44.467 99.323,99.323c0,54.856 -44.467,99.323 -99.323,99.323Z" style="fill:#e8e8e8;fill-rule:nonzero;"/><path d="M515.991,255.999c-31.656,-10.846 -65.243,-13.955 -98.014,-9.339c-13.191,1.858 -49.254,4.966 -62,9.339c-1.406,75.715 -71.63,105.418 -99.982,99.322c-14.857,43.372 -15.198,114.014 -1.041,157.556c0.339,1.04 0.689,2.07 1.04,3.109l-0,0.011l0.01,-0c1.157,-0 2.324,-0.011 3.48,-0.022c0.934,-0.01 1.878,-0.031 2.813,-0.053c1.262,-0.031 2.515,-0.064 3.757,-0.116c1.071,-0.043 2.132,-0.086 3.205,-0.139c0.095,-0.01 0.202,-0.01 0.298,-0.021c1.05,-0.053 2.101,-0.106 3.141,-0.181c0.997,-0.052 1.995,-0.127 2.982,-0.202c134.402,-10.059 240.322,-122.293 240.322,-259.264l-0.011,-0Zm-259.998,-259.988l-0,-0.01c-143.594,0.01 -259.989,116.405 -259.989,259.998l0.01,-0c12.905,-4.425 26.138,-7.557 39.499,-9.413c32.601,-4.511 90.007,-1.369 121.515,9.413c7.313,-62.775 38.284,-94.225 98.967,-99.323c-14.857,-43.372 -15.2,-114.013 -1.043,-157.556c0.34,-1.04 0.69,-2.069 1.041,-3.109Z" style="fill:#e82227;fill-rule:nonzero;"/><path d="M257.003,156.682c11.942,-4.638 24.925,-7.182 38.497,-7.182c58.779,-0 106.5,47.721 106.5,106.5c0,58.779 -47.721,106.5 -106.5,106.5c-13.572,0 -26.555,-2.544 -38.497,-7.182c54.39,-0.537 98.316,-44.797 98.316,-99.318c0,-54.521 -43.926,-98.781 -98.316,-99.318Z" style="fill-opacity:0.25;fill-rule:nonzero;"/></svg>