<?xml version="1.0" encoding="UTF-8" standalone="no"?><!DOCTYPE svg PUBLIC "-//W3C//DTD SVG 1.1//EN" "http://www.w3.org/Graphics/SVG/1.1/DTD/svg11.dtd"><svg width="100%" height="100%" viewBox="0 0 512 512" version="1.1" xmlns="http://www.w3.org/2000/svg" xmlns:xlink="http://www.w3.org/1999/xlink" xml:space="preserve" style="fill-rule:evenodd;clip-rule:evenodd;stroke-linejoin:round;stroke-miterlimit:2;"><path d="M511.86,136.181l0,0.037l0.12,190.711l-271.875,2.07l-1.646,-328.999l137.378,0.147c59.717,28.01 108.014,76.317 136.023,136.034Z" style="fill:url(#_Linear1);fill-rule:nonzero;"/><path d="M307.913,127.994c0,24.526 -16.987,45.064 -39.821,50.528c-7.065,1.681 -12.112,7.882 -12.112,15.138l0,109.937l-256.009,-1l0,-166.041c28.037,-59.983 76.53,-108.503 136.507,-136.556l119.522,0l-0.02,62.329c0,1.823 3.534,9.825 3.795,10.14c2.106,2.416 4.97,4.203 8.279,4.991c0.119,0.028 0.25,0.066 0.37,0.109c22.659,5.558 39.489,26.029 39.489,50.425Z" style="fill:url(#_Linear2);fill-rule:nonzero;"/><path d="M292.568,256l-1,255.999l-155.095,0c-59.978,-28.054 -108.47,-76.574 -136.502,-136.562l0.029,-119.437l62.31,-0.001c7.267,0 13.451,-5.046 15.148,-12.11c2.995,-12.537 10.537,-23.312 20.79,-30.482c8.423,-5.89 18.675,-9.345 29.739,-9.345c24.505,0 45.052,16.993 50.517,39.827c1.682,7.064 7.881,12.11 15.131,12.11l98.933,0.001Z" style="fill:url(#_Linear3);fill-rule:nonzero;"/><path d="M511.98,256l0,119.583c-28.037,59.923 -76.508,108.378 -136.442,136.416l-119.538,0l-0.02,-62.33c0,-7.267 -5.045,-13.455 -12.11,-15.148c-22.834,-5.454 -39.838,-26.001 -39.838,-50.528c0,-24.515 17.004,-45.053 39.838,-50.516c7.065,-1.682 12.11,-7.889 12.11,-15.139l0.02,-62.338l62.321,-0.001c7.255,0 13.455,5.046 15.137,12.11c5.465,22.835 25.996,39.827 50.517,39.827c8.432,0 16.395,-2.013 23.438,-5.573c1.17,-0.593 2.313,-1.22 3.412,-1.905c11.72,-7.082 20.407,-18.653 23.679,-32.349c0.788,-3.309 2.573,-6.188 4.991,-8.3c0.223,-0.195 0.463,-0.381 0.697,-0.549c2.628,-2.07 5.911,-3.261 9.46,-3.261l62.328,0.001Z" style="fill:url(#_Linear4);fill-rule:nonzero;"/><defs><linearGradient id="_Linear1" x1="0" y1="0" x2="1" y2="0" gradientUnits="userSpaceOnUse" gradientTransform="matrix(-179,179,-179,-179,445.999,65.9993)"><stop offset="0" style="stop-color:#00fef5;stop-opacity:1"/><stop offset="1" style="stop-color:#007e7a;stop-opacity:1"/></linearGradient><linearGradient id="_Linear2" x1="0" y1="0" x2="1" y2="0" gradientUnits="userSpaceOnUse" gradientTransform="matrix(-232.001,213,-213,-232.001,248,36)"><stop offset="0" style="stop-color:#fec75a;stop-opacity:1"/><stop offset="1" style="stop-color:#ec6702;stop-opacity:1"/></linearGradient><linearGradient id="_Linear3" x1="0" y1="0" x2="1" y2="0" gradientUnits="userSpaceOnUse" gradientTransform="matrix(-223.03,229,-229,-223.03,223.001,286)"><stop offset="0" style="stop-color:#ed5e90;stop-opacity:1"/><stop offset="1" style="stop-color:#cb0047;stop-opacity:1"/></linearGradient><linearGradient id="_Linear4" x1="0" y1="0" x2="1" y2="0" gradientUnits="userSpaceOnUse" gradientTransform="matrix(-237,239,-239,-237,497.999,265.001)"><stop offset="0" style="stop-color:#abe184;stop-opacity:1"/><stop offset="1" style="stop-color:#67b72e;stop-opacity:1"/></linearGradient></defs></svg>