<?xml version="1.0" encoding="UTF-8" standalone="no"?><!DOCTYPE svg PUBLIC "-//W3C//DTD SVG 1.1//EN" "http://www.w3.org/Graphics/SVG/1.1/DTD/svg11.dtd"><svg width="100%" height="100%" viewBox="0 0 512 512" version="1.1" xmlns="http://www.w3.org/2000/svg" xmlns:xlink="http://www.w3.org/1999/xlink" xml:space="preserve" xmlns:serif="http://www.serif.com/" style="fill-rule:evenodd;clip-rule:evenodd;stroke-linejoin:round;stroke-miterlimit:2;"><path d="M493.285,246.207c0.134,3.248 0.215,6.511 0.215,9.794c0,131.167 -106.331,237.498 -237.5,237.498c-131.168,0 -237.5,-106.332 -237.5,-237.5c-0,-3.285 0.083,-6.547 0.216,-9.798c-0,-0.279 0.003,-0.456 0.006,-0.53c5.409,-126.375 109.572,-227.17 237.278,-227.17c127.707,-0 231.872,100.795 237.279,227.17c0.003,0.074 0.005,0.255 0.005,0.536l0.001,0Z" style="fill:#e4eef9;"/><path d="M300.456,239.577l-15.064,15.274l-21.533,0l0,-27.201l13.668,-13.855l0.002,0l-0.001,-0.001l40.397,-40.957c6.676,-6.767 17.575,-6.843 24.345,-0.165c6.77,6.676 6.843,17.575 0.168,24.344l-41.982,42.561Z" style="fill:#405b6c;"/><path d="M210.531,242.672l-93.418,-83.247c-7.097,-6.328 -7.726,-17.207 -1.4,-24.307c6.325,-7.098 17.208,-7.725 24.304,-1.398l91.616,81.64l14.502,12.924l1.118,21.7l-20.646,7.015l-16.076,-14.327Z" style="fill:#405b6c;"/><path d="M377.893,367c-1.955,-0 -3.918,-0.661 -5.531,-2.018l-109.037,-91.587c-3.64,-3.058 -4.114,-8.489 -1.056,-12.127c3.057,-3.64 8.487,-4.114 12.126,-1.055l109.038,91.589c3.639,3.056 4.112,8.488 1.054,12.127c-1.7,2.027 -4.139,3.071 -6.595,3.071l0.001,-0Z" style="fill:#ff5876;fill-rule:nonzero;"/><path d="M283.604,245.822c1.169,3.173 1.813,6.599 1.813,10.179c0,16.246 -13.169,29.418 -29.417,29.418c-16.247,0 -29.418,-13.171 -29.418,-29.418c-0,-3.588 0.646,-7.02 1.821,-10.199c0.014,-0.047 0.029,-0.092 0.045,-0.132c4.182,-11.152 14.942,-19.089 27.552,-19.089c12.611,-0 23.371,7.937 27.554,19.089c0.017,0.046 0.034,0.097 0.05,0.152Z" style="fill:#ffb700;"/><path d="M265.897,77.383l-0.001,-30.65c-0,-5.466 -4.432,-9.896 -9.896,-9.896c-5.463,-0 -9.896,4.43 -9.896,9.896l0,30.65c0,5.465 4.431,9.896 9.896,9.896c5.466,0 9.896,-4.431 9.896,-9.896l0.001,0Z" style="fill:#405b6c;fill-rule:nonzero;"/><path d="M246.104,434.618l0,30.65c0,5.465 4.431,9.896 9.896,9.896c5.466,0 9.896,-4.431 9.896,-9.896l-0,-30.65c-0,-5.466 -4.431,-9.896 -9.896,-9.896c-5.463,-0 -9.896,4.43 -9.896,9.896Z" style="fill:#405b6c;fill-rule:nonzero;"/><path d="M465.268,265.895c5.466,-0 9.896,-4.43 9.896,-9.894c0,-5.465 -4.431,-9.898 -9.896,-9.898l-30.651,0c-5.464,0 -9.896,4.433 -9.896,9.898c-0,5.464 4.432,9.894 9.896,9.894l30.651,-0Z" style="fill:#405b6c;fill-rule:nonzero;"/><path d="M46.732,246.103c-5.465,0 -9.896,4.433 -9.896,9.898c-0,5.464 4.431,9.894 9.896,9.894l30.651,-0c5.467,-0 9.896,-4.43 9.896,-9.894c0,-5.465 -4.431,-9.898 -9.896,-9.898l-30.651,0Z" style="fill:#405b6c;fill-rule:nonzero;"/></svg>