<?xml version="1.0" encoding="UTF-8" standalone="no"?><!DOCTYPE svg PUBLIC "-//W3C//DTD SVG 1.1//EN" "http://www.w3.org/Graphics/SVG/1.1/DTD/svg11.dtd"><svg width="100%" height="100%" viewBox="0 0 512 512" version="1.1" xmlns="http://www.w3.org/2000/svg" xmlns:xlink="http://www.w3.org/1999/xlink" xml:space="preserve" xmlns:serif="http://www.serif.com/" style="fill-rule:evenodd;clip-rule:evenodd;stroke-linejoin:round;stroke-miterlimit:2;"><path d="M159.072,335.083l-32.629,32.63l35.433,35.434l32.63,-32.63l-35.434,-35.434Z" style="fill:#ff974f;"/><path d="M141.356,317.363l-32.63,32.63l35.434,35.433l32.63,-32.63l-35.434,-35.433Z" style="fill:#ffb35c;"/><path d="M135.342,376.588l-103.166,103.166c14.68,14.68 38.479,14.68 53.159,0l76.587,-76.587l-26.58,-26.579Z" style="fill:#b701ff;fill-rule:nonzero;"/><path d="M67.615,462.035l76.588,-76.587l-35.439,-35.439l-76.588,76.586c-14.68,14.68 -14.68,38.48 0,53.158c4.894,4.895 20.76,-3.039 35.439,-17.718Z" style="fill:#d664ff;fill-rule:nonzero;"/><circle cx="271.065" cy="239.004" r="158.24" style="fill:#ffb35c;"/><path d="M361.107,328.849c-49.617,49.619 -130.068,49.619 -179.691,-0.004c-49.617,-49.614 -49.619,-130.066 0,-179.685c49.618,-49.618 130.072,-49.616 179.69,-0c49.621,49.621 49.621,130.07 0.001,179.689Z" style="fill:#69cdff;fill-rule:nonzero;"/><path d="M361.107,328.849c4.52,-4.519 8.615,-9.299 12.31,-14.283c-49.74,36.886 -120.303,32.789 -165.406,-12.315c-45.1,-45.096 -49.196,-115.661 -12.312,-165.401c-4.985,3.697 -9.763,7.792 -14.283,12.31c-49.619,49.619 -49.617,130.07 0,179.685c49.623,49.623 130.074,49.623 179.691,0.004Z" style="fill-opacity:0.25;fill-rule:nonzero;"/><circle cx="339.303" cy="200.323" r="28.58" style="fill:#d9eafc;"/><circle cx="354.522" cy="270.351" r="18.894" style="fill:#d9eafc;"/><path d="M176.12,396.977l-20.388,-20.389l-20.389,20.389l20.389,20.388c5.629,5.63 14.758,5.63 20.388,-0c5.631,-5.63 5.631,-14.758 0,-20.388Z" style="fill:#ffb35c;fill-rule:nonzero;"/><path d="M155.732,396.977c5.629,-5.631 5.629,-14.759 -0,-20.389l-40.778,-40.777c-5.63,-5.631 -14.758,-5.631 -20.388,-0c-5.631,5.63 -5.631,14.758 -0,20.388l40.777,40.778c5.63,5.63 14.758,5.63 20.389,-0Z" style="fill:#ffd06a;fill-rule:nonzero;"/></svg>