<?xml version="1.0" encoding="UTF-8" standalone="no"?><!DOCTYPE svg PUBLIC "-//W3C//DTD SVG 1.1//EN" "http://www.w3.org/Graphics/SVG/1.1/DTD/svg11.dtd"><svg width="100%" height="100%" viewBox="0 0 465 465" version="1.1" xmlns="http://www.w3.org/2000/svg" xmlns:xlink="http://www.w3.org/1999/xlink" xml:space="preserve" style="fill-rule:evenodd;clip-rule:evenodd;stroke-linejoin:round;stroke-miterlimit:2;"><path d="M352.028,119.176l0,-0.048l-240,0l0,0.048c-62.331,0.462 -112.486,51.365 -112.025,113.697c0.462,62.331 51.365,112.487 113.697,112.025c29.992,-0.222 58.663,-12.373 79.681,-33.77l77.296,0c43.685,44.457 115.139,45.083 159.596,1.398c44.457,-43.685 45.083,-115.139 1.398,-159.596c-21.011,-21.382 -49.666,-33.527 -79.643,-33.754Z" style="fill:#dedede;fill-rule:nonzero;"/><circle cx="352.028" cy="231.1" r="96" style="fill:#c4c4c4;"/><circle cx="112" cy="231.1" r="96" style="fill:#c4c4c4;"/><path d="M331.522,158.622c-11.318,11.318 -11.318,29.694 -0,41.012c11.318,11.318 29.694,11.318 41.012,0c11.318,-11.318 11.318,-29.694 0,-41.012c-11.318,-11.318 -29.694,-11.318 -41.012,-0Z" style="fill:#6694ff;"/><circle cx="352.028" cy="283.128" r="29" style="fill:#ffae00;"/><circle cx="300.028" cy="231.128" r="29" style="fill:#8ae64d;"/><circle cx="404.028" cy="231.128" r="29" style="fill:#de4c3c;"/><path d="M331.522,158.622l41.012,41.012c-11.318,11.318 -29.694,11.318 -41.012,0c-11.318,-11.318 -11.318,-29.694 -0,-41.012Z" style="fill-opacity:0.2;"/><path d="M279.516,210.628l41.012,41.012c-11.317,11.317 -29.694,11.317 -41.012,-0c-11.317,-11.318 -11.317,-29.695 0,-41.012Z" style="fill-opacity:0.2;"/><path d="M48.028,217.128c0,-5.523 4.477,-10 10,-10c6.108,-0 13.892,-0 20,-0c5.523,-0 10,-4.477 10,-10l0,-20c0,-5.523 4.477,-10 10,-10c8.212,-0 19.788,-0 28,-0c5.523,0 10,4.477 10,10c0,6.108 0,13.892 0,20c0,5.523 4.477,10 10,10l20,-0c5.523,0 10,4.477 10,10c0,8.212 0,19.788 0,28c-0,5.523 -4.477,10 -10,10c-6.108,0 -13.892,-0 -20,0c-5.523,0 -10,4.477 -10,10l0,20c-0,5.523 -4.477,10 -10,10c-8.212,-0 -19.788,-0 -28,-0c-5.523,-0 -10,-4.477 -10,-10c0,-6.108 0,-13.892 0,-20c-0,-5.523 -4.477,-10 -10,-10l-20,-0c-5.523,-0 -10,-4.477 -10,-10c0,-8.212 0,-19.788 0,-28Z" style="fill:#737373;fill-rule:nonzero;"/><path d="M138.311,258.767c-1.426,1.729 -2.283,3.945 -2.283,6.361l0,20c-0,5.523 -4.477,10 -10,10l-28,0c-5.523,-0 -10,-4.477 -10,-10l0,-20c-0,-5.523 -4.477,-10 -10,-10l-20,0c-5.523,-0 -10,-4.477 -10,-10l0,-28c0,-5.523 4.477,-10 10,-10l20,0c2.416,-0 4.632,-0.857 6.361,-2.283l53.922,53.922Z" style="fill:#666;"/><path d="M383.516,210.628l41.012,41.012c-11.317,11.317 -29.694,11.317 -41.012,-0c-11.317,-11.318 -11.317,-29.695 0,-41.012Z" style="fill-opacity:0.2;"/><path d="M331.522,262.628l41.012,41.012c-11.318,11.317 -29.694,11.317 -41.012,-0c-11.318,-11.318 -11.318,-29.695 -0,-41.012Z" style="fill-opacity:0.2;"/></svg>