<?xml version="1.0" encoding="UTF-8" standalone="no"?><!DOCTYPE svg PUBLIC "-//W3C//DTD SVG 1.1//EN" "http://www.w3.org/Graphics/SVG/1.1/DTD/svg11.dtd"><svg width="100%" height="100%" viewBox="0 0 512 512" version="1.1" xmlns="http://www.w3.org/2000/svg" xmlns:xlink="http://www.w3.org/1999/xlink" xml:space="preserve" xmlns:serif="http://www.serif.com/" style="fill-rule:evenodd;clip-rule:evenodd;stroke-linejoin:round;stroke-miterlimit:2;"><circle cx="174.277" cy="178.018" r="37.809" style="fill:#1b2a38;"/><circle cx="338.117" cy="178.018" r="37.809" style="fill:#1b2a38;"/><path d="M397.982,196.135c-11.815,-25.206 -38.991,-40.566 -67.348,-36.628c-3.938,0.394 -62.819,18.511 -74.635,18.511c-12.209,0 -70.301,-18.117 -74.239,-18.511c-28.357,-3.938 -55.532,11.815 -67.348,36.628l-33.083,70.105l174.868,-33.083l174.868,33.083l-33.083,-70.105Z" style="fill:#3f4b5b;fill-rule:nonzero;"/><path d="M347.175,318.621c-58.289,-24.025 -124.062,-24.025 -182.351,0c-8.665,-21.268 -17.723,-42.535 -26.388,-64.197c75.225,-31.114 159.902,-31.114 235.126,0c-8.663,21.268 -17.328,42.536 -26.387,64.197Z" style="fill:#1b2a38;fill-rule:nonzero;"/><circle cx="154.191" cy="293.809" r="77.982" style="fill:#2b3b4e;"/><circle cx="154.191" cy="293.809" r="59.865" style="fill:#54c0eb;"/><circle cx="154.191" cy="293.809" r="43.323" style="fill:#84dbff;"/><circle cx="357.809" cy="293.809" r="77.982" style="fill:#2b3b4e;"/><circle cx="357.809" cy="293.809" r="59.865" style="fill:#54c0eb;"/><circle cx="357.809" cy="293.809" r="43.323" style="fill:#84dbff;"/><circle cx="256.197" cy="263.876" r="15.36" style="fill:#324a5e;"/></svg>