<?xml version="1.0" encoding="UTF-8" standalone="no"?><!DOCTYPE svg PUBLIC "-//W3C//DTD SVG 1.1//EN" "http://www.w3.org/Graphics/SVG/1.1/DTD/svg11.dtd"><svg width="100%" height="100%" viewBox="0 0 512 512" version="1.1" xmlns="http://www.w3.org/2000/svg" xmlns:xlink="http://www.w3.org/1999/xlink" xml:space="preserve" xmlns:serif="http://www.serif.com/" style="fill-rule:evenodd;clip-rule:evenodd;stroke-linejoin:round;stroke-miterlimit:2;"><path d="M106.775,103.576c-2.979,-7.094 -0.977,-15.3 4.936,-20.224c7.814,-6.524 16.059,-12.514 24.681,-17.925c6.508,-4.1 14.929,-3.47 20.753,1.554c8.47,7.298 20.717,17.862 28.608,24.67c4.664,4.022 11.098,5.297 16.943,3.357c0.594,-0.212 1.194,-0.407 1.795,-0.599c5.864,-1.865 10.316,-6.673 11.724,-12.663c2.397,-10.143 6.096,-25.888 8.652,-36.773c1.76,-7.489 8.204,-12.951 15.88,-13.46c10.158,-0.684 20.349,-0.684 30.505,0.006c7.675,0.508 14.118,5.968 15.877,13.455c2.561,10.884 6.26,26.629 8.643,36.774c1.408,5.996 5.864,10.809 11.733,12.675c0.606,0.178 1.206,0.373 1.805,0.571c5.84,1.938 12.269,0.664 16.927,-3.355c7.903,-6.796 20.149,-17.36 28.616,-24.662c5.825,-5.025 14.25,-5.656 20.758,-1.555c8.62,5.416 16.865,11.406 24.677,17.935c5.91,4.921 7.912,13.126 4.933,20.217c-4.323,10.309 -10.586,25.222 -14.621,34.832c-2.385,5.677 -1.609,12.19 2.043,17.15c0.385,0.5 0.756,1.01 1.123,1.522c3.587,5 9.535,7.749 15.668,7.235c10.386,-0.852 26.504,-2.2 37.645,-3.132c7.667,-0.641 14.854,3.8 17.709,10.944c3.79,9.448 6.939,19.141 9.421,29.013c1.886,7.455 -1.314,15.27 -7.891,19.257c-9.559,5.8 -23.39,14.182 -32.303,19.585c-5.266,3.191 -8.467,8.917 -8.429,15.075c0.018,0.631 0.018,1.262 0.015,1.894c-0.038,6.152 3.16,11.872 8.422,15.062c8.905,5.414 22.736,13.798 32.297,19.593c6.58,3.987 9.784,11.803 7.894,19.262c-2.487,9.871 -5.636,19.564 -9.431,29.01c-2.855,7.141 -10.039,11.581 -17.703,10.94c-11.142,-0.926 -27.26,-2.274 -37.645,-3.142c-6.137,-0.514 -12.092,2.237 -15.681,7.241c-0.355,0.522 -0.726,1.032 -1.1,1.541c-3.648,4.955 -4.423,11.463 -2.04,17.135l12.296,29.32c0,0 1.034,2.463 2.316,5.517c2.979,7.092 0.977,15.3 -4.936,20.222c-7.814,6.525 -16.059,12.515 -24.681,17.926c-6.508,4.1 -14.929,3.469 -20.753,-1.555c-8.47,-7.297 -20.716,-17.862 -28.609,-24.668c-4.662,-4.023 -11.097,-5.298 -16.941,-3.358c-0.595,0.213 -1.195,0.406 -1.796,0.599c-5.864,1.865 -10.316,6.674 -11.723,12.664c-2.398,10.142 -6.097,25.887 -8.653,36.771c-1.759,7.49 -8.204,12.951 -15.88,13.459c-10.158,0.685 -20.349,0.685 -30.505,-0.004c-7.675,-0.509 -14.117,-5.969 -15.877,-13.456c-2.561,-10.883 -6.26,-26.628 -8.644,-36.774c-1.407,-5.995 -5.863,-10.808 -11.732,-12.674c-0.606,-0.179 -1.206,-0.372 -1.805,-0.571c-5.84,-1.939 -12.269,-0.664 -16.928,3.355c-7.901,6.795 -20.148,17.36 -28.615,24.662c-5.825,5.025 -14.248,5.655 -20.758,1.555c-8.62,-5.416 -16.865,-11.406 -24.675,-17.935c-5.912,-4.922 -7.914,-13.126 -4.935,-20.217c4.323,-10.31 10.586,-25.223 14.621,-34.832c2.385,-5.677 1.61,-12.191 -2.041,-17.15c-0.387,-0.5 -0.758,-1.01 -1.125,-1.522c-3.585,-5.001 -9.535,-7.749 -15.667,-7.236c-10.387,0.853 -26.505,2.201 -37.646,3.132c-7.666,0.641 -14.854,-3.799 -17.709,-10.942c-3.79,-9.449 -6.939,-19.142 -9.421,-29.014c-1.888,-7.456 1.314,-15.271 7.891,-19.256c9.559,-5.8 23.391,-14.184 32.303,-19.585c5.266,-3.193 8.467,-8.918 8.428,-15.077c-0.017,-0.63 -0.017,-1.261 -0.013,-1.892c0.037,-6.153 -3.16,-11.873 -8.423,-15.063c-8.904,-5.415 -22.736,-13.797 -32.297,-19.592c-6.58,-3.988 -9.783,-11.805 -7.894,-19.263c2.487,-9.871 5.636,-19.564 9.431,-29.01c2.855,-7.141 10.039,-11.581 17.703,-10.941c11.142,0.927 27.26,2.275 37.646,3.144c6.136,0.512 12.091,-2.238 15.68,-7.243c0.355,-0.521 0.726,-1.031 1.1,-1.54c3.648,-4.955 4.423,-11.462 2.04,-17.136c-4.802,-11.475 -12.296,-29.319 -12.296,-29.319l-2.316,-5.516Zm149.226,64.925c-48.293,-0 -87.5,39.207 -87.5,87.5c-0,48.293 39.207,87.5 87.5,87.5c48.293,0 87.5,-39.207 87.5,-87.5c0,-48.293 -39.207,-87.5 -87.5,-87.5Z" style="fill:url(#_Linear1);"/><defs><linearGradient id="_Linear1" x1="0" y1="0" x2="1" y2="0" gradientUnits="userSpaceOnUse" gradientTransform="matrix(-246.501,346.001,-346.001,-246.501,381.001,82.5006)"><stop offset="0" style="stop-color:#b4bbc2;stop-opacity:1"/><stop offset="1" style="stop-color:#8f9aa4;stop-opacity:1"/></linearGradient></defs></svg>