<?xml version="1.0" encoding="UTF-8" standalone="no"?><!DOCTYPE svg PUBLIC "-//W3C//DTD SVG 1.1//EN" "http://www.w3.org/Graphics/SVG/1.1/DTD/svg11.dtd"><svg width="100%" height="100%" viewBox="0 0 512 512" version="1.1" xmlns="http://www.w3.org/2000/svg" xmlns:xlink="http://www.w3.org/1999/xlink" xml:space="preserve" style="fill-rule:evenodd;clip-rule:evenodd;stroke-linejoin:round;stroke-miterlimit:2;"><path d="M490.998,127.667c0,-58.871 -47.795,-106.667 -106.666,-106.667l-256.665,0c-58.871,0 -106.667,47.796 -106.667,106.667l0,256.665c0,58.871 47.796,106.666 106.667,106.666l256.665,0c58.871,0 106.666,-47.795 106.666,-106.666l0,-256.665Z" style="fill:url(#_Linear1);"/><path d="M355.124,346.949l-0.01,-0c-13.596,-0 -24.782,-11.188 -24.782,-24.782c0,-6.573 2.615,-12.883 7.264,-17.529l48.571,-48.554l-48.571,-48.554c-4.648,-4.648 -7.26,-10.956 -7.26,-17.53c-0,-13.598 11.19,-24.788 24.788,-24.788c6.572,-0 12.882,2.614 17.528,7.26l66.084,66.084c4.649,4.645 7.264,10.955 7.264,17.528c-0,6.573 -2.615,12.883 -7.264,17.528l-66.084,66.083c-4.648,4.645 -10.956,7.257 -17.528,7.254Z" style="fill:#fff;fill-rule:nonzero;"/><path d="M222.959,396.511c-2.308,-0.003 -4.605,-0.327 -6.824,-0.959c-13.068,-3.736 -20.747,-17.56 -17.015,-30.629l66.081,-231.29c2.866,-10.841 12.747,-18.45 23.959,-18.45c13.596,0 24.781,11.187 24.781,24.781c0,2.468 -0.368,4.922 -1.093,7.281l-66.084,231.29c-3.028,10.6 -12.782,17.965 -23.805,17.976Z" style="fill:#fff;fill-rule:nonzero;"/><path d="M156.875,346.949c-6.571,0.003 -12.88,-2.609 -17.528,-7.254l-66.083,-66.083c-4.65,-4.645 -7.264,-10.955 -7.264,-17.528c-0,-6.573 2.614,-12.883 7.264,-17.528l66.083,-66.084c4.647,-4.646 10.957,-7.26 17.528,-7.26c13.599,-0 24.789,11.19 24.789,24.788c0,6.574 -2.613,12.882 -7.261,17.53l-48.571,48.554l48.571,48.554c4.65,4.646 7.264,10.956 7.264,17.529c0,13.594 -11.185,24.782 -24.781,24.782l-0.011,-0Z" style="fill:#fff;fill-rule:nonzero;"/><defs><linearGradient id="_Linear1" x1="0" y1="0" x2="1" y2="0" gradientUnits="userSpaceOnUse" gradientTransform="matrix(376.117,376.117,-376.117,376.117,75.1555,75.1555)"><stop offset="0" style="stop-color:#9b8dff;stop-opacity:1"/><stop offset="0.25" style="stop-color:#7d79fd;stop-opacity:1"/><stop offset="0.56" style="stop-color:#5f65fb;stop-opacity:1"/><stop offset="0.82" style="stop-color:#4d58f9;stop-opacity:1"/><stop offset="1" style="stop-color:#4654f9;stop-opacity:1"/></linearGradient></defs></svg>