<?xml version="1.0" encoding="UTF-8" standalone="no"?><!DOCTYPE svg PUBLIC "-//W3C//DTD SVG 1.1//EN" "http://www.w3.org/Graphics/SVG/1.1/DTD/svg11.dtd"><svg width="100%" height="100%" viewBox="0 0 512 512" version="1.1" xmlns="http://www.w3.org/2000/svg" xmlns:xlink="http://www.w3.org/1999/xlink" xml:space="preserve" xmlns:serif="http://www.serif.com/" style="fill-rule:evenodd;clip-rule:evenodd;stroke-linejoin:round;stroke-miterlimit:2;"><path d="M414.445,25.999c11.291,0 20.445,9.154 20.445,20.447l0,419.388c0,11.138 -9.031,20.167 -20.169,20.167l-317.067,-0c-5.449,-0 -10.674,-2.163 -14.526,-6.016c-3.852,-3.853 -6.018,-9.077 -6.018,-14.526l-0,-332.125c30.958,22.357 59.645,23.146 86.89,10.222c-15.898,-39.96 -14.256,-75.536 9.494,-105.585c5.817,-7.393 14.703,-11.711 24.111,-11.711c41.081,-0.261 167.145,-0.261 216.84,-0.261Z" style="fill:url(#_Linear1);"/><path d="M414.445,25.999c11.291,0 20.445,9.154 20.445,20.447l0,419.388c0,11.138 -9.031,20.167 -20.169,20.167l-317.067,-0c-5.449,-0 -10.674,-2.163 -14.526,-6.016c-3.852,-3.853 -6.018,-9.077 -6.018,-14.526l-0,-332.125c30.958,22.357 59.645,23.146 86.89,10.222c-15.898,-39.96 -14.256,-75.536 9.494,-105.585c5.817,-7.393 14.703,-11.711 24.111,-11.711c41.081,-0.261 167.145,-0.261 216.84,-0.261Z" style="fill:url(#_Linear2);"/><path d="M401.874,26.002l12.571,-0.003c11.291,0 20.445,9.154 20.445,20.447l0,419.388c0,11.138 -9.031,20.167 -20.169,20.167l-317.067,-0c-5.449,-0 -10.674,-2.163 -14.526,-6.016c-3.852,-3.853 -6.018,-9.077 -6.018,-14.526l-0,-24.325c2.681,8.275 10.448,14.2 19.546,14.2l297.622,0c11.138,0 20.167,-9.028 20.167,-20.167l-0,-390.293c-0,-8.451 -5.146,-15.776 -12.571,-18.872Z" style="fill:url(#_Linear3);"/><path d="M164,143.556c-9.377,16.931 -55.208,35.669 -86.89,18.135l-0,-28.357c-0,-0 52.089,10.272 86.89,10.222Z" style="fill:#beddf4;"/><path d="M191.231,26.95c-44.618,9.984 -100.954,64.056 -114.121,106.384c30.958,22.357 59.645,23.146 86.89,10.222c-15.898,-39.96 -14.256,-75.536 9.494,-105.585c5.817,-7.393 11.457,-9.339 17.737,-11.021Z" style="fill:url(#_Linear4);"/><path d="M282.239,229.573l68.632,0l0,49.624l-68.632,-0l-0,77.569l-52.285,0l0,-77.569l-68.824,-0l-0,-49.624l68.824,0l0,-74.338l52.285,0l-0,74.338Z" style="fill:#1f1f1f;fill-rule:nonzero;"/><defs><linearGradient id="_Linear1" x1="0" y1="0" x2="1" y2="0" gradientUnits="userSpaceOnUse" gradientTransform="matrix(155.552,455.479,-455.479,155.552,179.373,36.5073)"><stop offset="0" style="stop-color:#eaf8fd;stop-opacity:1"/><stop offset="1" style="stop-color:#c1dcf3;stop-opacity:1"/></linearGradient><linearGradient id="_Linear2" x1="0" y1="0" x2="1" y2="0" gradientUnits="userSpaceOnUse" gradientTransform="matrix(155.552,455.479,-455.479,155.552,179.373,36.5073)"><stop offset="0" style="stop-color:#eaf8fd;stop-opacity:1"/><stop offset="1" style="stop-color:#c1dcf3;stop-opacity:1"/></linearGradient><linearGradient id="_Linear3" x1="0" y1="0" x2="1" y2="0" gradientUnits="userSpaceOnUse" gradientTransform="matrix(114.151,468.871,-468.871,114.151,200.961,24.0027)"><stop offset="0" style="stop-color:#dcedfa;stop-opacity:1"/><stop offset="1" style="stop-color:#aed4f1;stop-opacity:1"/></linearGradient><linearGradient id="_Linear4" x1="0" y1="0" x2="1" y2="0" gradientUnits="userSpaceOnUse" gradientTransform="matrix(-4.43565,145.706,-145.706,-4.43565,130.577,20.2784)"><stop offset="0" style="stop-color:#afd1f2;stop-opacity:1"/><stop offset="1" style="stop-color:#97b8da;stop-opacity:1"/></linearGradient></defs></svg>