<?xml version="1.0" encoding="UTF-8" standalone="no"?>
<!DOCTYPE svg PUBLIC "-//W3C//DTD SVG 1.1//EN" "http://www.w3.org/Graphics/SVG/1.1/DTD/svg11.dtd">
<svg width="100%" height="100%" viewBox="0 0 512 512" version="1.1" xmlns="http://www.w3.org/2000/svg" xmlns:xlink="http://www.w3.org/1999/xlink" xml:space="preserve" style="fill-rule:evenodd;clip-rule:evenodd;stroke-linejoin:round;stroke-miterlimit:2;">
    <g transform="matrix(1.19809,0,0,1.19809,-50.6282,-50.7103)">
        <path d="M375.606,412L90.394,412C70.437,411.978 54.022,395.563 54,375.606L54,136.394C54.022,116.437 70.437,100.022 90.394,100L208.9,100C221.692,100.034 233.575,106.759 240.191,117.707L262.065,153L375.606,153C395.563,153.022 411.978,169.437 412,189.394L412,375.606C411.978,395.563 395.563,411.978 375.606,412Z" style="fill:url(#_Linear1);fill-rule:nonzero;"/>
    </g>
    <g transform="matrix(1.19809,0,0,1.19809,-50.6282,-50.7103)">
        <path d="M374.854,411L85.954,411C76.23,411 67.661,407.033 62.445,400.117C57.375,393.396 55.924,384.446 58.462,375.562L99.789,230.942C104.589,214.152 122.359,201 140.248,201L429.148,201C438.872,201 447.44,204.967 452.657,211.883C457.727,218.604 459.178,227.554 456.639,236.438L415.313,381.058C410.516,397.848 392.744,411 374.854,411Z" style="fill:url(#_Linear2);fill-rule:nonzero;"/>
    </g>
    <defs>
        <linearGradient id="_Linear1" x1="0" y1="0" x2="1" y2="0" gradientUnits="userSpaceOnUse" gradientTransform="matrix(-340.877,-340.877,340.877,-340.877,403.91,453.41)"><stop offset="0" style="stop-color:rgb(204,121,59);stop-opacity:1"/><stop offset="1" style="stop-color:rgb(241,165,77);stop-opacity:1"/></linearGradient>
        <linearGradient id="_Linear2" x1="0" y1="0" x2="1" y2="0" gradientUnits="userSpaceOnUse" gradientTransform="matrix(-361.841,-361.84,361.84,-361.841,489.036,537.484)"><stop offset="0" style="stop-color:rgb(242,153,74);stop-opacity:1"/><stop offset="0.82" style="stop-color:rgb(242,192,76);stop-opacity:1"/><stop offset="1" style="stop-color:rgb(242,201,76);stop-opacity:1"/></linearGradient>
    </defs>
</svg>
