<?xml version="1.0" encoding="UTF-8" standalone="no"?><!DOCTYPE svg PUBLIC "-//W3C//DTD SVG 1.1//EN" "http://www.w3.org/Graphics/SVG/1.1/DTD/svg11.dtd"><svg width="100%" height="100%" viewBox="0 0 512 512" version="1.1" xmlns="http://www.w3.org/2000/svg" xmlns:xlink="http://www.w3.org/1999/xlink" xml:space="preserve" style="fill-rule:evenodd;clip-rule:evenodd;stroke-linejoin:round;stroke-miterlimit:2;"><path d="M256,16c-85.634,-0.024 -165.025,45.82 -207.81,120l103.9,0c20.76,-71.72 59.5,-120 103.91,-120Z" style="fill:#3392ff;fill-rule:nonzero;"/><path d="M359.91,136l103.9,0c-42.785,-74.18 -122.176,-120.024 -207.81,-120c44.41,0 83.15,48.28 103.91,120Z" style="fill:#d1e3f8;fill-rule:nonzero;"/><path d="M152.09,136l-103.9,0c-21.131,36.455 -32.239,77.864 -32.19,120l120,0c-0.242,-40.554 5.173,-80.943 16.09,-120Z" style="fill:#07f;fill-rule:nonzero;"/><path d="M359.91,136c10.918,39.058 16.332,79.446 16.09,120l120,0c0.049,-42.136 -11.059,-83.545 -32.19,-120l-103.9,0Z" style="fill:#99c9ff;fill-rule:nonzero;"/><path d="M152.09,376l-103.9,0c42.785,74.18 122.176,120.024 207.81,120c-44.41,0 -83.15,-48.28 -103.91,-120Z" style="fill:#004797;fill-rule:nonzero;"/><path d="M136,256l-120,0c-0.049,42.136 11.059,83.545 32.19,120l103.9,0c-10.917,-39.058 -16.332,-79.446 -16.09,-120Z" style="fill:#0060cd;fill-rule:nonzero;"/><path d="M463.81,376c21.131,-36.455 32.239,-77.864 32.19,-120l-120,0c0.243,40.554 -5.172,80.943 -16.09,120l103.9,0Z" style="fill:#68aeff;fill-rule:nonzero;"/><path d="M359.91,376c-20.76,71.72 -59.5,120 -103.91,120c85.634,0.024 165.025,-45.82 207.81,-120l-103.9,0Z" style="fill:#3292ff;fill-rule:nonzero;"/><path d="M359.91,136c-20.76,-71.72 -59.5,-120 -103.91,-120l0,120l103.91,0Z" style="fill:#a5c9f2;fill-rule:nonzero;"/><path d="M256,16c-44.41,0 -83.15,48.28 -103.91,120l103.91,0l0,-120Z" style="fill:#67aeff;fill-rule:nonzero;"/><path d="M256,136l-103.91,0c-10.917,39.058 -16.332,79.446 -16.09,120l120,0l0,-120Z" style="fill:#3392ff;fill-rule:nonzero;"/><path d="M256,256l120,0c0.243,-40.554 -5.172,-80.943 -16.09,-120l-103.91,0l0,120Z" style="fill:#64acff;fill-rule:nonzero;"/><path d="M152.09,376c20.76,71.72 59.5,120 103.91,120l0,-120l-103.91,0Z" style="fill:#005fcc;fill-rule:nonzero;"/><path d="M256,496c44.41,0 83.15,-48.28 103.91,-120l-103.91,0l0,120Z" style="fill:#0178ff;fill-rule:nonzero;"/><path d="M256,256l0,120l103.91,0c10.918,-39.058 16.333,-79.446 16.09,-120l-120,0Z" style="fill:#3493ff;fill-rule:nonzero;"/><path d="M256,256l-120,0c-0.242,40.554 5.173,80.943 16.09,120l103.91,0l0,-120Z" style="fill:#0076fd;fill-rule:nonzero;"/></svg>