<?xml version="1.0" encoding="UTF-8" standalone="no"?><!DOCTYPE svg PUBLIC "-//W3C//DTD SVG 1.1//EN" "http://www.w3.org/Graphics/SVG/1.1/DTD/svg11.dtd"><svg width="100%" height="100%" viewBox="0 0 512 512" version="1.1" xmlns="http://www.w3.org/2000/svg" xmlns:xlink="http://www.w3.org/1999/xlink" xml:space="preserve" style="fill-rule:evenodd;clip-rule:evenodd;stroke-linejoin:round;stroke-miterlimit:2;"><path d="M256,16c-132.548,0 -240,107.452 -240,240c0,132.548 107.452,240 240,240c132.548,0 240,-107.452 240,-240c0,-132.548 -107.452,-240 -240,-240Z" style="fill:url(#_Linear1);fill-rule:nonzero;"/><path d="M256,86c-93.738,-0 -170,76.261 -170,170c-0,93.738 76.262,169.999 170,169.999c93.737,0 169.999,-76.261 169.999,-169.999c0,-93.739 -76.261,-170 -169.999,-170Z" style="fill:#da4b02;fill-rule:nonzero;"/><path d="M256,385.064c-71.166,-0 -129.064,-57.897 -129.064,-129.064c0,-71.167 57.898,-129.064 129.064,-129.064c71.166,0 129.064,57.898 129.064,129.064c-0,71.166 -57.898,129.064 -129.064,129.064Z" style="fill:#fb8000;fill-rule:nonzero;"/><path d="M256,187.773c-37.621,0 -68.227,30.607 -68.227,68.227c0,37.62 30.607,68.228 68.227,68.228c37.62,-0 68.228,-30.607 68.228,-68.228c-0,-37.621 -30.607,-68.227 -68.228,-68.227Z" style="fill-rule:nonzero;"/><path d="M303.037,168.54c-22.288,0 -40.421,18.134 -40.421,40.422c0,22.288 18.133,40.421 40.421,40.421c22.288,-0 40.421,-18.133 40.421,-40.421c0,-22.288 -18.132,-40.422 -40.421,-40.422Z" style="fill:#fff;fill-rule:nonzero;"/><path d="M209.947,279.88c-12.226,0 -22.174,9.947 -22.174,22.174c0,12.227 9.948,22.174 22.174,22.174c12.227,-0 22.174,-9.947 22.174,-22.174c0,-12.227 -9.947,-22.174 -22.174,-22.174Z" style="fill:#fff;fill-rule:nonzero;"/><defs><linearGradient id="_Linear1" x1="0" y1="0" x2="1" y2="0" gradientUnits="userSpaceOnUse" gradientTransform="matrix(-490.972,544.457,-544.457,-490.972,389.028,76.3428)"><stop offset="0" style="stop-color:#f2f2f2;stop-opacity:1"/><stop offset="1" style="stop-color:#a8a8a8;stop-opacity:1"/></linearGradient></defs></svg>