<?xml version="1.0" encoding="UTF-8" standalone="no"?><!DOCTYPE svg PUBLIC "-//W3C//DTD SVG 1.1//EN" "http://www.w3.org/Graphics/SVG/1.1/DTD/svg11.dtd"><svg width="100%" height="100%" viewBox="0 0 487 487" version="1.1" xmlns="http://www.w3.org/2000/svg" xmlns:xlink="http://www.w3.org/1999/xlink" xml:space="preserve" xmlns:serif="http://www.serif.com/" style="fill-rule:evenodd;clip-rule:evenodd;stroke-linejoin:round;stroke-miterlimit:2;"><path d="M318.284,90.184c3.241,6.303 3.37,13.754 0.348,20.165c-3.021,6.411 -8.849,11.055 -15.773,12.568c0.007,0.036 0.006,0.036 0.005,0.036c-10.061,2.199 -20.345,-2.632 -25.076,-11.78c-13.103,-25.387 -31.818,-29.897 -60.85,-23.553c-34.706,7.584 -56.697,42.536 -49.093,77.334l21.66,99.118l-44.48,9.72l-21.659,-99.118c-12.766,-58.417 22.927,-117.346 80.643,-131.05c1.576,-0.374 4.739,-1.065 6.329,-1.383c48.535,-9.695 86.05,5.358 107.946,47.943Z" style="fill:#e5e5e5;fill-rule:nonzero;"/><path d="M397.088,270.092c0,-13.261 -5.268,-25.979 -14.645,-35.356c-9.377,-9.376 -22.094,-14.644 -35.355,-14.644l-207.443,0c-13.261,0 -25.978,5.268 -35.355,14.644c-9.377,9.377 -14.645,22.095 -14.645,35.356l0,126.463c0,13.261 5.268,25.979 14.645,35.356c9.377,9.376 22.094,14.644 35.355,14.644l207.443,-0c13.261,-0 25.978,-5.268 35.355,-14.644c9.377,-9.377 14.645,-22.095 14.645,-35.356l0,-126.463Z" style="fill:#d9d9d9;"/></svg>