<?xml version="1.0" encoding="UTF-8" standalone="no"?><!DOCTYPE svg PUBLIC "-//W3C//DTD SVG 1.1//EN" "http://www.w3.org/Graphics/SVG/1.1/DTD/svg11.dtd"><svg width="100%" height="100%" viewBox="0 0 487 487" version="1.1" xmlns="http://www.w3.org/2000/svg" xmlns:xlink="http://www.w3.org/1999/xlink" xml:space="preserve" style="fill-rule:evenodd;clip-rule:evenodd;stroke-linejoin:round;stroke-miterlimit:2;"><path d="M319.882,106.597c7.72,-4.673 17.36,-4.823 25.221,-0.392c7.861,4.431 12.725,12.755 12.725,21.779l-0,232.412c-0,9.048 -4.889,17.389 -12.783,21.811c-7.894,4.422 -17.561,4.233 -25.276,-0.493c-64.706,-39.637 -189.222,-115.912 -189.222,-115.912c-7.809,-4.755 -12.138,-13.425 -12.045,-22.302c-0.093,-8.877 4.236,-17.547 12.045,-22.302c0,0 124.662,-75.455 189.335,-114.601Z" style="fill:#e82227;"/><path d="M189.148,257.193c-4.794,-2.897 -7.724,-8.091 -7.724,-13.693c-0,-5.602 2.93,-10.796 7.724,-13.693c36.282,-21.928 107.115,-64.737 144.396,-87.269c4.941,-2.986 11.108,-3.079 16.137,-0.242c5.028,2.836 8.139,8.162 8.139,13.936c-0,44.463 -0,130.073 -0,174.536c-0,5.774 -3.111,11.1 -8.139,13.936c-5.029,2.837 -11.196,2.744 -16.137,-0.242c-37.281,-22.532 -108.114,-65.341 -144.396,-87.269Z" style="fill:#f49193;"/><path d="M260.058,250.28c-2.335,-1.462 -3.754,-4.024 -3.754,-6.78c0,-2.756 1.419,-5.318 3.754,-6.78c20.341,-12.738 64.135,-40.164 85.516,-53.553c2.465,-1.544 5.575,-1.628 8.121,-0.219c2.545,1.409 4.125,4.09 4.125,6.999l-0,107.106c-0,2.909 -1.58,5.59 -4.125,6.999c-2.546,1.409 -5.656,1.325 -8.121,-0.219c-21.381,-13.389 -65.175,-40.815 -85.516,-53.553Z" style="fill:#fff;"/></svg>