<?xml version="1.0" encoding="UTF-8" standalone="no"?><!DOCTYPE svg PUBLIC "-//W3C//DTD SVG 1.1//EN" "http://www.w3.org/Graphics/SVG/1.1/DTD/svg11.dtd"><svg width="100%" height="100%" viewBox="0 0 512 512" version="1.1" xmlns="http://www.w3.org/2000/svg" xmlns:xlink="http://www.w3.org/1999/xlink" xml:space="preserve" style="fill-rule:evenodd;clip-rule:evenodd;stroke-linejoin:round;stroke-miterlimit:2;"><path d="M256,115.126l0,277.183c-76.542,0 -138.592,-62.049 -138.592,-138.591c0,-76.543 62.05,-138.592 138.592,-138.592Z" style="fill:#ffab37;fill-rule:nonzero;"/><path d="M146.382,253.718c0,-76.543 49.078,-138.592 109.618,-138.592c76.542,-0 138.592,62.049 138.592,138.592c0,76.542 -62.05,138.591 -138.592,138.591c-60.54,-0 -109.618,-62.049 -109.618,-138.592l0,0.001Z" style="fill:#ffcd37;fill-rule:nonzero;"/><path d="M241.513,479.23l0,-28.973l28.974,0l0,28.973c0,8.001 -6.486,14.487 -14.487,14.487c-8.001,0 -14.487,-6.486 -14.487,-14.487Z" style="fill:#ffcd37;fill-rule:nonzero;"/><path d="M256,464.744c-8.001,0 -14.487,-6.487 -14.487,-14.487l0,-14.487c0,-8.001 6.486,-14.488 14.487,-14.488c8.001,0 14.487,6.487 14.487,14.488l0,14.487c0,8 -6.486,14.487 -14.487,14.487Z" style="fill:#ffde7a;fill-rule:nonzero;"/><path d="M270.487,32.769l0,28.974l-28.974,0l0,-28.974c0,-8 6.486,-14.487 14.487,-14.487c8.001,0 14.487,6.487 14.487,14.487Z" style="fill:#ffcd37;fill-rule:nonzero;"/><path d="M256,47.255c8.001,0 14.487,6.487 14.487,14.488l0,14.487c0,8 -6.486,14.487 -14.487,14.487c-8.001,0 -14.487,-6.487 -14.487,-14.487l0,-14.487c0,-8.001 6.486,-14.488 14.487,-14.488Z" style="fill:#ffde7a;fill-rule:nonzero;"/><path d="M86.295,402.936l20.487,-20.488l20.487,20.488l-20.487,20.487c-5.658,5.658 -14.829,5.658 -20.487,-0c-5.658,-5.658 -5.658,-14.83 -0,-20.487Z" style="fill:#ffcd37;fill-rule:nonzero;"/><path d="M106.782,402.936c-5.658,-5.658 -5.658,-14.83 0,-20.488l10.244,-10.244c5.658,-5.657 14.829,-5.657 20.487,-0c5.658,5.658 5.658,14.83 0,20.488l-10.244,10.244c-5.657,5.657 -14.829,5.657 -20.487,-0Z" style="fill:#ffde7a;fill-rule:nonzero;"/><path d="M30.487,239.23l28.974,-0l0,28.975l-28.974,-0c-8,-0 -14.487,-6.487 -14.487,-14.488c0,-8 6.487,-14.487 14.487,-14.487Z" style="fill:#ffcd37;fill-rule:nonzero;"/><path d="M44.973,253.718c0,-8.001 6.487,-14.488 14.488,-14.488l14.487,-0c8,-0 14.487,6.487 14.487,14.487c0,8.001 -6.487,14.488 -14.487,14.488l-14.487,-0c-8.001,-0 -14.488,-6.487 -14.488,-14.488l0,0.001Z" style="fill:#ffde7a;fill-rule:nonzero;"/><path d="M106.782,84.012l20.487,20.487l-20.487,20.488l-20.487,-20.488c-5.658,-5.657 -5.658,-14.829 -0,-20.487c5.658,-5.658 14.83,-5.658 20.487,0Z" style="fill:#ffcd37;fill-rule:nonzero;"/><path d="M106.782,104.499c5.658,-5.657 14.829,-5.657 20.487,0l10.244,10.244c5.658,5.658 5.658,14.83 -0,20.488c-5.658,5.657 -14.829,5.657 -20.487,0l-10.244,-10.244c-5.657,-5.657 -5.658,-14.83 -0,-20.488Z" style="fill:#ffde7a;fill-rule:nonzero;"/><path d="M425.705,104.499l-20.487,20.488l-20.487,-20.488l20.487,-20.487c5.658,-5.658 14.83,-5.658 20.487,0c5.658,5.658 5.658,14.83 0,20.487Z" style="fill:#ffcd37;fill-rule:nonzero;"/><path d="M405.218,104.499c5.658,5.658 5.658,14.83 0,20.488l-10.244,10.244c-5.658,5.657 -14.829,5.657 -20.487,0c-5.658,-5.658 -5.658,-14.83 0,-20.488l10.244,-10.244c5.657,-5.657 14.829,-5.657 20.487,0Z" style="fill:#ffde7a;fill-rule:nonzero;"/><path d="M481.513,268.205l-28.974,0l-0,-28.975l28.974,0c8,0 14.487,6.487 14.487,14.488c-0,8 -6.487,14.487 -14.487,14.487Z" style="fill:#ffcd37;fill-rule:nonzero;"/><path d="M467.027,253.718c0,8 -6.487,14.487 -14.488,14.487l-14.487,-0c-8,-0 -14.487,-6.487 -14.487,-14.488c0,-8 6.487,-14.487 14.487,-14.487l14.487,-0c8.001,-0 14.488,6.487 14.488,14.487l0,0.001Z" style="fill:#ffde7a;fill-rule:nonzero;"/><path d="M405.218,423.423l-20.487,-20.487l20.487,-20.488l20.487,20.488c5.658,5.657 5.658,14.829 0,20.487c-5.658,5.658 -14.829,5.658 -20.487,0Z" style="fill:#ffcd37;fill-rule:nonzero;"/><path d="M405.218,402.936c-5.658,5.657 -14.829,5.657 -20.487,-0l-10.244,-10.244c-5.658,-5.658 -5.658,-14.83 0,-20.488c5.658,-5.657 14.829,-5.657 20.487,0l10.244,10.244c5.658,5.657 5.658,14.83 0,20.488Z" style="fill:#ffde7a;fill-rule:nonzero;"/></svg>