<?xml version="1.0" encoding="UTF-8" standalone="no"?><!DOCTYPE svg PUBLIC "-//W3C//DTD SVG 1.1//EN" "http://www.w3.org/Graphics/SVG/1.1/DTD/svg11.dtd"><svg width="100%" height="100%" viewBox="0 0 512 512" version="1.1" xmlns="http://www.w3.org/2000/svg" xmlns:xlink="http://www.w3.org/1999/xlink" xml:space="preserve" style="fill-rule:evenodd;clip-rule:evenodd;stroke-linejoin:round;stroke-miterlimit:2;"><ellipse cx="256" cy="437" rx="200" ry="75" style="fill-opacity:0.5;"/><rect x="116.589" y="68.152" width="20.822" height="341.918" style="fill:#fedb41;"/><rect x="116.589" y="68.152" width="20.822" height="71.936" style="fill:#ffab37;"/><path d="M127,443.847l-40,-67.555l80,-0l-40,67.555Z" style="fill:#fedb41;"/><path d="M103.986,376.292l31.507,53.211l-8.493,14.345l-40,-67.556l16.986,-0Z" style="fill:#ffab37;"/><rect x="245.588" y="68.152" width="20.822" height="341.918" style="fill:#fedb41;"/><rect x="245.589" y="68.152" width="20.822" height="71.936" style="fill:#ffab37;"/><path d="M256,443.847l-40,-67.555l80,-0l-40,67.555Z" style="fill:#fedb41;"/><path d="M232.986,376.292l31.507,53.211l-8.494,14.345l-40,-67.556l16.987,-0Z" style="fill:#ffab37;"/><rect x="374.588" y="68.152" width="20.822" height="341.918" style="fill:#fedb41;"/><rect x="374.589" y="68.152" width="20.822" height="71.936" style="fill:#ffab37;"/><path d="M385,443.847l-40,-67.555l80,-0l-40,67.555Z" style="fill:#fedb41;"/><path d="M361.986,376.292l31.507,53.211l-8.494,14.345l-40,-67.556l16.987,-0Z" style="fill:#ffab37;"/></svg>