<?xml version="1.0" encoding="UTF-8" standalone="no"?><!DOCTYPE svg PUBLIC "-//W3C//DTD SVG 1.1//EN" "http://www.w3.org/Graphics/SVG/1.1/DTD/svg11.dtd"><svg width="100%" height="100%" viewBox="0 0 512 512" version="1.1" xmlns="http://www.w3.org/2000/svg" xmlns:xlink="http://www.w3.org/1999/xlink" xml:space="preserve" style="fill-rule:evenodd;clip-rule:evenodd;stroke-linejoin:round;stroke-miterlimit:2;"><path d="M256,334.609l-138.572,0c-0.013,-0.753 -0.02,-1.517 -0.02,-2.282c0,-76.543 62.05,-138.592 138.592,-138.592l0,140.874Z" style="fill:#ffab37;fill-rule:nonzero;"/><path d="M270.487,111.378l0,28.974l-28.974,0l0,-28.974c0,-8 6.486,-14.487 14.487,-14.487c8.001,0 14.487,6.487 14.487,14.487Z" style="fill:#ffcd37;fill-rule:nonzero;"/><path d="M256,125.864c8.001,0 14.487,6.487 14.487,14.488l0,14.487c0,8 -6.486,14.487 -14.487,14.487c-8.001,0 -14.487,-6.487 -14.487,-14.487l0,-14.487c0,-8.001 6.486,-14.488 14.487,-14.488Z" style="fill:#ffde7a;fill-rule:nonzero;"/><path d="M106.782,162.621l20.487,20.487l-20.487,20.488l-20.487,-20.488c-5.658,-5.657 -5.658,-14.829 -0,-20.487c5.658,-5.658 14.83,-5.658 20.487,0Z" style="fill:#ffcd37;fill-rule:nonzero;"/><path d="M106.782,183.108c5.658,-5.657 14.829,-5.657 20.487,0l10.244,10.244c5.658,5.658 5.658,14.83 -0,20.488c-5.658,5.657 -14.829,5.657 -20.487,0l-10.244,-10.244c-5.657,-5.657 -5.658,-14.83 -0,-20.488Z" style="fill:#ffde7a;fill-rule:nonzero;"/><path d="M425.705,183.108l-20.487,20.488l-20.487,-20.488l20.487,-20.487c5.658,-5.658 14.83,-5.658 20.487,0c5.658,5.658 5.658,14.83 0,20.487Z" style="fill:#ffcd37;fill-rule:nonzero;"/><path d="M405.218,183.108c5.658,5.658 5.658,14.83 0,20.488l-10.244,10.244c-5.658,5.657 -14.829,5.657 -20.487,0c-5.658,-5.658 -5.658,-14.83 0,-20.488l10.244,-10.244c5.657,-5.657 14.829,-5.657 20.487,0Z" style="fill:#ffde7a;fill-rule:nonzero;"/><path d="M45.152,334.609c-0.117,-0.743 -0.179,-1.506 -0.179,-2.282c0,-8.001 6.487,-14.488 14.488,-14.488l14.487,0c8,0 14.487,6.487 14.487,14.488c0,0.776 -0.061,1.539 -0.179,2.282l-43.104,0Z" style="fill:#ffde7a;fill-rule:nonzero;"/><path d="M59.461,334.609l-43.282,0c-0.118,-0.743 -0.179,-1.506 -0.179,-2.282c0,-8.001 6.487,-14.488 14.487,-14.488l28.974,0l0,16.77Z" style="fill:#ffcd37;fill-rule:nonzero;"/><path d="M146.397,334.609c-0.01,-0.753 -0.015,-1.517 -0.015,-2.282c0,-76.543 49.078,-138.592 109.618,-138.592c76.542,0 138.592,62.049 138.592,138.592c0,0.765 -0.007,1.529 -0.02,2.282l-248.175,0Z" style="fill:#ffcd37;fill-rule:nonzero;"/><path d="M452.539,334.609l0,-16.77l28.974,0c8,0 14.487,6.487 14.487,14.488c0,0.776 -0.061,1.539 -0.179,2.282l-43.282,0Z" style="fill:#ffcd37;fill-rule:nonzero;"/><path d="M423.744,334.609c-0.118,-0.743 -0.179,-1.506 -0.179,-2.282c0,-8.001 6.487,-14.488 14.487,-14.488l14.487,0c8.001,0 14.488,6.487 14.488,14.488c0,0.776 -0.062,1.539 -0.179,2.282l-43.104,0Z" style="fill:#ffde7a;fill-rule:nonzero;"/><path d="M496.002,399.609c0,-23.196 -18.804,-42 -41.999,-42l-396.004,0c-23.196,0 -41.999,18.803 -41.999,41.998l0,0.002l480.002,0Z" style="fill:#30b600;"/><rect x="16" y="394.109" width="480" height="21" style="fill:#227e00;"/></svg>