<?xml version="1.0" encoding="UTF-8" standalone="no"?><!DOCTYPE svg PUBLIC "-//W3C//DTD SVG 1.1//EN" "http://www.w3.org/Graphics/SVG/1.1/DTD/svg11.dtd"><svg width="100%" height="100%" viewBox="0 0 512 512" version="1.1" xmlns="http://www.w3.org/2000/svg" xmlns:xlink="http://www.w3.org/1999/xlink" xml:space="preserve" xmlns:serif="http://www.serif.com/" style="fill-rule:evenodd;clip-rule:evenodd;stroke-linejoin:round;stroke-miterlimit:2;"><path d="M205.535,413.421c-0,28.824 23.047,52.914 51.444,52.914c28.399,0 51.446,-24.09 51.446,-52.914c-0,-5.849 -4.527,-10.444 -10.289,-10.444l-82.312,-0c-5.763,-0 -10.289,4.595 -10.289,10.444Z" style="fill:#aeadb3;fill-rule:nonzero;"/><path d="M205.535,413.421c-0,28.824 23.047,52.914 51.444,52.914l0,-63.358l-41.155,-0c-5.763,-0 -10.289,4.595 -10.289,10.444Z" style="fill:#8b8892;fill-rule:nonzero;"/><path d="M184.958,382.09l-0,10.444c-0,17.335 13.786,31.33 30.866,31.33l82.312,0c17.08,0 30.866,-13.995 30.866,-31.33l0,-10.444l-19.548,-21.584l-104.948,-0l-19.548,21.584Z" style="fill:#d9d9d9;fill-rule:nonzero;"/><path d="M204.506,360.506l-19.548,21.584l-0,10.444c-0,17.335 13.786,31.33 30.866,31.33l41.155,0l0,-63.358l-52.473,-0Z" style="fill:#c8c6cd;fill-rule:nonzero;"/><path d="M133.512,235.182c0,30.287 10.907,59.738 30.661,82.505c10.907,12.742 17.492,27.57 19.756,42.819c0.411,3.55 1.029,7.588 1.029,11.14l-0,10.444l144.044,-0l0,-10.444c0,-3.552 0.413,-7.59 1.03,-11.14c2.058,-15.249 8.641,-30.077 19.343,-42.193c26.34,-30.078 36.629,-70.39 28.191,-110.493c-9.877,-46.996 -47.534,-85.221 -94.041,-95.247c-8.848,-1.88 -17.697,-2.715 -26.546,-2.715c-28.19,0 -55.766,9.816 -77.784,27.989c-29.014,24.02 -45.683,59.529 -45.683,97.335Z" style="fill:#fedb41;fill-rule:nonzero;"/><path d="M184.958,382.088c-0.987,-0.707 1.048,-31.906 -9.848,-47.811c-21.257,-31.038 -43.559,-54.9 -43.559,-95.942c0,-70.789 55.279,-128.173 123.469,-128.173l-0.632,0.003c-53.641,0.445 -89.919,57.659 -89.919,128.17c0,34.714 34.269,72.556 41.067,96.515c4.221,14.881 -0,47.238 -0,47.238l-20.578,-0Z" style="fill:#ffab37;fill-rule:nonzero;"/><path d="M241.984,20.075l-0,27.478l27.479,-0l-0,-27.478c-0,-7.588 -6.151,-13.74 -13.74,-13.74c-7.587,0 -13.739,6.152 -13.739,13.74Z" style="fill:#ffcd37;fill-rule:nonzero;"/><path d="M255.723,33.813c-7.587,0 -13.739,6.152 -13.739,13.74l-0,13.739c-0,7.589 6.152,13.74 13.739,13.74c7.589,0 13.74,-6.151 13.74,-13.74l-0,-13.739c-0,-7.588 -6.151,-13.74 -13.74,-13.74Z" style="fill:#ffde7a;fill-rule:nonzero;"/><path d="M81.334,356.658l19.43,-19.43l19.43,19.43l-19.43,19.43c-5.366,5.365 -14.064,5.365 -19.43,0c-5.366,-5.366 -5.366,-14.064 -0,-19.43Z" style="fill:#ffcd37;fill-rule:nonzero;"/><path d="M100.764,356.658c-5.366,-5.366 -5.366,-14.064 -0,-19.43l9.715,-9.715c5.366,-5.366 14.065,-5.366 19.431,-0c5.366,5.366 5.366,14.063 -0,19.429l-9.716,9.716c-5.365,5.366 -14.064,5.366 -19.43,-0Z" style="fill:#ffde7a;fill-rule:nonzero;"/><path d="M41.847,238.413l27.479,-0l-0,-27.48l-27.479,0c-7.587,0 -13.739,6.152 -13.739,13.74c-0,7.587 6.152,13.74 13.739,13.74Z" style="fill:#ffcd37;fill-rule:nonzero;"/><path d="M55.586,224.673c-0,7.587 6.152,13.74 13.74,13.74l13.739,-0c7.589,-0 13.74,-6.153 13.74,-13.74c-0,-7.588 -6.151,-13.74 -13.74,-13.74l-13.739,0c-7.588,0 -13.74,6.152 -13.74,13.74Z" style="fill:#ffde7a;fill-rule:nonzero;"/><path d="M100.76,69.213l19.445,19.445l-19.445,19.446l-19.445,-19.446c-5.37,-5.37 -5.37,-14.075 -0,-19.445c5.37,-5.37 14.075,-5.37 19.445,0Z" style="fill:#ffcd37;fill-rule:nonzero;"/><path d="M100.76,88.658c5.371,-5.37 14.075,-5.37 19.445,-0l9.724,9.723c5.37,5.37 5.37,14.076 -0,19.446c-5.37,5.37 -14.076,5.37 -19.446,0l-9.723,-9.723c-5.37,-5.369 -5.37,-14.075 -0,-19.446Z" style="fill:#ffde7a;fill-rule:nonzero;"/><path d="M430.666,356.658l-19.431,-19.43l-19.429,19.43l19.429,19.43c5.366,5.365 14.065,5.365 19.431,0c5.366,-5.366 5.366,-14.064 0,-19.43Z" style="fill:#ffcd37;fill-rule:nonzero;"/><path d="M411.235,356.658c5.366,-5.366 5.366,-14.064 0,-19.43l-9.715,-9.715c-5.366,-5.366 -14.064,-5.366 -19.43,-0c-5.366,5.366 -5.366,14.063 0,19.429l9.716,9.716c5.365,5.366 14.063,5.366 19.429,-0Z" style="fill:#ffde7a;fill-rule:nonzero;"/><path d="M470.153,238.413l-27.479,-0l0,-27.48l27.479,0c7.587,0 13.739,6.152 13.739,13.74c0,7.587 -6.152,13.74 -13.739,13.74Z" style="fill:#ffcd37;fill-rule:nonzero;"/><path d="M456.414,224.673c0,7.587 -6.152,13.74 -13.74,13.74l-13.739,-0c-7.588,-0 -13.74,-6.153 -13.74,-13.74c0,-7.588 6.152,-13.74 13.74,-13.74l13.739,0c7.588,0 13.74,6.152 13.74,13.74Z" style="fill:#ffde7a;fill-rule:nonzero;"/><path d="M411.235,69.232l-19.429,19.43l19.429,19.431l19.431,-19.431c5.366,-5.366 5.366,-14.064 0,-19.43c-5.366,-5.366 -14.065,-5.366 -19.431,0Z" style="fill:#ffcd37;fill-rule:nonzero;"/><path d="M411.235,88.662c-5.366,-5.366 -14.063,-5.366 -19.429,-0l-9.716,9.715c-5.366,5.366 -5.366,14.065 0,19.431c5.366,5.366 14.064,5.366 19.43,-0l9.715,-9.715c5.366,-5.365 5.366,-14.065 0,-19.431Z" style="fill:#ffde7a;fill-rule:nonzero;"/></svg>