<?xml version="1.0" encoding="UTF-8" standalone="no"?><!DOCTYPE svg PUBLIC "-//W3C//DTD SVG 1.1//EN" "http://www.w3.org/Graphics/SVG/1.1/DTD/svg11.dtd"><svg width="100%" height="100%" viewBox="0 0 512 512" version="1.1" xmlns="http://www.w3.org/2000/svg" xmlns:xlink="http://www.w3.org/1999/xlink" xml:space="preserve" xmlns:serif="http://www.serif.com/" style="fill-rule:evenodd;clip-rule:evenodd;stroke-linejoin:round;stroke-miterlimit:2;"><path d="M270.74,50.74l0,29.481l-29.48,0l-0,-29.481c-0,-8.141 6.599,-14.74 14.74,-14.74c8.141,0 14.74,6.599 14.74,14.74Z" style="fill:#ffcd37;fill-rule:nonzero;"/><path d="M256,65.48c8.141,-0 14.74,6.6 14.74,14.741l0,14.741c0,8.141 -6.599,14.74 -14.74,14.74c-8.141,0 -14.74,-6.599 -14.74,-14.74l-0,-14.741c-0,-8.141 6.599,-14.741 14.74,-14.741Z" style="fill:#ffde7a;fill-rule:nonzero;"/><path d="M426.34,64.034l-14.74,25.531l-25.531,-14.742l14.739,-25.529c4.071,-7.051 13.087,-9.466 20.137,-5.396c7.05,4.07 9.465,13.086 5.395,20.136Z" style="fill:#ffcd37;fill-rule:nonzero;"/><path d="M406.204,69.429c7.05,4.07 9.466,13.086 5.396,20.136l-7.37,12.765c-4.071,7.05 -13.087,9.466 -20.136,5.396c-7.05,-4.071 -9.466,-13.087 -5.396,-20.136l7.371,-12.767c4.07,-7.049 13.086,-9.465 20.135,-5.394Z" style="fill:#ffde7a;fill-rule:nonzero;"/><path d="M109.618,49.294l14.74,25.529l-25.531,14.742l-14.74,-25.531c-4.071,-7.05 -1.655,-16.066 5.394,-20.136c7.051,-4.071 16.067,-1.655 20.137,5.396Z" style="fill:#ffcd37;fill-rule:nonzero;"/><path d="M104.222,69.429c7.05,-4.071 16.066,-1.655 20.136,5.394l7.371,12.767c4.07,7.049 1.654,16.065 -5.396,20.136c-7.05,4.07 -16.066,1.654 -20.136,-5.396l-7.37,-12.765c-4.071,-7.05 -1.655,-16.066 5.395,-20.136Z" style="fill:#ffde7a;fill-rule:nonzero;"/><path d="M240.472,461.26l0,-29.481l29.481,-0l-0,29.481c-0,8.141 -6.601,14.74 -14.741,14.74c-8.14,0 -14.74,-6.599 -14.74,-14.74Z" style="fill:#ffcd37;fill-rule:nonzero;"/><path d="M255.212,446.52c-8.14,0 -14.74,-6.6 -14.74,-14.741l0,-14.741c0,-8.141 6.6,-14.74 14.74,-14.74c8.14,-0 14.741,6.599 14.741,14.74l-0,14.741c-0,8.141 -6.601,14.741 -14.741,14.741Z" style="fill:#ffde7a;fill-rule:nonzero;"/><path d="M84.873,447.966l14.741,-25.531l25.53,14.742l-14.74,25.529c-4.07,7.051 -13.086,9.466 -20.136,5.396c-7.049,-4.07 -9.466,-13.086 -5.395,-20.136Z" style="fill:#ffcd37;fill-rule:nonzero;"/><path d="M105.008,442.571c-7.05,-4.07 -9.465,-13.086 -5.394,-20.136l7.369,-12.765c4.07,-7.05 13.086,-9.466 20.136,-5.396c7.051,4.071 9.466,13.087 5.396,20.136l-7.371,12.767c-4.069,7.049 -13.085,9.465 -20.136,5.394Z" style="fill:#ffde7a;fill-rule:nonzero;"/><path d="M401.595,462.706l-14.739,-25.529l25.53,-14.742l14.741,25.531c4.07,7.05 1.654,16.066 -5.396,20.136c-7.05,4.071 -16.065,1.655 -20.136,-5.396Z" style="fill:#ffcd37;fill-rule:nonzero;"/><path d="M406.991,442.571c-7.05,4.071 -16.066,1.655 -20.135,-5.394l-7.371,-12.767c-4.07,-7.049 -1.655,-16.065 5.396,-20.136c7.049,-4.07 16.065,-1.654 20.136,5.396l7.369,12.765c4.07,7.05 1.655,16.066 -5.395,20.136Z" style="fill:#ffde7a;fill-rule:nonzero;"/><path d="M434.061,201.735c0,-28.76 -23.349,-52.109 -52.108,-52.109l-251.906,0c-28.759,0 -52.108,23.349 -52.108,52.109l-0,104.217c-0,28.76 23.349,52.109 52.108,52.109l251.906,-0c28.759,-0 52.108,-23.349 52.108,-52.109l0,-104.217Z" style="fill:#fedb41;"/><path d="M166.776,149.625l-36.728,0c-28.76,0 -52.109,23.35 -52.109,52.109l-0,104.216c-0,28.759 23.349,52.108 52.109,52.108l36.728,0c-28.759,0 -52.109,-23.349 -52.109,-52.108l0,-104.216c0,-28.759 23.35,-52.109 52.109,-52.109Z" style="fill:#ffab37;"/></svg>