<?xml version="1.0" encoding="UTF-8" standalone="no"?><!DOCTYPE svg PUBLIC "-//W3C//DTD SVG 1.1//EN" "http://www.w3.org/Graphics/SVG/1.1/DTD/svg11.dtd"><svg width="100%" height="100%" viewBox="0 0 512 512" version="1.1" xmlns="http://www.w3.org/2000/svg" xmlns:xlink="http://www.w3.org/1999/xlink" xml:space="preserve" style="fill-rule:evenodd;clip-rule:evenodd;stroke-linejoin:round;stroke-miterlimit:2;"><path d="M457.684,321.863c6.753,-6.411 10.286,-15.504 9.635,-24.792c-0.652,-9.288 -5.419,-17.799 -12.999,-23.205c-63.586,-45.345 -203.513,-145.132 -203.513,-145.132l-127.105,109.491c-0,-0 92.038,152.577 133.673,221.598c4.878,8.088 13.161,13.528 22.521,14.792c9.36,1.264 18.789,-1.783 25.639,-8.287c39.935,-37.918 112.602,-106.915 152.149,-144.465Z" style="fill:#fedb41;fill-rule:nonzero;"/><path d="M151.041,214.674l-27.339,23.55c-0,-0 93.866,155.609 134.893,223.621c4.581,7.595 12.359,12.704 21.149,13.892c8.791,1.187 17.646,-1.675 24.078,-7.783c0.001,-0.001 0.002,-0.001 0.002,-0.001l-152.783,-253.279Z" style="fill:#ffab37;fill-rule:nonzero;"/><path d="M103.507,232.379l-17.254,-55.799l35.051,-65.062l69.355,-25.522l52.806,24.956l-58.291,74.184l-81.667,47.243Z" style="fill:#aeadb3;fill-rule:nonzero;"/><path d="M190.659,85.996l-33.86,-39.027c-11.517,-13.275 -31.616,-14.7 -44.893,-3.183l-56.333,48.875c-13.275,11.517 -14.7,31.616 -3.182,44.892l33.861,39.027l104.407,-90.584Z" style="fill:#8b8892;fill-rule:nonzero;"/><path d="M121.889,263.652l149.943,-130.092c7.439,-6.455 8.238,-17.718 1.783,-25.158c-6.454,-7.439 -17.717,-8.238 -25.157,-1.783l-149.943,130.091c-7.44,6.455 -8.238,17.718 -1.784,25.158c6.455,7.439 17.719,8.238 25.158,1.784Z" style="fill:#c8c6cd;fill-rule:nonzero;"/><path d="M256.594,124.762l-149.943,130.092c-3.413,2.961 -7.633,4.378 -11.822,4.346c0.547,0.928 1.172,1.826 1.904,2.67c6.454,7.439 17.718,8.238 25.157,1.783l149.944,-130.092c7.439,-6.454 8.238,-17.717 1.783,-25.157c-3.493,-4.027 -8.394,-6.089 -13.335,-6.127c4.271,7.265 2.909,16.762 -3.688,22.485Z" style="fill:#d9d9d9;fill-rule:nonzero;"/></svg>