<?xml version="1.0" encoding="UTF-8" standalone="no"?><!DOCTYPE svg PUBLIC "-//W3C//DTD SVG 1.1//EN" "http://www.w3.org/Graphics/SVG/1.1/DTD/svg11.dtd"><svg width="100%" height="100%" viewBox="0 0 512 512" version="1.1" xmlns="http://www.w3.org/2000/svg" xmlns:xlink="http://www.w3.org/1999/xlink" xml:space="preserve" style="fill-rule:evenodd;clip-rule:evenodd;stroke-linejoin:round;stroke-miterlimit:2;"><path d="M282.586,32.788l-0,296.241c-0,12.585 -14.002,22.788 -26.586,22.788c-12.584,0 -26.586,-10.203 -26.586,-22.788l0,-296.241c0,-12.584 14.002,-22.788 26.586,-22.788c12.584,-0 26.586,10.204 26.586,22.788Z" style="fill:#e5e5e5;fill-rule:nonzero;"/><path d="M404.121,502l-296.242,0c-12.584,0 -22.788,-14.002 -22.788,-26.586c0,-12.584 10.204,-26.586 22.788,-26.586l296.242,0c12.584,0 22.788,14.002 22.788,26.586c-0,12.584 -10.204,26.586 -22.788,26.586Z" style="fill:#e5e5e5;fill-rule:nonzero;"/><path d="M404.121,207.494l-296.242,0c-12.584,0 -22.788,-14.001 -22.788,-26.585c0,-12.586 10.204,-26.586 22.788,-26.586l296.242,0c12.584,0 22.788,14.001 22.788,26.586c-0,12.584 -10.204,26.585 -22.788,26.585Z" style="fill:#e5e5e5;fill-rule:nonzero;"/></svg>