<?xml version="1.0" encoding="UTF-8" standalone="no"?><!DOCTYPE svg PUBLIC "-//W3C//DTD SVG 1.1//EN" "http://www.w3.org/Graphics/SVG/1.1/DTD/svg11.dtd"><svg width="100%" height="100%" viewBox="0 0 512 512" version="1.1" xmlns="http://www.w3.org/2000/svg" xmlns:xlink="http://www.w3.org/1999/xlink" xml:space="preserve" style="fill-rule:evenodd;clip-rule:evenodd;stroke-linejoin:round;stroke-miterlimit:2;"><circle cx="256" cy="256" r="240" style="fill:#c62b30;"/><path d="M458.484,247.643c0.113,2.772 0.182,5.556 0.182,8.358c-0,111.929 -90.735,202.665 -202.666,202.665c-111.93,0 -202.666,-90.737 -202.666,-202.667c-0,-2.802 0.069,-5.587 0.183,-8.36c-0,-0.238 0.003,-0.391 0.005,-0.453c4.616,-107.841 93.502,-193.852 202.478,-193.852c108.978,0 197.863,86.011 202.479,193.852c0.002,0.062 0.004,0.217 0.005,0.457Z" style="fill-opacity:0.25;"/><path d="M447.827,248.083c0.107,2.626 0.173,5.263 0.173,7.918c0,106.038 -85.961,191.998 -192,191.998c-106.038,0 -192,-85.961 -192,-192c0,-2.655 0.066,-5.293 0.174,-7.921c0,-0.224 0.003,-0.368 0.005,-0.428c4.373,-102.165 88.58,-183.649 191.821,-183.649c103.242,0 187.449,81.484 191.822,183.649c0.002,0.06 0.004,0.206 0.005,0.433Z" style="fill:#eaf2fb;"/><path d="M264.349,112.142l0,-25.856c0,-4.612 -3.739,-8.348 -8.349,-8.348c-4.609,0 -8.347,3.736 -8.347,8.348l0,25.856c0,4.609 3.737,8.347 8.347,8.347c4.611,0 8.349,-3.738 8.349,-8.347Z" style="fill:#453e43;fill-rule:nonzero;"/><path d="M247.653,399.859l0,25.856c0,4.61 3.737,8.348 8.347,8.348c4.611,0 8.349,-3.738 8.349,-8.348l0,-25.856c0,-4.61 -3.739,-8.347 -8.349,-8.347c-4.609,0 -8.347,3.737 -8.347,8.347Z" style="fill:#453e43;fill-rule:nonzero;"/><path d="M425.715,264.348c4.612,0 8.347,-3.737 8.347,-8.347c-0,-4.611 -3.736,-8.349 -8.347,-8.349l-25.856,0c-4.609,0 -8.347,3.738 -8.347,8.349c-0,4.61 3.738,8.347 8.347,8.347l25.856,0Z" style="fill:#453e43;fill-rule:nonzero;"/><path d="M86.285,247.652c-4.611,-0 -8.347,3.738 -8.347,8.349c0,4.61 3.736,8.347 8.347,8.347l25.856,-0c4.612,-0 8.347,-3.737 8.347,-8.347c0,-4.611 -3.737,-8.349 -8.347,-8.349l-25.856,-0Z" style="fill:#453e43;fill-rule:nonzero;"/><path d="M381,131l-85.128,164.871l-79.744,-79.743l164.872,-85.128Z" style="fill:#fa2a3b;"/><path d="M131.001,381l85.128,-164.871l79.744,79.743l-164.872,85.128Z" style="fill:#0daabf;"/><circle cx="256" cy="256" r="25" style="fill:#363034;"/></svg>