<?xml version="1.0" encoding="UTF-8" standalone="no"?><!DOCTYPE svg PUBLIC "-//W3C//DTD SVG 1.1//EN" "http://www.w3.org/Graphics/SVG/1.1/DTD/svg11.dtd"><svg width="100%" height="100%" viewBox="0 0 512 512" version="1.1" xmlns="http://www.w3.org/2000/svg" xmlns:xlink="http://www.w3.org/1999/xlink" xml:space="preserve" style="fill-rule:evenodd;clip-rule:evenodd;stroke-linejoin:round;stroke-miterlimit:2;"><path d="M126.249,256.133l-49.837,-199.906c-0.734,-2.945 0.158,-6.058 2.34,-8.168c2.183,-2.11 5.325,-2.896 8.243,-2.062l98.316,28.076c0.588,0.04 1.177,0.142 1.757,0.308c0.576,0.165 1.127,0.389 1.645,0.663l193.927,55.381c0.538,0.047 1.076,0.145 1.607,0.297c0.527,0.151 1.033,0.35 1.511,0.594l98.36,28.089c2.922,0.834 5.176,3.164 5.913,6.112c0.737,2.948 -0.156,6.065 -2.341,8.176l-297.256,287.172c-2.185,2.111 -5.329,2.895 -8.249,2.058c-2.92,-0.837 -5.172,-3.168 -5.907,-6.115l-49.812,-199.807c-0.043,-0.14 -0.082,-0.282 -0.118,-0.425c-0.037,-0.147 -0.07,-0.295 -0.099,-0.443Zm41.835,-169.297c-42.208,-12.054 -71.617,-20.452 -71.617,-20.452l18.032,72.327l53.585,-51.875Zm-46.835,78.953l18.04,72.361l53.713,-51.93l-71.753,-20.431Zm244.039,-22.637c-21.979,-6.277 -45.998,-13.136 -70.345,-20.089l17.696,71.057l52.649,-50.968Zm-98.614,-28.161c-24.257,-6.928 -48.186,-13.761 -70.092,-20.017l17.618,70.75l52.474,-50.733Zm-120.259,151.743l17.691,70.959l52.557,-50.88l-70.248,-20.079Zm24.448,98.064l18.35,73.606c0,-0 22.508,-21.745 54.67,-52.815l-73.02,-20.791Zm93.253,1.244c16.392,-15.836 34.299,-33.135 52.453,-50.674l-70.059,-20.024l17.606,70.698Zm73.626,-71.128c18.645,-18.013 37.033,-35.777 53.792,-51.968l-71.828,-20.452l18.036,72.42Zm73.98,-71.47c31.565,-30.495 53.554,-51.738 53.554,-51.738c-0,0 -29.365,-8.386 -71.523,-20.425l17.969,72.163Zm-206.866,-25.036l-53.763,51.98l71.818,20.527l-18.055,-72.507Zm91.165,-0.658l-17.559,-70.506l-52.34,50.604l69.899,19.902Zm-46.446,80.786l71.668,20.485l-18.033,-72.407l-53.635,51.922Zm-19.944,19.388l-52.625,50.945c0,-0 70.295,20.015 70.295,20.015l-17.67,-70.96Zm9.358,-32.805l52.626,-50.945c-0,-0 -70.295,-20.016 -70.295,-20.016l17.669,70.961Zm-58.945,-166.197l-52.625,50.946l70.295,20.015l-17.67,-70.961Zm197.178,56.341l-52.625,50.945c0,0 70.295,20.016 70.295,20.016l-17.67,-70.961Z" style="fill:#222;"/></svg>