<?xml version="1.0" encoding="UTF-8" standalone="no"?><!DOCTYPE svg PUBLIC "-//W3C//DTD SVG 1.1//EN" "http://www.w3.org/Graphics/SVG/1.1/DTD/svg11.dtd"><svg width="100%" height="100%" viewBox="0 0 512 512" version="1.1" xmlns="http://www.w3.org/2000/svg" xmlns:xlink="http://www.w3.org/1999/xlink" xml:space="preserve" xmlns:serif="http://www.serif.com/" style="fill-rule:evenodd;clip-rule:evenodd;stroke-linejoin:round;stroke-miterlimit:2;"><path d="M33.136,125.945l47.082,-1.62l152.131,61.364l23.651,29.402l28.125,37.074l0,186.649l-28.125,42.186c-2.577,0 -5.154,-0.48 -7.59,-1.458l-204.545,-81.818c-7.771,-3.115 -12.865,-10.627 -12.865,-18.997l0,-245.454c0,-2.389 1.086,-4.884 2.136,-7.328Z" style="fill:#a90a64;fill-rule:nonzero;"/><path d="M264.31,183.131l171.946,-66.477l42.338,9.401c1.023,2.391 2.406,4.721 2.406,7.218l0,245.454c0,8.37 -5.094,15.882 -12.865,18.997l-204.545,81.818c-2.436,0.978 -5.013,1.458 -7.59,1.458l0,-265.909l8.31,-31.96Z" style="fill:#e30d8a;fill-rule:nonzero;"/><path d="M33.045,125.909l222.955,89.182l222.545,-89.182c-2.045,-4.909 -5.726,-9.82 -10.226,-11.455l-204.546,-81.819c-2.454,-0.82 -5.318,-1.635 -7.773,-1.635c-2.455,-0 -5.319,0.816 -7.773,1.635l-204.546,81.819c-0.408,-0 -0.819,0.819 -1.225,0.819c-4.912,2.454 -7.366,6.543 -9.411,10.636Z" style="fill:#f548ad;fill-rule:nonzero;"/><path d="M33.045,125.909l222.955,89.182l0,-184.091c-2.455,-0 -5.319,0.816 -7.773,1.635l-204.546,81.819c-0.408,-0 -0.819,0.819 -1.225,0.819c-4.912,2.454 -7.366,6.543 -9.411,10.636Z" style="fill:#e30d8a;fill-rule:nonzero;"/></svg>