<?xml version="1.0" encoding="UTF-8" standalone="no"?>
<!DOCTYPE svg PUBLIC "-//W3C//DTD SVG 1.1//EN" "http://www.w3.org/Graphics/SVG/1.1/DTD/svg11.dtd">
<svg width="100%" height="100%" viewBox="0 0 512 512" version="1.1" xmlns="http://www.w3.org/2000/svg" xmlns:xlink="http://www.w3.org/1999/xlink" xml:space="preserve" xmlns:serif="http://www.serif.com/" style="fill-rule:evenodd;clip-rule:evenodd;stroke-linejoin:round;stroke-miterlimit:2;">
    <g transform="matrix(2.58065,0,0,2.58065,-223.587,-239.133)">
        <g transform="matrix(0.387499,0,0,0.387499,92.8398,98.8639)">
            <path d="M480,120C480,53.77 426.23,0 360,0L120,0C53.77,0 0,53.77 0,120L0,360C0,426.23 53.77,480 120,480L360,480C426.23,480 480,426.23 480,360L480,120Z" style="fill:rgb(188,194,10);"/>
        </g>
        <g transform="matrix(0.322916,0,0,0.322916,108.34,114.364)">
            <path d="M480,120C480,53.77 426.23,0 360,0L120,0C53.77,0 0,53.77 0,120L0,360C0,426.23 53.77,480 120,480L360,480C426.23,480 480,426.23 480,360L480,120Z" style="fill:rgb(236,245,61);"/>
        </g>
    </g>
</svg>
