<?xml version="1.0" encoding="UTF-8" standalone="no"?><!DOCTYPE svg PUBLIC "-//W3C//DTD SVG 1.1//EN" "http://www.w3.org/Graphics/SVG/1.1/DTD/svg11.dtd"><svg width="100%" height="100%" viewBox="0 0 512 512" version="1.1" xmlns="http://www.w3.org/2000/svg" xmlns:xlink="http://www.w3.org/1999/xlink" xml:space="preserve" xmlns:serif="http://www.serif.com/" style="fill-rule:evenodd;clip-rule:evenodd;stroke-linejoin:round;stroke-miterlimit:2;"><path d="M326.788,263.546l-70.789,-17.617l-61.981,15.691l-66.02,141.819l64.421,104.716c20.348,5.112 41.643,7.842 63.58,7.842c67.569,0 129.112,-25.781 175.345,-68.035l0,-75.912l-104.556,-108.504Z" style="fill:#fa22b9;fill-rule:nonzero;"/><path d="M313.041,2.294l-148.425,66.337l56.953,80.356l55.488,48.492l94.721,48.182l131.813,-69.186c-27.916,-86.982 -100.383,-153.996 -190.55,-174.181Z" style="fill:#8fd75d;fill-rule:nonzero;"/><path d="M277.056,197.479c-0,-0 111.323,-36.78 226.535,-21.004c8.045,25.067 12.406,51.785 12.406,79.524c0,76.024 -32.633,144.421 -84.651,191.962c-95.463,-78.261 -175.347,-202.032 -175.347,-202.032l21.057,-48.45Z" style="fill:#ffc757;fill-rule:nonzero;"/><path d="M172.986,108.143l-39.758,-42.651l-63.843,9.492c-45.414,46.812 -73.385,110.642 -73.385,181.015c0,28.416 4.574,55.758 13,81.354l92.51,-55.47l67.346,-75.532l-12.748,-46.353l16.878,-51.855Z" style="fill:#00b8b1;fill-rule:nonzero;"/><path d="M168.855,206.352l25.163,55.267c0,0 -27.084,100.607 -1.599,246.534c-86.496,-21.742 -155.77,-86.813 -183.418,-170.8c70.393,-90.913 159.854,-131.001 159.854,-131.001Z" style="fill:#af46eb;fill-rule:nonzero;"/><path d="M255.999,-4c19.597,0 38.685,2.184 57.042,6.294c-64.18,69.909 -91.472,146.693 -91.472,146.693l-65.461,11.012c0,0 -34.959,-43.348 -86.722,-85.014c47.253,-48.706 113.393,-78.985 186.613,-78.985Z" style="fill:#ce0048;fill-rule:nonzero;"/><circle cx="210.779" cy="197.481" r="66.281" style="fill:#efedee;"/></svg>