<?xml version="1.0" encoding="UTF-8" standalone="no"?>
<!DOCTYPE svg PUBLIC "-//W3C//DTD SVG 1.1//EN" "http://www.w3.org/Graphics/SVG/1.1/DTD/svg11.dtd">
<svg width="100%" height="100%" viewBox="0 0 1024 1024" version="1.1" xmlns="http://www.w3.org/2000/svg" xmlns:xlink="http://www.w3.org/1999/xlink" xml:space="preserve" xmlns:serif="http://www.serif.com/" style="fill-rule:evenodd;clip-rule:evenodd;stroke-linejoin:round;stroke-miterlimit:2;">
    <g transform="matrix(1.08527,0,0,1.08527,-64.8197,-76.7576)">
        <circle cx="531.5" cy="542.5" r="451.5" style="fill:rgb(36,95,250);"/>
    </g>
    <path d="M165.586,165.589L858.414,858.417C769.72,947.11 647.22,1002 512.001,1002C241.563,1002 22.002,782.439 22.002,512.001C22.002,376.782 76.892,254.283 165.586,165.589Z" style="fill:rgb(5,68,227);"/>
    <g transform="matrix(0.775194,0,0,0.775194,99.9865,91.4594)">
        <circle cx="531.5" cy="542.5" r="451.5" style="fill:white;"/>
    </g>
    <g transform="matrix(1.88337,0,0,1.88337,-504.401,-403.099)">
        <path d="M445.26,545.201C434.432,528.013 428.167,507.673 428.167,485.882C428.167,424.342 478.13,374.38 539.669,374.38C551.154,374.38 562.235,376.12 572.662,379.35C563.088,388.786 557.149,401.901 557.149,416.391C557.149,445.097 580.454,468.403 609.16,468.403C623.651,468.403 636.765,462.464 646.201,452.889C649.431,463.313 651.171,474.396 651.171,485.882C651.171,547.422 601.209,597.384 539.669,597.384C517.878,597.384 497.539,591.12 480.35,580.292C483.681,576.045 485.667,570.695 485.667,564.884C485.667,551.086 474.465,539.884 460.667,539.884C454.857,539.884 449.507,541.871 445.26,545.201Z"/>
    </g>
</svg>
