<?xml version="1.0" encoding="UTF-8" standalone="no"?><!DOCTYPE svg PUBLIC "-//W3C//DTD SVG 1.1//EN" "http://www.w3.org/Graphics/SVG/1.1/DTD/svg11.dtd"><svg width="100%" height="100%" viewBox="0 0 512 512" version="1.1" xmlns="http://www.w3.org/2000/svg" xmlns:xlink="http://www.w3.org/1999/xlink" xml:space="preserve" xmlns:serif="http://www.serif.com/" style="fill-rule:evenodd;clip-rule:evenodd;stroke-linejoin:round;stroke-miterlimit:2;"><ellipse cx="256" cy="261.851" rx="235.3" ry="236.228" style="fill:#8c8c8c;"/><path d="M429.595,421.254l-333.053,-333.053c41.938,-38.84 97.959,-62.578 159.458,-62.578c129.866,0 235.3,105.85 235.3,236.228c0,61.408 -23.39,117.375 -61.705,159.403Z" style="fill:#a7a7a7;"/><path d="M330.506,485.972c-23.418,7.853 -48.471,12.107 -74.506,12.107c-51.168,-0 -98.543,-16.432 -137.17,-44.323c19.012,13.716 40.146,24.657 62.815,32.234c11.765,2.177 16.059,-5.117 16.059,-11.382c0,-5.618 -0.205,-20.471 -0.323,-40.177c-65.443,14.265 -79.267,-31.677 -79.267,-31.677c-10.677,-27.295 -26.118,-34.56 -26.118,-34.56c-21.383,-14.647 1.588,-14.353 1.588,-14.353c23.618,1.677 36.03,24.353 36.03,24.353c21.001,36.089 55.09,25.677 68.502,19.618c2.118,-15.264 8.206,-25.676 14.942,-31.588c-52.237,-5.971 -107.179,-26.236 -107.179,-116.738c-0,-25.794 9.176,-46.883 24.236,-63.412c-2.442,-5.971 -10.501,-30.001 2.294,-62.502c-0,0 19.765,-6.353 64.707,24.207c18.765,-5.236 38.884,-7.853 58.913,-7.942c19.971,0.118 40.119,2.706 58.914,7.971c44.913,-30.559 64.648,-24.206 64.648,-24.206c12.824,32.53 4.765,56.53 2.353,62.501c15.089,16.53 24.177,37.618 24.177,63.413c0,90.737 -55.001,110.708 -107.414,116.561c8.441,7.294 15.971,21.706 15.971,43.736c-0,31.588 -0.294,57.059 -0.294,64.795c-0,6.314 4.222,13.654 16.122,11.364Z"/></svg>