<?xml version="1.0" encoding="UTF-8" standalone="no"?><!DOCTYPE svg PUBLIC "-//W3C//DTD SVG 1.1//EN" "http://www.w3.org/Graphics/SVG/1.1/DTD/svg11.dtd"><svg width="100%" height="100%" viewBox="0 0 512 512" version="1.1" xmlns="http://www.w3.org/2000/svg" xmlns:xlink="http://www.w3.org/1999/xlink" xml:space="preserve" style="fill-rule:evenodd;clip-rule:evenodd;stroke-linejoin:round;stroke-miterlimit:2;"><ellipse cx="256" cy="261.851" rx="235.3" ry="236.228" style="fill:#999;"/><path d="M429.595,421.254l-333.053,-333.053c41.938,-38.84 97.959,-62.578 159.458,-62.578c129.866,0 235.3,105.85 235.3,236.228c0,61.408 -23.39,117.375 -61.705,159.403Z" style="fill:#ababab;"/><path d="M200.442,491.444c0.1,-11.662 0.419,-39.993 0.326,-56.573c-60.739,14.166 -73.57,-31.458 -73.57,-31.458c-9.909,-27.107 -24.24,-34.321 -24.24,-34.321c-19.846,-14.546 1.474,-14.254 1.474,-14.254c21.92,1.665 33.44,24.184 33.44,24.184c19.492,35.84 51.13,25.5 63.579,19.483c1.965,-15.159 7.616,-25.499 13.867,-31.37c-48.482,-5.93 -99.475,-26.055 -99.475,-115.931c0,-25.616 8.517,-46.559 22.494,-62.974c-2.267,-5.93 -9.746,-29.794 2.129,-62.07c0,0 18.344,-6.309 60.056,24.04c17.417,-5.2 36.089,-7.799 54.678,-7.887c18.536,0.117 37.236,2.687 54.68,7.915c41.685,-30.347 60.002,-24.038 60.002,-24.038c11.902,32.305 4.422,56.139 2.183,62.069c14.005,16.416 22.439,37.358 22.439,62.975c0,90.11 -51.048,109.943 -99.693,115.755c7.834,7.244 14.823,21.556 14.823,43.434c0,28.633 -0.055,68.853 -0.064,81.496c-17.211,4.029 -35.145,6.16 -53.57,6.16c-19.136,0 -37.742,-2.298 -55.558,-6.635Z" style="fill-opacity:0.85;"/></svg>