<?xml version="1.0" encoding="UTF-8" standalone="no"?><!DOCTYPE svg PUBLIC "-//W3C//DTD SVG 1.1//EN" "http://www.w3.org/Graphics/SVG/1.1/DTD/svg11.dtd"><svg width="100%" height="100%" viewBox="0 0 512 512" version="1.1" xmlns="http://www.w3.org/2000/svg" xmlns:xlink="http://www.w3.org/1999/xlink" xml:space="preserve" xmlns:serif="http://www.serif.com/" style="fill-rule:evenodd;clip-rule:evenodd;stroke-linejoin:round;stroke-miterlimit:2;"><path d="M120.115,0c-36.229,0 -65.702,29.474 -65.702,65.702l-0,373.609l91.159,-9.555l18.411,-191.896l-18.411,-237.86l-25.457,0Z" style="fill:#983424;fill-rule:nonzero;"/><path d="M145.572,0l0,401.074l159.935,-16.763l32.078,-177.814l-32.078,-206.497l-159.935,-0Z" style="fill:#b1532b;fill-rule:nonzero;"/><path d="M457.586,0l-152.079,0l0,386.601l152.079,-15.829l0,-370.772Z" style="fill:#ca7a33;fill-rule:nonzero;"/><path d="M135.077,386.601c-29.413,0 -53.258,23.844 -53.258,53.258c0,0.512 0.024,1.019 0.039,1.527c0.811,28.705 24.318,51.73 53.219,51.73l170.43,0l0,-106.515l-170.43,0Z" style="fill:#ecf3fb;fill-rule:nonzero;"/><path d="M414.981,441.43c0,-0.015 0.001,-0.03 0.001,-0.044c0.025,-22.362 19.778,-40.546 42.604,-40.546l-26.251,-14.239l-125.828,-0l0,106.515l133.425,-0l18.655,-11.139c-22.842,-0 -42.606,-18.165 -42.606,-40.547Z" style="fill:#fff;fill-rule:nonzero;"/><path d="M125.027,400.84l20.545,-0l9.787,-16.152l-9.787,-13.915l-20.545,0c-38.937,-0.001 -70.614,31.676 -70.614,70.613c0,38.937 31.677,70.614 70.614,70.614l20.545,0l13.161,-15.032l-13.161,-15.032l-20.545,-0.003c-22.357,-0 -40.546,-18.189 -40.546,-40.546c0,-22.358 18.189,-40.547 40.546,-40.547Z" style="fill:#7e2b1b;fill-rule:nonzero;"/><path d="M145.572,456.154l159.935,0l14.819,-14.768l-14.819,-15.3l-159.935,0l0,30.068Z" style="fill:#e0e6f5;fill-rule:nonzero;"/><path d="M145.572,370.772l0,30.068l159.935,0l13.225,-14.239l-13.225,-15.829l-159.935,0Z" style="fill:#983424;fill-rule:nonzero;"/><path d="M145.572,512l159.935,0l17.137,-12.898l-17.137,-17.145l-159.935,-0.022l0,30.065Z" style="fill:#983424;fill-rule:nonzero;"/><rect x="305.507" y="370.772" width="152.08" height="30.068" style="fill:#b1532b;"/><path d="M417.814,456.154c-1.822,-4.568 -2.833,-9.531 -2.833,-14.723c0,-0.015 0.001,-0.03 0.001,-0.044c0.006,-5.412 1.106,-10.576 3.082,-15.3l-112.557,0l0,30.068l112.307,0l0,-0.001Z" style="fill:#f2f5fb;fill-rule:nonzero;"/><path d="M255.397,88.171l0,29.945l50.11,0l14.819,-14.973l-14.819,-14.972l-50.11,0Z" style="fill:#7e2b1b;fill-rule:nonzero;"/><path d="M221.543,153.181l0,29.945l83.964,0l17.137,-14.973l-17.137,-14.972l-83.964,0Z" style="fill:#7e2b1b;fill-rule:nonzero;"/><rect x="305.507" y="88.171" width="50.11" height="29.945" style="fill:#983424;"/><rect x="305.507" y="153.181" width="83.963" height="29.945" style="fill:#983424;"/><path d="M457.586,512l0,-30.023l-152.079,-0.02l0,30.043l152.079,0Z" style="fill:#b1532b;fill-rule:nonzero;"/></svg>