<?xml version="1.0" encoding="UTF-8" standalone="no"?><!DOCTYPE svg PUBLIC "-//W3C//DTD SVG 1.1//EN" "http://www.w3.org/Graphics/SVG/1.1/DTD/svg11.dtd"><svg width="100%" height="100%" viewBox="0 0 512 512" version="1.1" xmlns="http://www.w3.org/2000/svg" xmlns:xlink="http://www.w3.org/1999/xlink" xml:space="preserve" xmlns:serif="http://www.serif.com/" style="fill-rule:evenodd;clip-rule:evenodd;stroke-linejoin:round;stroke-miterlimit:2;"><path d="M178.914,428.266c0,39.621 34.533,72.734 77.083,72.734c42.55,-0 77.083,-33.113 77.083,-72.734c-0,-8.041 -6.783,-14.356 -15.417,-14.356l-123.332,0c-8.635,0 -15.417,6.315 -15.417,14.356Z" style="fill:#aeadb3;fill-rule:nonzero;"/><path d="M178.914,428.266c0,39.621 34.533,72.734 77.083,72.734l-0,-87.09l-61.666,0c-8.635,0 -15.417,6.315 -15.417,14.356Z" style="fill:#8b8892;fill-rule:nonzero;"/><path d="M148.081,385.199l0,14.356c0,23.829 20.657,43.066 46.25,43.066l123.332,-0c25.593,-0 46.25,-19.237 46.25,-43.066l-0,-14.356l-29.292,-29.668l-157.249,0l-29.291,29.668Z" style="fill:#d9d9d9;fill-rule:nonzero;"/><path d="M177.372,355.531l-29.291,29.668l0,14.356c0,23.829 20.657,43.066 46.25,43.066l61.666,-0l-0,-87.09l-78.625,0Z" style="fill:#c8c6cd;fill-rule:nonzero;"/><path d="M70.998,183.266c0,41.63 16.343,82.113 45.942,113.408c16.342,17.513 26.209,37.896 29.6,58.857c0.616,4.88 1.542,10.431 1.542,15.313l0,14.355l215.831,0l-0,-14.355c-0,-4.882 0.617,-10.433 1.541,-15.313c3.085,-20.96 12.949,-41.344 28.983,-57.997c39.468,-41.344 54.884,-96.756 42.242,-151.88c-14.8,-64.599 -71.225,-117.14 -140.908,-130.922c-13.258,-2.585 -26.516,-3.732 -39.774,-3.732c-42.241,0 -83.559,13.493 -116.55,38.472c-43.474,33.018 -68.449,81.827 -68.449,133.794Z" style="fill:#fedb41;fill-rule:nonzero;"/><path d="M70.998,183.266c0,41.63 16.343,82.113 45.942,113.408c16.342,17.513 26.209,37.896 29.6,58.857c0.616,4.88 1.542,10.431 1.542,15.313l0,14.355l107.915,0l-0,-374.199c-42.241,0 -83.559,13.493 -116.55,38.472c-43.474,33.018 -68.449,81.827 -68.449,133.794Z" style="fill:#fcbf29;fill-rule:nonzero;"/><path d="M132.664,183.266c0,8.038 6.783,14.355 15.417,14.355c8.634,0 15.417,-6.317 15.417,-14.355c-0,-47.374 41.623,-86.133 92.499,-86.133c8.634,-0 15.416,-6.318 15.416,-14.356c0,-8.04 -6.782,-14.355 -15.416,-14.355c-68.142,-0 -123.333,51.391 -123.333,114.844Z" style="fill:#fea832;fill-rule:nonzero;"/><path d="M132.664,183.266c0,8.038 6.783,14.355 15.417,14.355c8.634,0 15.417,-6.317 15.417,-14.355c-0,-47.374 41.623,-86.133 92.499,-86.133l-0,-28.711c-68.142,-0 -123.333,51.391 -123.333,114.844Z" style="fill:#fe9923;fill-rule:nonzero;"/></svg>