<?xml version="1.0" encoding="UTF-8" standalone="no"?><!DOCTYPE svg PUBLIC "-//W3C//DTD SVG 1.1//EN" "http://www.w3.org/Graphics/SVG/1.1/DTD/svg11.dtd"><svg width="100%" height="100%" viewBox="0 0 512 512" version="1.1" xmlns="http://www.w3.org/2000/svg" xmlns:xlink="http://www.w3.org/1999/xlink" xml:space="preserve" xmlns:serif="http://www.serif.com/" style="fill-rule:evenodd;clip-rule:evenodd;stroke-linejoin:round;stroke-miterlimit:2;"><path d="M256,63.735c106.185,0 192.266,86.08 192.266,192.266c0,48.324 -17.833,92.48 -47.27,126.258l-45.228,-45.229c17.98,-22.111 28.764,-50.309 28.764,-81.03c0,-70.986 -57.545,-128.531 -128.531,-128.531l-15.934,0l0,-63.734l15.933,0Z" style="fill:#f5565c;fill-rule:nonzero;"/><path d="M111.004,129.742l45.228,45.229c-17.98,22.111 -28.764,50.309 -28.764,81.03c0,70.986 57.545,128.531 128.531,128.531l15.934,0l0,63.734l-15.933,0c-106.185,0 -192.266,-86.08 -192.266,-192.266c0,-48.324 17.833,-92.48 47.27,-126.258Z" style="fill:#c5161c;fill-rule:nonzero;"/><path d="M256,0l0,191.204l-95.602,-95.602l95.602,-95.602Z" style="fill:#ec2429;fill-rule:nonzero;"/><path d="M256,512l0,-191.204l95.602,95.602l-95.602,95.602Z" style="fill:#ec2429;fill-rule:nonzero;"/></svg>