<?xml version="1.0" encoding="UTF-8" standalone="no"?>
<!DOCTYPE svg PUBLIC "-//W3C//DTD SVG 1.1//EN" "http://www.w3.org/Graphics/SVG/1.1/DTD/svg11.dtd">
<svg width="100%" height="100%" viewBox="0 0 512 512" version="1.1" xmlns="http://www.w3.org/2000/svg" xmlns:xlink="http://www.w3.org/1999/xlink" xml:space="preserve" style="fill-rule:evenodd;clip-rule:evenodd;stroke-linejoin:round;stroke-miterlimit:2;">
    <g transform="matrix(2.29548,0,0,2.29548,-146.143,-78.2796)">
        <path d="M211.658,219.006C209.937,213.499 204.837,209.75 199.068,209.75L150.745,209.75C145.026,209.75 139.974,213.477 138.286,218.941C136.431,224.948 134.018,232.764 132.161,238.777C130.467,244.26 125.399,248 119.66,248L95.651,248C91.299,248 87.222,245.874 84.73,242.307C82.239,238.739 81.647,234.179 83.145,230.094C98.221,188.988 134.971,88.788 147.447,54.769C149.985,47.85 156.571,43.25 163.942,43.25L185.937,43.25C193.233,43.25 199.757,47.794 202.286,54.638C214.842,88.619 252.106,189.466 267.238,230.419C268.718,234.425 268.146,238.902 265.704,242.406C263.263,245.911 259.262,248 254.991,248L230.228,248C224.571,248 219.57,244.323 217.882,238.924C216.004,232.913 213.548,225.053 211.658,219.006ZM156.265,160.105C155.478,162.832 156.019,165.77 157.726,168.038C159.432,170.307 162.105,171.641 164.943,171.641L185.632,171.641C188.316,171.641 190.845,170.383 192.465,168.243C194.085,166.103 194.609,163.328 193.88,160.744C190.321,148.122 184.406,127.146 180.184,112.176C179.549,109.922 177.495,108.363 175.153,108.356C172.811,108.349 170.749,109.896 170.099,112.146C165.853,126.868 159.926,147.414 156.265,160.105Z" style="fill:rgb(0,180,175);fill-rule:nonzero;stroke:rgb(0,124,120);stroke-width:10.02px;"/>
    </g>
</svg>
