<?xml version="1.0" encoding="UTF-8" standalone="no"?>
<!DOCTYPE svg PUBLIC "-//W3C//DTD SVG 1.1//EN" "http://www.w3.org/Graphics/SVG/1.1/DTD/svg11.dtd">
<svg width="100%" height="100%" viewBox="0 0 512 512" version="1.1" xmlns="http://www.w3.org/2000/svg" xmlns:xlink="http://www.w3.org/1999/xlink" xml:space="preserve" style="fill-rule:evenodd;clip-rule:evenodd;stroke-linejoin:round;stroke-miterlimit:2;">
    <g transform="matrix(0.976801,0,0,0.976801,84.8319,113.753)">
        <path d="M214.809,229.088C211.213,217.583 200.559,209.75 188.506,209.75C179.835,209.75 169.74,209.75 161.101,209.75C149.225,209.75 138.735,217.489 135.231,228.837C134.706,230.536 134.181,232.235 133.673,233.881C131.08,242.275 123.321,248 114.536,248C114.535,248 114.534,248 114.533,248C105.873,248 97.76,243.77 92.801,236.67C87.843,229.57 86.665,220.496 89.647,212.366C105.208,169.939 130.709,100.407 143.629,65.179C148.46,52.007 160.999,43.25 175.03,43.25L175.031,43.25C188.881,43.25 201.266,51.877 206.066,64.868C219.068,100.056 244.933,170.053 260.648,212.584C263.63,220.654 262.476,229.673 257.559,236.732C252.641,243.792 244.582,248 235.978,248L235.975,248C226.899,248 218.875,242.101 216.168,233.438C215.723,232.013 215.266,230.551 214.809,229.088ZM159.266,149.701C157.77,154.888 158.799,160.476 162.044,164.79C165.29,169.103 170.374,171.641 175.772,171.641L175.775,171.641C180.796,171.641 185.527,169.288 188.557,165.285C191.588,161.282 192.568,156.09 191.205,151.257C189.873,146.533 188.407,141.335 186.92,136.063C185.427,130.766 180.601,127.101 175.097,127.085C169.594,127.069 164.746,130.704 163.221,135.992C161.858,140.716 160.513,145.38 159.266,149.701Z" style="fill:rgb(0,180,175);fill-rule:nonzero;stroke:rgb(0,124,120);stroke-width:23.55px;"/>
    </g>
</svg>
