<?xml version="1.0" encoding="UTF-8" standalone="no"?><!DOCTYPE svg PUBLIC "-//W3C//DTD SVG 1.1//EN" "http://www.w3.org/Graphics/SVG/1.1/DTD/svg11.dtd"><svg width="100%" height="100%" viewBox="0 0 512 512" version="1.1" xmlns="http://www.w3.org/2000/svg" xmlns:xlink="http://www.w3.org/1999/xlink" xml:space="preserve" xmlns:serif="http://www.serif.com/" style="fill-rule:evenodd;clip-rule:evenodd;stroke-linejoin:round;stroke-miterlimit:2;"><path d="M495.783,246.104c0.135,3.282 0.217,6.579 0.217,9.897c0,132.548 -107.45,239.998 -240,239.998c-132.549,-0 -240,-107.451 -240,-240c-0,-3.32 0.084,-6.616 0.218,-9.901c-0,-0.282 0.003,-0.461 0.006,-0.536c5.466,-127.705 110.726,-229.561 239.776,-229.561c129.051,0 234.313,101.856 239.777,229.561c0.003,0.075 0.005,0.258 0.005,0.542l0.001,-0Z" style="fill:#e4eef9;"/><path d="M300.924,239.404l-15.223,15.435l-21.759,0l0,-27.487l13.812,-14.001l0.002,-0l-0.001,-0.001l40.822,-41.388c6.746,-6.839 17.76,-6.915 24.601,-0.167c6.841,6.746 6.915,17.76 0.17,24.6l-42.424,43.009Z" style="fill:#405b6c;"/><path d="M210.052,242.532l-94.401,-84.124c-7.172,-6.394 -7.807,-17.388 -1.415,-24.562c6.392,-7.173 17.389,-7.807 24.56,-1.413l92.581,82.499l14.654,13.06l1.13,21.929l-20.863,7.089l-16.246,-14.478Z" style="fill:#405b6c;"/><path d="M379.176,368.168c-1.975,0 -3.959,-0.668 -5.589,-2.039l-110.185,-92.551c-3.678,-3.09 -4.157,-8.578 -1.067,-12.255c3.089,-3.678 8.576,-4.157 12.254,-1.066l110.185,92.553c3.678,3.089 4.156,8.578 1.066,12.255c-1.718,2.048 -4.183,3.103 -6.665,3.103l0.001,0Z" style="fill:#ff5876;fill-rule:nonzero;"/><path d="M283.895,245.715c1.181,3.206 1.832,6.668 1.832,10.286c-0,16.417 -13.308,29.728 -29.727,29.728c-16.418,-0 -29.728,-13.31 -29.728,-29.728c0,-3.626 0.653,-7.094 1.84,-10.306c0.015,-0.048 0.03,-0.093 0.046,-0.134c4.226,-11.269 15.099,-19.29 27.842,-19.29c12.744,0 23.617,8.021 27.844,19.29c0.017,0.047 0.034,0.098 0.051,0.154Z" style="fill:#ffb700;"/><path d="M266.001,75.503l-0.001,-30.973c-0,-5.523 -4.478,-10 -10,-10c-5.521,0 -10,4.477 -10,10l0,30.973c0,5.522 4.477,10 10,10c5.524,-0 10,-4.478 10,-10l0.001,-0Z" style="fill:#405b6c;fill-rule:nonzero;"/><path d="M246,436.498l0,30.973c0,5.522 4.477,10 10,10c5.524,0 10,-4.478 10,-10l-0,-30.973c-0,-5.523 -4.477,-10 -10,-10c-5.521,0 -10,4.477 -10,10Z" style="fill:#405b6c;fill-rule:nonzero;"/><path d="M467.471,265.999c5.523,-0 10,-4.476 10,-9.998c0,-5.523 -4.478,-10.002 -10,-10.002l-30.974,-0c-5.521,-0 -10,4.479 -10,10.002c0,5.522 4.479,9.998 10,9.998l30.974,-0Z" style="fill:#405b6c;fill-rule:nonzero;"/><path d="M44.529,245.999c-5.522,-0 -10,4.479 -10,10.002c-0,5.522 4.478,9.998 10,9.998l30.974,-0c5.524,-0 10,-4.476 10,-9.998c-0,-5.523 -4.478,-10.002 -10,-10.002l-30.974,-0Z" style="fill:#405b6c;fill-rule:nonzero;"/></svg>