<?xml version="1.0" encoding="iso-8859-1"?>
<!-- Generator: Adobe Illustrator 22.1.0, SVG Export Plug-In . SVG Version: 6.00 Build 0)  -->
<svg xmlns="http://www.w3.org/2000/svg" xmlns:xlink="http://www.w3.org/1999/xlink" version="1.1" id="Layer_3" x="0px" y="0px" viewBox="0 0 64 64" style="enable-background:new 0 0 64 64;" xml:space="preserve" width="512" height="512">
<g>
	<g>
		<path style="fill:#2C67BA;" d="M12.259,29.429l-4.453,9.796C7.275,40.395,7,41.665,7,42.949v0.234    c0,3.009,1.504,5.819,4.008,7.488l2.852,1.898"/>
	</g>
	<g>
		<path style="fill:#2C67BA;" d="M51.741,29.429l4.453,9.796C56.725,40.395,57,41.665,57,42.949v0.234    c0,3.009-1.504,5.819-4.008,7.488l-2.852,1.894"/>
	</g>
	<g>
		<path style="fill:#E58231;" d="M27.865,12.431l2.847-9.474C30.883,2.389,31.406,2,32,2h0c0.594,0,1.117,0.389,1.287,0.958    l2.847,9.474"/>
	</g>
	<g>
		<path style="fill:#E58231;" d="M24,14l-8.597-6.686C15.142,7.11,14.82,7,14.489,7h0C13.667,7,13,7.667,13,8.489v0.224    c0,0.189,0.036,0.377,0.107,0.553L17,19"/>
	</g>
	<g>
		<path style="fill:#E58231;" d="M40,14l8.597-6.686C48.858,7.11,49.18,7,49.511,7h0C50.333,7,51,7.667,51,8.489v0.224    c0,0.189-0.036,0.377-0.107,0.553L47,19"/>
	</g>
	<g>
		<path style="fill:#4496EC;" d="M48,62l0.151-0.565C50.706,51.852,52,41.978,52,32.061V32l-0.209-2.089    C50.774,19.743,42.218,12,32,12h0c-10.218,0-18.774,7.743-19.791,17.911L12,32v0.061c0,9.917,1.294,19.791,3.849,29.374L16,62h1    l1.293-1.293C18.746,60.254,19.36,60,20,60h0c0.64,0,1.254,0.254,1.707,0.707l0.586,0.586C22.746,61.746,23.36,62,24,62h0    c0.64,0,1.254-0.254,1.707-0.707l0.586-0.586C26.746,60.254,27.36,60,28,60h0c0.64,0,1.254,0.254,1.707,0.707l0.586,0.586    C30.746,61.746,31.36,62,32,62h0c0.64,0,1.254-0.254,1.707-0.707l0.586-0.586C34.746,60.254,35.36,60,36,60l0,0    c0.64,0,1.254,0.254,1.707,0.707l0.586,0.586C38.746,61.746,39.36,62,40,62l0,0c0.64,0,1.254-0.254,1.707-0.707l0.586-0.586    C42.746,60.254,43.36,60,44,60l0,0c0.64,0,1.254,0.254,1.707,0.707L47,62H48z"/>
	</g>
	<g>
		<path style="fill:#39474E;" d="M32,56L32,56c-8.284,0-15-6.716-15-15v-1h30v1C47,49.284,40.284,56,32,56z"/>
	</g>
	<g>
		<path style="fill:#B63830;" d="M21.702,51.887C24.39,54.43,28.008,56,32,56s7.61-1.57,10.298-4.113C40.731,49.616,36.712,48,32,48    S23.269,49.616,21.702,51.887z"/>
	</g>
	<g>
		<polyline style="fill:#FFFFFF;" points="20,40 25,46 27,40   "/>
	</g>
	<g>
		<polyline style="fill:#FFFFFF;" points="44,40 39,46 37,40   "/>
	</g>
	<g>
		<circle style="fill:#FFFFFF;" cx="24" cy="30" r="5"/>
	</g>
	<g>
		<circle style="fill:#FFFFFF;" cx="40" cy="30" r="5"/>
	</g>
	<g>
		<circle style="fill:#39474E;" cx="24" cy="32" r="3"/>
	</g>
	<g>
		<circle style="fill:#39474E;" cx="40" cy="32" r="3"/>
	</g>
	<g>
		<polygon style="fill:#F29C37;" points="28.897,9 35.103,9 34.502,7 29.498,7   "/>
	</g>
	<g>
		<polygon style="fill:#F29C37;" points="14.596,12.99 15.404,15.01 19.733,10.681 18.142,9.444   "/>
	</g>
	<g>
		<polygon style="fill:#F29C37;" points="44.267,10.681 48.596,15.01 49.404,12.99 45.858,9.444   "/>
	</g>
</g>
</svg>
