<?xml version="1.0" encoding="UTF-8" standalone="no"?><!DOCTYPE svg PUBLIC "-//W3C//DTD SVG 1.1//EN" "http://www.w3.org/Graphics/SVG/1.1/DTD/svg11.dtd"><svg width="100%" height="100%" viewBox="0 0 512 512" version="1.1" xmlns="http://www.w3.org/2000/svg" xmlns:xlink="http://www.w3.org/1999/xlink" xml:space="preserve" style="fill-rule:evenodd;clip-rule:evenodd;stroke-linejoin:round;stroke-miterlimit:2;"><g><path d="M54.273,56c-10.555,-0 -19.938,6.667 -19.938,14.167l0,371.666c0,7.5 9.383,14.167 19.938,14.167c10.556,0 19.938,-6.667 19.938,-14.167l0,-371.666c0,-7.5 -9.382,-14.167 -19.938,-14.167Z" style="fill:#b87e14;fill-rule:nonzero;"/><g><path d="M456.554,113.469c-127.839,55.123 -254.504,-91.481 -382.343,-11.729l0,322.529c127.839,-79.753 254.504,66.851 382.343,11.728c11.728,-4.691 21.111,-21.111 21.111,-32.839l-0,-280.307c-0,-11.728 -9.383,-15.246 -21.111,-9.382Z" style="fill:#e6e6e5;fill-rule:nonzero;"/><g><path d="M155.137,159.209c-26.976,1.173 -53.951,7.037 -80.926,24.63l0,-82.099c26.975,-16.419 53.95,-23.456 80.926,-24.629l-0,82.098Z" style="fill:#404040;fill-rule:nonzero;"/><path d="M236.062,250.69c-26.975,-7.037 -53.95,-12.901 -80.925,-11.728l-0,-80.926c26.975,-1.173 53.95,4.692 80.925,11.729l-0,80.925Z" style="fill:#404040;fill-rule:nonzero;"/><path d="M456.554,112.296c-19.938,8.21 -39.876,12.901 -59.814,12.901l-0,80.925c26.975,-1.173 53.95,-7.037 80.925,-24.629l-0,-59.814c-0,-10.556 -9.383,-14.074 -21.111,-9.383Z" style="fill:#404040;fill-rule:nonzero;"/><path d="M396.74,287.048c-26.975,1.172 -53.951,-4.692 -80.926,-11.729l0,-80.925c26.975,7.037 53.951,12.901 80.926,11.728l-0,80.926Z" style="fill:#404040;fill-rule:nonzero;"/><path d="M315.814,194.394c-26.975,-7.037 -53.95,-16.42 -80.925,-24.629l0,-80.926c26.975,8.21 53.95,17.593 80.925,24.63l0,80.925Z" style="fill:#404040;fill-rule:nonzero;"/><path d="M155.137,319.887c-26.976,1.173 -53.951,7.037 -80.926,24.629l0,-80.925c26.975,-16.42 53.95,-23.457 80.926,-24.629l-0,80.925Z" style="fill:#404040;fill-rule:nonzero;"/><path d="M236.062,412.54c-26.975,-7.036 -53.95,-12.901 -80.925,-11.728l-0,-80.925c26.975,-1.173 53.95,4.691 80.925,11.728l-0,80.925Z" style="fill:#404040;fill-rule:nonzero;"/><path d="M477.665,343.343c-26.975,16.42 -53.95,23.457 -80.925,24.63l-0,-80.925c26.975,-1.173 53.95,-7.037 80.925,-24.63l-0,80.925Z" style="fill:#404040;fill-rule:nonzero;"/><path d="M396.74,448.898c-26.975,1.173 -53.951,-4.691 -80.926,-11.728l0,-80.925c26.975,7.037 53.951,12.901 80.926,11.728l-0,80.925Z" style="fill:#404040;fill-rule:nonzero;"/><path d="M315.814,356.245c-26.975,-7.037 -53.95,-16.42 -80.925,-24.63l0,-80.925c26.975,7.037 53.95,16.419 80.925,24.629l0,80.926Z" style="fill:#404040;fill-rule:nonzero;"/></g></g></g></svg>