<?xml version="1.0" encoding="UTF-8" standalone="no"?>
<!DOCTYPE svg PUBLIC "-//W3C//DTD SVG 1.1//EN" "http://www.w3.org/Graphics/SVG/1.1/DTD/svg11.dtd">
<svg width="100%" height="100%" viewBox="0 0 513 513" version="1.1" xmlns="http://www.w3.org/2000/svg" xmlns:xlink="http://www.w3.org/1999/xlink" xml:space="preserve" xmlns:serif="http://www.serif.com/" style="fill-rule:evenodd;clip-rule:evenodd;stroke-linejoin:round;stroke-miterlimit:2;">
    <g transform="matrix(-1,0,0,1,512.001,0)">
        <g>
            <g transform="matrix(6.56061e-17,-1.07143,1.07143,6.56061e-17,-0.857143,369.964)">
                <path d="M235.481,143.778C238.851,138.144 244.934,134.694 251.5,134.694C258.066,134.694 264.149,138.144 267.519,143.778C285.997,174.667 316.246,225.231 335.092,256.735C338.544,262.506 338.627,269.687 335.31,275.536C331.993,281.385 325.788,285 319.064,285L183.918,285C177.198,285 170.996,281.387 167.681,275.541C164.366,269.695 164.449,262.518 167.899,256.75C186.745,225.248 217,174.672 235.481,143.778Z" style="fill:url(#_Linear1);"/>
            </g>
            <path d="M246.088,446.054C234.603,445.406 224.161,452.69 220.804,463.692C220.303,465.211 219.827,466.771 219.348,468.339C217.112,475.664 218.357,483.61 222.727,489.9C227.096,496.19 234.107,500.131 241.752,500.592C246.465,500.847 251.215,501.001 256,501.001C377.422,501.001 476,402.422 476,281.001C476,163.972 384.382,67.427 267.514,61.302L264.654,115.88C352.489,120.484 421.347,193.045 421.347,281.001C421.347,372.258 347.258,446.347 256,446.347C252.672,446.347 249.367,446.249 246.088,446.054ZM128.713,460.413C135.244,465.102 143.634,466.357 151.25,463.783C158.867,461.208 164.775,455.121 167.122,447.432C167.671,445.821 168.161,444.214 168.638,442.651C171.756,432.434 168.038,421.365 159.385,415.102C143.17,403.456 129.179,388.913 118.127,372.255C111.899,362.911 100.198,358.878 89.536,362.401C87.988,362.861 86.42,363.379 84.84,363.901C77.447,366.343 71.614,372.092 69.063,379.448C66.512,386.805 67.534,394.931 71.829,401.426C86.983,424.432 106.293,444.471 128.713,460.413ZM36.082,287.033C36.266,294.948 40.191,302.307 46.661,306.869C53.131,311.432 61.38,312.658 68.897,310.174C70.473,309.67 72.028,309.156 73.546,308.655C83.942,305.219 90.893,295.419 90.698,284.471C90.666,283.317 90.654,282.16 90.654,281.001C90.654,263.236 93.515,245.711 99.023,229.063C102.889,217.255 97.493,204.4 86.357,198.889C84.958,198.186 83.538,197.484 82.12,196.782C75.626,193.568 68.058,193.329 61.375,196.127C54.692,198.926 49.552,204.485 47.285,211.367C39.867,233.681 36,257.179 36,281C36,283.018 36.028,285.029 36.082,287.033Z" style="fill:url(#_Linear2);"/>
        </g>
    </g>
    <defs>
        <linearGradient id="_Linear1" x1="0" y1="0" x2="1" y2="0" gradientUnits="userSpaceOnUse" gradientTransform="matrix(-300.063,282.8,-282.8,-300.063,251.496,101.601)"><stop offset="0" style="stop-color:rgb(235,74,130);stop-opacity:1"/><stop offset="1" style="stop-color:rgb(206,0,72);stop-opacity:1"/></linearGradient>
        <linearGradient id="_Linear2" x1="0" y1="0" x2="1" y2="0" gradientUnits="userSpaceOnUse" gradientTransform="matrix(303,321.496,-321.496,303,108.001,100.504)"><stop offset="0" style="stop-color:rgb(235,74,130);stop-opacity:1"/><stop offset="1" style="stop-color:rgb(206,0,72);stop-opacity:1"/></linearGradient>
    </defs>
</svg>
