<?xml version="1.0" encoding="UTF-8" standalone="no"?><!DOCTYPE svg PUBLIC "-//W3C//DTD SVG 1.1//EN" "http://www.w3.org/Graphics/SVG/1.1/DTD/svg11.dtd"><svg width="100%" height="100%" viewBox="0 0 512 512" version="1.1" xmlns="http://www.w3.org/2000/svg" xmlns:xlink="http://www.w3.org/1999/xlink" xml:space="preserve" xmlns:serif="http://www.serif.com/" style="fill-rule:evenodd;clip-rule:evenodd;stroke-linejoin:round;stroke-miterlimit:2;"><path d="M445.696,96.143l0,-3.002c0,-14.967 -12.132,-27.099 -27.099,-27.099l-209.044,0c-0,0 -17.579,-0.774 -31.261,4.32c-11.686,4.352 -19.552,14.45 -21.94,16.839l-90.048,90.048l258.752,50.105l120.64,-131.211Z" style="fill:#aaff2c;"/><path d="M437.758,343.296c5.083,-5.082 7.938,-11.975 7.938,-19.162l0,-230.993c0,-7.339 -2.917,-13.997 -7.656,-18.877l-133.601,121.6l0.691,225.286l19.926,24.85c-0,-0 87.355,-77.355 112.702,-102.704Z" style="fill:#f60056;"/><path d="M325.056,177.249l-258.752,-0l-0,221.317c-0,26.191 21.23,47.424 47.422,47.425c77.151,0.003 211.33,0.009 211.33,0.009l-0,-268.751Z" style="fill:#f66e02;"/></svg>