<?xml version="1.0" encoding="UTF-8" standalone="no"?><!DOCTYPE svg PUBLIC "-//W3C//DTD SVG 1.1//EN" "http://www.w3.org/Graphics/SVG/1.1/DTD/svg11.dtd"><svg width="100%" height="100%" viewBox="0 0 487 487" version="1.1" xmlns="http://www.w3.org/2000/svg" xmlns:xlink="http://www.w3.org/1999/xlink" xml:space="preserve" style="fill-rule:evenodd;clip-rule:evenodd;stroke-linejoin:round;stroke-miterlimit:2;"><path d="M306.961,252.46l-0,-99.865c-0,-35.06 -28.494,-64.05 -63.461,-64.05c-34.967,-0 -63.46,28.99 -63.46,64.05l0,99.865l-44.813,-0l-0,-99.865c-0,-58.858 46.705,-108.024 105.085,-109.074c1.594,-0.028 4.782,-0.028 6.377,0c58.378,1.05 105.084,50.216 105.084,109.074l0,99.865l-44.812,-0Z" style="fill:#e1ebef;fill-rule:nonzero;"/><path d="M243.631,43.5l0,45.045l-0.131,-0c-34.967,-0 -63.46,28.99 -63.46,64.05l0,99.865l-44.813,-0l-0,-99.865c-0,-58.858 46.705,-108.024 105.085,-109.074c0.826,-0.014 2.081,-0.022 3.319,-0.021Z" style="fill:#b4d2d7;fill-rule:nonzero;"/><path d="M394.809,269.806c0,-13.053 -5.185,-25.571 -14.415,-34.801c-9.23,-9.229 -21.747,-14.414 -34.8,-14.414l-204.188,-0c-13.053,-0 -25.57,5.185 -34.8,14.414c-9.23,9.23 -14.415,21.748 -14.415,34.801l-0,124.479c-0,13.052 5.185,25.571 14.415,34.801c9.23,9.229 21.747,14.414 34.8,14.414l204.188,-0c13.053,-0 25.57,-5.185 34.8,-14.414c9.23,-9.23 14.415,-21.749 14.415,-34.801l0,-124.479Z" style="fill:#ffda44;"/><path d="M243.631,220.591l-102.225,-0c-13.053,-0 -25.57,5.185 -34.8,14.414c-9.23,9.23 -14.415,21.748 -14.415,34.801l-0,124.479c-0,13.052 5.185,25.571 14.415,34.801c9.23,9.229 21.747,14.414 34.8,14.414l102.225,-0l0,-222.909Z" style="fill:#ffb655;"/><path d="M219.024,339.369c-9.321,-7.285 -15.317,-18.632 -15.317,-31.368c0,-21.962 17.831,-39.793 39.793,-39.793c21.962,0 39.793,17.831 39.793,39.793c-0,12.615 -5.883,23.867 -15.054,31.161l0,42.591c0,6.791 -5.513,12.304 -12.304,12.304l-24.607,-0c-6.791,-0 -12.304,-5.513 -12.304,-12.304l-0,-42.384Z"/></svg>