<?xml version="1.0" encoding="UTF-8" standalone="no"?><!DOCTYPE svg PUBLIC "-//W3C//DTD SVG 1.1//EN" "http://www.w3.org/Graphics/SVG/1.1/DTD/svg11.dtd"><svg width="100%" height="100%" viewBox="0 0 487 487" version="1.1" xmlns="http://www.w3.org/2000/svg" xmlns:xlink="http://www.w3.org/1999/xlink" xml:space="preserve" style="fill-rule:evenodd;clip-rule:evenodd;stroke-linejoin:round;stroke-miterlimit:2;"><path d="M331.031,109.448c1.612,7.405 -5.7,17.265 -8.978,19.61c-5.178,3.704 -10.776,5.696 -16.885,4.63c-6.141,-1.072 -16.257,-7.274 -19.069,-14.654c-0.213,-0.558 -0.578,-1.045 -0.878,-1.56c-13.312,-22.91 -40.098,-36.203 -67.319,-30.787c-34.295,6.824 -56.583,40.816 -49.741,75.202l19.487,97.945l-43.952,8.745l-19.487,-97.945c-11.486,-57.726 24.728,-115.061 81.781,-127.482c1.557,-0.339 4.684,-0.962 6.254,-1.245c49.962,-9.01 98.369,19.381 117.701,64.888c0.373,0.878 0.882,1.718 1.086,2.653Z" style="fill:#e1ebef;fill-rule:nonzero;"/><path d="M209.241,42.483l8.79,44.179l-0.129,0.025c-34.295,6.824 -56.583,40.816 -49.741,75.202l19.487,97.945l-43.952,8.745l-19.487,-97.945c-11.486,-57.726 24.728,-115.061 81.781,-127.482c0.807,-0.176 2.036,-0.428 3.251,-0.669Z" style="fill:#b4d2d7;fill-rule:nonzero;"/><path d="M394.809,269.806c0,-13.053 -5.185,-25.571 -14.415,-34.801c-9.23,-9.229 -21.747,-14.414 -34.8,-14.414l-204.188,-0c-13.053,-0 -25.57,5.185 -34.8,14.414c-9.23,9.23 -14.415,21.748 -14.415,34.801l-0,124.479c-0,13.052 5.185,25.571 14.415,34.801c9.23,9.229 21.747,14.414 34.8,14.414l204.188,-0c13.053,-0 25.57,-5.185 34.8,-14.414c9.23,-9.23 14.415,-21.749 14.415,-34.801l0,-124.479Z" style="fill:#ffda44;"/><path d="M243.631,220.591l-102.225,-0c-13.053,-0 -25.57,5.185 -34.8,14.414c-9.23,9.23 -14.415,21.748 -14.415,34.801l-0,124.479c-0,13.052 5.185,25.571 14.415,34.801c9.23,9.229 21.747,14.414 34.8,14.414l102.225,-0l0,-222.909Z" style="fill:#ffb655;"/><path d="M219.024,339.369c-9.321,-7.285 -15.317,-18.632 -15.317,-31.368c0,-21.962 17.831,-39.793 39.793,-39.793c21.962,0 39.793,17.831 39.793,39.793c-0,12.615 -5.883,23.867 -15.054,31.161l0,42.591c0,6.791 -5.513,12.304 -12.304,12.304l-24.607,-0c-6.791,-0 -12.304,-5.513 -12.304,-12.304l-0,-42.384Z"/></svg>