<?xml version="1.0" encoding="UTF-8" standalone="no"?><!DOCTYPE svg PUBLIC "-//W3C//DTD SVG 1.1//EN" "http://www.w3.org/Graphics/SVG/1.1/DTD/svg11.dtd"><svg width="100%" height="100%" viewBox="0 0 512 512" version="1.1" xmlns="http://www.w3.org/2000/svg" xmlns:xlink="http://www.w3.org/1999/xlink" xml:space="preserve" xmlns:serif="http://www.serif.com/" style="fill-rule:evenodd;clip-rule:evenodd;stroke-linejoin:round;stroke-miterlimit:2;"><path d="M256,106c-82.709,0 -150,67.289 -150,150c-0,82.71 67.291,150 150,150c82.71,0 150,-67.29 150,-150c0,-82.711 -67.289,-150 -150,-150Z" style="fill:#009f98;fill-rule:nonzero;"/><path d="M256,369.879c-62.793,0 -113.879,-51.085 -113.879,-113.879c-0,-62.794 51.086,-113.88 113.879,-113.88c62.793,-0 113.879,51.086 113.879,113.88c0,62.793 -51.086,113.879 -113.879,113.879Z" style="fill:#00b9b2;fill-rule:nonzero;"/><path d="M256,195.799c-33.195,0 -60.2,27.006 -60.2,60.201c0,33.194 27.005,60.201 60.2,60.201c33.195,-0 60.201,-27.006 60.201,-60.201c-0,-33.196 -27.005,-60.201 -60.201,-60.201Z" style="fill-rule:nonzero;"/><path d="M297.503,178.83c-19.665,0 -35.665,15.999 -35.665,35.666c-0,19.665 16,35.665 35.665,35.665c19.667,0 35.666,-16 35.666,-35.665c-0,-19.667 -15.999,-35.666 -35.666,-35.666Z" style="fill:#fff;fill-rule:nonzero;"/><path d="M215.365,277.07c-10.788,0 -19.565,8.777 -19.565,19.565c0,10.789 8.777,19.566 19.565,19.566c10.788,-0 19.565,-8.777 19.565,-19.566c-0,-10.788 -8.776,-19.565 -19.565,-19.565Z" style="fill:#fff;fill-rule:nonzero;"/></svg>