<svg height="512" viewBox="0 0 32 32" width="512" xmlns="http://www.w3.org/2000/svg"><g id="Ikon"><path d="m23 9h-3a1.001 1.001 0 0 1 -1-1v-2.89258a3.08447 3.08447 0 0 0 -2.50342-3.06742 3.0021 3.0021 0 0 0 -3.49658 2.96v3a1.001 1.001 0 0 1 -1 1h-3a3.00328 3.00328 0 0 0 -3 3v5h20v-5a3.00328 3.00328 0 0 0 -3-3z" fill="#e53935"/><path d="m27.8 28.85a2.97524 2.97524 0 0 1 -2.36 1.15h-18.88a3.00234 3.00234 0 0 1 -2.91-3.73l2.35-10.27h20l2.35 10.27a2.99629 2.99629 0 0 1 -.55 2.58z" fill="#ffa000"/><g fill="#ef6c00"><path d="m17 24v6h-2v-6a1 1 0 0 1 2 0z"/><path d="m22.87 30h-2.02l-.84-5.86a.99984.99984 0 1 1 1.98-.28z"/><path d="m11.99 24.14-.84 5.86h-2.02l.88-6.14a.99984.99984 0 0 1 1.98.28z"/></g></g></svg>