<?xml version="1.0" encoding="UTF-8" standalone="no"?><!DOCTYPE svg PUBLIC "-//W3C//DTD SVG 1.1//EN" "http://www.w3.org/Graphics/SVG/1.1/DTD/svg11.dtd"><svg width="100%" height="100%" viewBox="0 0 512 512" version="1.1" xmlns="http://www.w3.org/2000/svg" xmlns:xlink="http://www.w3.org/1999/xlink" xml:space="preserve" xmlns:serif="http://www.serif.com/" style="fill-rule:evenodd;clip-rule:evenodd;stroke-linejoin:round;stroke-miterlimit:2;"><path d="M255.742,28.77l-110.605,187.196l-31.352,-14.642c-1.735,-8.963 -2.655,-18.218 -2.655,-27.688c0,-79.923 64.721,-144.728 144.612,-144.866Z" style="fill:#077ccc;fill-rule:nonzero;"/><path d="M255.742,28.77c0.086,-0 0.171,-0.003 0.257,-0.003c80.009,-0 144.87,64.861 144.87,144.87c0,9.47 -0.92,18.725 -2.654,27.688l-142.217,66.414l-110.863,-51.773c-3.268,-13.391 -5.032,-27.603 -5.032,-42.33c0.001,-79.902 51.75,-144.691 115.639,-144.866Z" style="fill:#09a1e5;fill-rule:nonzero;"/><path d="M113.785,201.324l47.086,0l-0,281.909c-80.01,0 -144.871,-64.861 -144.871,-144.87c0,-63.525 40.89,-117.495 97.785,-137.039Z" style="fill:#ff3187;fill-rule:nonzero;"/><path d="M114.662,205.478l141.339,53.795l-0,188.346c-25.45,22.179 -58.72,35.614 -95.131,35.614c-64.007,0 -115.897,-64.861 -115.897,-144.87c-0.001,-59.477 28.679,-110.572 69.689,-132.885Z" style="fill:#ff5178;fill-rule:nonzero;"/><path d="M160.869,193.494l-46.208,11.983c-0.31,-1.378 -0.608,-2.76 -0.877,-4.154c14.764,-5.07 30.602,-7.829 47.085,-7.829Z" style="fill:#622876;fill-rule:nonzero;"/><path d="M160.869,193.494c36.41,0 69.679,13.435 95.13,35.614l-47.085,81.567c-47.093,-16.178 -83.205,-55.949 -94.252,-105.197c14.158,-7.703 29.781,-11.984 46.207,-11.984Z" style="fill:#962b7c;fill-rule:nonzero;"/><path d="M351.1,483.233c-36.398,-0.007 -69.655,-13.441 -95.099,-35.613l-0,-26.499l95.099,62.112Z" style="fill:#ffb24a;fill-rule:nonzero;"/><path d="M256.001,421.12l-0,-161.847l142.215,-57.948c56.893,19.545 97.784,73.515 97.784,137.039c0,80.009 -64.86,144.869 -144.869,144.869c-39.411,-0.012 -74.194,-24.579 -95.13,-62.113Z" style="fill:#ffd23b;fill-rule:nonzero;"/><path d="M255.999,229.108c25.45,-22.179 58.721,-35.614 95.131,-35.614l-95.131,65.126l0,-29.512Z" style="fill:#49b296;fill-rule:nonzero;"/><path d="M351.13,193.494c16.484,0 32.322,2.759 47.086,7.831c-9.903,51.161 -46.718,92.721 -95.13,109.351l-36.514,-71.371c21.145,-28.192 51.203,-45.81 84.558,-45.811Z" style="fill:#89c247;fill-rule:nonzero;"/><path d="M208.914,310.675c8.829,3.033 18.048,5.232 27.555,6.515l30.1,120.23c-3.349,3.573 -6.875,6.981 -10.568,10.198c-30.477,-26.558 -49.741,-65.656 -49.741,-109.256c-0,-9.469 0.919,-18.724 2.654,-27.687Z" style="fill:#ff7169;fill-rule:nonzero;"/><path d="M236.469,317.191c6.388,0.862 12.907,1.315 19.531,1.315c16.484,-0 32.322,-2.759 47.085,-7.83c1.736,8.963 2.655,18.217 2.655,27.688c0,38.315 -14.88,73.15 -39.171,99.056c-19.431,-25.907 -31.336,-60.741 -31.336,-99.056c0,-7.193 0.426,-14.261 1.236,-21.173Z" style="fill:#ff9259;fill-rule:nonzero;"/><path d="M255.999,229.108c3.694,3.218 7.223,6.623 10.572,10.196l-30.102,77.886c-9.507,-1.284 -18.726,-3.482 -27.555,-6.515c6.252,-32.303 23.229,-60.778 47.085,-81.567Z" style="fill:#2d2570;fill-rule:nonzero;"/><path d="M303.085,310.676c-14.763,5.071 -30.601,7.83 -47.085,7.83c-6.624,-0 -13.143,-0.453 -19.531,-1.315c3.504,-29.907 14.318,-56.842 30.102,-77.886c18.285,19.504 31.23,44.07 36.514,71.371Z" style="fill:#2d3e53;fill-rule:nonzero;"/></svg>