<?xml version="1.0" encoding="UTF-8" standalone="no"?><!DOCTYPE svg PUBLIC "-//W3C//DTD SVG 1.1//EN" "http://www.w3.org/Graphics/SVG/1.1/DTD/svg11.dtd"><svg width="100%" height="100%" viewBox="0 0 512 512" version="1.1" xmlns="http://www.w3.org/2000/svg" xmlns:xlink="http://www.w3.org/1999/xlink" xml:space="preserve" xmlns:serif="http://www.serif.com/" style="fill-rule:evenodd;clip-rule:evenodd;stroke-linejoin:round;stroke-miterlimit:2;"><g><g id="_72_Dice"><path d="M274.043,250.574l170.136,-107.303c-6.431,-10.01 -15.167,-18.334 -25.475,-24.276l-125.417,-72.389c-23.072,-13.324 -51.501,-13.324 -74.574,0l-125.417,72.389c-9.054,5.231 -16.904,12.31 -23.041,20.776l175.993,110.804c8.499,5.327 19.296,5.327 27.795,-0.001Zm-47.27,-115.845c-0.006,-16.142 13.076,-29.231 29.218,-29.237c16.142,-0.005 29.232,13.076 29.237,29.219c0.005,16.142 -13.076,29.231 -29.218,29.237l-0.01,0c-16.138,-0.001 -29.223,-13.081 -29.227,-29.219Z" style="fill:#808080;fill-rule:nonzero;"/><path d="M254.343,265.188c-4.978,-0.766 -9.747,-2.543 -14.013,-5.221l-175.912,-110.759c-5.529,10.622 -8.416,22.421 -8.418,34.394l0,144.823c0.007,26.642 14.223,51.259 37.296,64.58l125.417,72.407c10.851,6.272 23.109,9.703 35.639,9.975l0,-0.072l-0.009,-210.127Zm-152.98,102.404c-11.693,-8.615 -20.872,-27.85 -20.872,-43.099c0,-15.249 9.223,-21.492 20.918,-13.646c12.053,8.059 22.1,27.812 22.1,43.876c-0,16.065 -10.093,21.779 -22.146,12.869Zm89.654,-42.508c-11.695,-8.649 -20.918,-27.848 -20.918,-43.098c-0,-15.25 9.223,-21.491 20.918,-13.647c12.052,8.06 22.09,27.813 22.09,43.923c0,16.108 -10.038,21.733 -22.09,12.822Z" style="fill:#808080;fill-rule:nonzero;"/><path d="M449.418,153.023l-169.456,106.944c-4.41,2.774 -9.357,4.583 -14.515,5.311l0,209.536c9.812,-1.25 19.276,-4.444 27.84,-9.393l125.417,-72.416c23.077,-13.322 37.293,-37.943 37.296,-64.589l0,-144.814c-0.003,-10.544 -2.247,-20.967 -6.582,-30.579Zm-135.805,279.14c-11.694,7.808 -20.918,1.603 -20.918,-13.647c0,-15.25 9.224,-34.449 20.918,-43.097c12.053,-8.955 22.091,-3.286 22.091,12.823c-0,16.108 -10.037,35.871 -22.091,43.921Zm-0,-106.237c-11.694,7.808 -20.918,1.603 -20.918,-13.647c0,-15.25 9.224,-34.448 20.918,-43.098c12.053,-8.919 22.082,-3.286 22.082,12.787c0,16.072 -10.028,35.909 -22.082,43.958Zm98.062,42.785c-11.695,7.809 -20.918,1.612 -20.918,-13.647c0,-15.258 9.223,-34.448 20.918,-43.098c12.053,-8.91 22.091,-3.286 22.091,12.823c-0,16.11 -10.038,35.872 -22.091,43.922Zm0,-106.237c-11.695,7.853 -20.918,1.586 -20.918,-13.638c0,-15.222 9.223,-34.447 20.918,-43.098c12.053,-8.954 22.091,-3.277 22.091,12.823c-0,16.1 -10.038,35.863 -22.091,43.913Z" style="fill:#808080;fill-rule:nonzero;"/></g></g></svg>