<?xml version="1.0" encoding="UTF-8" standalone="no"?><!DOCTYPE svg PUBLIC "-//W3C//DTD SVG 1.1//EN" "http://www.w3.org/Graphics/SVG/1.1/DTD/svg11.dtd"><svg width="100%" height="100%" viewBox="0 0 512 512" version="1.1" xmlns="http://www.w3.org/2000/svg" xmlns:xlink="http://www.w3.org/1999/xlink" xml:space="preserve" xmlns:serif="http://www.serif.com/" style="fill-rule:evenodd;clip-rule:evenodd;stroke-linejoin:round;stroke-miterlimit:2;"><path d="M445.139,181.295l40.13,-40.13c24.828,-24.828 24.828,-65.083 -0,-89.911l-24.522,-24.522c-24.828,-24.828 -65.082,-24.828 -89.911,-0l-40.13,40.13l114.433,114.433Z" style="fill:url(#_Linear1);fill-rule:nonzero;"/><path d="M114.317,283.248l-66.635,66.635c-6.488,6.488 -11.082,14.624 -13.286,23.531l-17.632,72.579c-3.919,15.837 29.406,54.358 45.244,50.439l76.577,-18.827c8.907,-2.203 17.043,-6.797 23.531,-13.286l66.636,-66.636l-114.435,-114.435Z" style="fill:url(#_Linear2);fill-rule:nonzero;"/><path d="M366.258,219.852c-0.399,0.487 -0.827,0.961 -1.283,1.417l-227.439,227.44c5.101,2.547 9.884,5.946 14.137,10.2c1.682,1.682 3.231,3.446 4.646,5.28c1.362,1.766 3.972,1.92 5.559,0.353c0.079,-0.077 0.157,-0.154 0.234,-0.233l224.302,-224.301l-20.156,-20.156Z" style="fill:url(#_Linear3);fill-rule:nonzero;"/><path d="M58.291,450.62c-11.104,-11.102 -25.163,-17.428 -39.643,-19.013l-6.49,26.231c-6.273,25.35 16.656,48.28 42.008,42.007l23.453,-5.804c-0.825,-15.796 -7.263,-31.355 -19.328,-43.421Z" style="fill:#565656;fill-rule:nonzero;"/><path d="M285.25,112.318l114.433,114.433l-237.568,237.568c-0.078,0.079 -0.155,0.156 -0.235,0.233c-1.589,1.569 -4.213,1.389 -5.578,-0.378c-1.41,-1.824 -2.952,-3.58 -4.627,-5.255c-7.559,-7.559 -16.79,-12.421 -26.502,-14.594c-4.565,-1.021 -8.146,-4.602 -9.167,-9.167c-2.172,-9.712 -7.034,-18.944 -14.594,-26.502c-7.56,-7.56 -16.791,-12.422 -26.503,-14.594c-4.564,-1.021 -8.145,-4.602 -9.166,-9.167c-2.173,-9.712 -7.035,-18.944 -14.594,-26.503c-1.066,-1.065 -2.161,-2.075 -3.284,-3.033c-1.649,-1.403 -1.744,-3.913 -0.213,-5.444l237.598,-237.597Z" style="fill:url(#_Linear4);fill-rule:nonzero;"/><path d="M339.798,53.979l-36.284,36.284l117.775,117.775l36.284,-36.284l-117.775,-117.775Z" style="fill:url(#_Linear5);"/><defs><linearGradient id="_Linear1" x1="0" y1="0" x2="1" y2="0" gradientUnits="userSpaceOnUse" gradientTransform="matrix(386,29,-29,386,237,81)"><stop offset="0" style="stop-color:#fe646f;stop-opacity:1"/><stop offset="0.57" style="stop-color:#fb2b3a;stop-opacity:1"/><stop offset="1" style="stop-color:#c41926;stop-opacity:1"/></linearGradient><linearGradient id="_Linear2" x1="0" y1="0" x2="1" y2="0" gradientUnits="userSpaceOnUse" gradientTransform="matrix(148.45,0,0,148.45,5.96431,288.298)"><stop offset="0" style="stop-color:#ffdcbd;stop-opacity:1"/><stop offset="0" style="stop-color:#ffdcbd;stop-opacity:1"/><stop offset="1" style="stop-color:#ffa9b1;stop-opacity:1"/></linearGradient><linearGradient id="_Linear3" x1="0" y1="0" x2="1" y2="0" gradientUnits="userSpaceOnUse" gradientTransform="matrix(414.925,0,0,414.925,8.64378,269.169)"><stop offset="0" style="stop-color:#ffe177;stop-opacity:1"/><stop offset="0.57" style="stop-color:#feb137;stop-opacity:1"/><stop offset="1" style="stop-color:#fe646f;stop-opacity:1"/></linearGradient><linearGradient id="_Linear4" x1="0" y1="0" x2="1" y2="0" gradientUnits="userSpaceOnUse" gradientTransform="matrix(434.729,0,0,434.729,18.2523,269.166)"><stop offset="0" style="stop-color:#ffe177;stop-opacity:1"/><stop offset="0.57" style="stop-color:#feb137;stop-opacity:1"/><stop offset="1" style="stop-color:#fe646f;stop-opacity:1"/></linearGradient><linearGradient id="_Linear5" x1="0" y1="0" x2="1" y2="0" gradientUnits="userSpaceOnUse" gradientTransform="matrix(-29.8893,29.166,-29.166,-29.8893,397.275,120.539)"><stop offset="0" style="stop-color:#eee1d9;stop-opacity:1"/><stop offset="1" style="stop-color:#faf7f5;stop-opacity:1"/></linearGradient></defs></svg>