<?xml version="1.0" encoding="UTF-8" standalone="no"?>
<!DOCTYPE svg PUBLIC "-//W3C//DTD SVG 1.1//EN" "http://www.w3.org/Graphics/SVG/1.1/DTD/svg11.dtd">
<svg width="100%" height="100%" viewBox="0 0 512 512" version="1.1" xmlns="http://www.w3.org/2000/svg" xmlns:xlink="http://www.w3.org/1999/xlink" xml:space="preserve" style="fill-rule:evenodd;clip-rule:evenodd;stroke-linejoin:round;stroke-miterlimit:2;">
    <g transform="matrix(1,0,0,2.07618,0,-47.4994)">
        <path d="M361.931,97.103L319.308,54.48C312.685,47.857 303.704,44.137 294.339,44.137L220.689,44.137L220.689,97.103L361.931,97.103Z" style="fill:rgb(0,170,240);fill-rule:nonzero;"/>
    </g>
    <g transform="matrix(1,0,0,2.07618,0,-47.4994)">
        <path d="M308.966,97.103L266.343,54.48C259.72,47.857 250.739,44.137 241.374,44.137L167.724,44.137L167.724,97.103L308.966,97.103Z" style="fill:rgb(0,150,220);fill-rule:nonzero;"/>
    </g>
    <g transform="matrix(1,0,0,2.07616,0,-47.4996)">
        <path d="M282.483,97.103L239.86,54.481C233.237,47.858 224.256,44.138 214.891,44.138L141.241,44.138L141.241,97.104L282.483,97.104L282.483,97.103Z" style="fill:rgb(0,170,240);fill-rule:nonzero;"/>
    </g>
    <path d="M235.659,150.069C228.636,150.069 214.899,141.793 209.932,136.828L175.065,57.48C168.443,50.857 162.462,44.137 153.097,44.137L17.655,44.137C7.904,44.138 0,52.042 0,61.793L0,441.379C0,456.005 11.857,467.862 26.483,467.862L485.517,467.862C500.143,467.862 512,456.005 512,441.379L512,176.586C512,161.96 500.143,150.069 485.517,150.069L235.659,150.069Z" style="fill:rgb(0,195,255);fill-rule:nonzero;"/>
    <path d="M485.517,432.552L26.483,432.552C11.857,432.552 0,420.695 0,406.069L0,441.379C0,456.005 11.857,467.862 26.483,467.862L485.517,467.862C500.143,467.862 512,456.005 512,441.379L512,406.069C512,420.695 500.143,432.552 485.517,432.552Z" style="fill:rgb(0,170,240);fill-rule:nonzero;"/>
    <g>
        <g transform="matrix(1,0,0,1,-11,61)">
            <path d="M454.621,150.069L472.276,150.069C479.589,150.069 485.517,144.14 485.517,136.828C485.517,129.515 479.588,123.587 472.276,123.587L454.621,123.587C447.308,123.587 441.38,129.516 441.38,136.828C441.379,144.14 447.308,150.069 454.621,150.069Z" style="fill:rgb(125,215,255);fill-rule:nonzero;"/>
        </g>
        <g transform="matrix(1,0,0,1,-11,61)">
            <path d="M295.724,150.069L410.483,150.069C417.796,150.069 423.724,144.14 423.724,136.828C423.724,129.515 417.795,123.587 410.483,123.587L295.724,123.587C288.411,123.587 282.483,129.516 282.483,136.828C282.483,144.14 288.412,150.069 295.724,150.069Z" style="fill:rgb(125,215,255);fill-rule:nonzero;"/>
        </g>
    </g>
</svg>
