<?xml version="1.0" encoding="UTF-8" standalone="no"?><!DOCTYPE svg PUBLIC "-//W3C//DTD SVG 1.1//EN" "http://www.w3.org/Graphics/SVG/1.1/DTD/svg11.dtd"><svg width="100%" height="100%" viewBox="0 0 512 512" version="1.1" xmlns="http://www.w3.org/2000/svg" xmlns:xlink="http://www.w3.org/1999/xlink" xml:space="preserve" xmlns:serif="http://www.serif.com/" style="fill-rule:evenodd;clip-rule:evenodd;stroke-linejoin:round;stroke-miterlimit:2;"><path d="M483.502,145.062c0,-61.573 -38.354,-111.562 -85.594,-111.562l-286.312,0c-47.24,0 -85.594,49.989 -85.594,111.562l-0,223.125c-0,61.573 38.354,111.563 85.594,111.563l286.312,-0c47.24,-0 85.594,-49.99 85.594,-111.563l0,-223.125Z" style="fill:#222;"/><g><path d="M503.502,67.015c0,-29.536 -23.979,-53.515 -53.515,-53.515l-385.472,0c-29.536,0 -53.515,23.979 -53.515,53.515l-0,379.47c-0,29.536 23.979,53.515 53.515,53.515l385.472,0c29.536,0 53.515,-23.979 53.515,-53.515l0,-379.47Zm-40.502,8.285c0,-11.204 -9.096,-20.3 -20.3,-20.3l-372.4,0c-11.204,0 -20.3,9.096 -20.3,20.3l0,365.4c0,11.204 9.096,20.3 20.3,20.3l372.4,-0c11.204,-0 20.3,-9.096 20.3,-20.3l0,-365.4Z" style="fill:url(#_Linear1);"/></g><defs><linearGradient id="_Linear1" x1="0" y1="0" x2="1" y2="0" gradientUnits="userSpaceOnUse" gradientTransform="matrix(-435,427,-427,-435,472,42)"><stop offset="0" style="stop-color:#1af6ef;stop-opacity:1"/><stop offset="1" style="stop-color:#028781;stop-opacity:1"/></linearGradient></defs></svg>