<?xml version="1.0" encoding="UTF-8" standalone="no"?><!DOCTYPE svg PUBLIC "-//W3C//DTD SVG 1.1//EN" "http://www.w3.org/Graphics/SVG/1.1/DTD/svg11.dtd"><svg width="100%" height="100%" viewBox="0 0 512 512" version="1.1" xmlns="http://www.w3.org/2000/svg" xmlns:xlink="http://www.w3.org/1999/xlink" xml:space="preserve" style="fill-rule:evenodd;clip-rule:evenodd;stroke-linejoin:round;stroke-miterlimit:2;"><path d="M302.282,292.646l-84.04,-89.459l0,-135.533c0,-7.129 2.832,-13.965 7.872,-19.004c5.038,-5.041 11.875,-7.873 19.002,-7.873l21.767,0c7.127,0 13.964,2.832 19.003,7.873c5.04,5.039 7.873,11.875 7.873,19.004l-0,150.364l150.365,0c7.127,0 13.964,2.833 19.004,7.873c5.04,5.041 7.872,11.876 7.872,19.002l0,20.88c0,7.127 -2.832,13.963 -7.872,19.003c-5.041,5.04 -11.877,7.87 -19.004,7.87l-141.842,0Z" style="fill:#e6e6e6;fill-rule:nonzero;"/><path d="M218.243,139.144l75.516,75.516l0,3.361l3.361,-0l74.627,74.628l-77.988,-0l0,110.664l-75.517,-74.079l0,-36.585l-34.241,-0l-72.407,-74.628l106.648,-0l0,-78.878Z" style="fill:#bfbfbf;fill-rule:nonzero;"/><path d="M218.243,292.988l75.516,75.517l0,78.851c0,6.33 -2.514,12.4 -6.99,16.876c-4.476,4.476 -10.546,6.99 -16.877,6.99l-27.761,0c-6.336,0 -12.411,-2.516 -16.892,-6.996c-4.48,-4.48 -6.996,-10.556 -6.996,-16.892l-0,-154.347Zm-74.968,-74.966l74.628,74.628l-153.013,0c-13.193,0 -23.889,-10.695 -23.889,-23.889l0,-26.85c0,-13.194 10.696,-23.889 23.889,-23.889l78.385,0Z" style="fill:#999;fill-rule:nonzero;"/></svg>