<?xml version="1.0" encoding="UTF-8" standalone="no"?><!DOCTYPE svg PUBLIC "-//W3C//DTD SVG 1.1//EN" "http://www.w3.org/Graphics/SVG/1.1/DTD/svg11.dtd"><svg width="100%" height="100%" viewBox="0 0 512 512" version="1.1" xmlns="http://www.w3.org/2000/svg" xmlns:xlink="http://www.w3.org/1999/xlink" xml:space="preserve" style="fill-rule:evenodd;clip-rule:evenodd;stroke-linejoin:round;stroke-miterlimit:2;"><path d="M74.291,414.761c-4.688,-4.688 -7.322,-11.047 -7.322,-17.678c0,-6.63 2.634,-12.989 7.323,-17.677c30.393,-30.393 89.319,-89.319 89.319,-89.319c4.314,-4.313 15.871,-16.261 15.871,-16.261l17.238,-17.824l-17.237,-17.827c0,0 -11.558,-11.95 -15.872,-16.264c0,-0 -58.927,-58.927 -89.32,-89.32c-9.763,-9.763 -9.763,-25.593 0,-35.356c7.271,-7.27 15.674,-15.674 22.945,-22.944c4.688,-4.688 11.047,-7.322 17.677,-7.322c6.631,-0 12.99,2.634 17.678,7.322c30.393,30.393 89.318,89.32 89.318,89.32c4.234,4.233 15.964,15.957 15.964,15.957l18.13,18.121l18.128,-18.124c-0,-0 11.723,-11.722 15.955,-15.954c0,0 58.927,-58.927 89.32,-89.32c9.763,-9.763 25.592,-9.763 35.355,-0c7.271,7.27 15.674,15.674 22.945,22.944c9.763,9.763 9.763,25.593 -0,35.356c-30.393,30.393 -89.32,89.32 -89.32,89.32c-4.41,4.409 -15.783,16.621 -15.783,16.621l-16.255,17.47l16.256,17.467c0,0 11.373,12.209 15.782,16.618c0,0 58.927,58.926 89.32,89.319c4.688,4.688 7.322,11.047 7.322,17.677c0,6.631 -2.634,12.99 -7.322,17.678c-7.271,7.271 -15.674,15.674 -22.945,22.945c-9.763,9.763 -25.592,9.763 -35.355,-0c-30.393,-30.394 -89.32,-89.321 -89.32,-89.321c-4.163,-4.162 -15.692,-16.034 -15.692,-16.034l-18.39,-18.933l-18.394,18.929c-0,0 -11.537,11.875 -15.701,16.039c0,-0 -58.925,58.926 -89.318,89.319c-4.688,4.689 -11.047,7.323 -17.678,7.323c-6.63,-0 -12.989,-2.634 -17.677,-7.323c-7.271,-7.27 -15.674,-15.673 -22.945,-22.944Z" style="fill:#bfbfbf;fill-rule:nonzero;"/><path d="M104.037,68.78c3.305,-1.809 7.041,-2.782 10.876,-2.782c6.01,0 11.773,2.388 16.022,6.637l90.974,90.976c4.234,4.233 15.964,15.957 15.964,15.957l29.907,28.619c-0,0 -0.012,0.012 -0.036,0.036c-6.493,6.394 -16.935,6.331 -23.351,-0.14c-11.773,-11.874 -28.27,-28.513 -28.27,-28.513c0,-0 -11.73,-11.724 -15.963,-15.958l-90.975,-90.976c-1.538,-1.537 -3.274,-2.831 -5.148,-3.856Zm282.17,-0.007c8.602,-4.711 19.613,-3.423 26.898,3.861l26.257,26.258c8.849,8.848 8.849,23.194 0,32.042l-90.976,90.977c-4.41,4.409 -15.783,16.621 -15.783,16.621l-16.255,17.47l16.256,17.467c0,0 11.373,12.209 15.782,16.618l90.976,90.975c4.249,4.249 6.636,10.012 6.637,16.021c-0,6.01 -2.388,11.773 -6.637,16.022l-26.257,26.257c-7.284,7.284 -18.293,8.572 -26.895,3.863c1.847,-1.011 3.582,-2.298 5.145,-3.861l26.257,-26.258c4.25,-4.249 6.637,-10.012 6.637,-16.021c-0,-6.009 -2.388,-11.772 -6.637,-16.021l-90.976,-90.975c-4.409,-4.409 -15.781,-16.618 -15.781,-16.618l-16.257,-17.468l16.255,-17.469c0,-0 11.374,-12.212 15.783,-16.622l90.977,-90.976c8.848,-8.848 8.848,-23.194 -0,-32.043l-26.258,-26.257c-1.564,-1.564 -3.3,-2.852 -5.148,-3.863Zm-119.538,233.416l-29.059,30.158c-0,0 -11.537,11.875 -15.701,16.039l-90.974,90.976c-4.249,4.249 -10.012,6.636 -16.022,6.636c-3.834,0 -7.568,-0.972 -10.873,-2.779c1.873,-1.025 3.608,-2.319 5.145,-3.856l90.975,-90.976c4.163,-4.163 15.7,-16.038 15.7,-16.038c-0,0 17.641,-17.979 29.534,-30.099c2.8,-2.854 6.626,-4.467 10.624,-4.478c3.998,-0.012 7.834,1.579 10.651,4.416c0,0 0,0.001 0,0.001Z" style="fill:#e6e6e6;fill-rule:nonzero;"/><path d="M125.789,443.217c-3.305,1.809 -7.04,2.781 -10.876,2.781c-6.009,0 -11.772,-2.387 -16.021,-6.636l-26.257,-26.257c-4.249,-4.249 -6.636,-10.012 -6.636,-16.022c-0,-6.009 2.387,-11.772 6.636,-16.021l90.976,-90.975c4.314,-4.313 15.871,-16.261 15.871,-16.261l17.238,-17.824l-17.237,-17.827c0,0 -11.558,-11.95 -15.872,-16.264l-90.976,-90.977c-8.848,-8.848 -8.848,-23.194 -0,-32.042l26.257,-26.257c4.249,-4.25 10.012,-6.637 16.021,-6.637c3.836,0 7.571,0.973 10.876,2.781c-1.873,1.025 -3.608,2.319 -5.145,3.856l-26.257,26.257c-8.848,8.848 -8.848,23.194 0,32.042l90.977,90.977c4.313,4.314 15.871,16.264 15.871,16.264l17.237,17.827l-17.238,17.824c-0,0 -11.557,11.948 -15.87,16.261l-90.977,90.975c-4.249,4.249 -6.636,10.012 -6.636,16.021c0,6.01 2.387,11.773 6.636,16.022l26.257,26.257c1.537,1.537 3.272,2.83 5.145,3.855Zm130.211,-245.702l18.131,-17.95c-0,-0 11.723,-11.722 15.955,-15.954l90.977,-90.977c7.284,-7.284 18.295,-8.572 26.897,-3.861c-1.846,1.011 -3.581,2.298 -5.145,3.861l-90.977,90.977c-4.232,4.232 -15.955,15.954 -15.955,15.954l-28.984,29.339l-10.899,-11.389Zm151.96,245.709c-8.602,4.71 -19.613,3.423 -26.897,-3.862l-90.977,-90.977c-4.163,-4.162 -15.692,-16.034 -15.692,-16.034l-18.394,-19.028l10.705,-11.327l29.441,30.355c0,-0 11.53,11.872 15.692,16.034l90.977,90.977c1.564,1.564 3.299,2.851 5.145,3.862Z" style="fill:#999;fill-rule:nonzero;"/></svg>