<?xml version="1.0" encoding="UTF-8" standalone="no"?><!DOCTYPE svg PUBLIC "-//W3C//DTD SVG 1.1//EN" "http://www.w3.org/Graphics/SVG/1.1/DTD/svg11.dtd"><svg width="100%" height="100%" viewBox="0 0 374 374" version="1.1" xmlns="http://www.w3.org/2000/svg" xmlns:xlink="http://www.w3.org/1999/xlink" xml:space="preserve" xmlns:serif="http://www.serif.com/" style="fill-rule:evenodd;clip-rule:evenodd;stroke-linejoin:round;stroke-miterlimit:2;"><path d="M313.888,80.677c5.702,-5.703 5.702,-14.948 -0,-20.651c-0.03,-0.03 -0.059,-0.059 -0.089,-0.089c-5.722,-5.722 -15,-5.722 -20.722,0c-41.059,41.059 -192.1,192.1 -233.14,233.14c-2.745,2.745 -4.287,6.468 -4.287,10.351c-0,3.882 1.542,7.605 4.287,10.35c0.001,0.001 0.002,0.002 0.003,0.003c5.756,5.756 15.088,5.756 20.844,0c41.156,-41.156 192.121,-192.121 233.104,-233.104Z" style="fill:#d9d9d9;"/><path d="M306.655,135.724c16.131,13.987 31.346,31.044 45.245,51.165c-52.68,76.315 -124.31,108.503 -192.975,96.565l30.58,-30.581c34.39,-1.335 62.044,-28.99 63.38,-63.379l53.77,-53.77Zm-239.519,102.341c-16.129,-13.989 -31.342,-31.048 -45.236,-51.176c45.554,-65.947 105.233,-98.964 165,-98.964c9.339,0 18.676,0.806 27.957,2.418l-30.469,30.469c-34.468,1.294 -62.271,29.097 -63.565,63.565l-53.687,53.688Z" style="fill:#d9d9d9;fill-rule:nonzero;"/></svg>