<?xml version="1.0" encoding="UTF-8" standalone="no"?><!DOCTYPE svg PUBLIC "-//W3C//DTD SVG 1.1//EN" "http://www.w3.org/Graphics/SVG/1.1/DTD/svg11.dtd"><svg width="100%" height="100%" viewBox="0 0 512 512" version="1.1" xmlns="http://www.w3.org/2000/svg" xmlns:xlink="http://www.w3.org/1999/xlink" xml:space="preserve" style="fill-rule:evenodd;clip-rule:evenodd;stroke-linejoin:round;stroke-miterlimit:2;"><path d="M453.333,131.111l-372.666,0c-15.831,0 -28.667,-17.614 -28.667,-33.444c-0,-15.831 12.836,-33.445 28.667,-33.445l372.666,0c15.831,0 28.667,17.614 28.667,33.445c0,15.83 -12.836,33.444 -28.667,33.444Z" style="fill:#e5e5e5;fill-rule:nonzero;"/><path d="M453.333,417.778l-372.666,-0c-15.831,-0 -28.667,-17.614 -28.667,-33.445c-0,-15.83 12.836,-33.444 28.667,-33.444l372.666,-0c15.831,-0 28.667,17.614 28.667,33.444c0,15.831 -12.836,33.445 -28.667,33.445Z" style="fill:#999;fill-rule:nonzero;"/><path d="M453.333,274.444l-372.666,0c-15.831,0 -28.667,-17.613 -28.667,-33.444c-0,-15.832 12.836,-33.444 28.667,-33.444l372.666,-0c15.831,-0 28.667,17.613 28.667,33.444c0,15.831 -12.836,33.444 -28.667,33.444Z" style="fill:#bfbfbf;fill-rule:nonzero;"/></svg>