<?xml version="1.0" encoding="UTF-8" standalone="no"?><!DOCTYPE svg PUBLIC "-//W3C//DTD SVG 1.1//EN" "http://www.w3.org/Graphics/SVG/1.1/DTD/svg11.dtd"><svg width="100%" height="100%" viewBox="0 0 512 512" version="1.1" xmlns="http://www.w3.org/2000/svg" xmlns:xlink="http://www.w3.org/1999/xlink" xml:space="preserve" xmlns:serif="http://www.serif.com/" style="fill-rule:evenodd;clip-rule:evenodd;stroke-linejoin:round;stroke-miterlimit:2;"><path d="M132.102,86.378l-42.9,41.948l290.696,297.296l42.9,-41.948l-290.696,-297.296Z" style="fill:#e5e5e5;"/><path d="M256,16c132.46,0 240,107.54 240,240c0,132.46 -107.54,240 -240,240c-132.46,0 -240,-107.54 -240,-240c0,-132.46 107.54,-240 240,-240Zm0,60c99.345,0 180,80.655 180,180c0,99.345 -80.655,180 -180,180c-99.345,0 -180,-80.655 -180,-180c0,-99.345 80.655,-180 180,-180Z" style="fill:#e5e5e5;"/></svg>