<?xml version="1.0" encoding="UTF-8" standalone="no"?><!DOCTYPE svg PUBLIC "-//W3C//DTD SVG 1.1//EN" "http://www.w3.org/Graphics/SVG/1.1/DTD/svg11.dtd"><svg width="100%" height="100%" viewBox="0 0 512 512" version="1.1" xmlns="http://www.w3.org/2000/svg" xmlns:xlink="http://www.w3.org/1999/xlink" xml:space="preserve" xmlns:serif="http://www.serif.com/" style="fill-rule:evenodd;clip-rule:evenodd;stroke-linejoin:round;stroke-miterlimit:2;"><path d="M467.279,413.608l-101.979,-101.987c17.327,-27.585 27.384,-60.189 27.384,-95.179c-0,-98.991 -80.25,-179.229 -179.238,-179.229c-98.988,-0 -179.229,80.238 -179.229,179.229c-0,98.996 80.238,179.226 179.229,179.226c38.079,0 73.349,-11.904 102.371,-32.133l100.766,100.773c7.002,6.994 16.18,10.478 25.348,10.478c9.179,0 18.347,-3.484 25.359,-10.478c13.993,-14.007 13.993,-36.697 -0.011,-50.7Zm-253.833,-76.007c-66.906,-0 -121.15,-54.241 -121.15,-121.151c-0,-66.911 54.244,-121.155 121.15,-121.155c66.911,0 121.151,54.244 121.151,121.155c0,66.91 -54.24,121.151 -121.151,121.151Z" style="fill:#bfbfbf;fill-rule:nonzero;"/></svg>