<?xml version="1.0" encoding="UTF-8" standalone="no"?><!DOCTYPE svg PUBLIC "-//W3C//DTD SVG 1.1//EN" "http://www.w3.org/Graphics/SVG/1.1/DTD/svg11.dtd"><svg width="100%" height="100%" viewBox="0 0 512 512" version="1.1" xmlns="http://www.w3.org/2000/svg" xmlns:xlink="http://www.w3.org/1999/xlink" xml:space="preserve" style="fill-rule:evenodd;clip-rule:evenodd;stroke-linejoin:round;stroke-miterlimit:2;"><path d="M289.102,48.685c-1.358,-6.398 -6.706,-11.179 -13.216,-11.814c-13.231,-1.171 -26.541,-1.171 -39.77,0.029c-6.498,0.634 -11.835,5.405 -13.191,11.791c-3.279,15.308 -9.251,43.432 -12.19,57.278c-0.181,0.849 -10.452,27.106 -10.452,27.106l99.885,57.618l26.195,26.129l56.518,94.645c-0,0 22.392,-10.025 23.153,-10.187c13.842,-2.954 41.967,-8.927 57.28,-12.178c6.399,-1.358 11.179,-6.706 11.814,-13.216c1.171,-13.231 1.171,-26.541 -0.028,-39.77c-0.634,-6.498 -5.406,-11.835 -11.792,-13.191c-15.307,-3.279 -43.432,-9.251 -57.277,-12.19c-4.947,-1.051 -9.031,-4.523 -10.865,-9.236c-0.692,-1.808 -1.433,-3.599 -2.21,-5.375c-2.033,-4.623 -1.601,-9.961 1.152,-14.196c7.698,-11.877 23.363,-35.988 31.893,-49.115c3.564,-5.484 3.162,-12.646 -0.992,-17.699c-8.527,-10.184 -17.939,-19.596 -28.142,-28.101c-5.043,-4.146 -12.191,-4.546 -17.665,-0.99c-13.143,8.506 -37.254,24.17 -49.122,31.882c-4.241,2.754 -9.583,3.188 -14.212,1.151c-1.769,-0.789 -3.559,-1.531 -5.362,-2.237c-4.709,-1.832 -8.176,-5.912 -9.226,-10.854c-2.954,-13.842 -8.927,-41.966 -12.178,-57.28Z" style="fill:#e6e6e6;"/><path d="M411.574,300.099l-199.664,-199.664l-1.175,5.534c-1.051,4.946 -4.522,9.031 -9.235,10.864c-1.809,0.692 -3.6,1.434 -5.375,2.21c-4.624,2.034 -9.961,1.601 -14.197,-1.151c-11.877,-7.699 -35.987,-23.364 -49.114,-31.893c-5.485,-3.564 -12.647,-3.162 -17.7,0.992c-10.184,8.528 -19.595,17.939 -28.1,28.142c-4.147,5.042 -4.547,12.191 -0.991,17.665c8.505,13.143 24.17,37.253 31.882,49.122c2.755,4.24 3.188,9.583 1.152,14.211c-0.79,1.769 -1.532,3.56 -2.238,5.364c-1.832,4.707 -5.912,8.175 -10.853,9.225c-3.524,0.752 -31.903,23.749 -31.903,23.749l205.886,200.469c-0,0 20.67,-25.865 21.316,-28.907c1.051,-4.946 4.522,-9.031 9.235,-10.864c1.809,-0.692 3.6,-1.434 5.375,-2.21c4.624,-2.034 9.961,-1.601 14.197,1.151c11.877,7.699 35.987,23.364 49.114,31.893c5.485,3.564 12.647,3.162 17.7,-0.992c10.184,-8.528 19.595,-17.939 28.1,-28.142c4.147,-5.042 4.547,-12.191 0.991,-17.665c-8.505,-13.143 -24.17,-37.253 -31.882,-49.122c-2.755,-4.24 -3.188,-9.583 -1.152,-14.211c0.79,-1.769 1.532,-3.56 2.238,-5.364c1.832,-4.707 5.912,-8.175 10.853,-9.225l5.54,-1.181Zm-155.574,-109.099c35.874,-0 65,29.126 65,65c0,35.874 -29.126,65 -65,65c-35.874,-0 -65,-29.126 -65,-65c0,-35.874 29.126,-65 65,-65Z" style="fill:#bfbfbf;"/><path d="M100.796,211.822c-14.833,3.16 -38.519,8.189 -52.11,11.075c-6.399,1.359 -11.18,6.707 -11.815,13.217c-1.171,13.231 -1.171,26.541 0.029,39.769c0.634,6.498 5.405,11.836 11.791,13.192c15.308,3.279 43.433,9.251 57.278,12.19c4.946,1.051 9.031,4.522 10.864,9.235c0.692,1.809 1.434,3.6 2.21,5.375c2.034,4.624 1.601,9.961 -1.151,14.197c-7.699,11.877 -23.364,35.987 -31.893,49.114c-3.564,5.485 -3.162,12.647 0.992,17.7c8.528,10.184 17.939,19.595 28.142,28.1c5.042,4.147 12.191,4.547 17.665,0.991c13.143,-8.505 37.253,-24.17 49.122,-31.882c4.24,-2.755 9.583,-3.188 14.211,-1.152c1.769,0.79 3.56,1.532 5.364,2.238c4.707,1.832 8.175,5.912 9.225,10.853c2.954,13.842 8.926,41.967 12.177,57.28c1.359,6.399 6.707,11.18 13.217,11.815c13.231,1.171 26.541,1.171 39.769,-0.029c6.498,-0.634 11.836,-5.405 13.192,-11.791c2.911,-13.59 7.945,-37.283 11.094,-52.115l-199.373,-199.372Z" style="fill:#999;"/></svg>