<?xml version="1.0" encoding="UTF-8" standalone="no"?>
<!DOCTYPE svg PUBLIC "-//W3C//DTD SVG 1.1//EN" "http://www.w3.org/Graphics/SVG/1.1/DTD/svg11.dtd">
<svg width="100%" height="100%" viewBox="0 0 512 512" version="1.1" xmlns="http://www.w3.org/2000/svg" xmlns:xlink="http://www.w3.org/1999/xlink" xml:space="preserve" xmlns:serif="http://www.serif.com/" style="fill-rule:evenodd;clip-rule:evenodd;stroke-linejoin:round;stroke-miterlimit:2;">
    <g>
        <g transform="matrix(0.956175,0,0,0.956175,11.2191,11.2191)">
            <path d="M256,5C242.159,5 230.938,16.221 230.938,30.062L230.938,105.375C230.938,119.216 242.159,130.437 256,130.437C269.841,130.437 281.063,119.216 281.063,105.375C281.063,105.375 281.062,56.68 281.062,56.68C380.039,69.053 456.875,153.725 456.875,256C456.875,366.763 366.763,456.875 256,456.875C145.237,456.875 55.125,366.763 55.125,256C55.125,202.384 76.032,151.952 113.992,113.992C123.779,104.206 123.78,88.336 113.992,78.548C104.206,68.762 88.337,68.762 78.549,78.548C78.549,78.548 78.549,78.548 78.548,78.548C31.119,125.978 5,188.998 5,256C5,394.402 117.598,507 256,507C394.402,507 507,394.402 507,256C507,117.598 394.402,5 256,5Z" style="fill:white;fill-rule:nonzero;"/>
        </g>
        <g transform="matrix(1.18612,0,0,1.18612,-62.5799,-43.5801)">
            <path d="M215.341,290.578C226.753,308.5 246.247,319.201 267.501,319.201C296.008,319.201 319.2,296.009 319.2,267.487C319.2,246.248 308.5,226.754 290.572,215.338C244.066,185.752 139.424,119.157 139.424,119.157C133.619,115.462 126.026,116.295 121.16,121.161C116.294,126.027 115.461,133.619 119.155,139.425C119.156,139.424 185.751,244.066 215.341,290.578Z" style="fill:rgb(255,1,1);fill-rule:nonzero;"/>
        </g>
    </g>
</svg>
