<?xml version="1.0" encoding="UTF-8" standalone="no"?><!DOCTYPE svg PUBLIC "-//W3C//DTD SVG 1.1//EN" "http://www.w3.org/Graphics/SVG/1.1/DTD/svg11.dtd"><svg width="100%" height="100%" viewBox="0 0 512 512" version="1.1" xmlns="http://www.w3.org/2000/svg" xmlns:xlink="http://www.w3.org/1999/xlink" xml:space="preserve" style="fill-rule:evenodd;clip-rule:evenodd;stroke-linejoin:round;stroke-miterlimit:2;"><path d="M464.597,78.091l-50.272,-7.072c1.101,4.692 1.663,9.495 1.675,14.314l-0,309.334c-0.035,35.096 -28.904,63.965 -64,64l-15.232,0l72.907,10.25c1.967,0.277 3.952,0.416 5.939,0.416c21.176,0 39.309,-15.765 42.253,-36.736l43.05,-306.325c3.253,-23.178 -13.142,-44.927 -36.32,-48.181Z" style="fill:#7f7f7f;fill-rule:nonzero;"/><path d="M352,42.667l-70.325,0c13.643,10.102 22.708,25.241 25.173,42.037l43.019,306.325c2.332,16.333 -1.783,32.948 -11.467,46.304l13.6,0c23.406,0 42.667,-19.26 42.667,-42.666l0,-309.334c0,-23.406 -19.261,-42.666 -42.667,-42.666Z" style="fill:#7f7f7f;fill-rule:nonzero;"/><path d="M328.768,394.005l-43.051,-306.325c-3.28,-23.157 -25.021,-39.521 -48.181,-36.267l-190.133,26.678c-23.157,3.28 -39.521,25.021 -36.267,48.181l42.997,306.325c2.944,20.971 21.077,36.736 42.253,36.736c1.987,0 3.972,-0.139 5.939,-0.416l190.134,-26.73c23.173,-3.26 39.562,-25.007 36.309,-48.182Zm-233.237,-237.642c-1.777,1.22 -3.883,1.874 -6.039,1.874c-3.515,0 -6.812,-1.738 -8.799,-4.637l-8.16,-11.872l-4.597,13.696c-1.456,4.344 -5.552,7.29 -10.133,7.29c-5.863,0 -10.688,-4.824 -10.688,-10.687c-0,-1.155 0.187,-2.303 0.554,-3.398l11.392,-33.909c1.723,-4.118 5.771,-6.812 10.234,-6.812c3.365,0 6.553,1.53 8.657,4.156l20.267,29.461c3.33,4.808 2.117,11.504 -2.688,14.838Zm128.288,106.208l-32.288,42.848c-7.045,9.338 -20.524,11.23 -29.867,4.192l-42.859,-32.278c-16.423,-12.377 -19.755,-36.075 -7.381,-52.501c12.385,-16.421 36.085,-19.748 52.512,-7.371c7.054,-9.658 18.319,-15.38 30.278,-15.38c20.568,0 37.493,16.925 37.493,37.494c-0,8.33 -2.776,16.428 -7.888,23.006l-0,-0.01Zm68.362,109.077l-11.392,33.92c-1.453,4.336 -5.54,7.277 -10.113,7.277c-3.508,0 -6.8,-1.731 -8.788,-4.621l-20.267,-29.472c-1.224,-1.779 -1.879,-3.888 -1.879,-6.048c-0,-5.853 4.816,-10.669 10.669,-10.669c3.508,0 6.8,1.731 8.789,4.621l8.192,11.893l4.597,-13.696c1.457,-4.344 5.552,-7.29 10.134,-7.29c5.863,0 10.687,4.825 10.687,10.688c-0,1.155 -0.187,2.302 -0.554,3.397l-0.075,0Z" style="fill:#7f7f7f;fill-rule:nonzero;"/></svg>