<?xml version="1.0" encoding="UTF-8" standalone="no"?><!DOCTYPE svg PUBLIC "-//W3C//DTD SVG 1.1//EN" "http://www.w3.org/Graphics/SVG/1.1/DTD/svg11.dtd"><svg width="100%" height="100%" viewBox="0 0 512 512" version="1.1" xmlns="http://www.w3.org/2000/svg" xmlns:xlink="http://www.w3.org/1999/xlink" xml:space="preserve" style="fill-rule:evenodd;clip-rule:evenodd;stroke-linejoin:round;stroke-miterlimit:2;"><path d="M387.347,205.829c-14.877,-0 -26.98,12.104 -26.98,26.98c0,14.877 12.104,26.98 26.98,26.98c14.877,0 26.98,-12.104 26.98,-26.98c0.001,-14.876 -12.102,-26.98 -26.98,-26.98Z" style="fill:#7f7f7f;fill-rule:nonzero;"/><path d="M510.503,313.556l-28.831,-156.594c-6.825,-37.07 -39.071,-63.976 -76.674,-63.976l-52.953,-0c-3.604,-0 -7.088,1.298 -9.813,3.656l-30.464,26.353l-111.537,-0l-30.464,-26.353c-2.726,-2.358 -6.209,-3.656 -9.813,-3.656l-52.953,-0c-37.603,-0 -69.851,26.905 -76.674,63.976l-28.831,156.594c-8.802,47.802 22.121,93.831 69.641,103.602c33.325,6.852 67.043,-5.582 87.995,-32.448l32.934,-42.228l127.869,0l32.934,42.228c20.826,26.703 54.464,39.341 87.995,32.448c47.407,-9.748 78.46,-55.698 69.639,-103.602Zm-343.712,-65.747l-21.733,-0l-0,21.733c-0,8.284 -6.716,15 -15,15c-8.284,0 -15,-6.716 -15,-15l-0,-21.733l-21.732,-0c-8.284,-0 -15,-6.716 -15,-15c-0,-8.284 6.716,-15 15,-15l21.733,-0l-0,-21.734c-0,-8.284 6.716,-15 15,-15c8.284,-0 15,6.716 15,15l-0,21.734l21.732,-0c8.284,-0 15,6.716 15,15c-0,8.284 -6.716,15 -15,15Zm220.556,41.98c-31.418,0 -56.98,-25.561 -56.98,-56.98c0,-31.419 25.561,-56.98 56.98,-56.98c31.418,-0 56.98,25.561 56.98,56.98c0,31.42 -25.56,56.98 -56.98,56.98Z" style="fill:#7f7f7f;fill-rule:nonzero;"/></svg>