<?xml version="1.0" encoding="UTF-8" standalone="no"?><!DOCTYPE svg PUBLIC "-//W3C//DTD SVG 1.1//EN" "http://www.w3.org/Graphics/SVG/1.1/DTD/svg11.dtd"><svg width="100%" height="100%" viewBox="0 0 512 512" version="1.1" xmlns="http://www.w3.org/2000/svg" xmlns:xlink="http://www.w3.org/1999/xlink" xml:space="preserve" xmlns:serif="http://www.serif.com/" style="fill-rule:evenodd;clip-rule:evenodd;stroke-linejoin:round;stroke-miterlimit:2;"><path id="path1948" d="M253.056,6.004c-20.393,0.094 -39.867,1.834 -57.001,4.866c-50.478,8.918 -59.643,27.583 -59.643,62.006l-0,45.462l119.284,-0l0,15.153l-164.051,0c-34.667,0 -65.023,20.837 -74.517,60.477c-10.952,45.435 -11.438,73.789 -0,121.231c8.479,35.314 28.728,60.476 63.395,60.476l41.013,-0l0,-54.499c0,-39.372 34.065,-74.101 74.519,-74.101l119.145,0c33.166,0 59.642,-27.307 59.642,-60.615l-0,-113.584c-0,-32.326 -27.272,-56.611 -59.642,-62.006c-20.491,-3.411 -41.753,-4.961 -62.144,-4.866Zm-64.509,36.564c12.321,0 22.383,10.227 22.383,22.8c-0,12.529 -10.062,22.661 -22.383,22.661c-12.365,0 -22.383,-10.132 -22.383,-22.661c-0,-12.574 10.018,-22.8 22.383,-22.8Z" style="fill:#3876ac;fill-rule:nonzero;"/><path id="path1950" d="M389.718,133.489l-0,52.971c-0,41.066 -34.817,75.63 -74.518,75.63l-119.145,-0c-32.636,-0 -59.643,27.932 -59.643,60.615l-0,113.584c-0,32.326 28.11,51.341 59.643,60.616c37.758,11.102 73.967,13.109 119.145,-0c30.031,-8.695 59.642,-26.193 59.642,-60.616l-0,-45.462l-119.146,0l0,-15.154l178.789,-0c34.667,-0 47.586,-24.181 59.642,-60.476c12.454,-37.365 11.924,-73.298 0,-121.231c-8.567,-34.512 -24.93,-60.477 -59.642,-60.477l-44.767,0Zm-67.01,287.647c12.365,-0 22.383,10.132 22.383,22.661c-0,12.574 -10.018,22.801 -22.383,22.801c-12.321,-0 -22.383,-10.227 -22.383,-22.801c-0.001,-12.529 10.061,-22.661 22.383,-22.661Z" style="fill:#ffe872;fill-rule:nonzero;"/></svg>