<?xml version="1.0" encoding="UTF-8" standalone="no"?><!DOCTYPE svg PUBLIC "-//W3C//DTD SVG 1.1//EN" "http://www.w3.org/Graphics/SVG/1.1/DTD/svg11.dtd"><svg width="100%" height="100%" viewBox="0 0 512 512" version="1.1" xmlns="http://www.w3.org/2000/svg" xmlns:xlink="http://www.w3.org/1999/xlink" xml:space="preserve" xmlns:serif="http://www.serif.com/" style="fill-rule:evenodd;clip-rule:evenodd;stroke-linejoin:round;stroke-miterlimit:2;"><path d="M110.506,97.92c49.207,-0 89.156,40.03 89.156,89.336c0,49.305 -39.949,89.335 -89.156,89.335c-49.207,0 -89.157,-40.03 -89.157,-89.335c0,-49.306 39.95,-89.336 89.157,-89.336Zm0.885,27.872c30.718,-0 55.656,27.541 55.656,61.464c0,33.922 -24.938,61.464 -55.656,61.464c-30.718,-0 -58.911,-27.187 -58.911,-61.109c-0,-33.923 28.193,-61.819 58.911,-61.819Z" style="fill:#a647eb;"/><ellipse cx="255.241" cy="284.675" rx="182.322" ry="161.481" style="fill:#9319e5;"/><path d="M107.129,190.535c-1.222,127.416 149.757,171.418 302.605,179.883c0,-0 -2.737,3.771 -4.169,5.615c-32.881,42.339 -87.967,70.124 -150.323,70.124c-100.627,0 -182.323,-72.358 -182.323,-161.482c-0,-32.524 10.88,-62.813 29.587,-88.169c1.491,-2.022 4.623,-5.971 4.623,-5.971Z" style="fill:#8617d1;"/><ellipse cx="255.241" cy="167.55" rx="121.761" ry="69.63" style="fill:#bf74f0;"/><ellipse cx="255.241" cy="107.932" rx="42.252" ry="42.089" style="fill:#9319e5;"/><path d="M495.598,253.868l-82.373,90.479c-15.461,15.061 -40.419,9.595 -48.691,-10.897c-4.754,-11.735 -7.988,-27.68 -7.344,-49.208c1.913,-64.129 32.488,-67.247 53.545,-46.394c36.497,-16.118 56.993,-23.259 68.849,-19.561c-13.205,-3.358 9.871,40.931 16.014,35.581Z" style="fill:#be77f0;fill-rule:nonzero;"/><path d="M481.646,218.88c13.9,4.467 22.384,16.808 18.934,27.54c-3.449,10.733 -17.534,15.819 -31.434,11.352c-13.9,-4.467 -22.384,-16.808 -18.934,-27.54c3.449,-10.733 17.535,-15.82 31.434,-11.352Z" style="fill:#9319e5;"/></svg>