<?xml version="1.0" encoding="UTF-8" standalone="no"?><!DOCTYPE svg PUBLIC "-//W3C//DTD SVG 1.1//EN" "http://www.w3.org/Graphics/SVG/1.1/DTD/svg11.dtd"><svg width="100%" height="100%" viewBox="0 0 512 512" version="1.1" xmlns="http://www.w3.org/2000/svg" xmlns:xlink="http://www.w3.org/1999/xlink" xml:space="preserve" style="fill-rule:evenodd;clip-rule:evenodd;stroke-linejoin:round;stroke-miterlimit:2;"><path d="M256,481c18.372,0 44.609,-12.29 65.259,-70.839c14.594,-41.378 22.632,-96.127 22.632,-154.161c0,-58.034 -8.038,-112.783 -22.632,-154.161c-20.65,-58.549 -46.887,-70.839 -65.259,-70.839c-18.373,0 -44.609,12.29 -65.259,70.839c-14.594,41.379 -22.632,96.127 -22.632,154.161c0,58.034 8.039,112.783 22.632,154.161c20.65,58.549 46.887,70.839 65.259,70.839Zm0,-423.633c13.331,0 28.811,20.4 40.393,53.242c13.626,38.634 21.131,90.267 21.131,145.391c0,55.124 -7.505,106.757 -21.131,145.391c-11.582,32.842 -27.062,53.242 -40.393,53.242c-13.331,0 -28.811,-20.4 -40.392,-53.242c-13.627,-38.633 -21.132,-90.267 -21.132,-145.391c0,-55.124 7.505,-106.757 21.132,-145.391c11.581,-32.841 27.061,-53.241 40.392,-53.241l0,-0.001Z" style="fill:#ff9700;fill-rule:nonzero;"/><path d="M118.52,393.368c10.4,0 22.506,-1.14 36.601,-3.772c43.133,-8.05 94.567,-28.464 144.824,-57.48c50.259,-29.017 93.654,-63.352 122.191,-96.681c40.38,-47.157 37.905,-76.022 28.719,-91.935c-9.186,-15.911 -32.946,-32.486 -93.976,-21.096c-43.133,8.051 -94.566,28.465 -144.824,57.481c-50.259,29.016 -93.654,63.351 -122.191,96.68c-40.38,47.159 -37.905,76.024 -28.719,91.936c7.064,12.235 22.749,24.867 57.375,24.867Zm274.71,-248.284c17.851,0 30.395,3.985 34.791,11.6c6.665,11.546 -3.262,35.151 -25.912,61.601c-26.645,31.118 -67.61,63.435 -115.346,90.996c-47.739,27.56 -96.208,46.879 -136.479,54.397c-34.234,6.387 -59.639,3.186 -66.305,-8.362c-6.666,-11.546 3.262,-35.151 25.912,-61.601c26.645,-31.118 67.61,-63.435 115.347,-90.996c47.738,-27.56 96.207,-46.879 136.478,-54.397c11.659,-2.176 22.294,-3.238 31.514,-3.238Z" style="fill:#adff2c;fill-rule:nonzero;"/><path d="M393.48,393.368c34.631,0 50.311,-12.63 57.375,-24.868c9.186,-15.911 11.661,-44.778 -28.719,-91.935c-28.537,-33.329 -71.932,-67.664 -122.191,-96.681c-50.258,-29.017 -101.691,-49.43 -144.824,-57.48c-61.027,-11.392 -84.79,5.183 -93.976,21.095c-9.186,15.912 -11.661,44.777 28.719,91.936c28.537,33.327 71.932,67.664 122.191,96.68c50.257,29.016 101.691,49.43 144.824,57.481c14.091,2.63 26.203,3.772 36.601,3.772Zm-274.71,-248.284c9.22,0 19.852,1.062 31.514,3.24c40.271,7.516 88.74,26.835 136.478,54.395c47.737,27.561 88.702,59.878 115.347,90.996c22.65,26.45 32.577,50.055 25.912,61.601c-6.666,11.547 -32.072,14.75 -66.305,8.362c-40.271,-7.518 -88.74,-26.836 -136.479,-54.397c-47.736,-27.561 -88.701,-59.878 -115.346,-90.996c-22.65,-26.451 -32.577,-50.055 -25.912,-61.601c4.395,-7.614 16.942,-11.6 34.791,-11.6Z" style="fill:#ff0076;fill-rule:nonzero;"/><path d="M168.308,240.215c0.291,-11.461 0.897,-22.755 1.807,-33.8c9.11,-6.311 18.588,-12.483 28.369,-18.465c-1.312,10.729 -2.311,21.799 -2.984,33.121c-9.468,6.243 -18.557,12.644 -27.192,19.144Zm14.299,142.906c-2.106,-8.259 -3.996,-16.874 -5.66,-25.79c8.222,-2.346 16.672,-5.089 25.287,-8.205c1.609,9.019 3.458,17.708 5.538,26.001c-8.554,3.017 -16.96,5.689 -25.165,7.994Zm121.621,-246.248c8.554,-3.017 16.961,-5.688 25.166,-7.993c2.106,8.258 3.995,16.873 5.659,25.789c-8.222,2.346 -16.671,5.089 -25.287,8.205c-1.608,-9.018 -3.458,-17.707 -5.538,-26.001Zm39.464,134.912c-0.291,11.461 -0.897,22.755 -1.807,33.801c-9.11,6.31 -18.588,12.482 -28.369,18.465c1.312,-10.729 2.311,-21.8 2.984,-33.122c9.468,-6.243 18.557,-12.643 27.192,-19.144Z" style="fill:#d6ca16;"/><path d="M176.946,154.67c1.665,-8.916 3.554,-17.532 5.661,-25.791c8.205,2.305 16.611,4.977 25.165,7.994c-2.08,8.294 -3.929,16.983 -5.538,26.002c-8.616,-3.116 -17.065,-5.859 -25.288,-8.205Zm-6.831,150.915c-0.91,-11.045 -1.516,-22.339 -1.807,-33.8c8.636,6.501 17.724,12.901 27.192,19.144c0.673,11.322 1.672,22.392 2.984,33.121c-9.781,-5.983 -19.258,-12.154 -28.369,-18.465Zm143.401,-117.636c9.781,5.983 19.259,12.155 28.369,18.465c0.91,11.046 1.516,22.34 1.807,33.801c-8.635,-6.5 -17.724,-12.901 -27.192,-19.144c-0.673,-11.322 -1.672,-22.393 -2.984,-33.122Zm21.537,169.382c-1.664,8.916 -3.553,17.531 -5.659,25.789c-8.205,-2.305 -16.612,-4.976 -25.166,-7.993c2.08,-8.294 3.93,-16.982 5.538,-26.001c8.616,3.116 17.065,5.859 25.287,8.205Z" style="fill:#ff4b3b;"/><path d="M256.005,282.359c14.54,0 26.368,-11.828 26.368,-26.368c0,-14.537 -11.828,-26.366 -26.368,-26.366c-14.539,0 -26.366,11.829 -26.366,26.366c0,14.54 11.827,26.368 26.366,26.368Z" style="fill:#fff;fill-rule:nonzero;"/></svg>