<?xml version="1.0" encoding="UTF-8" standalone="no"?><!DOCTYPE svg PUBLIC "-//W3C//DTD SVG 1.1//EN" "http://www.w3.org/Graphics/SVG/1.1/DTD/svg11.dtd"><svg width="100%" height="100%" viewBox="0 0 512 512" version="1.1" xmlns="http://www.w3.org/2000/svg" xmlns:xlink="http://www.w3.org/1999/xlink" xml:space="preserve" style="fill-rule:evenodd;clip-rule:evenodd;stroke-linejoin:round;stroke-miterlimit:2;"><path d="M481,330.245c0,75.439 -61.153,136.591 -136.591,136.591c-75.435,0 -136.588,-61.152 -136.588,-136.591c0,-75.435 61.153,-136.588 136.588,-136.588c75.438,0 136.591,61.153 136.591,136.588Z" style="fill:#00b0b5;fill-rule:nonzero;"/><path d="M304.179,330.245c-0,75.439 -61.153,136.591 -136.588,136.591c-75.439,0 -136.591,-61.152 -136.591,-136.591c0,-75.435 61.153,-136.588 136.591,-136.588c75.435,0 136.588,61.153 136.588,136.588Z" style="fill:#ffcf61;fill-rule:nonzero;"/><path d="M392.591,181.755c0,75.435 -61.156,136.587 -136.591,136.587c-75.435,0 -136.591,-61.152 -136.591,-136.587c-0,-75.439 61.156,-136.591 136.591,-136.591c75.435,-0 136.591,61.152 136.591,136.591Z" style="fill:#ec0017;fill-rule:nonzero;"/></svg>