<?xml version="1.0" encoding="UTF-8" standalone="no"?><!DOCTYPE svg PUBLIC "-//W3C//DTD SVG 1.1//EN" "http://www.w3.org/Graphics/SVG/1.1/DTD/svg11.dtd"><svg width="100%" height="100%" viewBox="0 0 512 512" version="1.1" xmlns="http://www.w3.org/2000/svg" xmlns:xlink="http://www.w3.org/1999/xlink" xml:space="preserve" style="fill-rule:evenodd;clip-rule:evenodd;stroke-linejoin:round;stroke-miterlimit:2;"><path d="M263.073,129.643c12.672,47.566 9.109,92.337 8.844,95.384c-0.576,6.656 -26.927,4.991 -26.302,-2.268c0.093,-1.096 8.624,-110.013 -50.098,-158.415c-5.818,-4.797 -6.475,-13.537 -1.286,-19.156c4.837,-5.24 13.066,-5.392 18.549,-0.828c16.96,14.12 29.17,31.916 37.949,50.802c-0.833,12.803 3.424,24.941 12.344,34.481Z" style="fill:#83e26f;fill-rule:nonzero;"/><path d="M255.106,442.659c-139.926,68.895 -213.646,-124.034 -175.217,-238.416c21.319,-63.453 72.899,-70.608 114.611,-64.381c33.481,4.971 60.606,18.568 60.606,18.568c-0,0 27.11,-13.585 60.591,-18.568c41.711,-6.227 93.291,0.928 114.611,64.381c38.43,114.382 -35.29,307.311 -175.202,238.416Z" style="fill:url(#_Linear1);fill-rule:nonzero;"/><path d="M318.039,150.383c0,21.428 -28.173,38.814 -62.933,38.814c-34.762,-0 -62.948,-17.386 -62.948,-38.814c-0,-3.644 0.821,-7.168 2.342,-10.521c33.481,4.971 60.606,18.568 60.606,18.568c-0,0 27.11,-13.585 60.591,-18.568c1.521,3.353 2.342,6.878 2.342,10.521Z" style="fill-opacity:0.23;fill-rule:nonzero;"/><path d="M399.933,92.859c-7.192,11.399 -25.106,38.095 -56.084,51.644l-0.008,0.001c-10.397,4.551 -22.262,7.616 -35.692,8.123c-61.737,2.333 -82.989,-46.546 -49.738,-83.498c2.777,-3.086 5.936,-6.093 9.483,-8.975c37.135,-30.195 82.736,-31.461 164.593,0.947c0,0.002 -22.947,16.538 -32.554,31.758Z" style="fill:#83e26f;fill-rule:nonzero;"/><path d="M289.914,109.304c8.099,-4.102 37.085,-15.907 45.691,-18.942c10.087,-3.555 32.339,-10.718 39.888,-12.911c2.435,-0.709 6.834,-1.885 9.035,-2.473c4.057,-1.085 6.47,-5.26 5.384,-9.317c-1.084,-4.057 -5.259,-6.47 -9.316,-5.385c-2.278,0.609 -6.829,1.828 -9.348,2.559c-7.703,2.238 -30.41,9.546 -40.703,13.175c-8.95,3.155 -39.084,15.451 -47.507,19.717c-3.747,1.898 -5.248,6.479 -3.35,10.227c1.897,3.746 6.48,5.247 10.226,3.35Z" style="fill:#64ad55;"/><path d="M390.11,177.076c-18.801,-26.226 -29.744,7.818 -33.745,19.401c-7.716,22.334 38.222,70.111 53.824,120.493c8.844,-49.125 3.496,-95.972 -20.079,-139.894Z" style="fill:#fff;fill-opacity:0.51;fill-rule:nonzero;"/><defs><linearGradient id="_Linear1" x1="0" y1="0" x2="1" y2="0" gradientUnits="userSpaceOnUse" gradientTransform="matrix(-286.028,259.784,-259.784,-286.028,398.234,164.53)"><stop offset="0" style="stop-color:#ed5f5f;stop-opacity:1"/><stop offset="1" style="stop-color:#cd1717;stop-opacity:1"/></linearGradient></defs></svg>