<?xml version="1.0" encoding="UTF-8" standalone="no"?><!DOCTYPE svg PUBLIC "-//W3C//DTD SVG 1.1//EN" "http://www.w3.org/Graphics/SVG/1.1/DTD/svg11.dtd"><svg width="100%" height="100%" viewBox="0 0 512 512" version="1.1" xmlns="http://www.w3.org/2000/svg" xmlns:xlink="http://www.w3.org/1999/xlink" xml:space="preserve" xmlns:serif="http://www.serif.com/" style="fill-rule:evenodd;clip-rule:evenodd;stroke-linejoin:round;stroke-miterlimit:2;"><path d="M378.627,358.64c-11.294,0 -20.586,-9.294 -20.586,-20.587c0,-5.46 2.172,-10.702 6.035,-14.562l60.094,-60.072c1.89,-1.89 2.951,-4.453 2.951,-7.126c0,-2.673 -1.061,-5.236 -2.951,-7.124l-60.093,-60.072c-3.861,-3.863 -6.031,-9.103 -6.031,-14.566c-0,-11.297 9.297,-20.594 20.594,-20.594c5.46,0 10.703,2.173 14.561,6.033l81.766,81.764c3.862,3.857 6.033,9.099 6.033,14.559c0,5.46 -2.171,10.701 -6.033,14.56l-81.763,81.761c-3.835,3.832 -9.03,5.999 -14.45,6.026l-0.127,0Zm-163.506,61.32c-1.921,-0.004 -3.832,-0.274 -5.68,-0.8c-10.851,-3.106 -17.227,-14.587 -14.128,-25.441l81.758,-286.159c0.018,-0.064 0.036,-0.129 0.053,-0.193c2.38,-9.006 10.589,-15.327 19.903,-15.327c11.294,-0 20.584,9.293 20.584,20.586c0,2.05 -0.304,4.088 -0.907,6.048c-0.02,0.065 -0.038,0.127 -0.057,0.192l-81.761,286.16c-2.515,8.803 -10.612,14.92 -19.765,14.934Zm-81.767,-61.32c-5.458,0.003 -10.698,-2.169 -14.56,-6.026l-81.761,-81.763c-3.863,-3.857 -6.033,-9.098 -6.033,-14.558c0,-5.459 2.17,-10.7 6.033,-14.559l0.004,-0.003l81.759,-81.761c3.861,-3.86 9.104,-6.033 14.563,-6.033c11.298,0 20.595,9.297 20.595,20.594c0,5.463 -2.171,10.703 -6.033,14.566l-60.092,60.072c-1.89,1.888 -2.952,4.451 -2.952,7.124c0,2.673 1.062,5.236 2.952,7.126l60.095,60.074c3.863,3.858 6.035,9.1 6.035,14.56c-0,11.293 -9.292,20.587 -20.586,20.587l-0.019,-0Z" style="fill:url(#_Linear1);"/><defs><linearGradient id="_Linear1" x1="0" y1="0" x2="1" y2="0" gradientUnits="userSpaceOnUse" gradientTransform="matrix(90.3397,-297.747,297.747,90.3397,213.174,401.857)"><stop offset="0" style="stop-color:#00b4af;stop-opacity:1"/><stop offset="1" style="stop-color:#90ff00;stop-opacity:1"/></linearGradient></defs></svg>