<?xml version="1.0" encoding="UTF-8" standalone="no"?><!DOCTYPE svg PUBLIC "-//W3C//DTD SVG 1.1//EN" "http://www.w3.org/Graphics/SVG/1.1/DTD/svg11.dtd"><svg width="100%" height="100%" viewBox="0 0 512 512" version="1.1" xmlns="http://www.w3.org/2000/svg" xmlns:xlink="http://www.w3.org/1999/xlink" xml:space="preserve" style="fill-rule:evenodd;clip-rule:evenodd;stroke-linejoin:round;stroke-miterlimit:2;"><path d="M256,379.839c-23.204,-0 -42.188,18.984 -42.188,42.188c-0,23.204 18.984,42.188 42.188,42.188c23.202,0 42.187,-18.984 42.187,-42.188c-0,-23.204 -18.985,-42.188 -42.187,-42.188Zm112.5,-28.124c-23.204,0 -42.188,18.985 -42.188,42.187c-0,23.204 18.984,42.188 42.188,42.188c23.202,0 42.187,-18.984 42.187,-42.188c-0,-23.202 -18.985,-42.187 -42.187,-42.187Zm-225,0c-23.204,0 -42.188,18.985 -42.188,42.187c-0,23.204 18.984,42.188 42.188,42.188c23.204,0 42.188,-18.984 42.188,-42.188c0,-23.202 -18.984,-42.187 -42.188,-42.187Z" style="fill:#ff9544;fill-rule:nonzero;"/><path d="M126.801,235.52c71.367,-43.946 187.031,-43.946 258.398,-0c71.368,43.945 71.368,115.313 0,158.906c-71.367,43.944 -187.031,43.944 -258.398,-0c-71.367,-43.946 -71.367,-114.962 -0,-158.906Z" style="fill:#a12a9e;fill-rule:nonzero;"/><path d="M144.378,383.879c-68.906,-42.539 -71.367,-110.392 -7.031,-154.336c-3.515,1.757 -7.031,3.867 -10.546,5.977c-71.367,43.945 -71.367,115.313 -0,158.906c71.367,43.944 187.031,43.944 258.398,-0c2.462,-1.406 4.922,-3.165 7.031,-4.571c-71.719,37.969 -180,35.859 -247.852,-5.976Z" style="fill-opacity:0.2;fill-rule:nonzero;"/><path d="M96.918,157.121c87.891,-52.031 230.273,-52.031 318.164,0c87.89,52.031 87.89,136.757 -0,188.788c-87.891,52.032 -230.273,52.032 -318.164,-0c-87.892,-52.031 -87.89,-136.405 0,-188.788Z" style="fill:url(#_Linear1);fill-rule:nonzero;"/><path d="M429.496,332.199c-87.891,52.031 -230.272,52.031 -318.164,-0c-71.016,-42.189 -84.727,-105.118 -41.485,-155.391c-59.413,52.031 -50.273,123.398 27.071,169.452c87.891,52.031 230.273,52.031 318.164,0c16.875,-10.194 30.586,-21.444 41.133,-33.398c-7.735,6.681 -16.523,13.008 -26.719,19.337Z" style="fill-opacity:0.2;fill-rule:nonzero;"/><path d="M256.175,47.785c77.696,-0 140.625,62.929 140.625,140.625c-0,77.695 -62.929,112.5 -140.625,112.5c-77.695,0 -140.624,-34.805 -140.624,-112.5c-0,-77.696 62.929,-140.625 140.624,-140.625Z" style="fill:#f6f7f7;fill-rule:nonzero;"/><path d="M115.551,188.41c-0,77.343 62.579,112.148 139.57,112.5l1.055,0l-0,-253.125c-77.696,-0 -140.625,62.929 -140.625,140.625Z" style="fill:#ebecec;fill-rule:nonzero;"/><path d="M256.175,301.867c31.64,0 60.821,-5.625 84.375,-17.929l-0,-94.571c-0,-46.759 -37.618,-84.375 -84.375,-84.375c-46.757,0 -84.374,37.618 -84.374,84.375l-0,94.571c23.554,12.304 52.733,17.929 84.374,17.929Z" style="fill:#3db39e;fill-rule:nonzero;"/><path d="M171.801,189.367l-0,94.571c23.202,11.952 52.383,17.929 83.671,17.929l0.703,0l-0,-196.875c-46.757,0 -84.374,37.969 -84.374,84.375Z" style="fill:#3aaa96;fill-rule:nonzero;"/><path d="M256.175,160.285c23.203,-0 42.188,18.985 42.188,42.188c-0,23.204 -18.985,42.188 -42.188,42.188c-23.203,0 -42.187,-18.984 -42.187,-42.188c-0,-23.203 18.984,-42.188 42.187,-42.188Z" style="fill:#fff;fill-rule:nonzero;"/><path d="M256.175,160.285c-23.203,-0 -42.187,18.985 -42.187,42.188c-0,23.204 18.984,42.188 42.187,42.188l-0,-84.376Z" style="fill:#f2f2f2;fill-rule:nonzero;"/><path d="M256.175,181.378c11.601,-0 21.094,9.492 21.094,21.094c-0,11.602 -9.493,21.094 -21.094,21.094c-11.601,-0 -21.093,-9.492 -21.093,-21.094c-0,-11.602 9.492,-21.094 21.093,-21.094Z" style="fill:#324d5b;fill-rule:nonzero;"/><path d="M256.175,181.378c-11.601,-0 -21.093,9.492 -21.093,21.094c-0,11.602 9.492,21.094 21.093,21.094l-0,-42.188Z" style="fill:#2f4956;fill-rule:nonzero;"/><defs><linearGradient id="_Linear1" x1="0" y1="0" x2="1" y2="0" gradientUnits="userSpaceOnUse" gradientTransform="matrix(-383.847,98.4374,-98.4374,-383.847,438.725,202.472)"><stop offset="0" style="stop-color:#ffdc26;stop-opacity:1"/><stop offset="1" style="stop-color:#ff6658;stop-opacity:1"/></linearGradient></defs></svg>