<?xml version="1.0" encoding="UTF-8" standalone="no"?><!DOCTYPE svg PUBLIC "-//W3C//DTD SVG 1.1//EN" "http://www.w3.org/Graphics/SVG/1.1/DTD/svg11.dtd"><svg width="100%" height="100%" viewBox="0 0 1024 1024" version="1.1" xmlns="http://www.w3.org/2000/svg" xmlns:xlink="http://www.w3.org/1999/xlink" xml:space="preserve" xmlns:serif="http://www.serif.com/" style="fill-rule:evenodd;clip-rule:evenodd;stroke-linejoin:round;stroke-miterlimit:2;"><path d="M804.351,397.94l62.525,-62.525c38.683,-38.683 38.683,-101.403 -0,-140.086l-38.207,-38.207c-38.684,-38.683 -101.402,-38.683 -140.087,0l-62.524,62.525l178.293,178.293Z" style="fill:url(#_Linear1);fill-rule:nonzero;"/><path d="M288.912,556.789l-103.821,103.821c-10.109,10.109 -17.267,22.785 -20.701,36.663l-27.471,113.082c-6.106,24.675 45.816,84.693 70.492,78.587l119.312,-29.334c13.877,-3.432 26.554,-10.59 36.662,-20.7l103.823,-103.823l-178.296,-178.296Z" style="fill:url(#_Linear2);fill-rule:nonzero;"/><path d="M681.45,458.015c-0.622,0.758 -1.289,1.497 -1.999,2.207l-354.363,354.365c7.948,3.968 15.4,9.264 22.026,15.892c2.621,2.62 5.035,5.369 7.239,8.226c2.122,2.752 6.189,2.992 8.661,0.55c0.124,-0.12 0.245,-0.24 0.365,-0.363l349.475,-349.473l-31.404,-31.404Z" style="fill:url(#_Linear3);fill-rule:nonzero;"/><path d="M648.025,204.829c-4.877,-4.876 -12.794,-4.876 -17.67,-0l-45.438,45.437c-4.876,4.877 -4.876,12.794 -0,17.671l171.283,171.283c4.877,4.876 12.794,4.876 17.67,0l45.438,-45.438c4.876,-4.876 4.876,-12.794 0,-17.67l-171.283,-171.283Z" style="fill:url(#_Linear4);"/><path d="M555.235,290.471l178.293,178.293l-370.144,370.144c-0.122,0.123 -0.242,0.243 -0.366,0.363c-2.476,2.444 -6.565,2.164 -8.691,-0.589c-2.197,-2.842 -4.6,-5.578 -7.209,-8.188c-11.778,-11.777 -26.16,-19.352 -41.292,-22.738c-7.113,-1.591 -12.692,-7.17 -14.283,-14.283c-3.384,-15.131 -10.959,-29.515 -22.738,-41.291c-11.779,-11.779 -26.161,-19.354 -41.293,-22.738c-7.111,-1.591 -12.69,-7.171 -14.281,-14.283c-3.386,-15.132 -10.961,-29.516 -22.739,-41.293c-1.66,-1.66 -3.367,-3.233 -5.116,-4.726c-2.569,-2.186 -2.717,-6.097 -0.332,-8.482l370.191,-370.189Z" style="fill:url(#_Linear5);fill-rule:nonzero;"/><defs><linearGradient id="_Linear1" x1="0" y1="0" x2="1" y2="0" gradientUnits="userSpaceOnUse" gradientTransform="matrix(601.41,45.1836,-45.1836,601.41,480.058,241.675)"><stop offset="0" style="stop-color:#fe646f;stop-opacity:1"/><stop offset="0.57" style="stop-color:#fb2b3a;stop-opacity:1"/><stop offset="1" style="stop-color:#c41926;stop-opacity:1"/></linearGradient><linearGradient id="_Linear2" x1="0" y1="0" x2="1" y2="0" gradientUnits="userSpaceOnUse" gradientTransform="matrix(231.293,0,0,231.293,120.092,564.657)"><stop offset="0" style="stop-color:#ffdcbd;stop-opacity:1"/><stop offset="0" style="stop-color:#ffdcbd;stop-opacity:1"/><stop offset="1" style="stop-color:#ffa9b1;stop-opacity:1"/></linearGradient><linearGradient id="_Linear3" x1="0" y1="0" x2="1" y2="0" gradientUnits="userSpaceOnUse" gradientTransform="matrix(646.476,0,0,646.476,124.267,534.853)"><stop offset="0" style="stop-color:#ffe177;stop-opacity:1"/><stop offset="0.57" style="stop-color:#feb137;stop-opacity:1"/><stop offset="1" style="stop-color:#fe646f;stop-opacity:1"/></linearGradient><linearGradient id="_Linear4" x1="0" y1="0" x2="1" y2="0" gradientUnits="userSpaceOnUse" gradientTransform="matrix(179.797,177.565,-177.565,179.797,612.028,232.223)"><stop offset="0" style="stop-color:#fbfaf9;stop-opacity:1"/><stop offset="1" style="stop-color:#f6ece7;stop-opacity:1"/></linearGradient><linearGradient id="_Linear5" x1="0" y1="0" x2="1" y2="0" gradientUnits="userSpaceOnUse" gradientTransform="matrix(677.332,0,0,677.332,139.238,534.849)"><stop offset="0" style="stop-color:#ffe177;stop-opacity:1"/><stop offset="0.57" style="stop-color:#feb137;stop-opacity:1"/><stop offset="1" style="stop-color:#fe646f;stop-opacity:1"/></linearGradient></defs></svg>