<?xml version="1.0" encoding="UTF-8" standalone="no"?><!DOCTYPE svg PUBLIC "-//W3C//DTD SVG 1.1//EN" "http://www.w3.org/Graphics/SVG/1.1/DTD/svg11.dtd"><svg width="100%" height="100%" viewBox="0 0 246 246" version="1.1" xmlns="http://www.w3.org/2000/svg" xmlns:xlink="http://www.w3.org/1999/xlink" xml:space="preserve" xmlns:serif="http://www.serif.com/" style="fill-rule:evenodd;clip-rule:evenodd;stroke-linejoin:round;stroke-miterlimit:2;"><circle cx="122.88" cy="122.88" r="88.8" style="fill:#fff;"/><path d="M77.361,151.48c-5.221,-8.287 -8.241,-18.094 -8.241,-28.6c0,-29.671 24.089,-53.76 53.76,-53.76c5.537,-0 10.88,0.839 15.907,2.396c-4.616,4.55 -7.479,10.873 -7.479,17.859c-0,13.841 11.236,25.077 25.077,25.077c6.986,0 13.309,-2.863 17.859,-7.48c1.557,5.026 2.396,10.37 2.396,15.908c0,29.671 -24.089,53.76 -53.76,53.76c-10.506,-0 -20.313,-3.02 -28.6,-8.241c1.605,-2.048 2.563,-4.627 2.563,-7.429c0,-6.652 -5.401,-12.053 -12.053,-12.053c-2.802,-0 -5.381,0.958 -7.429,2.563Z"/></svg>