<?xml version="1.0" encoding="UTF-8" standalone="no"?><!DOCTYPE svg PUBLIC "-//W3C//DTD SVG 1.1//EN" "http://www.w3.org/Graphics/SVG/1.1/DTD/svg11.dtd"><svg width="100%" height="100%" viewBox="0 0 1024 1024" version="1.1" xmlns="http://www.w3.org/2000/svg" xmlns:xlink="http://www.w3.org/1999/xlink" xml:space="preserve" xmlns:serif="http://www.serif.com/" style="fill-rule:evenodd;clip-rule:evenodd;stroke-linejoin:round;stroke-miterlimit:2;"><path d="M512,262c137.979,0 250,112.021 250,250c0,137.979 -112.021,250 -250,250c-137.979,0 -250,-112.021 -250,-250c0,-137.979 112.021,-250 250,-250Zm145.463,188.891c8.043,18.913 12.493,39.709 12.493,61.536c0,86.927 -70.573,157.5 -157.5,157.5c-30.807,0 -59.559,-8.864 -83.838,-24.174c-6.33,6.288 -15.046,10.174 -24.662,10.174c-19.317,0 -35,-15.683 -35,-35c0,-9.616 3.887,-18.331 10.175,-24.662c-15.311,-24.278 -24.175,-53.031 -24.175,-83.838c0,-86.926 70.574,-157.5 157.5,-157.5c21.827,0 42.624,4.45 61.536,12.494c10.072,-7.829 22.728,-12.494 36.464,-12.494c32.839,0 59.5,26.661 59.5,59.5c0,13.737 -4.665,26.392 -12.493,36.464Zm-228.691,194.708l-0.009,0.008l0.009,-0.008Zm0.152,-0.155l-0.016,0.017l0.016,-0.017Zm0.152,-0.155l-0.024,0.025l0.024,-0.025Zm0.133,-0.138l-0.014,0.015l0.031,-0.033l-0.017,0.018Zm0.146,-0.152l-0.018,0.018l0.038,-0.04l-0.02,0.022Zm0.144,-0.154l-0.02,0.022l0.044,-0.047l-0.024,0.025Zm0.144,-0.154l-0.023,0.025l0.05,-0.054l-0.027,0.029Zm0.143,-0.155l-0.026,0.028l0.055,-0.06l-0.029,0.032Zm0.142,-0.156l-0.029,0.031l0.06,-0.067l-0.031,0.036Zm0.141,-0.157l-0.032,0.035l0.066,-0.073l-0.034,0.038Zm0.14,-0.158l-0.034,0.038l0.07,-0.079l-0.036,0.041Zm0.139,-0.159l-0.036,0.042l0.073,-0.085l-0.037,0.043Zm-51.064,-47.794l-0.008,0.008l0.008,-0.008Zm0.155,-0.153l-0.017,0.016l0.017,-0.016Zm0.155,-0.152l-0.025,0.024l0.025,-0.024Zm0.156,-0.15l-0.032,0.031l0.014,-0.014l0.018,-0.017Zm0.156,-0.149l-0.039,0.038l0.018,-0.017l0.021,-0.021Zm0.157,-0.148l-0.046,0.044l0.021,-0.02l0.025,-0.024Zm0.158,-0.146l-0.054,0.05l0.025,-0.024l0.029,-0.026Zm0.159,-0.146l-0.061,0.056l0.029,-0.027l0.032,-0.029Zm0.159,-0.144l-0.067,0.06l0.032,-0.028l0.035,-0.032Zm0.16,-0.143l-0.073,0.065l0.035,-0.031l0.038,-0.034Zm0.16,-0.142l-0.079,0.07l0.038,-0.034l0.041,-0.036Zm275.578,-142.464l-0.019,0.022l0.019,-0.022Zm0.274,-0.336l-0.043,0.052l0.043,-0.052Zm0.237,-0.294l-0.029,0.035l0.049,-0.061l-0.02,0.026Zm0.258,-0.326l-0.029,0.038l0.041,-0.053l-0.012,0.015Zm-84.497,-82.772l-0.023,0.018l0.023,-0.018Zm0.336,-0.274l-0.053,0.042l0.023,-0.019l0.03,-0.023Zm0.32,-0.258l-0.061,0.049l0.035,-0.028l0.026,-0.021Zm0.314,-0.25l-0.052,0.042l0.037,-0.03l0.015,-0.012Z" style="fill:#00b4af;"/></svg>