<?xml version="1.0" encoding="UTF-8" standalone="no"?><!DOCTYPE svg PUBLIC "-//W3C//DTD SVG 1.1//EN" "http://www.w3.org/Graphics/SVG/1.1/DTD/svg11.dtd"><svg width="100%" height="100%" viewBox="0 0 1024 1024" version="1.1" xmlns="http://www.w3.org/2000/svg" xmlns:xlink="http://www.w3.org/1999/xlink" xml:space="preserve" xmlns:serif="http://www.serif.com/" style="fill-rule:evenodd;clip-rule:evenodd;stroke-linejoin:round;stroke-miterlimit:2;"><circle cx="512.001" cy="512.001" r="400" style="fill:#fff;"/><path d="M379.131,596.266c-15.309,-24.279 -24.175,-53.032 -24.175,-83.839c0,-86.926 70.574,-157.5 157.5,-157.5c21.826,0 42.623,4.449 61.537,12.495c-14.014,10.892 -23.037,27.902 -23.037,47.005c0,32.841 26.66,59.5 59.5,59.5c19.103,0 36.113,-9.023 47.005,-23.037c8.047,18.914 12.495,39.711 12.495,61.537c0,86.926 -70.574,157.5 -157.5,157.5c-30.807,0 -59.559,-8.865 -83.839,-24.174c6.384,-6.339 10.339,-15.124 10.339,-24.826c0,-19.316 -15.683,-35 -35,-35c-9.702,0 -18.487,3.955 -24.825,10.339Z"/></svg>