<?xml version="1.0" encoding="UTF-8" standalone="no"?><!DOCTYPE svg PUBLIC "-//W3C//DTD SVG 1.1//EN" "http://www.w3.org/Graphics/SVG/1.1/DTD/svg11.dtd"><svg width="100%" height="100%" viewBox="0 0 512 512" version="1.1" xmlns="http://www.w3.org/2000/svg" xmlns:xlink="http://www.w3.org/1999/xlink" xml:space="preserve" xmlns:serif="http://www.serif.com/" style="fill-rule:evenodd;clip-rule:evenodd;stroke-linejoin:round;stroke-miterlimit:2;"><path d="M237.251,146.757c-11.038,-0.055 -19.955,-9.061 -19.901,-20.099c0.055,-11.039 9.061,-19.956 20.099,-19.901c0,0 55.995,0.44 95.11,14.01c21.898,7.597 38.493,20.023 44.782,35.336c9.75,23.743 2.591,44.817 -17.628,63.442c-21.131,19.466 -59.695,36.422 -98.891,52.777c-34.666,14.465 -69.862,28.437 -89.814,45.367c-6.977,5.92 -12.567,11.441 -10.152,18.949c1.619,5.031 5.62,8.622 10.362,11.684c7.141,4.61 16.044,7.77 25.292,10.139c31.551,8.084 67.251,6.518 67.251,6.518c11.028,-0.471 20.364,8.1 20.835,19.128c0.472,11.028 -8.099,20.364 -19.127,20.836c-0,-0 -57.647,2.212 -97.899,-13.849c-21.808,-8.702 -38.552,-22.812 -44.792,-42.206c-7.373,-22.918 1.052,-43.628 22.351,-61.7c22.381,-18.99 61.404,-35.555 100.29,-51.781c29.21,-12.188 58.285,-24.248 78.072,-38.063c6.22,-4.342 11.42,-8.733 14.874,-13.548c2.733,-3.809 3.862,-7.9 1.974,-12.498c-1.422,-3.465 -5.193,-5.574 -9.347,-7.807c-7.343,-3.948 -16.473,-6.815 -25.978,-9.062c-31.798,-7.518 -67.763,-7.672 -67.763,-7.672Z" style="fill:url(#_Linear1);"/><defs><linearGradient id="_Linear1" x1="0" y1="0" x2="1" y2="0" gradientUnits="userSpaceOnUse" gradientTransform="matrix(-56.9219,258.204,-258.204,-56.9219,270.798,126.757)"><stop offset="0" style="stop-color:#00dae0;stop-opacity:1"/><stop offset="1" style="stop-color:#019da3;stop-opacity:1"/></linearGradient></defs></svg>