<?xml version="1.0" encoding="UTF-8" standalone="no"?><!DOCTYPE svg PUBLIC "-//W3C//DTD SVG 1.1//EN" "http://www.w3.org/Graphics/SVG/1.1/DTD/svg11.dtd"><svg width="100%" height="100%" viewBox="0 0 512 512" version="1.1" xmlns="http://www.w3.org/2000/svg" xmlns:xlink="http://www.w3.org/1999/xlink" xml:space="preserve" xmlns:serif="http://www.serif.com/" style="fill-rule:evenodd;clip-rule:evenodd;stroke-linejoin:round;stroke-miterlimit:2;"><path d="M256.065,90.457l0,72.6c0,31.091 -25.193,56.301 -56.185,56.301l-116.125,-0c-30.992,-0 -56.186,-25.21 -56.186,-56.301l0,-72.6c0,-31.091 25.194,-56.301 56.186,-56.301l116.125,0c30.992,0 56.185,25.21 56.185,56.301Zm-40,-0c0,-8.979 -7.235,-16.301 -16.185,-16.301l-116.125,0c-8.951,0 -16.186,7.322 -16.186,16.301l0,72.6c0,8.979 7.235,16.301 16.186,16.301l116.125,-0c8.95,-0 16.185,-7.322 16.185,-16.301l0,-72.6Z" style="fill:url(#_Linear1);"/><path d="M486.088,348.661l0,72.6c0,31.091 -25.193,56.301 -56.186,56.301l-116.124,-0c-30.993,-0 -56.186,-25.21 -56.186,-56.301l-0,-72.6c-0,-31.091 25.193,-56.301 56.186,-56.301l116.124,0c30.993,0 56.186,25.21 56.186,56.301Zm-40,-0c0,-8.979 -7.235,-16.301 -16.186,-16.301l-116.124,0c-8.951,0 -16.186,7.322 -16.186,16.301l-0,72.6c-0,8.979 7.235,16.301 16.186,16.301l116.124,-0c8.951,-0 16.186,-7.322 16.186,-16.301l0,-72.6Z" style="fill:url(#_Linear2);"/><defs><linearGradient id="_Linear1" x1="0" y1="0" x2="1" y2="0" gradientUnits="userSpaceOnUse" gradientTransform="matrix(-168.285,140.733,-140.733,-168.285,226.723,56.1285)"><stop offset="0" style="stop-color:#00e0e6;stop-opacity:1"/><stop offset="1" style="stop-color:#019097;stop-opacity:1"/></linearGradient><linearGradient id="_Linear2" x1="0" y1="0" x2="1" y2="0" gradientUnits="userSpaceOnUse" gradientTransform="matrix(-168.479,138.403,-138.403,-168.479,456.662,313.824)"><stop offset="0" style="stop-color:#00dce2;stop-opacity:1"/><stop offset="1" style="stop-color:#01949a;stop-opacity:1"/></linearGradient></defs></svg>