<?xml version="1.0" encoding="UTF-8" standalone="no"?><!DOCTYPE svg PUBLIC "-//W3C//DTD SVG 1.1//EN" "http://www.w3.org/Graphics/SVG/1.1/DTD/svg11.dtd"><svg width="100%" height="100%" viewBox="0 0 512 512" version="1.1" xmlns="http://www.w3.org/2000/svg" xmlns:xlink="http://www.w3.org/1999/xlink" xml:space="preserve" xmlns:serif="http://www.serif.com/" style="fill-rule:evenodd;clip-rule:evenodd;stroke-linejoin:round;stroke-miterlimit:2;"><path d="M83.885,126.831c-9.66,0 -17.5,-7.84 -17.5,-17.5l0,-17.5c0,-28.945 23.555,-52.5 52.5,-52.5l17.5,0c9.66,0 17.5,7.84 17.5,17.5c0,9.66 -7.84,17.5 -17.5,17.5l-17.5,0c-9.643,0 -17.5,7.858 -17.5,17.5l0,17.5c0,9.66 -7.84,17.5 -17.5,17.5Z" style="fill:url(#_Linear1);fill-rule:nonzero;"/><path d="M398.885,126.831c-9.66,0 -17.5,-7.84 -17.5,-17.5l0,-17.5c0,-9.642 -7.858,-17.5 -17.5,-17.5l-17.5,0c-9.66,0 -17.5,-7.84 -17.5,-17.5c0,-9.66 7.84,-17.5 17.5,-17.5l17.5,0c28.945,0 52.5,23.555 52.5,52.5l0,17.5c0,9.66 -7.84,17.5 -17.5,17.5Z" style="fill:url(#_Linear2);fill-rule:nonzero;"/><path d="M276.385,74.331l-70,0c-9.66,0 -17.5,-7.84 -17.5,-17.5c0,-9.66 7.84,-17.5 17.5,-17.5l70,0c9.66,0 17.5,7.84 17.5,17.5c0,9.66 -7.84,17.5 -17.5,17.5Z" style="fill:url(#_Linear3);fill-rule:nonzero;"/><path d="M136.385,389.331l-17.5,0c-28.945,0 -52.5,-23.555 -52.5,-52.5l0,-17.5c0,-9.66 7.84,-17.5 17.5,-17.5c9.66,0 17.5,7.84 17.5,17.5l0,17.5c0,9.643 7.857,17.5 17.5,17.5l17.5,0c9.66,0 17.5,7.84 17.5,17.5c0,9.66 -7.84,17.5 -17.5,17.5Z" style="fill:url(#_Linear4);fill-rule:nonzero;"/><path d="M83.885,266.831c-9.66,0 -17.5,-7.84 -17.5,-17.5l0,-70c0,-9.66 7.84,-17.5 17.5,-17.5c9.66,0 17.5,7.84 17.5,17.5l0,70c0,9.66 -7.84,17.5 -17.5,17.5Z" style="fill:url(#_Linear5);fill-rule:nonzero;"/><path d="M398.885,301.831c9.66,0 17.5,7.84 17.5,17.5l0,17.5c0,28.945 -23.555,52.5 -52.5,52.5l-17.5,0c-9.66,0 -17.5,-7.84 -17.5,-17.5c0,-9.66 7.84,-17.5 17.5,-17.5l17.5,0c9.643,0 17.5,-7.858 17.5,-17.5l0,-17.5c0,-9.66 7.84,-17.5 17.5,-17.5Z" style="fill:url(#_Linear6);fill-rule:nonzero;"/><path d="M206.385,354.331l70,0c9.66,0 17.5,7.84 17.5,17.5c0,9.66 -7.84,17.5 -17.5,17.5l-70,0c-9.66,0 -17.5,-7.84 -17.5,-17.5c0,-9.66 7.84,-17.5 17.5,-17.5Z" style="fill:url(#_Linear7);fill-rule:nonzero;"/><path d="M398.885,161.831c9.66,0 17.5,7.84 17.5,17.5l-0,70c0,9.66 -7.84,17.5 -17.5,17.5c-9.66,0 -17.5,-7.84 -17.5,-17.5l-0,-70c-0,-9.66 7.84,-17.5 17.5,-17.5Z" style="fill:url(#_Linear8);fill-rule:nonzero;"/><defs><linearGradient id="_Linear1" x1="0" y1="0" x2="1" y2="0" gradientUnits="userSpaceOnUse" gradientTransform="matrix(-381,431.669,-431.669,-381,387,74.331)"><stop offset="0" style="stop-color:#d26d29;stop-opacity:1"/><stop offset="1" style="stop-color:#903d06;stop-opacity:1"/></linearGradient><linearGradient id="_Linear2" x1="0" y1="0" x2="1" y2="0" gradientUnits="userSpaceOnUse" gradientTransform="matrix(-381,431.669,-431.669,-381,387,74.331)"><stop offset="0" style="stop-color:#d26d29;stop-opacity:1"/><stop offset="1" style="stop-color:#903d06;stop-opacity:1"/></linearGradient><linearGradient id="_Linear3" x1="0" y1="0" x2="1" y2="0" gradientUnits="userSpaceOnUse" gradientTransform="matrix(-381,431.669,-431.669,-381,387,74.331)"><stop offset="0" style="stop-color:#d26d29;stop-opacity:1"/><stop offset="1" style="stop-color:#903d06;stop-opacity:1"/></linearGradient><linearGradient id="_Linear4" x1="0" y1="0" x2="1" y2="0" gradientUnits="userSpaceOnUse" gradientTransform="matrix(-381,431.669,-431.669,-381,387,74.331)"><stop offset="0" style="stop-color:#d26d29;stop-opacity:1"/><stop offset="1" style="stop-color:#903d06;stop-opacity:1"/></linearGradient><linearGradient id="_Linear5" x1="0" y1="0" x2="1" y2="0" gradientUnits="userSpaceOnUse" gradientTransform="matrix(-381,431.669,-431.669,-381,387,74.331)"><stop offset="0" style="stop-color:#d26d29;stop-opacity:1"/><stop offset="1" style="stop-color:#903d06;stop-opacity:1"/></linearGradient><linearGradient id="_Linear6" x1="0" y1="0" x2="1" y2="0" gradientUnits="userSpaceOnUse" gradientTransform="matrix(-381,431.669,-431.669,-381,387,74.331)"><stop offset="0" style="stop-color:#d26d29;stop-opacity:1"/><stop offset="1" style="stop-color:#903d06;stop-opacity:1"/></linearGradient><linearGradient id="_Linear7" x1="0" y1="0" x2="1" y2="0" gradientUnits="userSpaceOnUse" gradientTransform="matrix(-381,431.669,-431.669,-381,387,74.331)"><stop offset="0" style="stop-color:#d26d29;stop-opacity:1"/><stop offset="1" style="stop-color:#903d06;stop-opacity:1"/></linearGradient><linearGradient id="_Linear8" x1="0" y1="0" x2="1" y2="0" gradientUnits="userSpaceOnUse" gradientTransform="matrix(-381,431.669,-431.669,-381,387,74.331)"><stop offset="0" style="stop-color:#d26d29;stop-opacity:1"/><stop offset="1" style="stop-color:#903d06;stop-opacity:1"/></linearGradient></defs></svg>