<?xml version="1.0" encoding="UTF-8" standalone="no"?><!DOCTYPE svg PUBLIC "-//W3C//DTD SVG 1.1//EN" "http://www.w3.org/Graphics/SVG/1.1/DTD/svg11.dtd"><svg width="100%" height="100%" viewBox="0 0 119 119" version="1.1" xmlns="http://www.w3.org/2000/svg" xmlns:xlink="http://www.w3.org/1999/xlink" xml:space="preserve" xmlns:serif="http://www.serif.com/" style="fill-rule:evenodd;clip-rule:evenodd;stroke-linejoin:round;stroke-miterlimit:2;"><path d="M102.26,91.37l-20.691,-20.693c3.515,-5.597 5.556,-12.212 5.556,-19.312c-0,-20.085 -16.283,-36.366 -36.368,-36.366c-20.084,0 -36.366,16.281 -36.366,36.366c0,20.087 16.281,36.365 36.366,36.365c7.726,0 14.883,-2.415 20.772,-6.519l20.445,20.446c1.421,1.42 3.283,2.127 5.143,2.127c1.862,-0 3.723,-0.707 5.145,-2.127c2.84,-2.842 2.84,-7.445 -0.002,-10.287Zm-51.503,-15.422c-13.575,0 -24.581,-11.005 -24.581,-24.581c-0,-13.576 11.006,-24.582 24.581,-24.582c13.577,-0 24.582,11.006 24.582,24.582c-0,13.576 -11.005,24.581 -24.582,24.581Z" style="fill:url(#_Linear1);fill-rule:nonzero;"/><path d="M49.48,67.852c-1.105,0 -2,-0.895 -2,-2c-0,-2.198 -0,-5.708 -0,-7.906c-0,-1.105 -0.896,-2 -2,-2c-2.22,-0 -5.781,-0 -8,-0c-1.105,-0 -2,-0.896 -2,-2c-0,-1.281 -0,-2.938 -0,-4.219c-0,-1.105 0.895,-2 2,-2c2.219,0 5.78,0 8,0c1.104,0 2,-0.895 2,-2c-0,-2.198 -0,-5.708 -0,-7.906c-0,-1.105 0.895,-2 2,-2c1.221,-0 2.778,-0 4,-0c1.104,-0 2,0.895 2,2c-0,2.198 -0,5.708 -0,7.906c-0,1.105 0.895,2 2,2c2.226,0 5.804,0 8.031,0c1.105,0 2,0.895 2,2c0,1.281 0,2.938 0,4.219c0,1.104 -0.895,2 -2,2c-2.227,-0 -5.805,-0 -8.031,-0c-1.105,-0 -2,0.895 -2,2c-0,2.198 -0,5.708 -0,7.906c-0,1.105 -0.896,2 -2,2c-1.222,0 -2.779,0 -4,0Z" style="fill:url(#_Linear2);fill-rule:nonzero;"/><defs><linearGradient id="_Linear1" x1="0" y1="0" x2="1" y2="0" gradientUnits="userSpaceOnUse" gradientTransform="matrix(-64,84,-84,-64,71,25)"><stop offset="0" style="stop-color:#00aeb3;stop-opacity:1"/><stop offset="1" style="stop-color:#005a5c;stop-opacity:1"/></linearGradient><linearGradient id="_Linear2" x1="0" y1="0" x2="1" y2="0" gradientUnits="userSpaceOnUse" gradientTransform="matrix(-21,29,-29,-21,54,43)"><stop offset="0" style="stop-color:#d26d29;stop-opacity:1"/><stop offset="1" style="stop-color:#903d06;stop-opacity:1"/></linearGradient></defs></svg>