<?xml version="1.0" encoding="UTF-8" standalone="no"?><!DOCTYPE svg PUBLIC "-//W3C//DTD SVG 1.1//EN" "http://www.w3.org/Graphics/SVG/1.1/DTD/svg11.dtd"><svg width="100%" height="100%" viewBox="0 0 512 512" version="1.1" xmlns="http://www.w3.org/2000/svg" xmlns:xlink="http://www.w3.org/1999/xlink" xml:space="preserve" xmlns:serif="http://www.serif.com/" style="fill-rule:evenodd;clip-rule:evenodd;stroke-linejoin:round;stroke-miterlimit:2;"><path d="M450.93,104.356c-2.816,52.768 -93.747,138.72 -161.341,195.124c-2.145,-0.099 -3.446,-0.159 -5.591,-0.257l-66.124,-66.126c-0.135,-2.159 -0.22,-3.507 -0.355,-5.666c53.732,-68.958 135.042,-160.641 187.517,-166.16c26.828,-2.819 47.311,16.69 45.894,43.085Z" style="fill:url(#_Linear1);fill-rule:nonzero;"/><path d="M289.589,299.48c-20.868,17.453 -41.791,33.757 -53.3,42.446c-4.654,-29.206 -27.529,-54.733 -59.964,-58.961c0.509,-0.761 17.133,-24.719 41.194,-55.534l72.07,72.049Z" style="fill:#e0f4fe;fill-rule:nonzero;"/><path d="M289.588,299.48c-20.939,17.512 -43.547,35.131 -53.298,42.446c-2.438,-15.304 -9.88,-29.595 -21.078,-40.351c21.63,-21.63 32.825,-32.811 38.232,-38.233l36.144,36.138Z" style="fill:#bcdcfe;fill-rule:nonzero;"/><path d="M218.532,299.531c-33.372,-33.374 -89.35,-24.772 -117.571,10.502c-33.293,41.616 -5.422,78.753 -36.826,111.865c-5.469,5.764 -3.518,15.237 3.794,18.367c52.008,22.265 117.505,7.807 147.859,-24.198c28.54,-30.091 37.369,-81.909 2.744,-116.536Z" style="fill:url(#_Linear2);fill-rule:nonzero;"/><defs><linearGradient id="_Linear1" x1="0" y1="0" x2="1" y2="0" gradientUnits="userSpaceOnUse" gradientTransform="matrix(-140.411,204.678,-204.678,-140.411,430,79.9999)"><stop offset="0" style="stop-color:#be85e1;stop-opacity:1"/><stop offset="1" style="stop-color:#b714ed;stop-opacity:1"/></linearGradient><linearGradient id="_Linear2" x1="0" y1="0" x2="1" y2="0" gradientUnits="userSpaceOnUse" gradientTransform="matrix(-109,117,-117,-109,190,321)"><stop offset="0" style="stop-color:#fed941;stop-opacity:1"/><stop offset="1" style="stop-color:#ff6f35;stop-opacity:1"/></linearGradient></defs></svg>