<?xml version="1.0" encoding="UTF-8" standalone="no"?>
<!DOCTYPE svg PUBLIC "-//W3C//DTD SVG 1.1//EN" "http://www.w3.org/Graphics/SVG/1.1/DTD/svg11.dtd">
<svg width="100%" height="100%" viewBox="0 0 1024 1024" version="1.1" xmlns="http://www.w3.org/2000/svg" xmlns:xlink="http://www.w3.org/1999/xlink" xml:space="preserve" xmlns:serif="http://www.serif.com/" style="fill-rule:evenodd;clip-rule:evenodd;stroke-linejoin:round;stroke-miterlimit:2;">
    <g transform="matrix(6.18483e-17,1.01006,-1.13892,6.97387e-17,1148.65,-116.257)">
        <g transform="matrix(0.914193,-5.79065e-33,-1.15813e-32,0.914193,53.3723,47.9657)">
            <path d="M295.077,632.303C260.455,632.303 232.346,657.231 232.346,687.936L232.346,799.203C232.346,829.908 260.455,854.836 295.077,854.836L949.135,854.836C983.757,854.836 1011.87,829.908 1011.87,799.203L1011.87,687.936C1011.87,657.231 983.757,632.303 949.135,632.303L295.077,632.303ZM294.865,263.153C260.242,263.153 232.134,288.081 232.134,318.786L232.134,430.053C232.134,460.758 260.242,485.686 294.865,485.686L948.922,485.686C983.544,485.686 1011.65,460.758 1011.65,430.053L1011.65,318.786C1011.65,288.081 983.544,263.153 948.922,263.153L294.865,263.153Z" style="fill:rgb(255,213,105);"/>
        </g>
        <g transform="matrix(5.54206e-17,-0.802684,0.905087,4.91502e-17,158.595,969.966)">
            <path d="M175.06,586.237L175.06,842.426C175.06,877.396 203.452,905.788 238.422,905.788L365.146,905.788C400.116,905.788 428.508,877.396 428.508,842.426L428.508,732.566L175.06,586.237ZM595.492,828.974L595.492,842.211C595.492,877.182 623.884,905.573 658.854,905.573L728.166,905.573L595.492,828.974Z" style="fill:rgb(254,127,0);fill-opacity:0.45;"/>
        </g>
        <g transform="matrix(5.54206e-17,-0.802684,0.905087,4.91502e-17,158.595,969.966)">
            <path d="M728.889,905.573L785.578,905.573C820.548,905.573 848.94,877.182 848.94,842.211L848.94,696.033L595.492,549.705L595.492,828.557L728.889,905.573ZM428.508,453.297L428.508,732.149L175.06,585.82L175.06,306.969L428.508,453.297Z" style="fill:rgb(253,127,0);fill-opacity:0.29;"/>
        </g>
        <g transform="matrix(5.54206e-17,-0.802684,0.905087,4.91502e-17,158.595,969.966)">
            <path d="M848.94,418.174L848.94,695.507L595.492,549.179L595.492,271.846L848.94,418.174ZM329.762,118.427L238.422,118.427C203.452,118.427 175.06,146.818 175.06,181.789L175.06,306.443L428.508,452.771L428.508,181.789C428.508,179.578 428.395,177.395 428.173,175.244L329.762,118.427Z" style="fill:rgb(254,127,0);fill-opacity:0.15;"/>
        </g>
    </g>
</svg>
