<?xml version="1.0" encoding="UTF-8" standalone="no"?><!DOCTYPE svg PUBLIC "-//W3C//DTD SVG 1.1//EN" "http://www.w3.org/Graphics/SVG/1.1/DTD/svg11.dtd"><svg width="100%" height="100%" viewBox="0 0 512 512" version="1.1" xmlns="http://www.w3.org/2000/svg" xmlns:xlink="http://www.w3.org/1999/xlink" xml:space="preserve" xmlns:serif="http://www.serif.com/" style="fill-rule:evenodd;clip-rule:evenodd;stroke-linejoin:round;stroke-miterlimit:2;"><path d="M468.734,302.057c-1.363,-0 -2.593,-0.822 -3.115,-2.082c-6.637,-16.026 -11.531,-20.919 -27.557,-27.556c-1.26,-0.521 -2.082,-1.752 -2.082,-3.115c0,-1.365 0.821,-2.593 2.082,-3.115c16.027,-6.641 20.92,-11.534 27.557,-27.559c0.522,-1.261 1.752,-2.082 3.115,-2.082c1.364,0 2.593,0.821 3.115,2.082c6.639,16.026 11.533,20.918 27.56,27.559c1.26,0.522 2.081,1.75 2.081,3.115c-0,1.363 -0.821,2.593 -2.082,3.115c-16.026,6.637 -20.92,11.53 -27.559,27.556c-0.52,1.259 -1.75,2.082 -3.115,2.082Z" style="fill:#fff;fill-rule:nonzero;"/><path d="M48.751,298.403c-1.551,-0 -2.95,-0.935 -3.544,-2.369c-7.551,-18.232 -13.119,-23.798 -31.351,-31.35c-1.434,-0.594 -2.367,-1.992 -2.367,-3.544c-0,-1.551 0.935,-2.95 2.367,-3.544c18.234,-7.554 23.8,-13.122 31.351,-31.353c0.594,-1.433 1.993,-2.368 3.544,-2.368c1.552,-0 2.95,0.935 3.544,2.368c7.553,18.231 13.121,23.799 31.353,31.353c1.434,0.594 2.369,1.993 2.369,3.544c-0,1.552 -0.935,2.952 -2.369,3.544c-18.232,7.55 -23.8,13.118 -31.353,31.35c-0.594,1.434 -1.992,2.369 -3.544,2.369Z" style="fill:#ffd00d;fill-rule:nonzero;"/><path d="M95.168,102.414c-1.363,0 -2.593,-0.821 -3.115,-2.082c-6.637,-16.026 -11.531,-20.918 -27.557,-27.556c-1.259,-0.52 -2.082,-1.751 -2.082,-3.115c0,-1.365 0.821,-2.593 2.082,-3.115c16.027,-6.64 20.92,-11.534 27.557,-27.559c0.522,-1.26 1.752,-2.081 3.115,-2.081c1.364,-0 2.593,0.821 3.116,2.081c6.638,16.027 11.532,20.919 27.56,27.559c1.259,0.522 2.08,1.75 2.08,3.115c-0,1.364 -0.821,2.593 -2.082,3.115c-16.026,6.638 -20.92,11.53 -27.558,27.556c-0.521,1.26 -1.751,2.082 -3.116,2.082Z" style="fill:#fff;fill-rule:nonzero;"/><path d="M429.566,140.579c-1.59,-0 -3.022,-0.958 -3.631,-2.425c-7.734,-18.675 -13.436,-24.376 -32.11,-32.109c-1.468,-0.608 -2.424,-2.042 -2.424,-3.63c-0,-1.59 0.958,-3.021 2.424,-3.63c18.676,-7.737 24.377,-13.438 32.11,-32.11c0.609,-1.469 2.041,-2.427 3.631,-2.427c1.589,0 3.021,0.958 3.63,2.427c7.736,18.673 13.437,24.374 32.112,32.11c1.467,0.609 2.424,2.04 2.424,3.63c-0,1.588 -0.958,3.022 -2.426,3.63c-18.674,7.733 -24.374,13.435 -32.111,32.109c-0.608,1.467 -2.04,2.425 -3.629,2.425Z" style="fill:#ff9518;fill-rule:nonzero;"/><path d="M472.359,293.235c-6.638,-16.026 -11.531,-20.919 -27.558,-27.558c-0.792,-0.327 -1.41,-0.934 -1.76,-1.68c-1.538,0.72 -3.18,1.444 -4.981,2.19c-1.259,0.522 -2.081,1.751 -2.081,3.115c-0,1.364 0.821,2.593 2.081,3.115c16.028,6.638 20.92,11.53 27.558,27.556c0.522,1.261 1.751,2.082 3.115,2.082c1.363,0 2.593,-0.821 3.115,-2.082c0.745,-1.8 1.469,-3.442 2.19,-4.98c-0.743,-0.349 -1.35,-0.967 -1.679,-1.758Z" style="fill:#d9eafc;fill-rule:nonzero;"/><path d="M294.756,236.548c-1.363,0 -2.593,-0.821 -3.115,-2.081c-6.637,-16.026 -11.531,-20.919 -27.557,-27.556c-1.259,-0.521 -2.082,-1.752 -2.082,-3.116c0,-1.364 0.821,-2.593 2.082,-3.115c16.027,-6.64 20.92,-11.534 27.557,-27.558c0.522,-1.261 1.752,-2.082 3.115,-2.082c1.364,-0 2.593,0.821 3.116,2.082c6.638,16.026 11.532,20.918 27.56,27.558c1.259,0.522 2.08,1.751 2.08,3.115c-0,1.364 -0.821,2.593 -2.082,3.116c-16.026,6.637 -20.92,11.53 -27.558,27.556c-0.521,1.259 -1.751,2.081 -3.116,2.081Z" style="fill:#eef6ff;fill-rule:nonzero;"/><path d="M298.382,227.726c-6.639,-16.026 -11.532,-20.918 -27.559,-27.557c-0.791,-0.327 -1.41,-0.935 -1.76,-1.68c-1.538,0.72 -3.18,1.443 -4.98,2.19c-1.26,0.522 -2.082,1.75 -2.082,3.115c-0,1.364 0.821,2.593 2.082,3.115c16.027,6.638 20.92,11.53 27.557,27.556c0.522,1.261 1.752,2.082 3.115,2.082c1.364,-0 2.593,-0.821 3.115,-2.082c0.746,-1.8 1.469,-3.442 2.19,-4.98c-0.742,-0.349 -1.35,-0.967 -1.678,-1.759Z" style="fill:#a9d1f8;fill-rule:nonzero;"/><path d="M214.756,430.056c-1.363,0 -2.593,-0.821 -3.115,-2.082c-6.637,-16.026 -11.531,-20.918 -27.557,-27.556c-1.259,-0.52 -2.082,-1.751 -2.082,-3.115c0,-1.365 0.821,-2.593 2.082,-3.115c16.027,-6.64 20.92,-11.534 27.557,-27.559c0.522,-1.26 1.752,-2.081 3.115,-2.081c1.364,-0 2.593,0.821 3.116,2.081c6.638,16.027 11.532,20.919 27.56,27.559c1.259,0.522 2.08,1.75 2.08,3.115c-0,1.364 -0.821,2.593 -2.082,3.115c-16.026,6.638 -20.92,11.53 -27.558,27.556c-0.521,1.26 -1.751,2.082 -3.116,2.082Z" style="fill:#ffc17b;fill-rule:nonzero;"/><path d="M218.382,421.234c-6.639,-16.026 -11.532,-20.918 -27.559,-27.557c-0.791,-0.327 -1.41,-0.935 -1.76,-1.68c-1.538,0.719 -3.18,1.443 -4.98,2.19c-1.26,0.522 -2.082,1.75 -2.082,3.115c-0,1.363 0.821,2.593 2.082,3.115c16.027,6.637 20.92,11.53 27.557,27.556c0.522,1.261 1.752,2.082 3.115,2.082c1.364,-0 2.593,-0.821 3.115,-2.082c0.746,-1.8 1.469,-3.442 2.19,-4.98c-0.742,-0.349 -1.35,-0.968 -1.678,-1.759Z" style="fill:#ff9518;fill-rule:nonzero;"/><path d="M52.876,288.366c-7.552,-18.232 -13.12,-23.798 -31.352,-31.35c-0.901,-0.372 -1.603,-1.065 -2.002,-1.911c-1.75,0.819 -3.617,1.642 -5.666,2.491c-1.434,0.594 -2.367,1.993 -2.367,3.544c-0,1.552 0.935,2.952 2.367,3.544c18.232,7.552 23.8,13.118 31.351,31.35c0.594,1.434 1.993,2.369 3.544,2.369c1.552,-0 2.95,-0.935 3.544,-2.369c0.848,-2.049 1.672,-3.916 2.49,-5.665c-0.845,-0.399 -1.536,-1.102 -1.909,-2.003Z" style="fill:#ffaf10;fill-rule:nonzero;"/><path d="M98.794,93.592c-6.639,-16.026 -11.532,-20.918 -27.559,-27.557c-0.791,-0.327 -1.41,-0.935 -1.76,-1.68c-1.538,0.719 -3.18,1.443 -4.98,2.19c-1.26,0.522 -2.082,1.75 -2.082,3.115c-0,1.363 0.821,2.593 2.082,3.115c16.027,6.637 20.92,11.53 27.557,27.556c0.522,1.261 1.752,2.082 3.115,2.082c1.364,-0 2.593,-0.821 3.115,-2.082c0.746,-1.8 1.469,-3.442 2.19,-4.98c-0.742,-0.349 -1.35,-0.968 -1.678,-1.759Z" style="fill:#d9eafc;fill-rule:nonzero;"/><path d="M433.79,130.3c-7.736,-18.673 -13.437,-24.374 -32.112,-32.109c-0.922,-0.381 -1.641,-1.09 -2.05,-1.957c-1.791,0.84 -3.705,1.683 -5.805,2.551c-1.467,0.609 -2.424,2.04 -2.424,3.63c0,1.588 0.958,3.022 2.424,3.63c18.675,7.734 24.378,13.435 32.111,32.109c0.608,1.467 2.041,2.425 3.63,2.425c1.59,-0 3.022,-0.958 3.631,-2.425c0.869,-2.1 1.712,-4.012 2.551,-5.803c-0.867,-0.409 -1.575,-1.128 -1.956,-2.051Z" style="fill:#ef8318;fill-rule:nonzero;"/></svg>