<?xml version="1.0" encoding="UTF-8" standalone="no"?><!DOCTYPE svg PUBLIC "-//W3C//DTD SVG 1.1//EN" "http://www.w3.org/Graphics/SVG/1.1/DTD/svg11.dtd"><svg width="100%" height="100%" viewBox="0 0 512 512" version="1.1" xmlns="http://www.w3.org/2000/svg" xmlns:xlink="http://www.w3.org/1999/xlink" xml:space="preserve" xmlns:serif="http://www.serif.com/" style="fill-rule:evenodd;clip-rule:evenodd;stroke-linejoin:round;stroke-miterlimit:2;"><path d="M489.5,124.949c0,-22.841 -18.544,-41.385 -41.385,-41.385l-384.23,-0c-22.841,-0 -41.385,18.544 -41.385,41.385l0,262.102c0,22.841 18.544,41.385 41.385,41.385l384.23,0c22.841,0 41.385,-18.544 41.385,-41.385l0,-262.102Z" style="fill:#abb2bb;"/><path d="M465.694,125.493c0,-10.483 -8.51,-18.993 -18.992,-18.993l-381.404,-0c-10.482,-0 -18.992,8.51 -18.992,18.993l-0,233.34c-0,10.482 8.51,18.993 18.992,18.993l381.404,-0c10.482,-0 18.992,-8.511 18.992,-18.993l0,-233.34Z" style="fill:#1e1e1e;"/><path d="M46.306,287.06l152.569,-180.56l47.984,-0l-200.553,237.347l-0,-56.787Zm45.269,90.766l229.264,-271.326l113.135,-0l-229.264,271.326l-113.135,-0Zm148.552,-0l222.261,-263.038c2.086,3.048 3.306,6.735 3.306,10.705l0,27.873l-189.663,224.46l-35.904,-0Z" style="fill:#333;"/><circle cx="257.528" cy="404.284" r="17.728"/></svg>