<?xml version="1.0" encoding="UTF-8" standalone="no"?><!DOCTYPE svg PUBLIC "-//W3C//DTD SVG 1.1//EN" "http://www.w3.org/Graphics/SVG/1.1/DTD/svg11.dtd"><svg width="100%" height="100%" viewBox="0 0 512 512" version="1.1" xmlns="http://www.w3.org/2000/svg" xmlns:xlink="http://www.w3.org/1999/xlink" xml:space="preserve" xmlns:serif="http://www.serif.com/" style="fill-rule:evenodd;clip-rule:evenodd;stroke-linejoin:round;stroke-miterlimit:2;"><path d="M276.986,125.472c-0.725,-3.368 -3.527,-5.894 -6.952,-6.268c-9.331,-0.943 -18.735,-0.943 -28.065,0.014c-3.42,0.373 -6.216,2.894 -6.941,6.257c-1.812,8.346 -5.183,23.989 -6.836,31.655c-0.587,2.725 -2.55,4.947 -5.181,5.866c-3.217,1.132 -6.371,2.438 -9.45,3.905c-2.508,1.209 -5.464,1.025 -7.803,-0.484c-6.594,-4.245 -20.039,-12.922 -27.215,-17.553c-2.895,-1.869 -6.662,-1.674 -9.348,0.484c-7.266,5.931 -13.915,12.58 -19.835,19.854c-2.155,2.682 -2.35,6.443 -0.484,9.333c4.62,7.183 13.297,20.628 17.55,27.217c1.511,2.342 1.694,5.301 0.484,7.812c-1.475,3.075 -2.781,6.229 -3.921,9.443c-0.919,2.628 -3.139,4.588 -5.86,5.175c-7.664,1.662 -23.307,5.033 -31.656,6.832c-3.368,0.726 -5.894,3.527 -6.268,6.953c-0.943,9.331 -0.943,18.735 0.014,28.064c0.373,3.42 2.894,6.217 6.257,6.942c8.346,1.812 23.989,5.183 31.655,6.836c2.724,0.587 4.947,2.55 5.866,5.181c1.132,3.217 2.438,6.371 3.905,9.45c1.209,2.508 1.025,5.464 -0.484,7.803c-4.245,6.594 -12.922,20.039 -17.553,27.215c-1.869,2.895 -1.674,6.662 0.484,9.348c5.931,7.266 12.58,13.915 19.854,19.835c2.682,2.155 6.442,2.35 9.333,0.484c7.183,-4.62 20.628,-13.297 27.217,-17.55c2.342,-1.511 5.301,-1.694 7.811,-0.484c3.076,1.475 6.23,2.781 9.444,3.921c2.628,0.919 4.588,3.139 5.175,5.86c1.662,7.664 5.033,23.307 6.832,31.656c0.726,3.368 3.527,5.894 6.953,6.268c9.331,0.943 18.735,0.943 28.064,-0.014c3.42,-0.373 6.217,-2.894 6.942,-6.257c1.812,-8.346 5.183,-23.989 6.835,-31.655c0.588,-2.725 2.551,-4.947 5.181,-5.866c3.218,-1.132 6.372,-2.438 9.451,-3.905c2.508,-1.209 5.464,-1.025 7.802,0.484c6.595,4.245 20.04,12.922 27.216,17.553c2.895,1.869 6.662,1.674 9.348,-0.484c7.266,-5.931 13.915,-12.58 19.835,-19.854c2.155,-2.682 2.35,-6.443 0.484,-9.333c-4.62,-7.183 -13.297,-20.628 -17.55,-27.217c-1.511,-2.342 -1.695,-5.301 -0.484,-7.812c1.475,-3.075 2.781,-6.229 3.921,-9.443c0.919,-2.628 3.139,-4.588 5.86,-5.175c7.664,-1.662 23.307,-5.033 31.655,-6.832c3.369,-0.726 5.895,-3.527 6.268,-6.953c0.944,-9.331 0.944,-18.735 -0.013,-28.064c-0.373,-3.42 -2.894,-6.217 -6.257,-6.942c-8.346,-1.812 -23.989,-5.183 -31.655,-6.836c-2.725,-0.587 -4.947,-2.55 -5.866,-5.181c-1.132,-3.217 -2.438,-6.371 -3.905,-9.45c-1.209,-2.508 -1.025,-5.464 0.484,-7.803c4.245,-6.594 12.922,-20.039 17.553,-27.215c1.869,-2.895 1.674,-6.662 -0.484,-9.348c-5.931,-7.266 -12.58,-13.915 -19.854,-19.835c-2.682,-2.155 -6.443,-2.35 -9.333,-0.484c-7.183,4.62 -20.628,13.297 -27.217,17.55c-2.342,1.511 -5.301,1.694 -7.812,0.484c-3.075,-1.475 -6.229,-2.781 -9.444,-3.921c-2.627,-0.919 -4.588,-3.139 -5.174,-5.86c-1.662,-7.664 -5.033,-23.307 -6.833,-31.656Z"/></svg>