<?xml version="1.0" encoding="UTF-8" standalone="no"?><!DOCTYPE svg PUBLIC "-//W3C//DTD SVG 1.1//EN" "http://www.w3.org/Graphics/SVG/1.1/DTD/svg11.dtd"><svg width="100%" height="100%" viewBox="0 0 512 512" version="1.1" xmlns="http://www.w3.org/2000/svg" xmlns:xlink="http://www.w3.org/1999/xlink" xml:space="preserve" xmlns:serif="http://www.serif.com/" style="fill-rule:evenodd;clip-rule:evenodd;stroke-linejoin:round;stroke-miterlimit:2;"><path d="M87.349,352.717l0,-123.83c0,-98.511 75.762,-178.865 168.651,-178.865c92.889,0 168.651,80.353 168.651,178.865l0,123.83l-51.893,27.517l-51.892,-27.517l0,-123.83c0,-0.824 -0.014,-1.644 -0.041,-2.461c0.027,-0.762 0.04,-1.525 0.04,-2.291c-0,-35.801 -29.065,-64.866 -64.865,-64.866c-35.801,0 -64.866,29.065 -64.866,64.866c0,0.773 0.014,1.543 0.041,2.306c-0.027,0.809 -0.041,1.626 -0.041,2.446l0,123.83l-51.892,27.517l-51.893,-27.517Z" style="fill:#e61a20;fill-rule:nonzero;"/><path d="M256,159.269l-0,0c-35.801,0 -64.866,29.065 -64.866,64.866c0,0.773 0.014,1.543 0.041,2.306c-0.027,0.809 -0.041,1.626 -0.041,2.446l0,123.83l-51.892,27.517l-51.893,-27.517l-0,-123.83c-0,-98.511 75.762,-178.865 168.651,-178.865l0,109.247Z" style="fill:#b81319;fill-rule:nonzero;"/><path d="M320.865,421.51c0,7.606 5.803,13.759 12.973,13.759l77.84,0c7.171,0 12.973,-6.154 12.973,-13.759l0,-68.794l-103.786,-0l0,68.794Z" style="fill:#edf5ff;fill-rule:nonzero;"/><path d="M100.322,435.269l77.839,0c7.171,0 12.974,-6.153 12.973,-13.759l0,-68.793l-103.785,-0l0,68.793c-0.001,7.606 5.802,13.759 12.973,13.759Z" style="fill:#d7e9ff;fill-rule:nonzero;"/></svg>