<?xml version="1.0" encoding="UTF-8" standalone="no"?><!DOCTYPE svg PUBLIC "-//W3C//DTD SVG 1.1//EN" "http://www.w3.org/Graphics/SVG/1.1/DTD/svg11.dtd"><svg width="100%" height="100%" viewBox="0 0 512 512" version="1.1" xmlns="http://www.w3.org/2000/svg" xmlns:xlink="http://www.w3.org/1999/xlink" xml:space="preserve" xmlns:serif="http://www.serif.com/" style="fill-rule:evenodd;clip-rule:evenodd;stroke-linejoin:round;stroke-miterlimit:2;">
<g>
<path d="M148.004,466.262c-0,-5.388 -4.375,-9.762 -9.762,-9.762c-5.388,0 -9.763,4.374 -9.763,9.762l0,30.476c0,5.388 4.375,9.762 9.763,9.762c5.387,0 9.762,-4.374 9.762,-9.762l-0,-30.476Z" style="fill:#ffda2d;"/>
<path d="M138.242,506.5l-0,-50c-5.388,0 -9.763,4.374 -9.763,9.762l0,30.476c0,5.388 4.375,9.762 9.763,9.762Z" style="fill:#fdbf00;"/>
<path d="M100.338,471.143c2.694,-4.666 1.093,-10.641 -3.573,-13.335c-4.666,-2.694 -10.642,-1.093 -13.336,3.573l-15.237,26.393c-2.694,4.666 -1.093,10.641 3.573,13.335c4.666,2.694 10.641,1.093 13.335,-3.573l15.238,-26.393Z" style="fill:#ffda2d;"/>
<path d="M71.765,501.109l25,-43.301c-4.666,-2.694 -10.642,-1.093 -13.336,3.573l-15.237,26.393c-2.694,4.666 -1.093,10.641 3.573,13.335Z" style="fill:#fdbf00;"/>
<path d="M193.054,461.389c-2.694,-4.666 -8.669,-6.267 -13.336,-3.574c-4.666,2.694 -6.267,8.67 -3.573,13.336l15.238,26.393c2.694,4.666 8.669,6.267 13.335,3.573c4.667,-2.694 6.268,-8.67 3.574,-13.336l-15.238,-26.392Z" style="fill:#ffda2d;"/>
<path d="M204.718,501.117l-25,-43.302c-4.666,2.694 -6.267,8.67 -3.573,13.336l15.238,26.393c2.694,4.666 8.669,6.267 13.335,3.573Z" style="fill:#fdbf00;"/>
<path d="M148.004,466.262c-0,-5.388 -4.375,-9.762 -9.762,-9.762c-5.388,0 -9.763,4.374 -9.763,9.762l0,30.476c0,5.388 4.375,9.762 9.763,9.762c5.387,0 9.762,-4.374 9.762,-9.762l-0,-30.476Z" style="fill:#ffda2d;"/>
<path d="M138.242,506.5l-0,-50c-5.388,0 -9.763,4.374 -9.763,9.762l0,30.476c0,5.388 4.375,9.762 9.763,9.762Z" style="fill:#fdbf00;"/>
<path d="M100.338,471.143c2.694,-4.666 1.093,-10.641 -3.573,-13.335c-4.666,-2.694 -10.642,-1.093 -13.336,3.573l-15.237,26.393c-2.694,4.666 -1.093,10.641 3.573,13.335c4.666,2.694 10.641,1.093 13.335,-3.573l15.238,-26.393Z" style="fill:#ffda2d;"/>
<path d="M71.765,501.109l25,-43.301c-4.666,-2.694 -10.642,-1.093 -13.336,3.573l-15.237,26.393c-2.694,4.666 -1.093,10.641 3.573,13.335Z" style="fill:#fdbf00;"/>
<path d="M193.054,461.389c-2.694,-4.666 -8.669,-6.267 -13.336,-3.574c-4.666,2.694 -6.267,8.67 -3.573,13.336l15.238,26.393c2.694,4.666 8.669,6.267 13.335,3.573c4.667,-2.694 6.268,-8.67 3.574,-13.336l-15.238,-26.392Z" style="fill:#ffda2d;"/>
<path d="M204.718,501.117l-25,-43.302c-4.666,2.694 -6.267,8.67 -3.573,13.336l15.238,26.393c2.694,4.666 8.669,6.267 13.335,3.573Z" style="fill:#fdbf00;"/>
<path d="M381.004,466.262c-0,-5.388 -4.375,-9.762 -9.762,-9.762c-5.388,0 -9.763,4.374 -9.763,9.762l0,30.476c0,5.388 4.375,9.762 9.763,9.762c5.387,-0 9.762,-4.374 9.762,-9.762l-0,-30.476Z" style="fill:#ffda2d;"/>
<path d="M371.242,506.5l-0,-50c-5.388,0 -9.763,4.374 -9.763,9.762l0,30.476c0,5.388 4.375,9.762 9.763,9.762Z" style="fill:#fdbf00;"/>
<path d="M333.338,471.143c2.694,-4.666 1.093,-10.641 -3.573,-13.335c-4.666,-2.694 -10.642,-1.093 -13.336,3.573l-15.237,26.393c-2.694,4.666 -1.093,10.641 3.573,13.335c4.666,2.694 10.641,1.093 13.335,-3.573l15.238,-26.393Z" style="fill:#ffda2d;"/>
<path d="M304.765,501.109l25,-43.301c-4.666,-2.694 -10.642,-1.093 -13.336,3.573l-15.237,26.393c-2.694,4.666 -1.093,10.641 3.573,13.335Z" style="fill:#fdbf00;"/>
<path d="M426.054,461.389c-2.694,-4.666 -8.669,-6.267 -13.336,-3.574c-4.666,2.694 -6.267,8.67 -3.573,13.336l15.238,26.393c2.694,4.666 8.669,6.267 13.335,3.573c4.667,-2.694 6.268,-8.67 3.574,-13.336l-15.238,-26.392Z" style="fill:#ffda2d;"/>
<path d="M437.718,501.117l-25,-43.302c-4.666,2.694 -6.267,8.67 -3.573,13.336l15.238,26.393c2.694,4.666 8.669,6.267 13.335,3.573Z" style="fill:#fdbf00;"/>
</g>
</svg>