<?xml version="1.0" encoding="UTF-8" standalone="no"?><!DOCTYPE svg PUBLIC "-//W3C//DTD SVG 1.1//EN" "http://www.w3.org/Graphics/SVG/1.1/DTD/svg11.dtd"><svg width="100%" height="100%" viewBox="0 0 512 512" version="1.1" xmlns="http://www.w3.org/2000/svg" xmlns:xlink="http://www.w3.org/1999/xlink" xml:space="preserve" xmlns:serif="http://www.serif.com/" style="fill-rule:evenodd;clip-rule:evenodd;stroke-linejoin:round;stroke-miterlimit:2;"><path d="M256,93.081c116.97,0 211.934,93.856 211.934,209.46c-0,115.603 -94.964,209.459 -211.934,209.459c-116.97,0 -211.934,-93.856 -211.934,-209.459c0,-58.871 24.627,-112.101 64.245,-150.169c38.181,-36.686 90.285,-59.291 147.689,-59.291Z" style="fill:#33b3cc;"/><path d="M44.077,304.737c-0.007,-0.731 -0.011,-1.464 -0.011,-2.196c0,-58.871 24.627,-112.101 64.245,-150.169c0.989,-0.95 1.986,-1.89 2.993,-2.821l144.696,-149.551l144.696,149.551c41.367,38.237 67.238,92.651 67.238,152.99c-0,0.612 -0.003,1.223 -0.008,1.834c-22.857,-34.172 -61.799,-56.691 -105.959,-56.691c-34.504,-0 -65.822,13.747 -88.771,36.059c-7.616,7.404 -14.31,15.752 -19.893,24.854c-23.151,31.994 -60.797,52.826 -103.27,52.826c-44.158,-0 -83.098,-22.517 -105.956,-56.686Z" style="fill:#85d4e0;"/><path d="M467.926,304.375c-0.001,0.147 -0.003,0.295 -0.004,0.443c-17.525,-21.515 -44.223,-35.266 -74.108,-35.266c-25.878,-0 -49.367,10.31 -66.578,27.044c-5.965,5.799 -11.175,12.368 -15.47,19.548c-28.867,40.623 -76.304,67.147 -129.886,67.147c-56.05,-0 -105.375,-29.023 -133.754,-72.847c23.249,30.947 60.257,50.979 101.907,50.979c42.473,-0 80.119,-20.832 103.27,-52.826c5.583,-9.102 12.277,-17.45 19.893,-24.854c22.949,-22.312 54.267,-36.059 88.771,-36.059c44.16,-0 83.102,22.519 105.959,56.691Z" style="fill:#85d4e0;"/><path d="M467.933,303.132c-0.001,0.415 -0.003,0.829 -0.007,1.243c-22.857,-34.172 -61.799,-56.691 -105.959,-56.691c-34.504,-0 -65.822,13.747 -88.771,36.059c-7.616,7.404 -14.31,15.752 -19.893,24.854c-23.151,31.994 -60.797,52.826 -103.27,52.826c-44.158,-0 -83.098,-22.517 -105.956,-56.686c-0.005,-0.503 -0.008,-1.007 -0.01,-1.511c17.382,23.813 45.506,39.297 77.218,39.297c34.845,-0 65.358,-18.694 82.048,-46.592c5.631,-7.925 11.97,-15.314 18.922,-22.073c28.687,-27.889 67.834,-45.074 110.964,-45.074c56.687,0 106.496,29.687 134.714,74.348Z" style="fill:#c2eaf0;"/><circle cx="256" cy="144" r="56.685" style="fill:#c2eaf0;"/></svg>