<?xml version="1.0" encoding="UTF-8" standalone="no"?><!DOCTYPE svg PUBLIC "-//W3C//DTD SVG 1.1//EN" "http://www.w3.org/Graphics/SVG/1.1/DTD/svg11.dtd"><svg width="100%" height="100%" viewBox="0 0 512 512" version="1.1" xmlns="http://www.w3.org/2000/svg" xmlns:xlink="http://www.w3.org/1999/xlink" xml:space="preserve" style="fill-rule:evenodd;clip-rule:evenodd;stroke-linejoin:round;stroke-miterlimit:2;"><path d="M256,0c-141.385,0 -256,114.615 -256,256c0,141.385 114.615,256 256,256c141.385,0 256,-114.615 256,-256c0,-141.385 -114.615,-256 -256,-256Z" style="fill:url(#_Linear1);"/><path d="M70.917,334.395c-10.377,-24.256 -16.123,-50.957 -16.123,-78.99c0,-111.04 90.151,-201.191 201.191,-201.191c111.04,0 201.19,90.151 201.19,201.191c0,6.756 -0.333,13.435 -0.985,20.02c-15.698,-12.39 -31.893,-19.116 -49.018,-18.959c0.002,-0.353 0.003,-0.707 0.003,-1.061c0,-83.445 -67.746,-151.191 -151.19,-151.191c-83.445,0 -151.191,67.746 -151.191,151.191c0,25.411 6.283,49.367 17.379,70.397c-1.912,-0.643 -3.762,-1.161 -5.539,-1.547c-15.172,-3.298 -30.969,0.982 -45.717,10.14Z" style="fill-opacity:0.3;"/><g><circle cx="255.985" cy="255.405" r="176.19" style="fill:#0ac;"/><circle cx="255.985" cy="255.405" r="127.325" style="fill:#ccf7ff;"/><path d="M131.399,130.819c68.761,-68.761 180.411,-68.761 249.172,-0c68.76,68.761 68.76,180.411 -0,249.171c-9.266,-71.703 -49.738,-114.228 -124.586,-124.585c-71.168,-11.035 -111.867,-53.251 -124.586,-124.586Z" style="fill:#00d5ff;"/><path d="M363.674,323.328c-19.802,-37.697 -55.336,-60.678 -107.689,-67.923c-50.528,-7.836 -85.699,-31.389 -106.401,-69.923c22.777,-34.569 61.944,-57.403 106.401,-57.403c70.273,0 127.325,57.052 127.325,127.326c0,24.964 -7.2,48.261 -19.636,67.923Z" style="fill:#fff;"/><path d="M190.142,295.47c-0.003,0.002 -0.005,0.004 -0.008,0.006c-7.126,-11.679 -11.233,-25.397 -11.233,-40.066c-0,-53.771 77.084,-105.572 77.084,-105.572c-0,-0 0.073,0.048 0.214,0.146c-4.919,9.355 -7.703,20.006 -7.703,31.301c0,37.204 30.204,67.407 67.407,67.407c5.693,-0 11.222,-0.707 16.505,-2.039c0.432,2.908 0.66,5.829 0.66,8.757c-0,8.711 -1.448,17.088 -4.117,24.901c-0.011,0.052 -0.023,0.103 -0.04,0.151c-10.408,30.261 -39.139,52.031 -72.915,52.031l-0.011,-0c-14.535,-0 -28.135,-4.032 -39.744,-11.036c0.001,-0.002 0.003,-0.004 0.004,-0.006c-10.652,-6.429 -19.625,-15.362 -26.103,-25.981Z"/><path d="M185.229,227.462c18.427,-42.459 70.756,-77.624 70.756,-77.624c-0,-0 0.073,0.048 0.214,0.146c-4.919,9.355 -7.703,20.006 -7.703,31.301c0,37.204 30.204,67.407 67.407,67.407c5.693,-0 11.222,-0.707 16.505,-2.039c0.432,2.908 0.66,5.829 0.66,8.757c-0,8.711 -1.448,17.088 -4.117,24.901c-0.011,0.052 -0.023,0.103 -0.04,0.151c-0.2,0.58 -0.406,1.157 -0.619,1.731c-18.957,-13.743 -42.997,-22.732 -72.307,-26.788c-28.377,-4.402 -51.91,-13.758 -70.756,-27.943Z" style="fill:#001f24;"/></g><path d="M27.488,371.527c8.88,-5.064 21.773,-21.513 36.473,-32.399c16.66,-12.337 35.087,-18.695 52.673,-14.873c11.462,2.491 25.928,10.458 40.824,22.027c18.966,14.731 39.698,35.62 55.862,50.655c57.828,-58.13 128.987,-119.053 166.814,-134.674c28.271,-11.675 53.76,-5.213 78.094,14.806c14.588,12 28.949,29.725 43.638,50.484c-30.958,106.562 -129.317,184.447 -245.866,184.447c-99.818,0 -186.293,-57.129 -228.512,-140.473Z" style="fill-opacity:0.3;"/><path d="M179.799,500.468c-58.367,-18.174 -107.773,-56.674 -139.936,-107.219c15.696,-8.946 44.029,-50.527 71.461,-44.564c29.19,6.344 80.522,65.524 103.68,82.632c18.555,13.708 -16.219,42.974 -35.205,69.151Z" style="fill:#66c705;"/><path d="M491.499,356.548c-39.076,91.403 -129.808,155.452 -235.499,155.452c-33.923,0 -66.306,-6.598 -95.933,-18.582c46.016,-60.065 174.371,-185.236 229.609,-208.048c38.276,-15.806 68.235,21.427 101.823,71.178Z" style="fill:#8cf91f;"/><defs><linearGradient id="_Linear1" x1="0" y1="0" x2="1" y2="0" gradientUnits="userSpaceOnUse" gradientTransform="matrix(-338.437,356.529,-356.529,-338.437,425.203,84.272)"><stop offset="0" style="stop-color:#fcef39;stop-opacity:1"/><stop offset="1" style="stop-color:#c2406e;stop-opacity:1"/></linearGradient></defs></svg>