<?xml version="1.0" encoding="UTF-8" standalone="no"?><!DOCTYPE svg PUBLIC "-//W3C//DTD SVG 1.1//EN" "http://www.w3.org/Graphics/SVG/1.1/DTD/svg11.dtd"><svg width="100%" height="100%" viewBox="0 0 512 512" version="1.1" xmlns="http://www.w3.org/2000/svg" xmlns:xlink="http://www.w3.org/1999/xlink" xml:space="preserve" xmlns:serif="http://www.serif.com/" style="fill-rule:evenodd;clip-rule:evenodd;stroke-linejoin:round;stroke-miterlimit:2;"><path d="M318.656,246.033l-55.916,55.916l-16.961,4.66l-39.886,-39.885l0.931,-20.691l55.916,-55.917l55.916,55.917Z" style="fill:#fea832;fill-rule:nonzero;"/><path d="M318.656,246.033l-55.916,55.916l-16.961,4.66l-21.807,-21.807l66.726,-66.727l27.958,27.958Z" style="fill:#fe9923;fill-rule:nonzero;"/><path d="M136.556,455.719c-22.18,27.4 -63.371,29.45 -88.16,4.66c-24.975,-24.975 -22.74,-65.981 4.659,-88.161l153.769,-126.185l55.916,55.916l-126.184,153.77Z" style="fill:#787780;fill-rule:nonzero;"/><path d="M262.74,301.949l-126.184,153.77c-22.18,27.4 -63.371,29.45 -88.16,4.66l186.387,-186.388l27.957,27.958Z" style="fill:#57555c;fill-rule:nonzero;"/><path d="M441.859,240.629l-55.917,55.916l-29.823,5.218c-8.015,-9.505 -9.134,-24.044 -5.964,-33.922c1.119,-4.472 -0.187,-9.133 -3.542,-12.488c-5.218,-5.218 -13.42,-5.218 -18.639,0c-5.219,5.219 -13.419,5.219 -18.639,0l-55.916,-55.916c-2.61,-2.61 -3.915,-5.778 -3.729,-9.318c-0.186,-26.281 -10.25,-51.258 -28.889,-69.897l-0.187,-0.186c-18.825,-18.453 -43.428,-28.518 -69.709,-28.703c-10.996,0.559 -18.08,-13.607 -9.32,-22.367c46.224,-46.224 121.525,-46.224 167.749,-0l93.194,93.193c5.219,5.219 5.218,13.42 -0,18.638c-5.219,5.219 -5.218,13.42 -0,18.638c6.524,6.524 8.76,2.796 15.842,2.796c8.202,-2.609 21.249,-1.12 30.568,6.71l-7.079,31.688Z" style="fill:#d9d9d9;fill-rule:nonzero;"/><path d="M441.859,240.629l-55.917,55.916l-29.823,5.218c-8.015,-9.505 -9.134,-24.044 -5.964,-33.922c1.119,-4.472 -0.187,-9.133 -3.542,-12.488c-5.218,-5.218 -13.42,-5.218 -18.639,0c-5.219,5.219 -13.419,5.219 -18.639,0l-27.958,-27.958l93.196,-93.194l27.958,27.958c5.219,5.219 5.219,13.42 0,18.638c-5.218,5.219 -5.218,13.42 0,18.638c6.525,6.524 8.761,2.796 15.843,2.796c8.202,-2.609 21.248,-1.12 30.567,6.71l-7.082,31.688Z" style="fill:#c8c6cd;fill-rule:nonzero;"/><path d="M477.086,255.353l-74.555,74.555c-5.219,5.219 -13.42,5.219 -18.639,0l-25.722,-25.721c-0.745,-0.745 -1.49,-1.491 -2.049,-2.423l92.82,-92.822c0.932,0.559 1.678,1.306 2.423,2.05l25.722,25.721c5.22,5.22 5.218,13.422 -0,18.64Z" style="fill:#aeadb3;fill-rule:nonzero;"/></svg>