<?xml version="1.0" encoding="UTF-8" standalone="no"?><!DOCTYPE svg PUBLIC "-//W3C//DTD SVG 1.1//EN" "http://www.w3.org/Graphics/SVG/1.1/DTD/svg11.dtd"><svg width="100%" height="100%" viewBox="0 0 512 512" version="1.1" xmlns="http://www.w3.org/2000/svg" xmlns:xlink="http://www.w3.org/1999/xlink" xml:space="preserve" style="fill-rule:evenodd;clip-rule:evenodd;stroke-linejoin:round;stroke-miterlimit:2;"><path d="M368.095,255.999l95.783,95.781c16.161,16.163 16.161,42.365 -0,58.527l-53.57,53.57c-16.161,16.161 -42.364,16.161 -58.528,0l-95.782,-95.782l-95.781,95.782c-16.163,16.161 -42.366,16.161 -58.527,0l-53.57,-53.57c-16.162,-16.161 -16.162,-42.364 -0,-58.527l95.782,-95.781l-95.782,-95.783c-16.162,-16.162 -16.162,-42.364 -0,-58.527l53.57,-53.57c16.161,-16.161 42.363,-16.161 58.527,0l95.781,95.783l95.782,-95.783c16.163,-16.161 42.365,-16.161 58.528,0l53.57,53.57c16.161,16.161 16.161,42.365 -0,58.527l-95.783,95.783Z" style="fill:#ea3237;fill-rule:nonzero;"/><path d="M280.77,343.323l120.551,120.553c1.418,1.418 2.934,2.665 4.493,3.834c-16.209,12.158 -39.288,10.91 -54.032,-3.834l-95.781,-95.783l24.769,-24.77Z" style="fill:#9c0d10;fill-rule:nonzero;"/><path d="M151.229,48.121l-53.569,53.57c-16.161,16.161 -16.161,42.364 -0,58.527l95.782,95.782l-95.782,95.781c-16.161,16.163 -16.161,42.365 -0,58.528l53.569,53.57c1.417,1.418 2.935,2.665 4.494,3.834c-16.211,12.158 -39.289,10.91 -54.032,-3.834l-53.57,-53.57c-16.161,-16.161 -16.161,-42.365 -0,-58.528l95.782,-95.781l-95.782,-95.782c-16.161,-16.163 -16.161,-42.365 -0,-58.527l53.57,-53.57c14.743,-14.745 37.822,-15.992 54.032,-3.834c-1.557,1.168 -3.077,2.416 -4.494,3.834Z" style="fill:#9c0d10;fill-rule:nonzero;"/><path d="M401.321,48.121l-120.551,120.552l-24.769,-24.77l95.781,-95.782c14.744,-14.745 37.823,-15.992 54.032,-3.834c-1.559,1.168 -3.075,2.416 -4.493,3.834Z" style="fill:#9c0d10;fill-rule:nonzero;"/></svg>