<?xml version="1.0" encoding="UTF-8" standalone="no"?><!DOCTYPE svg PUBLIC "-//W3C//DTD SVG 1.1//EN" "http://www.w3.org/Graphics/SVG/1.1/DTD/svg11.dtd"><svg width="100%" height="100%" viewBox="0 0 512 512" version="1.1" xmlns="http://www.w3.org/2000/svg" xmlns:xlink="http://www.w3.org/1999/xlink" xml:space="preserve" style="fill-rule:evenodd;clip-rule:evenodd;stroke-linecap:round;stroke-linejoin:round;stroke-miterlimit:1.5;"><path d="M327.527,112.946c0,-39.477 -32.05,-71.528 -71.527,-71.528l-143.054,0c-39.477,0 -71.528,32.051 -71.528,71.528l0,143.054c0,39.477 32.051,71.527 71.528,71.527l143.054,0c39.477,0 71.527,-32.05 71.527,-71.527l0,-143.054Z" style="fill:#ff0707;stroke:#6c0000;stroke-width:20px;"/><path d="M470.582,256c-0,-39.477 -32.051,-71.527 -71.528,-71.527l-143.054,-0c-39.477,-0 -71.527,32.05 -71.527,71.527l-0,143.054c-0,39.477 32.05,71.528 71.527,71.528l143.054,-0c39.477,-0 71.528,-32.051 71.528,-71.528l-0,-143.054Z" style="fill:#838383;stroke:#363636;stroke-width:20px;"/></svg>