<?xml version="1.0" encoding="UTF-8" standalone="no"?><!DOCTYPE svg PUBLIC "-//W3C//DTD SVG 1.1//EN" "http://www.w3.org/Graphics/SVG/1.1/DTD/svg11.dtd"><svg width="100%" height="100%" viewBox="0 0 511 511" version="1.1" xmlns="http://www.w3.org/2000/svg" xmlns:xlink="http://www.w3.org/1999/xlink" xml:space="preserve" style="fill-rule:evenodd;clip-rule:evenodd;stroke-linejoin:round;stroke-miterlimit:2;"><path d="M425.788,247.469c-4.148,-68.565 -61.06,-122.893 -130.67,-122.893c-56.14,0 -104.019,35.338 -122.624,84.983c-48.346,0.584 -87.36,39.933 -87.36,88.416c0,48.846 39.598,88.445 88.444,88.445l249.785,-0c38.386,-0 69.505,-31.119 69.505,-69.505c-0,-37.575 -29.817,-68.167 -67.08,-69.446Z" style="fill:#a6a6a6;fill-rule:nonzero;"/><path d="M492.872,316.911c-0,38.386 -31.127,69.513 -69.513,69.513l-5.384,-0c5.037,-9.622 7.891,-20.577 7.891,-32.187c-0,-37.575 -29.817,-68.168 -67.08,-69.451c-4.148,-68.561 -61.06,-122.892 -130.674,-122.892c-9.388,0 -18.538,0.986 -27.356,2.866c23.812,-24.768 57.282,-40.18 94.362,-40.18c69.61,0 126.526,54.32 130.674,122.893c37.263,1.271 67.08,31.867 67.08,69.438Z" style="fill:#808080;fill-rule:nonzero;"/><path d="M66.085,287.083c2.967,-49.022 43.653,-87.86 93.419,-87.86c40.137,0 74.366,25.267 87.669,60.757c34.561,0.417 62.452,28.549 62.452,63.212c-0,34.92 -28.308,63.228 -63.228,63.228l-178.577,-0c-27.442,-0 -49.692,-22.246 -49.692,-49.692c0,-26.862 21.318,-48.729 47.957,-49.645Z" style="fill:#e6e5e5;fill-rule:nonzero;"/><path d="M309.628,323.196c0,34.619 -27.84,62.74 -62.362,63.212c10.351,-11.263 16.663,-26.269 16.663,-42.76c-0,-34.655 -27.887,-62.791 -62.46,-63.212c-13.302,-35.486 -47.528,-60.757 -87.668,-60.757c-4.741,0 -9.4,0.359 -13.957,1.037c16.194,-13.422 36.978,-21.489 59.656,-21.489c40.141,0 74.367,25.259 87.669,60.756c34.569,0.418 62.459,28.542 62.459,63.213Z" style="fill:#cdcccb;fill-rule:nonzero;"/></svg>