<?xml version="1.0" encoding="UTF-8" standalone="no"?><!DOCTYPE svg PUBLIC "-//W3C//DTD SVG 1.1//EN" "http://www.w3.org/Graphics/SVG/1.1/DTD/svg11.dtd"><svg width="100%" height="100%" viewBox="0 0 512 512" version="1.1" xmlns="http://www.w3.org/2000/svg" xmlns:xlink="http://www.w3.org/1999/xlink" xml:space="preserve" xmlns:serif="http://www.serif.com/" style="fill-rule:evenodd;clip-rule:evenodd;stroke-linejoin:round;stroke-miterlimit:2;"><path d="M213.824,74.667c-11.776,0 -21.333,-9.558 -21.333,-21.334l0,-30.058c0,-11.776 9.557,-21.334 21.333,-21.334c11.776,0 21.333,9.558 21.333,21.334l0,30.058c0,11.776 -9.557,21.334 -21.333,21.334Z" style="fill:#90a4ae;fill-rule:nonzero;"/><path d="M299.157,74.667c-11.776,0 -21.333,-9.558 -21.333,-21.334l0,-30.058c0,-11.776 9.557,-21.334 21.333,-21.334c11.776,0 21.334,9.558 21.334,21.334l0,30.058c0,11.776 -9.558,21.334 -21.334,21.334Z" style="fill:#90a4ae;fill-rule:nonzero;"/><path d="M340.693,152.533l-169.386,-0c-5.931,-0 -11.371,-3.285 -14.144,-8.512c-5.12,-9.685 -7.83,-20.757 -7.83,-32.021c0,-18.581 7.19,-36.011 20.267,-49.067c13.077,-13.056 30.485,-20.266 49.067,-20.266l74.666,-0c38.23,-0 69.334,31.104 69.334,69.333c0,11.264 -2.71,22.336 -7.83,32c-2.773,5.248 -8.213,8.533 -14.144,8.533Z" style="fill:#607d8b;fill-rule:nonzero;"/><g><path d="M490.667,330.667l-74.667,-0c-11.776,-0 -21.333,-9.558 -21.333,-21.334c0,-11.776 9.557,-21.333 21.333,-21.333l74.667,0c11.776,0 21.333,9.557 21.333,21.333c0,11.776 -9.557,21.334 -21.333,21.334Z" style="fill:#90a4ae;fill-rule:nonzero;"/><path d="M96,330.667l-74.667,-0c-11.776,-0 -21.333,-9.558 -21.333,-21.334c0,-11.776 9.557,-21.333 21.333,-21.333l74.667,0c11.776,0 21.333,9.557 21.333,21.333c0,11.776 -9.557,21.334 -21.333,21.334Z" style="fill:#90a4ae;fill-rule:nonzero;"/><path d="M42.688,490.667c-6.635,-0 -13.163,-3.072 -17.323,-8.854c-6.89,-9.557 -4.736,-22.89 4.822,-29.781l63.573,-45.867c9.557,-6.869 22.912,-4.736 29.781,4.822c6.891,9.557 4.736,22.89 -4.821,29.781l-63.573,45.867c-3.776,2.709 -8.128,4.032 -12.459,4.032Z" style="fill:#90a4ae;fill-rule:nonzero;"/><path d="M405.781,216.533c-6.634,-0 -13.162,-3.072 -17.322,-8.853c-6.891,-9.557 -4.736,-22.891 4.821,-29.781l63.573,-45.867c9.579,-6.869 22.912,-4.736 29.782,4.821c6.89,9.558 4.736,22.891 -4.822,29.782l-63.573,45.866c-3.776,2.71 -8.128,4.032 -12.459,4.032Z" style="fill:#90a4ae;fill-rule:nonzero;"/><path d="M469.312,490.667c-4.331,-0 -8.683,-1.323 -12.459,-4.032l-63.573,-45.867c-9.557,-6.891 -11.712,-20.224 -4.821,-29.781c6.912,-9.558 20.245,-11.691 29.781,-4.822l63.573,45.867c9.558,6.891 11.712,20.224 4.822,29.781c-4.16,5.782 -10.688,8.854 -17.323,8.854Z" style="fill:#90a4ae;fill-rule:nonzero;"/><path d="M106.219,216.533c-4.331,-0 -8.683,-1.322 -12.459,-4.032l-63.573,-45.866c-9.558,-6.891 -11.712,-20.224 -4.822,-29.782c6.891,-9.557 20.246,-11.69 29.782,-4.821l63.573,45.867c9.557,6.89 11.712,20.224 4.821,29.781c-4.16,5.781 -10.688,8.853 -17.322,8.853Z" style="fill:#90a4ae;fill-rule:nonzero;"/></g><path d="M282.667,512l-53.334,0c-79.402,0 -144,-64.597 -144,-144l-0,-117.333c-0,-79.403 64.598,-144 144,-144l53.334,0c79.402,0 144,64.597 144,144l-0,117.333c-0,79.403 -64.598,144 -144,144Z" style="fill:#f44336;fill-rule:nonzero;"/><path d="M213.824,1.941c-11.776,0 -21.333,9.558 -21.333,21.334l0,24.448c8.192,-3.328 17.045,-5.056 26.176,-5.056l16.49,0l-0,-19.392c-0,-11.776 -9.557,-21.334 -21.333,-21.334Z" style="fill:#7d8f97;fill-rule:nonzero;"/><path d="M256,42.667l-37.333,0c-9.131,0 -17.984,1.728 -26.176,5.056c-8.491,3.434 -16.256,8.554 -22.891,15.21c-13.077,13.056 -20.267,30.486 -20.267,49.067c0,5.952 0.747,11.861 2.219,17.515c22.443,-14.464 49.152,-22.848 77.781,-22.848l26.667,0l0,-64Z" style="fill:#546d79;fill-rule:nonzero;"/><path d="M85.333,288l-64,0c-11.776,0 -21.333,9.557 -21.333,21.333c0,11.776 9.557,21.334 21.333,21.334l64,-0l0,-42.667Z" style="fill:#7d8f97;fill-rule:nonzero;"/><path d="M91.029,408.149l-60.842,43.883c-9.558,6.891 -11.712,20.224 -4.822,29.781c4.16,5.782 10.688,8.854 17.323,8.854c4.331,0 8.683,-1.323 12.459,-4.032l54.186,-39.104c-7.978,-11.99 -14.208,-25.238 -18.304,-39.382Z" style="fill:#7d8f97;fill-rule:nonzero;"/><path d="M42.688,128c-6.613,0 -13.141,3.072 -17.323,8.853c-6.89,9.558 -4.736,22.891 4.822,29.782l60.842,43.882c4.118,-14.144 10.347,-27.392 18.326,-39.402l-54.187,-39.104c-3.797,-2.688 -8.149,-4.011 -12.48,-4.011Z" style="fill:#7d8f97;fill-rule:nonzero;"/><path d="M256,106.667l-26.667,0c-28.629,0 -55.338,8.384 -77.781,22.848c-16.768,10.816 -31.168,25.002 -42.219,41.6c-7.978,12.01 -14.208,25.258 -18.304,39.402c-3.712,12.758 -5.696,26.219 -5.696,40.15l0,117.333c0,13.931 1.984,27.392 5.696,40.149c4.118,14.144 10.347,27.392 18.326,39.403c25.813,38.805 69.952,64.448 119.978,64.448l26.667,0l0,-405.333Z" style="fill:#d43a2f;fill-rule:nonzero;"/></svg>