<?xml version="1.0" encoding="UTF-8" standalone="no"?><!DOCTYPE svg PUBLIC "-//W3C//DTD SVG 1.1//EN" "http://www.w3.org/Graphics/SVG/1.1/DTD/svg11.dtd"><svg width="100%" height="100%" viewBox="0 0 512 512" version="1.1" xmlns="http://www.w3.org/2000/svg" xmlns:xlink="http://www.w3.org/1999/xlink" xml:space="preserve" xmlns:serif="http://www.serif.com/" style="fill-rule:evenodd;clip-rule:evenodd;stroke-linejoin:round;stroke-miterlimit:2;"><path d="M406,512l-300,0c-24.814,0 -45,-20.186 -45,-45l0,-392c0,-24.814 20.186,-45 45,-45l60,0c8.291,0 15,6.709 15,15c0,8.276 6.724,15 15,15l120,0c8.276,0 15,-6.724 15,-15c0,-8.291 6.709,-15 15,-15l60,0c24.814,0 45,20.186 45,45l0,392c0,24.814 -20.186,45 -45,45Z" style="fill:#d33a2e;fill-rule:nonzero;"/><path d="M406,30l-60,0c-8.291,0 -15,6.709 -15,15c0,8.276 -6.724,15 -15,15l-60,0l0,452l150,0c24.814,0 45,-20.186 45,-45l0,-392c0,-24.814 -20.186,-45 -45,-45Z" style="fill:#f44336;fill-rule:nonzero;"/><path d="M376,452l-240,0c-8.291,0 -15,-6.709 -15,-15l0,-300c0,-8.291 6.709,-15 15,-15l240,0c8.291,0 15,6.709 15,15l0,300c0,8.291 -6.709,15 -15,15Z" style="fill:#e6eeff;fill-rule:nonzero;"/><path d="M376,122l-120,0l0,330l120,0c8.291,0 15,-6.709 15,-15l0,-300c0,-8.291 -6.709,-15 -15,-15Z" style="fill:#dae2f2;fill-rule:nonzero;"/><g><path d="M196,212c-8.284,0 -15,-6.716 -15,-15c0,-8.284 6.716,-15 15,-15c8.284,0 15,6.716 15,15c0,8.284 -6.716,15 -15,15Z" style="fill:#7f838c;fill-rule:nonzero;"/><path d="M196,272c-8.284,0 -15,-6.716 -15,-15c0,-8.284 6.716,-15 15,-15c8.284,0 15,6.716 15,15c0,8.284 -6.716,15 -15,15Z" style="fill:#7f838c;fill-rule:nonzero;"/><path d="M196,332c-8.284,0 -15,-6.716 -15,-15c0,-8.284 6.716,-15 15,-15c8.284,0 15,6.716 15,15c0,8.284 -6.716,15 -15,15Z" style="fill:#7f838c;fill-rule:nonzero;"/><path d="M196,392c-8.284,0 -15,-6.716 -15,-15c0,-8.284 6.716,-15 15,-15c8.284,0 15,6.716 15,15c0,8.284 -6.716,15 -15,15Z" style="fill:#7f838c;fill-rule:nonzero;"/><path d="M316,212l-60,0c-8.291,0 -15,-6.709 -15,-15c0,-8.291 6.709,-15 15,-15l60,0c8.291,0 15,6.709 15,15c0,8.291 -6.709,15 -15,15Z" style="fill:#7f838c;fill-rule:nonzero;"/><path d="M316,272l-60,0c-8.291,0 -15,-6.709 -15,-15c0,-8.291 6.709,-15 15,-15l60,0c8.291,0 15,6.709 15,15c0,8.291 -6.709,15 -15,15Z" style="fill:#7f838c;fill-rule:nonzero;"/><path d="M316,332l-60,0c-8.291,0 -15,-6.709 -15,-15c0,-8.291 6.709,-15 15,-15l60,0c8.291,0 15,6.709 15,15c0,8.291 -6.709,15 -15,15Z" style="fill:#7f838c;fill-rule:nonzero;"/><path d="M316,392l-60,0c-8.291,0 -15,-6.709 -15,-15c0,-8.291 6.709,-15 15,-15l60,0c8.291,0 15,6.709 15,15c0,8.291 -6.709,15 -15,15Z" style="fill:#7f838c;fill-rule:nonzero;"/></g><g><path d="M316,392c8.291,0 15,-6.709 15,-15c0,-8.291 -6.709,-15 -15,-15l-60,0l0,30l60,0Z" style="fill:#757982;fill-rule:nonzero;"/><path d="M316,332c8.291,0 15,-6.709 15,-15c0,-8.291 -6.709,-15 -15,-15l-60,0l0,30l60,0Z" style="fill:#757982;fill-rule:nonzero;"/><path d="M316,272c8.291,0 15,-6.709 15,-15c0,-8.291 -6.709,-15 -15,-15l-60,0l0,30l60,0Z" style="fill:#757982;fill-rule:nonzero;"/><path d="M316,212c8.291,0 15,-6.709 15,-15c0,-8.291 -6.709,-15 -15,-15l-60,0l0,30l60,0Z" style="fill:#757982;fill-rule:nonzero;"/></g><path d="M316,92l-120,0c-24.814,0 -45,-22.186 -45,-47c0,-24.814 20.186,-45 45,-45l120,0c24.814,0 45,20.186 45,45c0,24.814 -20.186,47 -45,47Z" style="fill:#c4cad9;fill-rule:nonzero;"/><path d="M316,0l-60,0l0,92l60,0c24.814,0 45,-22.186 45,-47c0,-24.814 -20.186,-45 -45,-45Z" style="fill:#b8bfcc;fill-rule:nonzero;"/></svg>