<?xml version="1.0" encoding="UTF-8" standalone="no"?><!DOCTYPE svg PUBLIC "-//W3C//DTD SVG 1.1//EN" "http://www.w3.org/Graphics/SVG/1.1/DTD/svg11.dtd"><svg width="100%" height="100%" viewBox="0 0 512 512" version="1.1" xmlns="http://www.w3.org/2000/svg" xmlns:xlink="http://www.w3.org/1999/xlink" xml:space="preserve" xmlns:serif="http://www.serif.com/" style="fill-rule:evenodd;clip-rule:evenodd;stroke-linejoin:round;stroke-miterlimit:2;"><path d="M126.908,194.262c-28.481,-3.872 -61.707,8.442 -84.642,31.38l-38.3,38.3c-4.33,4.331 -5.219,11.035 -2.151,16.344c2.994,5.241 9.264,7.91 15.23,6.313c24.304,-6.517 56.471,-8.685 64.381,-2.645l45.482,-89.692Z" style="fill:#ff637b;fill-rule:nonzero;"/><path d="M325.241,378.977l-94.296,45.49c5.253,7.155 4.838,29.789 -1.285,71.236c-0.915,6.131 2.254,12.065 7.667,14.771c5.474,2.769 12.102,1.699 16.44,-2.639l40.207,-40.208c22.715,-22.714 34.994,-57.513 31.267,-88.65Z" style="fill:#e63950;fill-rule:nonzero;"/><path d="M224.033,444.398c-36.619,19.752 -41.278,20.863 -46.829,24.636c-6.215,3.992 -14.205,3.105 -19.531,-2.219l-110.971,-110.973c-5.105,-5.104 -6.212,-13.319 -2.22,-19.531c3.772,-5.549 4.218,-9.102 24.191,-47.273l43.946,-0.446l110.972,110.972l0.442,44.834Z" style="fill:#7c8388;fill-rule:nonzero;"/><path d="M224.033,444.398c-36.619,19.752 -41.278,20.863 -46.829,24.636c-6.215,3.992 -14.205,3.105 -19.531,-2.219l-55.488,-55.489l66.585,-66.579l54.817,54.817l0.446,44.834Z" style="fill:#575f64;fill-rule:nonzero;"/><path d="M224.033,444.398l-155.36,-155.36c77.013,-145.371 169.566,-236.149 276.985,-271.657l75.461,75.015l73.683,73.688c-35.508,106.975 -126.061,200.188 -270.769,278.314Z" style="fill:#faecd8;fill-rule:nonzero;"/><path d="M224.033,444.398l-77.46,-77.459l274.546,-274.543l73.683,73.684c-35.508,106.979 -126.061,200.192 -270.769,278.318Z" style="fill:#f4d7af;fill-rule:nonzero;"/><path d="M372.734,140.781l-0.665,-0.665c-30.628,-30.628 -80.345,-30.632 -110.973,-0c-30.627,30.627 -30.627,80.344 -0,110.967l0.666,0.666c30.628,29.74 79.899,29.74 110.307,-0.666c30.406,-30.403 30.406,-79.678 0.665,-110.302Z" style="fill:#64e1dc;fill-rule:nonzero;"/><path d="M372.069,251.083c-30.408,30.406 -79.679,30.406 -110.307,0.666l110.972,-110.968c29.741,30.624 29.741,79.899 -0.665,110.302Z" style="fill:#00c8c8;fill-rule:nonzero;"/><path d="M494.802,166.08c-33.954,-2.44 -70.352,-18.421 -99.872,-47.495l-0.666,-0.665c-29.74,-29.741 -46.386,-66.364 -48.606,-100.543c10.209,-3.551 20.639,-6.436 31.074,-8.876c37.95,-8.656 77.679,-10.655 118.96,-6.213c3.994,0.442 7.766,2.441 9.985,5.546c2.219,2.219 3.777,5.105 3.997,8.436c4.664,41.057 2.22,80.785 -6.437,118.737c-2.44,10.433 -5.105,20.643 -8.435,31.073Z" style="fill:#ff637b;fill-rule:nonzero;"/><path d="M494.802,166.08c-33.954,-2.44 -70.352,-18.421 -99.872,-47.495l110.747,-110.751c2.219,2.219 3.773,5.105 3.997,8.436c4.659,41.061 2.22,80.785 -6.437,118.737c-2.44,10.433 -5.105,20.643 -8.435,31.073Z" style="fill:#e63950;fill-rule:nonzero;"/><path d="M221.368,306.35c-0.221,-3.777 -1.774,-7.103 -4.438,-9.767c-2.665,-3.552 -6.878,-5.992 -11.318,-5.992c-57.707,-0.445 -70.58,19.973 -73.907,23.304c-96.099,96.099 -97.211,143.376 -97.211,148.256c0.221,4.218 1.773,7.994 4.659,10.875c0.221,0.221 0.446,0.446 0.891,0.446c2.219,2.219 5.326,3.551 8.652,3.772c7.99,0.887 53.044,-0.221 149.588,-96.766c21.755,-21.75 23.309,-41.947 23.084,-74.128Z" style="fill:#ff637b;fill-rule:nonzero;"/><path d="M221.368,306.35c0.225,32.181 -1.329,52.378 -23.084,74.128c-96.544,96.545 -141.598,97.653 -149.584,96.766c-3.33,-0.221 -6.437,-1.553 -8.656,-3.772l176.89,-176.889c2.66,2.664 4.213,5.99 4.434,9.767Z" style="fill:#e63950;fill-rule:nonzero;"/></svg>