<?xml version="1.0" encoding="UTF-8" standalone="no"?><!DOCTYPE svg PUBLIC "-//W3C//DTD SVG 1.1//EN" "http://www.w3.org/Graphics/SVG/1.1/DTD/svg11.dtd"><svg width="100%" height="100%" viewBox="0 0 512 512" version="1.1" xmlns="http://www.w3.org/2000/svg" xmlns:xlink="http://www.w3.org/1999/xlink" xml:space="preserve" xmlns:serif="http://www.serif.com/" style="fill-rule:evenodd;clip-rule:evenodd;stroke-linejoin:round;stroke-miterlimit:2;"><path d="M400.493,206.988c-9.075,4.431 -18.968,8.137 -29.494,10.921c-0.779,0.209 -1.564,0.402 -2.346,0.599c-22.521,5.629 -44.516,6.152 -63.462,2.421c-28.632,-5.653 -50.282,-21.031 -56.164,-43.256c-7.763,-29.328 14.206,-61.858 51.718,-81.899c4.767,-2.537 8.716,-6.196 11.588,-10.582c2.866,-4.366 4.655,-9.457 5.092,-14.836c1.451,-17.781 -11.271,-33.611 -28.967,-35.958c-24.257,-3.232 -59.46,-4.866 -94.22,4.337c-116.766,30.912 -185.828,153.749 -156.504,270.923c30.546,122.042 154.938,195.131 276.155,162.873c99.558,-26.485 166.185,-117.014 167.11,-215.75c0.008,-0.79 -0.01,-1.665 -0.064,-2.631c-2.176,-39.734 -44.675,-64.627 -80.442,-47.162Zm34.357,96.386c0,26.161 -21.206,47.369 -47.369,47.369c-26.162,-0 -47.367,-21.208 -47.367,-47.369c-0,-26.163 21.205,-47.373 47.367,-47.373c26.163,0 47.369,21.21 47.369,47.373Z" style="fill:url(#_Linear1);fill-rule:nonzero;"/><path d="M340.114,393.805c-0,26.163 -21.206,47.368 -47.369,47.368c-26.161,-0 -47.369,-21.205 -47.369,-47.368c0,-26.162 21.208,-47.373 47.369,-47.373c26.163,0 47.369,21.211 47.369,47.373Z" style="fill:#00b8b1;fill-rule:nonzero;"/><path d="M435.114,303.999c-0,26.162 -21.206,47.368 -47.369,47.368c-26.162,0 -47.369,-21.206 -47.369,-47.368c-0,-26.162 21.207,-47.373 47.369,-47.373c26.163,0 47.369,21.211 47.369,47.373Z" style="fill-rule:nonzero;"/><path d="M228.202,366.086c0,26.161 -21.209,47.367 -47.365,47.367c-26.161,0 -47.37,-21.206 -47.37,-47.367c0,-26.16 21.209,-47.37 47.37,-47.37c26.156,-0 47.365,21.21 47.365,47.37Z" style="fill:#8fd75d;fill-rule:nonzero;"/><path d="M162,268.922c-0,26.16 -21.206,47.365 -47.366,47.365c-26.162,-0 -47.37,-21.205 -47.37,-47.365c-0,-26.163 21.208,-47.372 47.37,-47.372c26.16,0 47.366,21.209 47.366,47.372Z" style="fill:#fa21b8;fill-rule:nonzero;"/><path d="M195.252,156.67c-0,26.162 -21.209,47.37 -47.372,47.37c-26.16,0 -47.366,-21.208 -47.366,-47.37c0,-26.161 21.206,-47.367 47.366,-47.367c26.163,-0 47.372,21.206 47.372,47.367Z" style="fill:#ffc757;fill-rule:nonzero;"/><defs><linearGradient id="_Linear1" x1="0" y1="0" x2="1" y2="0" gradientUnits="userSpaceOnUse" gradientTransform="matrix(-293.751,293.751,-293.751,-293.751,323.501,187.252)"><stop offset="0" style="stop-color:#fff;stop-opacity:1"/><stop offset="1" style="stop-color:#e5e5e5;stop-opacity:1"/></linearGradient></defs></svg>