<?xml version="1.0" encoding="UTF-8" standalone="no"?><!DOCTYPE svg PUBLIC "-//W3C//DTD SVG 1.1//EN" "http://www.w3.org/Graphics/SVG/1.1/DTD/svg11.dtd"><svg width="100%" height="100%" viewBox="0 0 512 512" version="1.1" xmlns="http://www.w3.org/2000/svg" xmlns:xlink="http://www.w3.org/1999/xlink" xml:space="preserve" xmlns:serif="http://www.serif.com/" style="fill-rule:evenodd;clip-rule:evenodd;stroke-linejoin:round;stroke-miterlimit:2;"><path id="Path" d="M392.455,83.304c-1.09,2.089 -95.311,169.929 -95.311,169.929l-77.96,-43.454l73.867,-132.523c7.661,-14.596 14.539,-27.656 19.001,-36.198c16.898,-32.161 43.336,-38.793 65.503,-27.164c14.579,7.08 23.75,21.951 23.531,38.157c-0.332,10.959 -3.292,21.677 -8.631,31.253Z" style="fill:#ffdc00;"/><path id="Path1" serif:id="Path" d="M337.49,90.299l-27.255,0c-9.97,0.156 -18.015,8.201 -18.17,18.17c0.03,10.023 8.147,18.141 18.17,18.171l-0,27.955c9.811,1.361 19.155,5.046 27.255,10.747l0,-38.702c-10.023,-0.03 -18.14,-8.148 -18.17,-18.171c0.156,-9.969 8.2,-18.014 18.17,-18.17Z" style="fill:#fec108;"/><path id="Path2" serif:id="Path" d="M377.555,13.894c-10.488,-5.816 -22.954,-6.896 -34.287,-2.971c2.419,0.802 4.771,1.795 7.032,2.971c14.579,7.08 23.75,21.951 23.531,38.157c-0.333,10.959 -3.293,21.677 -8.631,31.253c-1.091,2.089 -2.272,4.451 -3.634,6.995l27.255,0c1.363,-2.544 2.544,-4.906 3.634,-6.995c5.339,-9.576 8.299,-20.294 8.631,-31.253c0.219,-16.206 -8.952,-31.077 -23.531,-38.157Z" style="fill:#fec108;"/><path id="Path3" serif:id="Path" d="M264.809,44.874l16.263,32.524c0.602,1.224 1.089,2.502 1.453,3.816c0.286,1.406 0.438,2.836 0.454,4.27l0,193.687l-127.191,-0l0,-193.687c0.016,-1.434 0.168,-2.864 0.454,-4.27c0.365,-1.314 0.851,-2.592 1.454,-3.816l16.262,-32.524l0,-12.622c0.03,-13.083 8.148,-23.68 18.17,-23.719l54.511,0c10.023,0.039 18.14,10.636 18.17,23.719l0,12.622Z" style="fill:#02a9f4;"/><path id="Path4" serif:id="Path" d="M282.979,156.53c-5.216,1.555 0,-0 0,-0l0,122.641l-55.995,-0l-10.507,-34.425c-4.101,-8.499 -6.214,-17.819 -6.178,-27.255c-0.008,-28.131 18.467,-52.924 45.425,-60.961l0,-71.046c-0.016,-1.434 -0.168,-2.864 -0.454,-4.27l27.255,0c0.286,1.406 0.438,2.836 0.454,4.27l0,71.046Z" style="fill:#0377bc;"/><path id="Path5" serif:id="Path" d="M282.525,81.214l-126.283,0c0.365,-1.314 0.851,-2.592 1.454,-3.816l16.262,-32.524l90.851,-0l16.263,32.524c0.602,1.224 1.089,2.502 1.453,3.816Z" style="fill:#0377bc;"/><path id="Path6" serif:id="Path" d="M246.639,8.533l-27.255,0c10.022,0.03 18.14,8.148 18.17,18.171l-0,18.17l27.255,-0l0,-18.17c-0.03,-10.023 -8.147,-18.141 -18.17,-18.171Z" style="fill:#0377bc;"/><path id="Path7" serif:id="Path" d="M201.214,208.406c0.088,12.642 -2.906,25.115 -8.722,36.34l-127.918,0c-5.817,-11.225 -8.811,-23.698 -8.722,-36.34c-0,-35.16 21.713,-63.596 48.423,-63.596c8.813,0.057 17.353,3.064 24.258,8.54c6.904,-5.476 15.444,-8.483 24.257,-8.54c1.003,-0.03 2.006,0.031 2.998,0.182c25.347,1.998 45.426,29.617 45.426,63.414Z" style="fill:#f44335;"/><path id="Path8" serif:id="Path" d="M152.79,144.81c-4.664,0.021 -9.283,0.902 -13.628,2.598c20.087,7.732 34.796,32.071 34.796,60.998c0.089,12.642 -2.905,25.115 -8.721,36.34l27.255,0c5.816,-11.225 8.81,-23.698 8.722,-36.34c-0,-35.16 -21.714,-63.596 -48.424,-63.596Z" style="fill:#c81e1e;"/><path id="Path9" serif:id="Path" d="M464.682,108.469c-0.156,9.97 -8.201,18.015 -18.171,18.171l0,118.106l-87.943,0c4.1,-8.499 6.213,-17.819 6.177,-27.255c0.054,-20.81 -10.139,-40.313 -27.255,-52.149l0,-38.702c-10.023,-0.03 -18.14,-8.148 -18.17,-18.171c0.156,-9.969 8.2,-18.014 18.17,-18.17l109.021,0c10.023,0.03 18.141,8.148 18.171,18.17Z" style="fill:#9e9e9e;"/><path id="Path10" serif:id="Path" d="M446.511,90.299l-27.255,0c10.023,0.03 18.14,8.148 18.17,18.17c-0.156,9.97 -8.2,18.015 -18.17,18.171l0,118.106l27.255,0l0,-118.106c9.97,-0.156 18.015,-8.201 18.171,-18.171c-0.03,-10.022 -8.148,-18.14 -18.171,-18.17Z" style="fill:#707070;"/><path id="Path11" serif:id="Path" d="M364.745,217.491c0.036,9.436 -2.077,18.756 -6.177,27.255l-114.836,0c-4.101,-8.499 -6.214,-17.819 -6.178,-27.255c-0.007,-28.131 18.468,-52.924 45.425,-60.961c19.248,-5.707 40.059,-2.001 56.154,9.998c16.094,12 25.587,30.887 25.612,50.963Z" style="fill:#ff9801;"/><path id="Path12" serif:id="Path" d="M337.49,165.342c-14.475,-10.293 -32.676,-13.867 -49.968,-9.812c8.155,1.708 15.88,5.045 22.713,9.812c17.116,11.836 27.309,31.339 27.255,52.149c0.036,9.436 -2.077,18.756 -6.178,27.255l27.256,0c4.1,-8.499 6.213,-17.819 6.177,-27.255c0.054,-20.81 -10.139,-40.313 -27.255,-52.149Z" style="fill:#f57c00;"/><path d="M444.02,231.826c5.283,0 9.566,4.283 9.566,9.566c0,6.408 0,14.811 0,21.218c0,5.284 -4.283,9.567 -9.566,9.567c-54.376,-0 -324.02,-0 -378.397,-0c-5.283,-0 -9.566,-4.283 -9.566,-9.567c0,-6.407 0,-14.81 0,-21.218c0,-5.283 4.283,-9.566 9.566,-9.566c54.377,0 324.021,0 378.397,0Z" style="fill-opacity:0.2;"/><path id="Path13" serif:id="Path" d="M460.8,327.089l0,149.921c0,14.612 -11.462,26.457 -25.6,26.457l-358.4,-0c-14.138,-0 -25.6,-11.845 -25.6,-26.457l0,-149.921l409.6,0Z" style="fill:#f57c00;"/><path id="Path14" serif:id="Path" d="M432.403,330.761l0,126.853c0,12.364 -9.872,22.386 -22.05,22.386l-308.706,0c-12.178,0 -22.05,-10.022 -22.05,-22.386l-0,-126.853l352.806,-0Z" style="fill:#db6e00;"/><path id="Path15" serif:id="Path" d="M486.4,332.8l-460.8,-0c-5.906,-0.003 -11.39,-2.785 -14.5,-7.357c-3.11,-4.571 -3.403,-10.281 -0.775,-15.096l34.134,-62.153c2.882,-5.281 8.798,-8.621 15.274,-8.624l392.534,-0c6.476,0.003 12.392,3.343 15.274,8.624l34.134,62.153c2.628,4.815 2.335,10.525 -0.775,15.096c-3.11,4.572 -8.594,7.354 -14.5,7.357Z" style="fill:#ff9801;"/><path id="Path16" serif:id="Path" d="M501.675,310.347l-34.134,-62.153c-2.882,-5.281 -8.798,-8.621 -15.274,-8.624l-25.6,-0c6.476,0.003 12.392,3.343 15.274,8.624l34.134,62.153c2.628,4.815 2.335,10.525 -0.775,15.096c-3.11,4.572 -8.594,7.354 -14.5,7.357l25.6,-0c5.906,-0.003 11.39,-2.785 14.5,-7.357c3.11,-4.571 3.403,-10.281 0.775,-15.096Z" style="fill:#f57c00;"/></svg>