<?xml version="1.0" encoding="UTF-8" standalone="no"?><!DOCTYPE svg PUBLIC "-//W3C//DTD SVG 1.1//EN" "http://www.w3.org/Graphics/SVG/1.1/DTD/svg11.dtd"><svg width="100%" height="100%" viewBox="0 0 512 512" version="1.1" xmlns="http://www.w3.org/2000/svg" xmlns:xlink="http://www.w3.org/1999/xlink" xml:space="preserve" xmlns:serif="http://www.serif.com/" style="fill-rule:evenodd;clip-rule:evenodd;stroke-linejoin:round;stroke-miterlimit:2;"><path d="M256,424.528c0,0 219.388,-187.405 236.557,-202.151c0.846,-0.725 0.204,-3.156 0.024,-3.261l-224.157,-128.314c-7.687,-4.439 -17.157,-4.439 -24.845,0l-224.154,128.314c-0.176,0.103 -0.838,2.516 -0.032,3.214c16.753,14.499 236.607,202.198 236.607,202.198Z" style="fill:url(#_Linear1);fill-rule:nonzero;"/><path d="M256.001,424.527c4.289,0 8.58,-1.138 12.422,-3.413l215.155,-127.321c7.687,-4.549 12.422,-12.954 12.422,-22.051l0.001,-39.894c0,-4.55 -1.184,-8.924 -3.33,-12.732l-236.669,140.052l-0.001,65.359Z" style="fill:url(#_Linear2);fill-rule:nonzero;"/><path d="M243.579,421.114c3.843,2.275 8.133,3.413 12.422,3.413l0,-65.359l-236.671,-140.052c-2.145,3.808 -3.33,8.182 -3.33,12.732l0,39.894c0,9.098 4.736,17.504 12.422,22.051l215.157,127.321Z" style="fill:url(#_Linear3);fill-rule:nonzero;"/><defs><linearGradient id="_Linear1" x1="0" y1="0" x2="1" y2="0" gradientUnits="userSpaceOnUse" gradientTransform="matrix(-273.001,143,-143,-273.001,369.001,192)"><stop offset="0" style="stop-color:#ea7aa0;stop-opacity:1"/><stop offset="1" style="stop-color:#e7034f;stop-opacity:1"/></linearGradient><linearGradient id="_Linear2" x1="0" y1="0" x2="1" y2="0" gradientUnits="userSpaceOnUse" gradientTransform="matrix(-14.5642,103.856,-103.856,-14.5642,387.548,274.829)"><stop offset="0" style="stop-color:#e34f80;stop-opacity:1"/><stop offset="1" style="stop-color:#bf0241;stop-opacity:1"/></linearGradient><linearGradient id="_Linear3" x1="0" y1="0" x2="1" y2="0" gradientUnits="userSpaceOnUse" gradientTransform="matrix(-25.1009,43.9004,-43.9004,-25.1009,125.815,283.837)"><stop offset="0" style="stop-color:#db2360;stop-opacity:1"/><stop offset="1" style="stop-color:#960233;stop-opacity:1"/></linearGradient></defs></svg>