<?xml version="1.0" encoding="UTF-8" standalone="no"?><!DOCTYPE svg PUBLIC "-//W3C//DTD SVG 1.1//EN" "http://www.w3.org/Graphics/SVG/1.1/DTD/svg11.dtd"><svg width="100%" height="100%" viewBox="0 0 512 512" version="1.1" xmlns="http://www.w3.org/2000/svg" xmlns:xlink="http://www.w3.org/1999/xlink" xml:space="preserve" xmlns:serif="http://www.serif.com/" style="fill-rule:evenodd;clip-rule:evenodd;stroke-linejoin:round;stroke-miterlimit:2;"><path d="M32.284,408.339l0,-304.678c0,-22.091 17.908,-40 40,-40l367.421,0c22.097,0 40.011,17.914 40.011,40.011l0,304.667c0,22.091 -17.909,39.999 -40,39.999l-367.432,0c-22.092,0 -40,-17.908 -40,-40Z" style="fill:#252525;stroke:#abb2bb;stroke-width:60px;"/><path d="M72.284,63.661c-22.092,0 -40,17.909 -40,40l0,283.506l223.716,43.693l223.716,-43.694l0,-283.494c0,-22.097 -17.914,-40.011 -40.011,-40.011l-367.421,0Z" style="fill:#252525;fill-rule:nonzero;"/><path d="M72.284,63.661c-22.092,0 -40,17.909 -40,40l0,283.506l223.716,43.693l0,-367.199l-183.716,0Z" style="fill:#1e1e1e;fill-rule:nonzero;"/><path d="M479.716,387.167l-447.432,-0.001l0,21.172c0,22.092 17.908,40 40,40l367.432,0c22.091,0 40,-17.908 40,-40l0,-21.172Z" style="fill:#abb2bb;fill-rule:nonzero;"/><path d="M428.727,275.505l-65.454,-0c-6.778,-0 -12.273,-5.495 -12.273,-12.273l0,-65.454c0,-6.778 5.495,-12.273 12.273,-12.273l65.454,-0c6.778,-0 12.273,5.495 12.273,12.273l-0,65.454c-0,6.778 -5.495,12.273 -12.273,12.273Z" style="fill:#f60056;fill-rule:nonzero;"/><path d="M148.727,275.505l-65.454,-0c-6.778,-0 -12.273,-5.495 -12.273,-12.273l0,-65.454c0,-6.778 5.495,-12.273 12.273,-12.273l65.454,-0c6.778,-0 12.273,5.495 12.273,12.273l0,65.454c0,6.778 -5.495,12.273 -12.273,12.273Z" style="fill:#00b0b5;fill-rule:nonzero;"/><path d="M223.273,275.505l65.454,-0c6.778,-0 12.273,-5.495 12.273,-12.273l0,-65.454c0,-6.778 -5.495,-12.273 -12.273,-12.273l-65.454,-0c-6.778,-0 -12.273,5.495 -12.273,12.273l0,65.454c0,6.778 5.495,12.273 12.273,12.273Z" style="fill:#a9fd2b;fill-rule:nonzero;"/><path d="M223.273,185.505l32.727,-0l0,90l-32.727,-0c-6.778,-0 -12.273,-5.495 -12.273,-12.273l0,-65.454c0,-6.778 5.495,-12.273 12.273,-12.273Z" style="fill:#7aca02;fill-rule:nonzero;"/><circle cx="256" cy="430.861" r="30" style="fill:#252525;"/></svg>