<?xml version="1.0" encoding="UTF-8" standalone="no"?><!DOCTYPE svg PUBLIC "-//W3C//DTD SVG 1.1//EN" "http://www.w3.org/Graphics/SVG/1.1/DTD/svg11.dtd"><svg width="100%" height="100%" viewBox="0 0 512 512" version="1.1" xmlns="http://www.w3.org/2000/svg" xmlns:xlink="http://www.w3.org/1999/xlink" xml:space="preserve" xmlns:serif="http://www.serif.com/" style="fill-rule:evenodd;clip-rule:evenodd;stroke-linejoin:round;stroke-miterlimit:2;"><path d="M74.152,406.228c-36.277,-44.218 -56.152,-98.639 -56.152,-154.228c0,-65.186 25.555,-126.641 71.957,-173.043c46.403,-46.402 107.857,-71.957 173.043,-71.957c65.186,0 126.64,25.555 173.043,71.957c46.402,46.402 71.957,107.857 71.957,173.043c0,65.186 -25.555,126.641 -71.957,173.043c-46.403,46.402 -107.857,71.957 -173.043,71.957c-37.815,0 -75.842,-9.578 -110.989,-27.837c-25.917,19.222 -56.443,31.575 -88.195,35.16l-40.275,4.547c-11.121,1.256 -21.156,-6.742 -22.411,-17.864c-1.256,-11.121 6.742,-21.155 17.864,-22.411c31.346,-3.539 55.336,-31.36 55.158,-62.367Z" style="fill:url(#_Linear1);fill-rule:nonzero;"/><path d="M225.836,319.743c0,-22.895 2.588,-40.966 7.763,-54.217c5.173,-13.251 13.563,-24.737 25.168,-34.46c11.603,-9.721 20.423,-18.621 26.461,-26.697c6.037,-8.075 9.056,-16.974 9.056,-26.697c0,-23.677 -10.193,-35.516 -30.578,-35.516c-9.408,-0 -17.014,3.45 -22.816,10.35c-5.802,6.899 -8.86,16.229 -9.173,27.99l-79.504,-0c0.315,-31.362 10.193,-55.786 29.638,-73.27c19.444,-17.484 46.73,-26.226 81.855,-26.226c34.969,0 62.057,8.076 81.267,24.227c19.209,16.151 28.813,39.125 28.813,68.918c0,13.015 -2.587,24.854 -7.761,35.517c-5.175,10.663 -13.486,21.562 -24.934,32.695l-27.05,25.168c-7.682,7.37 -13.015,14.937 -15.994,22.698c-2.979,7.762 -4.626,17.603 -4.939,29.52l-67.272,0Zm-9.644,71.505c-0,-11.604 4.195,-21.13 12.585,-28.578c8.388,-7.449 18.855,-11.174 31.4,-11.174c12.545,0 23.012,3.725 31.402,11.174c8.389,7.448 12.584,16.974 12.584,28.578c-0,11.604 -4.195,21.131 -12.584,28.579c-8.39,7.448 -18.857,11.173 -31.402,11.173c-12.545,0 -23.012,-3.725 -31.4,-11.173c-8.39,-7.448 -12.585,-16.975 -12.585,-28.579Z" style="fill:url(#_Linear2);fill-rule:nonzero;"/><defs><linearGradient id="_Linear1" x1="0" y1="0" x2="1" y2="0" gradientUnits="userSpaceOnUse" gradientTransform="matrix(-349.786,458,-458,-349.786,373.786,40)"><stop offset="0" style="stop-color:#fffc34;stop-opacity:1"/><stop offset="0.5" style="stop-color:#ff920d;stop-opacity:1"/><stop offset="1" style="stop-color:#ed3b00;stop-opacity:1"/></linearGradient><linearGradient id="_Linear2" x1="0" y1="0" x2="1" y2="0" gradientUnits="userSpaceOnUse" gradientTransform="matrix(75,-312.999,312.999,75,238,411.999)"><stop offset="0" style="stop-color:#000;stop-opacity:1"/><stop offset="1" style="stop-color:#262626;stop-opacity:1"/></linearGradient></defs></svg>