<?xml version="1.0" encoding="UTF-8" standalone="no"?><!DOCTYPE svg PUBLIC "-//W3C//DTD SVG 1.1//EN" "http://www.w3.org/Graphics/SVG/1.1/DTD/svg11.dtd"><svg width="100%" height="100%" viewBox="0 0 512 512" version="1.1" xmlns="http://www.w3.org/2000/svg" xmlns:xlink="http://www.w3.org/1999/xlink" xml:space="preserve" style="fill-rule:evenodd;clip-rule:evenodd;stroke-linejoin:round;stroke-miterlimit:2;"><path d="M11,109.049c0,-54.151 43.898,-98.049 98.049,-98.049l293.951,0c25.991,0 50.918,10.325 69.297,28.703c18.378,18.379 28.703,43.305 28.703,69.297l0,294c0,25.991 -10.325,50.918 -28.703,69.297c-18.379,18.378 -43.306,28.703 -69.297,28.703l-294,0c-25.992,0 -50.918,-10.325 -69.297,-28.703c-18.378,-18.379 -28.703,-43.306 -28.703,-69.297l0,-293.951Z" style="fill:#ffdf00;fill-rule:nonzero;"/><path d="M307.35,316.832c13.105,21.396 30.155,37.123 60.308,37.123c25.331,-0 41.513,-12.661 41.513,-30.155c0,-20.963 -16.626,-28.387 -44.508,-40.582l-15.283,-6.559c-44.116,-18.794 -73.422,-42.34 -73.422,-92.114c-0,-45.85 34.935,-80.754 89.532,-80.754c38.869,0 66.813,13.528 86.949,48.948l-47.605,30.568c-10.482,-18.795 -21.789,-26.199 -39.344,-26.199c-17.907,0 -29.256,11.359 -29.256,26.199c-0,18.34 11.36,25.765 37.588,37.124l15.284,6.547c51.943,22.275 81.27,44.982 81.27,96.037c-0,55.041 -43.238,85.196 -101.305,85.196c-56.775,-0 -93.455,-27.056 -111.403,-62.518l49.682,-28.861Zm-215.961,5.296c9.604,17.04 18.341,31.446 39.345,31.446c20.086,-0 32.756,-7.86 32.756,-38.415l-0,-207.876l61.134,0l0,208.701c0,63.301 -37.113,92.113 -91.288,92.113c-48.948,-0 -77.294,-25.331 -91.711,-55.841l49.764,-30.128Z" style="fill-rule:nonzero;"/></svg>