<?xml version="1.0" encoding="UTF-8" standalone="no"?><!DOCTYPE svg PUBLIC "-//W3C//DTD SVG 1.1//EN" "http://www.w3.org/Graphics/SVG/1.1/DTD/svg11.dtd"><svg width="100%" height="100%" viewBox="0 0 512 512" version="1.1" xmlns="http://www.w3.org/2000/svg" xmlns:xlink="http://www.w3.org/1999/xlink" xml:space="preserve" xmlns:serif="http://www.serif.com/" style="fill-rule:evenodd;clip-rule:evenodd;stroke-linejoin:round;stroke-miterlimit:2;"><path d="M136.331,160.429l79.313,-79.313c63.098,-63.097 163.09,-66.038 222.586,-6.543c59.496,59.497 56.555,159.489 -6.542,222.586l-79.314,79.314l-50.863,-15.613l-15.611,-50.862l79.313,-79.313c0.528,-0.528 1.045,-1.062 1.551,-1.603c0.504,-0.471 1.002,-0.951 1.492,-1.441c22.931,-22.931 22.931,-60.164 0.001,-83.094c-22.931,-22.93 -60.163,-22.93 -83.094,-0c-0.495,0.495 -0.979,0.997 -1.451,1.503c-0.535,0.501 -1.068,1.015 -1.593,1.541l-79.313,79.313l-50.862,-15.611l-15.613,-50.864Z" style="fill:#e61a20;fill-rule:nonzero;"/><path d="M368.257,144.547c-22.931,-22.93 -60.163,-22.93 -83.094,-0c-0.495,0.495 -0.979,0.997 -1.451,1.503c-0.535,0.501 -1.068,1.015 -1.593,1.541l-79.313,79.313l-50.862,-15.611l-15.613,-50.864l79.313,-79.313c63.098,-63.097 163.09,-66.038 222.586,-6.543l-69.973,69.974Z" style="fill:#b81319;fill-rule:nonzero;"/><path d="M241.837,354.06c-4.872,4.871 -5.097,12.529 -0.503,17.121l49.856,49.858c4.593,4.593 12.251,4.367 17.122,-0.504l44.062,-44.062l-66.474,-66.476l-44.063,44.063Z" style="fill:#edf5ff;fill-rule:nonzero;"/><path d="M91.765,221.614l49.856,49.856c4.593,4.593 12.251,4.368 17.122,-0.503l44.063,-44.063l-66.475,-66.475l-44.063,44.063c-4.872,4.871 -5.097,12.528 -0.503,17.122Z" style="fill:#d7e9ff;fill-rule:nonzero;"/><path d="M102.455,259.5c3.45,3.451 3.451,9.055 -0,12.505l-19.521,19.52c-3.451,3.452 -9.055,3.452 -12.505,0c-3.451,-3.45 -3.451,-9.054 -0.001,-12.505l19.52,-19.52c3.451,-3.452 9.055,-3.45 12.507,-0Zm-27.405,-25.729c1.264,4.715 -1.538,9.568 -6.252,10.83l-26.665,7.146c-4.714,1.262 -9.567,-1.54 -10.83,-6.253c-1.263,-4.714 1.539,-9.566 6.253,-10.83l26.664,-7.146c4.714,-1.262 9.567,1.54 10.83,6.253Zm53.128,53.138c4.714,1.263 7.516,6.116 6.252,10.831l-7.143,26.663c-1.264,4.715 -6.118,7.517 -10.832,6.253c-4.714,-1.263 -7.516,-6.115 -6.253,-10.829l7.145,-26.666c1.264,-4.714 6.116,-7.516 10.831,-6.252Zm123.515,134.334l-19.52,19.52c-3.452,3.452 -9.056,3.45 -12.506,0c-3.451,-3.451 -3.452,-9.055 -0.001,-12.505l19.52,-19.52c3.451,-3.452 9.055,-3.452 12.507,-0c3.45,3.45 3.45,9.054 -0,12.505Zm-33.658,-27.404l-26.665,7.145c-4.713,1.263 -9.566,-1.539 -10.829,-6.252c-1.263,-4.715 1.538,-9.568 6.253,-10.83l26.664,-7.146c4.713,-1.262 9.567,1.54 10.83,6.253c1.263,4.714 -1.538,9.568 -6.253,10.83Zm65.633,53.137l-7.145,26.665c-1.262,4.714 -6.116,7.516 -10.83,6.252c-4.714,-1.262 -7.516,-6.114 -6.253,-10.829l7.145,-26.665c1.263,-4.714 6.116,-7.516 10.83,-6.253c4.715,1.264 7.515,6.117 6.253,10.83Z" style="fill:#ffda2d;"/></svg>