<?xml version="1.0" encoding="UTF-8" standalone="no"?><!DOCTYPE svg PUBLIC "-//W3C//DTD SVG 1.1//EN" "http://www.w3.org/Graphics/SVG/1.1/DTD/svg11.dtd"><svg width="100%" height="100%" viewBox="0 0 512 512" version="1.1" xmlns="http://www.w3.org/2000/svg" xmlns:xlink="http://www.w3.org/1999/xlink" xml:space="preserve" style="fill-rule:evenodd;clip-rule:evenodd;stroke-linejoin:round;stroke-miterlimit:2;"><path d="M156.001,199.231l-98.314,-55.81c-1.087,1.834 -1.687,3.927 -1.687,6.1l-0,106.478l100.001,170.305l65.068,36.938l28.153,15.982c2.087,1.184 4.432,1.775 6.779,1.776l0,-111.465l-100,-170.304Z" style="fill:#f9ad48;fill-rule:nonzero;"/><path d="M355.999,199.231l-99.999,170.304l-0,111.464c2.347,-0 4.692,-0.591 6.778,-1.776l93.221,-52.919l100.001,-170.304l0,-106.478c0,-2.173 -0.6,-4.267 -1.687,-6.099l-98.314,55.808Z" style="fill:#05aaa4;fill-rule:nonzero;"/><path d="M449.604,138.834l-93.605,-53.138l-199.998,0l-93.605,53.137c-1.999,1.134 -3.606,2.727 -4.71,4.588l98.313,55.81l200,0l98.314,-55.81c-1.104,-1.861 -2.711,-3.454 -4.709,-4.587Z" style="fill:#e85485;fill-rule:nonzero;"/><path d="M256,369.535l-99.999,-56.767l-0,-113.537l99.999,56.769l-0,113.535Z" style="fill:#de8107;fill-rule:nonzero;"/><path d="M56,255.999l0,106.479c0,4.378 2.429,8.435 6.397,10.688l93.604,53.138l-0,-113.535l-100.001,-56.77Z" style="fill:#de8107;fill-rule:nonzero;"/><path d="M256,369.535l99.999,-56.767l0,-113.537l-99.999,56.769l-0,113.535Z" style="fill:#006366;fill-rule:nonzero;"/><path d="M355.999,426.304l93.605,-53.138c3.968,-2.253 6.396,-6.311 6.396,-10.688l-0,-106.477l-100.001,56.768l0,113.535Z" style="fill:#006366;fill-rule:nonzero;"/><path d="M355.999,199.231l-99.999,56.769l-99.999,-56.769l99.999,-56.767l99.999,56.767Z" style="fill:#bd1950;fill-rule:nonzero;"/><path d="M355.999,85.696l-93.22,-52.92c-4.173,-2.368 -9.385,-2.368 -13.558,0l-93.22,52.92l99.998,56.769l100,-56.769Z" style="fill:#bd1950;fill-rule:nonzero;"/></svg>