<?xml version="1.0" encoding="UTF-8" standalone="no"?><!DOCTYPE svg PUBLIC "-//W3C//DTD SVG 1.1//EN" "http://www.w3.org/Graphics/SVG/1.1/DTD/svg11.dtd"><svg width="100%" height="100%" viewBox="0 0 487 487" version="1.1" xmlns="http://www.w3.org/2000/svg" xmlns:xlink="http://www.w3.org/1999/xlink" xml:space="preserve" style="fill-rule:evenodd;clip-rule:evenodd;stroke-linejoin:round;stroke-miterlimit:2;"><path d="M336.583,310.939l108.311,-148.817c3.592,-4.933 2.491,-11.851 -2.453,-15.45l-26.003,-18.924l-18.955,15.965l2.22,-19.623l-1.545,-9.804l-63.924,-46.527l-10.906,7.321l4.086,-12.283l-30.106,-13.413l-0.714,-9.018l-17.127,-12.304c-4.946,-3.6 -15.205,-5.569 -18.796,-0.637l-104.969,151.867l-109.26,129.782c-3.59,4.933 -6.618,24.686 -1.672,28.286l8.293,6.036l4.828,3.512l19.061,13.874l10.846,-8.406l11.503,-12.504l-6.058,16.467l-2.362,14.58l21.084,15.347l28.871,-30.823c0,-0 -11.626,11.226 -17.204,23.013c0,-0 -0.524,13.662 -1.223,15.408l16.044,11.676l7.002,-7.955l1.05,-2.483l-1.183,15.111l16.203,10.237l2.251,-12.778l0.993,15.091l11.635,8.673l4.009,-4.244l-0.089,7.41l8.18,6.684l1.088,-2.74l3.138,-0.675l0.089,6.29l7.934,5.775l2.194,-3.227l1.462,1.031l1.814,5.36l12.263,10.691c4.945,3.599 11.864,2.518 15.456,-2.415l102.641,-150.437Z" style="fill:#724422;fill-rule:nonzero;"/><path d="M330.365,298.142l104.669,-143.815c3.471,-4.767 2.419,-11.444 -2.348,-14.914l-25.065,-18.243l-15.483,18.394l6.02,-25.279l-25.564,-18.607l-19.285,23.456c-0,0 11.757,-20.339 14.436,-26.985l-33.511,-24.39l-20.396,13.69l13.576,-18.654l-25.46,-18.529c-6.023,6.607 -13.777,15.212 -15.473,17.559c1.347,-2.629 6.482,-13.639 10.114,-21.46l-21.009,-15.291c-4.766,-3.468 -11.445,-2.415 -14.914,2.351l-104.67,143.816l-109.561,137.833c-3.47,4.767 -2.418,11.444 2.349,14.914l39.008,28.389l11.503,-12.504l-6.059,16.467l20.323,14.792l28.301,-25.765c0,-0 -15.529,26.345 -18.235,33.09l33.049,24.055l21.213,-14.24l-14.12,19.402l25.376,18.469c6.1,-6.683 14.346,-15.817 16.1,-18.248c-1.395,2.729 -6.867,14.468 -10.511,22.317l21.508,15.653c4.768,3.47 11.445,2.419 14.915,-2.349l99.204,-145.374Z" style="fill:#a86e35;fill-rule:nonzero;"/><path d="M56.787,329.808l4.653,3.387l230.501,-296.218l-6.309,-4.591l-228.845,297.422Z" style="fill:#875226;fill-rule:nonzero;"/><path d="M316.61,54.931l-6.528,-4.75l-230.267,296.385l7.983,5.811l11.502,-12.503l-1.175,3.196l218.485,-288.139Z" style="fill:#875226;fill-rule:nonzero;"/><path d="M140.313,390.599l6.192,4.506l204.532,-315.117l-10.475,-7.624l-200.249,318.235Z" style="fill:#875226;fill-rule:nonzero;"/><path d="M424.291,133.301l-87.192,122.21l-134.557,180.377l5.18,3.772c23.568,-32.503 121.81,-167.46 162.743,-215.284c31.444,-36.738 52.52,-67.939 62.926,-84.394c-0.229,-0.198 -0.458,-0.39 -0.705,-0.57l-8.395,-6.111Z" style="fill:#875226;fill-rule:nonzero;"/><path d="M286.481,61.825c-0.191,0.266 -0.308,0.453 -0.333,0.546c-0.041,0.154 0.088,-0.063 0.333,-0.546Z" style="fill:#8e5026;fill-rule:nonzero;"/><path d="M395.649,121.103l2.509,-6.818l-4.472,-3.257l-217.204,279.188l-12.707,17.458l17.221,12.534l214.653,-299.105Z" style="fill:#875226;fill-rule:nonzero;"/></svg>