<?xml version="1.0" encoding="UTF-8" standalone="no"?><!DOCTYPE svg PUBLIC "-//W3C//DTD SVG 1.1//EN" "http://www.w3.org/Graphics/SVG/1.1/DTD/svg11.dtd"><svg width="100%" height="100%" viewBox="0 0 512 512" version="1.1" xmlns="http://www.w3.org/2000/svg" xmlns:xlink="http://www.w3.org/1999/xlink" xml:space="preserve" style="fill-rule:evenodd;clip-rule:evenodd;stroke-linejoin:round;stroke-miterlimit:2;"><path d="M146.402,186.527c21.088,-41.841 -14.715,-135.025 6.284,-144.235c20.999,-9.21 75.005,81.568 119.712,88.976c44.706,7.409 132.308,-61.431 148.524,-44.523c16.216,16.907 -61.977,98.237 -51.233,145.967c10.743,47.73 125.701,118.524 115.694,140.408c-10.007,21.884 -124.381,-25.254 -175.736,-9.101c-51.356,16.154 -110.036,112.609 -132.398,106.023c-22.363,-6.585 23.407,-116.079 -1.773,-145.532c-25.182,-29.451 -144.467,-8.184 -149.312,-31.181c-4.847,-22.997 99.152,-64.963 120.238,-106.802Z" style="fill:url(#_Linear1);fill-rule:nonzero;"/><defs><linearGradient id="_Linear1" x1="0" y1="0" x2="1" y2="0" gradientUnits="userSpaceOnUse" gradientTransform="matrix(-413.872,410.99,-410.99,-413.872,439.795,72.1207)"><stop offset="0" style="stop-color:#ff4bdc;stop-opacity:1"/><stop offset="1" style="stop-color:#d500ac;stop-opacity:1"/></linearGradient></defs></svg>