<?xml version="1.0" encoding="UTF-8" standalone="no"?><!DOCTYPE svg PUBLIC "-//W3C//DTD SVG 1.1//EN" "http://www.w3.org/Graphics/SVG/1.1/DTD/svg11.dtd"><svg width="100%" height="100%" viewBox="0 0 512 512" version="1.1" xmlns="http://www.w3.org/2000/svg" xmlns:xlink="http://www.w3.org/1999/xlink" xml:space="preserve" style="fill-rule:evenodd;clip-rule:evenodd;stroke-linejoin:round;stroke-miterlimit:2;"><path d="M481,119.313c0,-29.338 -23.819,-53.157 -53.156,-53.157l-343.688,0c-29.337,0 -53.156,23.819 -53.156,53.156l0,273.376c0,29.337 23.819,53.156 53.156,53.156l343.688,-0c29.337,-0 53.156,-23.819 53.156,-53.157l0,-273.375l0,0.001Z" style="fill:#a15e12;"/><path d="M458.5,117.82c0,-14.526 -11.794,-26.32 -26.32,-26.32l-352.36,0c-14.526,0 -26.32,11.794 -26.32,26.32l0,276.36c0,14.526 11.794,26.32 26.32,26.32l352.36,0c14.526,0 26.32,-11.794 26.32,-26.32l0,-276.36Z" style="fill-opacity:0.35;"/><path d="M445.474,119.58c0,-8.366 -6.792,-15.158 -15.158,-15.158l-348.632,-0c-8.366,-0 -15.158,6.792 -15.158,15.158l-0,272.84c-0,8.366 6.792,15.158 15.158,15.158l348.632,0c8.366,0 15.158,-6.792 15.158,-15.158l0,-272.84Z" style="fill:#10ffff;"/><path d="M181.484,275.225l-94.548,129.22c-1.428,0 -20.22,-30.491 -20.22,-30.491c0,0 0.184,-24.837 -0.19,-29.78l67.968,-68.949c12.884,-12.885 34.106,-12.885 46.99,0Z" style="fill-opacity:0.3;fill-rule:nonzero;"/><path d="M326.898,207.909l-148.753,160.286c-1.894,0 -23.832,-34.002 -25.536,-34.192l127.299,-126.094c12.884,-12.885 34.105,-12.885 46.99,0Z" style="fill-opacity:0.3;fill-rule:nonzero;"/><path d="M445.474,311.335l0,82.873c-0,7.18 -5.82,13 -13,13c-61.847,0 -323.316,0 -323.316,0c-1.894,0 -3.788,-0.189 -5.494,-0.379l195.156,-195.157c12.886,-12.885 34.106,-12.885 46.99,0l99.664,99.663Z" style="fill:#67b82e;fill-rule:nonzero;"/><path d="M332.926,407.208l-253.053,0c-3.463,0 -6.784,-1.382 -9.224,-3.839c-2.44,-2.458 -3.8,-5.787 -3.776,-9.251c0.192,-8.921 0.294,-20.159 -0.157,-26.131l90,-89.999c12.884,-12.885 34.106,-12.885 46.99,0l129.22,129.22Z" style="fill:#8fd75e;fill-rule:nonzero;"/><path d="M166.19,148.372c-20.9,0 -37.896,16.995 -37.896,37.893c0,20.9 16.996,37.896 37.896,37.896c20.898,0 37.894,-16.996 37.894,-37.896c0,-20.898 -16.996,-37.893 -37.894,-37.893Z" style="fill-opacity:0.3;fill-rule:nonzero;"/><path d="M174.29,137.46c-20.9,0 -37.896,16.994 -37.896,37.893c0,20.899 16.996,37.895 37.896,37.895c20.9,0 37.894,-16.996 37.894,-37.895c0,-20.899 -16.994,-37.893 -37.894,-37.893Z" style="fill:#fea63c;fill-rule:nonzero;"/></svg>