<?xml version="1.0" encoding="UTF-8" standalone="no"?><!DOCTYPE svg PUBLIC "-//W3C//DTD SVG 1.1//EN" "http://www.w3.org/Graphics/SVG/1.1/DTD/svg11.dtd"><svg width="100%" height="100%" viewBox="0 0 512 512" version="1.1" xmlns="http://www.w3.org/2000/svg" xmlns:xlink="http://www.w3.org/1999/xlink" xml:space="preserve" xmlns:serif="http://www.serif.com/" style="fill-rule:evenodd;clip-rule:evenodd;stroke-linejoin:round;stroke-miterlimit:2;"><rect x="0" y="0" width="512" height="512" style="fill:url(#_Linear1);"/><path d="M190.817,448.84l236.677,-239.213l-20.48,-22.644l-237.563,240.776l21.366,21.081Z" style="fill-opacity:0.35;fill-rule:nonzero;"/><path d="M98,291.358l-15.543,-15.351l-82.455,79.671l-0.002,29.628l98,-93.948Z" style="fill-opacity:0.35;fill-rule:nonzero;"/><path d="M318.689,510.154l-228.58,-228.58l-90.107,88.991l-0,141.435l318.687,-1.846Z" style="fill:#77f219;fill-rule:nonzero;"/><path d="M512,512l0,-207.033l-96.985,-111.985l-314.015,319.018l411,0Z" style="fill:#affd55;fill-rule:nonzero;"/><circle cx="237.211" cy="170.381" r="74.619" style="fill-opacity:0.35;"/><circle cx="244.07" cy="163.543" r="74.619" style="fill:url(#_Linear2);"/><defs><linearGradient id="_Linear1" x1="0" y1="0" x2="1" y2="0" gradientUnits="userSpaceOnUse" gradientTransform="matrix(-493.04,489.26,-489.26,-493.04,500.999,10.7407)"><stop offset="0" style="stop-color:#3affff;stop-opacity:1"/><stop offset="1" style="stop-color:#0090ce;stop-opacity:1"/></linearGradient><linearGradient id="_Linear2" x1="0" y1="0" x2="1" y2="0" gradientUnits="userSpaceOnUse" gradientTransform="matrix(-97.0513,111.345,-111.345,-97.0513,292.028,109.014)"><stop offset="0" style="stop-color:#fcf039;stop-opacity:1"/><stop offset="0.7" style="stop-color:#fbba53;stop-opacity:1"/><stop offset="1" style="stop-color:#bd8c3e;stop-opacity:1"/></linearGradient></defs></svg>