<?xml version="1.0" encoding="UTF-8" standalone="no"?><!DOCTYPE svg PUBLIC "-//W3C//DTD SVG 1.1//EN" "http://www.w3.org/Graphics/SVG/1.1/DTD/svg11.dtd"><svg width="100%" height="100%" viewBox="0 0 512 512" version="1.1" xmlns="http://www.w3.org/2000/svg" xmlns:xlink="http://www.w3.org/1999/xlink" xml:space="preserve" xmlns:serif="http://www.serif.com/" style="fill-rule:evenodd;clip-rule:evenodd;stroke-linejoin:round;stroke-miterlimit:2;"><path d="M363.678,376.612c-19.758,0 -35.833,-16.074 -35.833,-35.833l-0,-41.459c-0,-19.758 16.075,-35.833 35.833,-35.833c19.757,0 35.832,16.075 35.832,35.833l0,41.459c0,19.759 -16.075,35.833 -35.832,35.833Zm-0,-93.308c-8.832,0 -16.016,7.185 -16.016,16.016l0,41.459c0,8.831 7.185,16.016 16.016,16.016c8.83,0 16.015,-7.185 16.015,-16.016l-0,-41.459c-0,-8.831 -7.184,-16.016 -16.015,-16.016Zm-285.432,-169.055c-19.758,-0 -35.833,-16.075 -35.833,-35.834l0,-41.459c0,-19.758 16.075,-35.832 35.833,-35.832c19.758,-0 35.833,16.074 35.833,35.832l-0,41.459c-0,19.759 -16.075,35.834 -35.833,35.834Zm-0,-93.308c-8.832,-0 -16.015,7.185 -16.015,16.015l-0,41.459c-0,8.832 7.184,16.017 16.015,16.017c8.831,-0 16.015,-7.185 16.015,-16.017l0,-41.459c0,-8.83 -7.183,-16.015 -16.015,-16.015Zm366.13,489.229c-19.758,0 -35.833,-16.074 -35.833,-35.833l0,-41.459c0,-19.758 16.075,-35.833 35.833,-35.833c19.758,-0 35.833,16.075 35.833,35.833l-0,41.459c-0,19.759 -16.075,35.833 -35.833,35.833Zm-0,-93.308c-8.832,0 -16.015,7.185 -16.015,16.016l-0,41.459c-0,8.831 7.184,16.016 16.015,16.016c8.831,0 16.015,-7.185 16.015,-16.016l0,-41.459c0,-8.831 -7.183,-16.016 -16.015,-16.016Zm-180.17,95.138c-19.758,0 -35.833,-16.075 -35.833,-35.834l0,-41.459c0,-19.758 16.075,-35.832 35.833,-35.832c19.758,-0 35.833,16.074 35.833,35.832l-0,41.459c-0,19.759 -16.075,35.834 -35.833,35.834Zm0,-93.308c-8.832,-0 -16.015,7.185 -16.015,16.015l-0,41.459c-0,8.832 7.184,16.017 16.015,16.017c8.831,-0 16.015,-7.185 16.015,-16.017l0,-41.459c0,-8.83 -7.183,-16.015 -16.015,-16.015Zm180.833,-305.194c-19.758,0 -35.833,-16.074 -35.833,-35.833l0,-41.459c0,-19.758 16.075,-35.833 35.833,-35.833c19.758,-0 35.833,16.075 35.833,35.833l-0,41.459c-0,19.759 -16.075,35.833 -35.833,35.833Zm-0,-93.308c-8.832,0 -16.016,7.185 -16.016,16.016l0,41.459c0,8.831 7.185,16.016 16.016,16.016c8.83,0 16.015,-7.185 16.015,-16.016l0,-41.459c0,-8.831 -7.184,-16.016 -16.015,-16.016Zm-180.833,226.346c-19.758,-0 -35.833,-16.075 -35.833,-35.833l0,-41.459c0,-19.758 16.075,-35.834 35.833,-35.834c19.758,0 35.833,16.075 35.833,35.834l-0,41.459c-0,19.758 -16.075,35.833 -35.833,35.833Zm0,-93.308c-8.832,-0 -16.015,7.185 -16.015,16.016l-0,41.459c-0,8.831 7.184,16.015 16.015,16.015c8.831,0 16.015,-7.184 16.015,-16.015l0,-41.459c0,-8.831 -7.183,-16.016 -16.015,-16.016Zm-185.96,93.308c-19.758,-0 -35.833,-16.075 -35.833,-35.833l0,-41.459c0,-19.758 16.075,-35.834 35.833,-35.834c19.758,0 35.833,16.075 35.833,35.834l-0,41.459c-0,19.758 -16.074,35.833 -35.833,35.833Zm-0,-93.308c-8.832,-0 -16.015,7.185 -16.015,16.016l-0,41.459c-0,8.831 7.183,16.015 16.015,16.015c8.832,0 16.015,-7.184 16.015,-16.015l0,-41.459c0,-8.831 -7.183,-16.016 -16.015,-16.016Zm90.509,223.772c-19.758,0 -35.833,-16.074 -35.833,-35.832l0,-41.459c0,-19.758 16.075,-35.834 35.833,-35.834c19.758,0 35.833,16.075 35.833,35.834l-0,41.459c-0,19.758 -16.075,35.832 -35.833,35.832Zm-0,-93.308c-8.832,0 -16.016,7.185 -16.016,16.017l0,41.459c0,8.83 7.184,16.015 16.016,16.015c8.831,0 16.015,-7.185 16.015,-16.015l0,-41.459c0,-8.832 -7.185,-16.017 -16.015,-16.017Zm95.451,-170.567c-19.758,0 -35.833,-16.074 -35.833,-35.833l0,-41.459c0,-19.758 16.075,-35.833 35.833,-35.833c19.758,-0 35.833,16.075 35.833,35.833l-0,41.459c-0,19.759 -16.075,35.833 -35.833,35.833Zm0,-93.308c-8.832,0 -16.015,7.185 -16.015,16.016l-0,41.459c-0,8.831 7.184,16.016 16.015,16.016c8.831,0 16.015,-7.185 16.015,-16.016l0,-41.459c0,-8.831 -7.183,-16.016 -16.015,-16.016Z" style="fill:#90ff00;"/><path d="M188.244,145.149l0,89.649c0,5.473 -4.436,9.909 -9.908,9.909c-5.473,-0 -9.909,-4.436 -9.909,-9.909l-0,-79.74l-9.253,-0c-5.472,-0 -9.909,-4.436 -9.909,-9.909c0,-5.472 4.437,-9.908 9.909,-9.908l19.162,-0c5.472,-0 9.908,4.436 9.908,9.908Zm85.543,122.385c5.472,0 9.908,4.436 9.908,9.909l0,89.649c0,5.472 -4.436,9.908 -9.908,9.908c-5.473,0 -9.909,-4.436 -9.909,-9.908l0,-79.74l-9.253,-0c-5.472,-0 -9.908,-4.436 -9.908,-9.909c-0,-5.473 4.436,-9.909 9.908,-9.909l19.162,0Zm-185.959,0c5.471,0 9.908,4.436 9.907,9.909l0,89.649c0,5.472 -4.436,9.908 -9.908,9.908c-5.473,0 -9.909,-4.436 -9.909,-9.908l-0,-79.74l-9.253,-0c-5.472,-0 -9.908,-4.436 -9.908,-9.909c-0,-5.473 4.436,-9.909 9.908,-9.909l19.163,0Zm358.855,-132.293c5.473,-0 9.909,4.436 9.909,9.908l-0,89.649c-0,5.473 -4.436,9.909 -9.909,9.909c-5.472,-0 -9.908,-4.436 -9.908,-9.909l-0,-79.74l-9.253,-0c-5.473,-0 -9.909,-4.436 -9.909,-9.909c0,-5.472 4.436,-9.908 9.909,-9.908l19.161,-0Zm-81.575,-0c5.473,-0 9.909,4.436 9.909,9.908l-0,89.649c-0,5.473 -4.436,9.909 -9.909,9.909c-5.472,-0 -9.909,-4.436 -9.909,-9.909l0,-79.74l-9.252,-0c-5.473,-0 -9.909,-4.436 -9.909,-9.909c0,-5.472 4.436,-9.908 9.909,-9.908l19.161,-0Zm-0.576,-134.117c5.473,-0 9.909,4.436 9.909,9.908l-0,89.649c-0,5.473 -4.436,9.909 -9.909,9.909c-5.473,-0 -9.909,-4.436 -9.909,-9.909l0,-79.74l-9.252,-0c-5.473,-0 -9.909,-4.436 -9.909,-9.909c-0,-5.472 4.436,-9.908 9.909,-9.908l19.161,-0Zm-187.551,-0c5.472,-0 9.908,4.436 9.908,9.908l0,89.649c0,5.473 -4.436,9.909 -9.908,9.909c-5.473,-0 -9.909,-4.436 -9.909,-9.909l-0,-79.74l-9.253,-0c-5.472,-0 -9.909,-4.436 -9.909,-9.909c0,-5.472 4.437,-9.908 9.909,-9.908l19.162,-0Zm187.551,397.751c5.473,-0 9.909,4.436 9.909,9.908l-0,89.649c-0,5.473 -4.436,9.909 -9.909,9.909c-5.473,-0 -9.909,-4.436 -9.909,-9.909l0,-79.74l-9.252,-0c-5.473,-0 -9.909,-4.436 -9.909,-9.909c-0,-5.472 4.436,-9.908 9.909,-9.908l19.161,-0Zm-183.725,-0c5.472,-0 9.908,4.436 9.908,9.908l0,89.649c0,5.473 -4.436,9.909 -9.908,9.909c-5.473,-0 -9.909,-4.436 -9.909,-9.909l0,-79.74l-9.253,-0c-5.472,-0 -9.908,-4.436 -9.908,-9.909c-0,-5.472 4.436,-9.908 9.908,-9.908l19.162,-0Zm265.876,-131.341c5.473,0 9.909,4.436 9.909,9.909l-0,89.649c-0,5.472 -4.436,9.908 -9.909,9.908c-5.472,0 -9.908,-4.436 -9.908,-9.908l-0,-79.74l-9.253,-0c-5.473,-0 -9.909,-4.436 -9.909,-9.909c0,-5.473 4.436,-9.909 9.909,-9.909l19.161,0Zm-358.856,131.341c5.472,-0 9.908,4.436 9.908,9.908l0,89.649c0,5.473 -4.436,9.909 -9.908,9.909c-5.473,-0 -9.909,-4.436 -9.909,-9.909l-0,-79.74l-9.253,-0c-5.472,-0 -9.908,-4.436 -9.908,-9.909c-0,-5.472 4.436,-9.908 9.908,-9.908l19.162,-0Z" style="fill:#00b4af;"/></svg>