<?xml version="1.0" encoding="UTF-8" standalone="no"?><!DOCTYPE svg PUBLIC "-//W3C//DTD SVG 1.1//EN" "http://www.w3.org/Graphics/SVG/1.1/DTD/svg11.dtd"><svg width="100%" height="100%" viewBox="0 0 512 512" version="1.1" xmlns="http://www.w3.org/2000/svg" xmlns:xlink="http://www.w3.org/1999/xlink" xml:space="preserve" xmlns:serif="http://www.serif.com/" style="fill-rule:evenodd;clip-rule:evenodd;stroke-linejoin:round;stroke-miterlimit:2;"><rect x="0" y="0" width="511.988" height="512"/><g><path d="M197.2,159.721l76.538,-8.46l-76.538,-8.462l-8.461,-76.54l-8.462,76.54l-76.539,8.462l76.539,8.46l8.462,76.539l8.461,-76.539Z" style="fill:#fff;fill-rule:nonzero;"/><path d="M391.01,313.228l69.784,-7.715l-69.784,-7.715l-7.717,-69.786l-7.713,69.786l-69.786,7.715l69.786,7.715l7.713,69.784l7.717,-69.784Z" style="fill:#fff;fill-rule:nonzero;"/><path d="M188.647,360.042l63.032,-6.986l-63.032,-6.988l-6.968,-63.208l-6.971,63.208l-63.029,6.988l63.029,6.986l6.971,63.207l6.968,-63.207Z" style="fill:#fff;fill-rule:nonzero;"/><path d="M202.797,272.497l7.327,7.327l7.327,-7.327l-7.327,-7.327l-7.327,7.327Z" style="fill:#fff;"/><path d="M268.644,364.979l7.327,7.327l7.326,-7.327l-7.326,-7.327l-7.327,7.327Z" style="fill:#fff;"/><path d="M89.833,248.668l7.327,7.327l7.327,-7.327l-7.327,-7.327l-7.327,7.327Z" style="fill:#fff;"/><path d="M278.638,178.454l7.327,7.327l7.327,-7.327l-7.327,-7.327l-7.327,7.327Z" style="fill:#fff;"/><path d="M431.849,224.419l7.327,7.327l7.327,-7.327l-7.327,-7.327l-7.327,7.327Z" style="fill:#fff;"/><path d="M348.582,66.879l7.327,7.327l7.327,-7.327l-7.327,-7.327l-7.327,7.327Z" style="fill:#fff;"/><path d="M313.294,414.224l7.327,7.327l7.327,-7.327l-7.327,-7.327l-7.327,7.327Z" style="fill:#fff;"/><path d="M228.025,406.897l7.327,7.327l7.327,-7.327l-7.327,-7.327l-7.327,7.327Z" style="fill:#fff;"/><path d="M72.124,384.299l7.327,7.327l7.327,-7.327l-7.327,-7.327l-7.327,7.327Z" style="fill:#fff;"/><path d="M251.314,32.901l7.327,7.327l7.327,-7.327l-7.327,-7.327l-7.327,7.327Z" style="fill:#fff;"/><path d="M398.875,170.461l7.327,7.327l7.327,-7.327l-7.327,-7.327l-7.327,7.327Z" style="fill:#fff;"/><path d="M54.799,144.482l7.327,7.327l7.327,-7.327l-7.327,-7.327l-7.327,7.327Z" style="fill:#fff;"/></g></svg>