<?xml version="1.0" encoding="UTF-8" standalone="no"?><!DOCTYPE svg PUBLIC "-//W3C//DTD SVG 1.1//EN" "http://www.w3.org/Graphics/SVG/1.1/DTD/svg11.dtd"><svg width="100%" height="100%" viewBox="0 0 512 512" version="1.1" xmlns="http://www.w3.org/2000/svg" xmlns:xlink="http://www.w3.org/1999/xlink" xml:space="preserve" style="fill-rule:evenodd;clip-rule:evenodd;stroke-linejoin:round;stroke-miterlimit:2;"><path d="M463.845,136c-1.884,-3.263 -4.611,-6.037 -7.986,-7.986l-188.949,-109.09c-6.751,-3.898 -15.068,-3.898 -21.819,-0l-188.948,109.09c-3.375,1.949 -6.102,4.724 -7.985,7.986l0.881,6.977l206.961,352.023l209.311,-353.352l-1.466,-5.648Z" style="fill:url(#_Linear1);fill-rule:nonzero;"/><path d="M256.001,496c3.767,0 7.535,-0.975 10.909,-2.924l188.948,-109.091c6.751,-3.898 10.909,-11.1 10.909,-18.895l0,-218.181c0,-3.898 -1.04,-7.647 -2.924,-10.909l-207.842,120l-0,240Z" style="fill:url(#_Linear2);fill-rule:nonzero;"/><path d="M245.091,493.076c3.375,1.949 7.142,2.924 10.909,2.924l-0,-240l-207.844,-120c-1.883,3.262 -2.924,7.011 -2.924,10.909l-0,218.181c-0,7.796 4.159,14.999 10.909,18.895l188.95,109.091Z" style="fill:url(#_Linear3);fill-rule:nonzero;"/><defs><linearGradient id="_Linear1" x1="0" y1="0" x2="1" y2="0" gradientUnits="userSpaceOnUse" gradientTransform="matrix(-380,99.0001,-99.0001,-380,380,124)"><stop offset="0" style="stop-color:#7fb9ff;stop-opacity:1"/><stop offset="1" style="stop-color:#0073ff;stop-opacity:1"/></linearGradient><linearGradient id="_Linear2" x1="0" y1="0" x2="1" y2="0" gradientUnits="userSpaceOnUse" gradientTransform="matrix(-191,417,-417,-191,410,210)"><stop offset="0" style="stop-color:#3590ff;stop-opacity:1"/><stop offset="1" style="stop-color:#0058c4;stop-opacity:1"/></linearGradient><linearGradient id="_Linear3" x1="0" y1="0" x2="1" y2="0" gradientUnits="userSpaceOnUse" gradientTransform="matrix(-165,145,-145,-165,192,280)"><stop offset="0" style="stop-color:#0072fd;stop-opacity:1"/><stop offset="1" style="stop-color:#004497;stop-opacity:1"/></linearGradient></defs></svg>