<?xml version="1.0" encoding="UTF-8" standalone="no"?><!DOCTYPE svg PUBLIC "-//W3C//DTD SVG 1.1//EN" "http://www.w3.org/Graphics/SVG/1.1/DTD/svg11.dtd"><svg width="100%" height="100%" viewBox="0 0 512 512" version="1.1" xmlns="http://www.w3.org/2000/svg" xmlns:xlink="http://www.w3.org/1999/xlink" xml:space="preserve" xmlns:serif="http://www.serif.com/" style="fill-rule:evenodd;clip-rule:evenodd;stroke-linejoin:round;stroke-miterlimit:2;"><path d="M202.324,398.813l-123.587,-123.821c-39.999,-39.998 -54.187,-99.05 -36.727,-152.855c13.877,-42.76 48.585,-75.499 92.082,-86.858c45.276,-11.822 93.428,1.245 126.518,34.333l145.592,145.853c1.716,1.719 3.259,3.547 4.63,5.462l29.657,29.044c32.225,34.835 44.476,83.882 32.129,129.962c-12.7,47.393 -49.882,84.31 -97.366,96.668c-46.806,12.182 -96.562,-1.342 -130.762,-35.541l-33.818,-32.786c-2.929,-3.051 -5.711,-6.207 -8.348,-9.461Z" style="fill:url(#_Linear1);fill-rule:nonzero;"/><path d="M321.309,194.303c-4.528,16.897 -17.784,30.059 -34.713,34.464c-16.687,4.343 -34.426,-0.478 -46.619,-12.671l-65.814,-66.486c-14.261,-14.261 -19.318,-35.314 -13.094,-54.496c4.948,-15.245 17.322,-26.917 32.829,-30.967c16.142,-4.215 33.309,0.444 45.106,12.241l69.516,70.188c12.483,12.483 17.358,30.676 12.789,47.727Z" style="fill:#fff;fill-opacity:0.2;fill-rule:nonzero;"/><path d="M35.183,181.113l299.755,299.755c-33.59,-1.473 -65.995,-15.356 -90.448,-39.809l-33.818,-32.785c-2.929,-3.052 -5.712,-6.208 -8.348,-9.46l-123.586,-123.821c-25.608,-25.608 -40.637,-59.024 -43.555,-93.88Z" style="fill-opacity:0.2;fill-rule:nonzero;"/><defs><linearGradient id="_Linear1" x1="0" y1="0" x2="1" y2="0" gradientUnits="userSpaceOnUse" gradientTransform="matrix(-155.93,241.744,-241.744,-155.93,301.76,126.794)"><stop offset="0" style="stop-color:#26e6c6;stop-opacity:1"/><stop offset="1" style="stop-color:#00a388;stop-opacity:1"/></linearGradient></defs></svg>