<?xml version="1.0" encoding="UTF-8" standalone="no"?><!DOCTYPE svg PUBLIC "-//W3C//DTD SVG 1.1//EN" "http://www.w3.org/Graphics/SVG/1.1/DTD/svg11.dtd"><svg width="100%" height="100%" viewBox="0 0 512 512" version="1.1" xmlns="http://www.w3.org/2000/svg" xmlns:xlink="http://www.w3.org/1999/xlink" xml:space="preserve" xmlns:serif="http://www.serif.com/" style="fill-rule:evenodd;clip-rule:evenodd;stroke-linejoin:round;stroke-miterlimit:2;"><path d="M53.39,409.103c-0.807,1.422 -1.516,2.891 -2.129,4.4c-1.813,4.465 -2.482,8.723 -2.482,12.578c0,43.13 80.014,69.919 208.79,69.919c128.763,0 208.763,-26.789 208.763,-69.906c0.001,-3.98 -0.713,-8.394 -2.664,-13.019c-0.398,-0.945 -0.835,-1.874 -1.324,-2.786l-192.307,-383.368c-2.453,-4.879 -7.354,-7.715 -12.468,-7.705c-5.112,-0.01 -10.013,2.827 -12.467,7.705l-191.712,382.182Z" style="fill:url(#_Linear1);"/><path d="M232.009,50.145l-177.101,354c0,-0 -8.175,12.888 -8.97,18.715c-2.972,21.786 19.151,40.088 37.929,48.119c18.073,7.729 158.39,-385.962 178.07,-443.336c4.753,-13.861 -8.752,-14.715 -14.741,-5.896c-4.622,6.808 -15.187,28.398 -15.187,28.398Z" style="fill-opacity:0.25;"/><defs><linearGradient id="_Linear1" x1="0" y1="0" x2="1" y2="0" gradientUnits="userSpaceOnUse" gradientTransform="matrix(2.46331e-14,-402.289,402.289,2.46331e-14,257.569,421.505)"><stop offset="0" style="stop-color:#a93aff;stop-opacity:1"/><stop offset="1" style="stop-color:#ff81ff;stop-opacity:1"/></linearGradient></defs></svg>