<?xml version="1.0" encoding="UTF-8" standalone="no"?><!DOCTYPE svg PUBLIC "-//W3C//DTD SVG 1.1//EN" "http://www.w3.org/Graphics/SVG/1.1/DTD/svg11.dtd"><svg width="100%" height="100%" viewBox="0 0 512 512" version="1.1" xmlns="http://www.w3.org/2000/svg" xmlns:xlink="http://www.w3.org/1999/xlink" xml:space="preserve" xmlns:serif="http://www.serif.com/" style="fill-rule:evenodd;clip-rule:evenodd;stroke-linejoin:round;stroke-miterlimit:2;"><path d="M6.037,256.102l-0.037,0c0,93.28 111.932,168.904 250,168.904c138.068,-0 250,-75.624 250,-168.904l-0.033,0l0.033,-0.008c0,-93.279 -111.932,-168.903 -250,-168.903c-138.068,0 -250,75.624 -250,168.903l0.037,0.008Zm361.828,0l-0.033,-0.008c0,-21.267 -50.07,-38.521 -111.831,-38.521c-61.761,-0 -111.831,17.254 -111.831,38.521l-0.04,0.008l0.039,0c-0,21.268 50.07,38.522 111.831,38.522c61.761,-0 111.831,-17.254 111.831,-38.522l0.034,0Z" style="fill:url(#_Linear1);"/><path d="M6.001,255.552l-0.001,0.546c0,93.28 111.932,168.904 250,168.904c13.602,-0 26.962,-0.735 39.97,-2.154c-119.074,-12.917 -241.808,-82.655 -241.808,-166.75c-0,-84.094 68.046,-155.989 187.12,-168.907c-13.008,-1.418 -67.017,4.636 -117.118,24.418c-29.331,11.581 -117.716,50.908 -118.163,143.943Z" style="fill-opacity:0.25;fill-rule:nonzero;"/><defs><linearGradient id="_Linear1" x1="0" y1="0" x2="1" y2="0" gradientUnits="userSpaceOnUse" gradientTransform="matrix(-301.706,253.481,-253.481,-301.706,380.023,131.098)"><stop offset="0" style="stop-color:#9be69d;stop-opacity:1"/><stop offset="1" style="stop-color:#15ec1b;stop-opacity:1"/></linearGradient></defs></svg>