<?xml version="1.0" encoding="UTF-8" standalone="no"?><!DOCTYPE svg PUBLIC "-//W3C//DTD SVG 1.1//EN" "http://www.w3.org/Graphics/SVG/1.1/DTD/svg11.dtd"><svg width="100%" height="100%" viewBox="0 0 512 512" version="1.1" xmlns="http://www.w3.org/2000/svg" xmlns:xlink="http://www.w3.org/1999/xlink" xml:space="preserve" xmlns:serif="http://www.serif.com/" style="fill-rule:evenodd;clip-rule:evenodd;stroke-linejoin:round;stroke-miterlimit:2;"><g><path d="M256,16l-59.751,120l59.751,120l127.103,-42.603l42.603,-127.103c-43.432,-43.431 -103.431,-70.294 -169.706,-70.294Z" style="fill:#ffe278;fill-rule:nonzero;"/></g><g><path d="M256,16c-61.421,0 -122.843,23.432 -169.705,70.295l42.603,127.103l127.102,42.602l0,-240Z" style="fill:#b0d16f;fill-rule:nonzero;"/></g><g><path d="M86.295,86.295c-43.432,43.431 -70.295,103.431 -70.295,169.705l120,59.751l120,-59.751l-169.705,-169.705Z" style="fill:#45c5ff;fill-rule:nonzero;"/></g><g><path d="M16,256c0,61.421 23.432,122.842 70.295,169.705l127.103,-42.603l42.602,-127.102l-240,0Z" style="fill:#0ca8ed;fill-rule:nonzero;"/></g><g><path d="M86.295,425.705c43.431,43.432 103.431,70.295 169.705,70.295l59.751,-120l-59.751,-120l-169.705,169.705Z" style="fill:#1365c2;fill-rule:nonzero;"/></g><g><path d="M256,496c61.421,0 122.842,-23.431 169.705,-70.295l-42.603,-127.103l-127.102,-42.602l0,240Z" style="fill:#f71e78;fill-rule:nonzero;"/></g><g><path d="M425.705,425.705c43.432,-43.431 70.295,-103.43 70.295,-169.705l-120,-59.751l-120,59.751l169.705,169.705Z" style="fill:#ff776b;fill-rule:nonzero;"/></g><g><path d="M425.705,86.295l-169.705,169.705l240,0c0,-61.421 -23.432,-122.843 -70.295,-169.705Z" style="fill:#ffb54c;fill-rule:nonzero;"/></g></svg>