<?xml version="1.0" encoding="UTF-8" standalone="no"?><!DOCTYPE svg PUBLIC "-//W3C//DTD SVG 1.1//EN" "http://www.w3.org/Graphics/SVG/1.1/DTD/svg11.dtd"><svg width="100%" height="100%" viewBox="0 0 512 512" version="1.1" xmlns="http://www.w3.org/2000/svg" xmlns:xlink="http://www.w3.org/1999/xlink" xml:space="preserve" style="fill-rule:evenodd;clip-rule:evenodd;stroke-linejoin:round;stroke-miterlimit:2;"><path d="M495.914,69.362c-3.465,64.944 -115.38,170.731 -198.573,240.151c-2.64,-0.121 -4.242,-0.195 -6.882,-0.316l-81.383,-81.385c-0.167,-2.658 -0.271,-4.316 -0.437,-6.974c66.132,-84.872 166.205,-197.712 230.79,-204.504c33.019,-3.47 58.229,20.542 56.485,53.028Z" style="fill:#ee3616;fill-rule:nonzero;"/><path d="M495.914,69.362c-3.468,64.944 -115.379,170.728 -198.575,240.153c-2.634,-0.122 -4.237,-0.197 -6.881,-0.318l-40.876,-40.877c5.355,-5.37 229.906,-229.923 234.914,-234.931c7.847,9.355 12.178,21.863 11.418,35.973Z" style="fill:#cb0010;fill-rule:nonzero;"/><path d="M297.341,309.513c-25.684,21.481 -51.435,41.548 -65.601,52.242c-5.728,-35.946 -33.882,-67.363 -73.801,-72.567c0.626,-0.937 21.086,-30.423 50.7,-68.35l88.702,88.675Z" style="fill:#e0f4fe;fill-rule:nonzero;"/><path d="M297.339,309.514c-25.771,21.553 -53.596,43.239 -65.598,52.241c-3,-18.836 -12.159,-36.424 -25.941,-49.663c26.621,-26.622 40.399,-40.382 47.054,-47.055l44.485,44.477Z" style="fill:#bcdcfe;fill-rule:nonzero;"/><path d="M209.885,309.576c-41.072,-41.075 -109.968,-30.488 -144.703,12.926c-40.975,51.22 -6.673,96.927 -45.324,137.68c-6.73,7.095 -4.329,18.753 4.67,22.606c64.01,27.403 144.621,9.609 181.981,-29.782c35.126,-37.036 45.992,-100.812 3.376,-143.43Z" style="fill:#fed941;fill-rule:nonzero;"/><path d="M206.512,453.006c-35.897,37.849 -111.742,55.756 -174.406,32.786c4.21,-4.21 172.284,-172.29 176.984,-176.99c39.925,37.161 36.667,102.814 -2.578,144.204Z" style="fill:#fcbe29;fill-rule:nonzero;"/></svg>