<?xml version="1.0" encoding="UTF-8" standalone="no"?><!DOCTYPE svg PUBLIC "-//W3C//DTD SVG 1.1//EN" "http://www.w3.org/Graphics/SVG/1.1/DTD/svg11.dtd"><svg width="100%" height="100%" viewBox="0 0 512 512" version="1.1" xmlns="http://www.w3.org/2000/svg" xmlns:xlink="http://www.w3.org/1999/xlink" xml:space="preserve" xmlns:serif="http://www.serif.com/" style="fill-rule:evenodd;clip-rule:evenodd;stroke-linejoin:round;stroke-miterlimit:2;"><path d="M285.791,430.651c-8.095,4.736 -18.512,2.008 -23.248,-6.086c-4.735,-8.096 -2.009,-18.513 6.087,-23.249l106.026,-62.031c8.095,-4.736 18.512,-2.009 23.249,6.086c4.736,8.096 2.008,18.513 -6.087,23.249l-106.027,62.031Zm135.649,-113.436c0,9.378 -7.614,16.992 -16.993,16.992c-9.378,0 -16.993,-7.614 -16.993,-16.992l0,-122.43c0,-9.378 7.615,-16.992 16.993,-16.992c9.379,-0 16.993,7.614 16.993,16.992l0,122.43Zm-29.622,-173.834c8.095,4.736 10.823,15.153 6.087,23.249c-4.737,8.094 -15.154,10.822 -23.249,6.086l-106.027,-62.032c-8.095,-4.736 -10.821,-15.153 -6.086,-23.249c4.736,-8.094 15.154,-10.822 23.248,-6.086l106.027,62.032Zm-165.609,-62.032c8.094,-4.736 18.512,-2.008 23.248,6.086c4.735,8.096 2.009,18.513 -6.086,23.249l-106.027,62.032c-8.095,4.736 -18.512,2.008 -23.249,-6.086c-4.736,-8.096 -2.008,-18.513 6.087,-23.249l106.027,-62.032Zm-135.649,113.436c-0,-9.378 7.614,-16.992 16.993,-16.992c9.378,-0 16.993,7.614 16.993,16.992l-0,122.43c-0,9.378 -7.615,16.992 -16.993,16.992c-9.379,0 -16.993,-7.614 -16.993,-16.992l-0,-122.43Zm29.622,173.835c-8.095,-4.736 -10.823,-15.153 -6.087,-23.249c4.737,-8.095 15.154,-10.822 23.249,-6.086l106.026,62.031c8.096,4.736 10.822,15.153 6.087,23.249c-4.736,8.094 -15.153,10.822 -23.248,6.086l-106.027,-62.031Z" style="fill:#fa7f01;"/><circle cx="256" cy="83.771" r="47.771" style="fill:#00abb0;"/><circle cx="256" cy="428.229" r="47.771" style="fill:#00abb0;"/><circle cx="107.553" cy="170.294" r="47.771" style="fill:#00abb0;"/><circle cx="404.447" cy="170.294" r="47.771" style="fill:#00abb0;"/><circle cx="404.447" cy="341.706" r="47.771" style="fill:#00abb0;"/><circle cx="107.553" cy="341.706" r="47.771" style="fill:#00abb0;"/></svg>