<?xml version="1.0" encoding="UTF-8" standalone="no"?><!DOCTYPE svg PUBLIC "-//W3C//DTD SVG 1.1//EN" "http://www.w3.org/Graphics/SVG/1.1/DTD/svg11.dtd"><svg width="100%" height="100%" viewBox="0 0 512 512" version="1.1" xmlns="http://www.w3.org/2000/svg" xmlns:xlink="http://www.w3.org/1999/xlink" xml:space="preserve" xmlns:serif="http://www.serif.com/" style="fill-rule:evenodd;clip-rule:evenodd;stroke-linejoin:round;stroke-miterlimit:2;"><g><g><path d="M372.983,235.776l-72.636,-134.001c-3.457,-6.377 -1.088,-14.351 5.291,-17.806c6.376,-3.452 14.345,-1.085 17.801,5.29l72.635,134.002c3.457,6.377 1.088,14.35 -5.291,17.805c-6.376,3.454 -14.345,1.085 -17.8,-5.29Z" style="fill:#6eabc9;fill-rule:nonzero;"/><path d="M326.684,282.074l-72.636,-134.001c-3.457,-6.377 -1.087,-14.35 5.292,-17.805c6.376,-3.454 14.344,-1.085 17.8,5.289l72.636,134.002c3.457,6.377 1.088,14.35 -5.291,17.806c-6.376,3.452 -14.345,1.084 -17.801,-5.291Z" style="fill:#6eabc9;fill-rule:nonzero;"/><path d="M280.385,328.373l-72.636,-134.002c-3.457,-6.377 -1.087,-14.35 5.292,-17.805c6.376,-3.454 14.344,-1.086 17.8,5.289l72.636,134.001c3.457,6.378 1.087,14.35 -5.291,17.806c-6.376,3.454 -14.345,1.086 -17.801,-5.289Z" style="fill:#6eabc9;fill-rule:nonzero;"/><path d="M234.087,374.672l-72.635,-134.002c-3.457,-6.377 -1.089,-14.35 5.29,-17.806c6.376,-3.453 14.344,-1.086 17.8,5.29l72.636,134.001c3.457,6.378 1.089,14.35 -5.291,17.805c-6.375,3.454 -14.344,1.086 -17.8,-5.288Z" style="fill:#6eabc9;fill-rule:nonzero;"/><path d="M187.79,420.969l-72.636,-134.001c-3.457,-6.378 -1.089,-14.35 5.29,-17.806c6.377,-3.453 14.344,-1.086 17.8,5.289l72.636,134.002c3.457,6.377 1.089,14.35 -5.291,17.805c-6.375,3.454 -14.343,1.086 -17.799,-5.289Z" style="fill:#6eabc9;fill-rule:nonzero;"/></g><path d="M303.193,104.455l121.173,92.476c5.765,4.401 14.007,3.292 18.407,-2.474c4.399,-5.765 3.291,-14.005 -2.473,-18.405l-121.174,-92.474c-5.765,-4.401 -14.007,-3.292 -18.408,2.474c-4.398,5.765 -3.29,14.004 2.475,18.403Z" style="fill:#a9dbf5;fill-rule:nonzero;"/><path d="M442.771,194.459c4.4,-5.766 3.289,-14.009 -2.479,-18.412l-15.188,-11.591c1.193,4.654 0.334,9.787 -2.805,13.901c-3.418,4.48 -8.71,6.683 -13.942,6.357l16.005,12.215c5.767,4.401 14.01,3.295 18.409,-2.47Z" style="fill:#88c3e0;fill-rule:nonzero;"/><path d="M256.894,150.754l121.173,92.476c5.766,4.399 14.008,3.292 18.408,-2.474c4.399,-5.765 3.291,-14.005 -2.473,-18.405l-121.174,-92.475c-5.765,-4.401 -14.007,-3.293 -18.408,2.474c-4.397,5.765 -3.291,14.005 2.474,18.404Z" style="fill:#a9dbf5;fill-rule:nonzero;"/><path d="M396.473,240.757c4.399,-5.765 3.288,-14.008 -2.479,-18.411l-14.981,-11.433c1.114,4.507 0.257,9.455 -2.776,13.431c-3.634,4.765 -9.441,6.889 -14.977,6.059l16.803,12.824c5.769,4.401 14.011,3.296 18.41,-2.47Z" style="fill:#88c3e0;fill-rule:nonzero;"/><path d="M210.595,197.052l121.174,92.476c5.766,4.4 14.008,3.292 18.408,-2.474c4.398,-5.765 3.291,-14.005 -2.474,-18.404l-121.173,-92.475c-5.766,-4.401 -14.008,-3.293 -18.408,2.473c-4.398,5.765 -3.292,14.004 2.473,18.404Z" style="fill:#a9dbf5;fill-rule:nonzero;"/><path d="M350.174,287.056c4.4,-5.766 3.29,-14.009 -2.479,-18.412l-14.974,-11.429c1.11,4.503 0.255,9.447 -2.776,13.42c-3.64,4.772 -9.46,6.896 -15.003,6.051l16.824,12.84c5.767,4.4 14.01,3.296 18.408,-2.47Z" style="fill:#88c3e0;fill-rule:nonzero;"/><path d="M164.297,243.351l121.173,92.474c5.766,4.401 14.008,3.293 18.408,-2.473c4.398,-5.766 3.291,-14.005 -2.474,-18.404l-121.174,-92.476c-5.765,-4.4 -14.007,-3.292 -18.407,2.474c-4.398,5.765 -3.291,14.005 2.474,18.405Z" style="fill:#a9dbf5;fill-rule:nonzero;"/><path d="M303.877,333.354c4.399,-5.766 3.289,-14.01 -2.479,-18.412l-14.953,-11.411c1.102,4.486 0.246,9.41 -2.773,13.369c-3.668,4.807 -9.555,6.918 -15.135,6.003l16.93,12.92c5.768,4.402 14.01,3.297 18.41,-2.469Z" style="fill:#88c3e0;fill-rule:nonzero;"/><path d="M118,289.649l121.173,92.475c5.765,4.401 14.007,3.293 18.407,-2.474c4.398,-5.765 3.291,-14.005 -2.473,-18.404l-121.173,-92.476c-5.767,-4.401 -14.009,-3.292 -18.408,2.474c-4.399,5.766 -3.292,14.005 2.474,18.405Z" style="fill:#a9dbf5;fill-rule:nonzero;"/><path d="M257.579,379.653c4.398,-5.767 3.289,-14.011 -2.48,-18.412l-15.126,-11.544c1.169,4.61 0.311,9.686 -2.796,13.759c-3.483,4.566 -8.927,6.737 -14.254,6.267l16.246,12.399c5.767,4.401 14.01,3.296 18.41,-2.469Z" style="fill:#88c3e0;fill-rule:nonzero;"/><path d="M71.701,335.948l121.173,92.475c5.766,4.4 14.008,3.292 18.408,-2.475c4.399,-5.765 3.291,-14.005 -2.474,-18.403l-121.173,-92.476c-5.765,-4.401 -14.007,-3.292 -18.407,2.474c-4.4,5.765 -3.292,14.004 2.473,18.405Z" style="fill:#a9dbf5;fill-rule:nonzero;"/><path d="M211.28,425.95c4.4,-5.765 3.289,-14.008 -2.479,-18.411l-14.759,-11.264c1.028,4.348 0.175,9.103 -2.745,12.931c-3.935,5.158 -10.484,7.135 -16.379,5.511l17.953,13.703c5.766,4.402 14.01,3.296 18.409,-2.47Z" style="fill:#88c3e0;fill-rule:nonzero;"/></g><path d="M451.969,206.211l-146.18,-146.18c-4.103,-4.104 -4.104,-10.758 -0,-14.862l16.09,-16.091c4.105,-4.104 10.758,-4.104 14.862,0l146.181,146.182c4.104,4.103 4.104,10.756 -0,14.861l-16.092,16.09c-4.103,4.104 -10.756,4.104 -14.861,0Z" style="fill:#d67b42;fill-rule:nonzero;"/><path d="M482.92,175.257l-18.582,-18.581c4.105,4.104 4.106,10.758 0.004,14.861l-16.095,16.094c-4.102,4.103 -10.756,4.102 -14.861,-0.004l18.581,18.582c4.106,4.104 10.76,4.106 14.862,0.004l16.095,-16.095c4.102,-4.102 4.1,-10.756 -0.004,-14.861Z" style="fill:#be652b;fill-rule:nonzero;"/><path d="M175.259,482.922l-146.181,-146.181c-4.103,-4.103 -4.104,-10.757 0,-14.862l16.091,-16.091c4.104,-4.103 10.757,-4.103 14.862,-0l146.181,146.181c4.103,4.104 4.104,10.758 0,14.862l-16.091,16.092c-4.105,4.103 -10.758,4.103 -14.862,-0.001Z" style="fill:#d67b42;fill-rule:nonzero;"/><path d="M206.209,451.968l-18.582,-18.582c4.106,4.105 4.107,10.759 0.004,14.861l-16.094,16.096c-4.103,4.102 -10.757,4.1 -14.862,-0.005l18.582,18.582c4.105,4.105 10.759,4.106 14.861,0.004l16.095,-16.095c4.102,-4.102 4.1,-10.756 -0.004,-14.861Z" style="fill:#be652b;fill-rule:nonzero;"/></svg>