<?xml version="1.0" encoding="UTF-8" standalone="no"?><!DOCTYPE svg PUBLIC "-//W3C//DTD SVG 1.1//EN" "http://www.w3.org/Graphics/SVG/1.1/DTD/svg11.dtd"><svg width="100%" height="100%" viewBox="0 0 512 512" version="1.1" xmlns="http://www.w3.org/2000/svg" xmlns:xlink="http://www.w3.org/1999/xlink" xml:space="preserve" xmlns:serif="http://www.serif.com/" style="fill-rule:evenodd;clip-rule:evenodd;stroke-linejoin:round;stroke-miterlimit:2;"><path d="M322.547,424l-0,-210l-159.134,0l0,42l28.934,0l-0,168l-30.38,0l-0,42l188.066,0l0,-42l-27.486,0Z" style="fill:#cbedfd;fill-rule:nonzero;"/><path d="M257.447,172c35.896,0 65.1,-28.262 65.1,-63c-0,-34.739 -29.204,-63 -65.1,-63c-35.896,0 -65.1,28.261 -65.1,63c-0,34.738 29.204,63 65.1,63Z" style="fill:#cbedfd;fill-rule:nonzero;"/><path d="M257.447,172c35.896,0 65.1,-28.262 65.1,-63c-0,-34.739 -29.204,-63 -65.1,-63l-0,126Z" style="fill:#e4f7ff;fill-rule:nonzero;"/><path d="M322.547,424l-0,-210l-65.1,0l-0,252l92.586,0l0,-42l-27.486,0Z" style="fill:#e4f7ff;fill-rule:nonzero;"/></svg>