<?xml version="1.0" encoding="UTF-8" standalone="no"?><!DOCTYPE svg PUBLIC "-//W3C//DTD SVG 1.1//EN" "http://www.w3.org/Graphics/SVG/1.1/DTD/svg11.dtd"><svg width="100%" height="100%" viewBox="0 0 512 512" version="1.1" xmlns="http://www.w3.org/2000/svg" xmlns:xlink="http://www.w3.org/1999/xlink" xml:space="preserve" style="fill-rule:evenodd;clip-rule:evenodd;stroke-linejoin:round;stroke-miterlimit:2;"><path d="M481,171.625c0,-77.665 -62.96,-140.625 -140.625,-140.625l-168.75,-0c-77.665,-0 -140.625,62.96 -140.625,140.625l-0,168.75c-0,77.665 62.96,140.625 140.625,140.625l168.75,0c77.665,0 140.625,-62.96 140.625,-140.625l0,-168.75Z" style="fill:#d3dcfb;"/><circle cx="409.519" cy="102.484" r="22.5" style="fill:#e80054;"/><circle cx="255.999" cy="256" r="175.781" style="fill:#fff;fill-opacity:0.75;"/><circle cx="255.999" cy="255.999" r="147.656" style="fill:#3b3868;"/><circle cx="255.999" cy="255.999" r="123.046" style="fill:#42c3fc;"/><path d="M132.953,255.999c-0,-67.911 55.135,-123.046 123.046,-123.046c-67.847,0 -123.046,55.199 -123.046,123.046Zm123.046,-123.046c67.91,0 123.045,55.135 123.045,123.046c0,67.911 -55.135,123.046 -123.045,123.046c-15.857,-0 -15.856,-57.421 -0,-57.421l-0,-131.25c-15.857,0 -15.856,-57.421 -0,-57.421Zm-0,246.092c-67.911,-0 -123.046,-55.135 -123.046,-123.046c-0,67.847 55.199,123.046 123.046,123.046Z" style="fill:#8ae1ff;"/><circle cx="255.999" cy="255.999" r="65.625" style="fill:#1aa9e8;"/><circle cx="288.811" cy="223.187" r="32.812" style="fill:#b8f0ff;"/></svg>