<?xml version="1.0" encoding="UTF-8" standalone="no"?><!DOCTYPE svg PUBLIC "-//W3C//DTD SVG 1.1//EN" "http://www.w3.org/Graphics/SVG/1.1/DTD/svg11.dtd"><svg width="100%" height="100%" viewBox="0 0 512 512" version="1.1" xmlns="http://www.w3.org/2000/svg" xmlns:xlink="http://www.w3.org/1999/xlink" xml:space="preserve" style="fill-rule:evenodd;clip-rule:evenodd;stroke-linejoin:round;stroke-miterlimit:2;"><path d="M33.136,125.946l47.082,-1.62l152.13,61.363l23.652,29.403l28.125,37.074l0,186.648l-28.125,42.186c-2.577,0 -5.154,-0.48 -7.59,-1.456l-204.546,-81.819c-7.772,-3.116 -12.864,-10.626 -12.864,-18.996l0,-245.456c0,-2.389 1.086,-4.884 2.136,-7.327Z" style="fill:#007577;fill-rule:nonzero;"/><path d="M264.31,183.132l171.947,-66.477l42.336,9.4c1.024,2.393 2.407,4.722 2.407,7.218l0,245.456c0,8.37 -5.094,15.88 -12.865,18.995l-204.545,81.819c-2.437,0.977 -5.013,1.457 -7.59,1.457l0,-265.908l8.31,-31.96Z" style="fill:#009498;fill-rule:nonzero;"/><path d="M33.045,125.91l222.955,89.182l222.545,-89.182c-2.045,-4.91 -5.727,-9.821 -10.227,-11.456l-204.545,-81.819c-2.455,-0.819 -5.319,-1.635 -7.773,-1.635c-2.455,0 -5.319,0.818 -7.773,1.635l-204.546,81.819c-0.408,0 -0.819,0.819 -1.226,0.819c-4.912,2.456 -7.366,6.545 -9.411,10.637l0.001,0Z" style="fill:#00dfe6;fill-rule:nonzero;"/><path d="M33.045,125.91l222.955,89.182l0,-184.092c-2.455,0 -5.319,0.818 -7.773,1.635l-204.546,81.819c-0.408,0 -0.819,0.819 -1.226,0.819c-4.912,2.456 -7.366,6.545 -9.411,10.637l0.001,0Z" style="fill:#00b8bf;fill-rule:nonzero;"/></svg>