<?xml version="1.0" encoding="UTF-8" standalone="no"?><!DOCTYPE svg PUBLIC "-//W3C//DTD SVG 1.1//EN" "http://www.w3.org/Graphics/SVG/1.1/DTD/svg11.dtd"><svg width="100%" height="100%" viewBox="0 0 512 512" version="1.1" xmlns="http://www.w3.org/2000/svg" xmlns:xlink="http://www.w3.org/1999/xlink" xml:space="preserve" xmlns:serif="http://www.serif.com/" style="fill-rule:evenodd;clip-rule:evenodd;stroke-linejoin:round;stroke-miterlimit:2;"><path d="M48.806,369.514l415.355,0l-0.001,78.408l-416.321,0l0.967,-78.408Z" style="fill:url(#_Linear1);fill-rule:nonzero;"/><path d="M48.806,402.989l415.355,-0l-0.001,109.011l-416.321,0l0.967,-109.011Z" style="fill:url(#_Linear2);fill-rule:nonzero;"/><path d="M322.919,369.514c0.031,0.275 0.046,0.551 0.046,0.828c0,12.191 -29.929,22.088 -66.793,22.088c-36.864,0 -66.793,-9.897 -66.793,-22.088c0,-0.277 0.016,-0.553 0.047,-0.828l133.493,0Z" style="fill:#fff;fill-opacity:0.75;"/><path d="M160.624,120.775c-7.392,54.268 -21.338,99.711 -37.35,119.044l0.165,0.121l-4.227,28.691c6.31,28.159 23.134,83.193 24.982,243.369l-144.194,0l0.361,-512l512,0l-0.361,512l-137.942,0c-7.822,-62.735 6.017,-197.817 19.074,-243.369l-4.227,-28.691l0.166,-0.121c-16.013,-19.333 -29.959,-64.776 -37.351,-119.044c-28.678,5.099 -61.155,7.975 -95.548,7.975c-34.393,0 -66.87,-2.876 -95.548,-7.975Z" style="fill:#df2060;"/><path d="M466.407,0l33.699,0c-5.933,31.403 -41.251,59.065 -93.529,77.4c5.176,58.715 22.158,114.616 53.444,167.109c-17.232,84.817 -24.958,188.22 -19.085,267.491l-33.907,0c-2.055,-113.671 5.968,-231.732 20.706,-267.181c-27.592,-38.815 -43.856,-93.041 -52.106,-158.168c-35.343,8.907 -76.091,13.987 -119.457,13.987c-43.366,0 -84.113,-5.08 -119.456,-13.987c-8.251,65.127 -24.514,119.353 -52.106,158.168c14.738,35.449 27.835,153.51 25.779,267.181l-33.907,0c5.874,-79.271 -6.926,-182.674 -24.159,-267.491c31.286,-52.493 48.269,-108.394 53.445,-167.109c-52.278,-18.335 -87.596,-45.997 -93.529,-77.4l33.699,0c4.313,39.068 96.861,70.325 210.234,70.325c113.373,0 205.922,-31.257 210.235,-70.325Z" style="fill:#b21a4f;"/><path d="M0,294.009l0,-64.736l117.854,0c11.146,0 19.688,8.359 19.688,17.983c0,5.752 -3.051,11.052 -7.887,14.385c4.836,3.334 7.887,8.634 7.887,14.386c0,9.624 -8.542,17.982 -19.688,17.982l-117.854,0Zm512,0l-117.509,0c-11.147,0 -19.689,-8.358 -19.689,-17.982c0,-5.752 3.052,-11.052 7.888,-14.386c-4.836,-3.333 -7.888,-8.633 -7.888,-14.385c0,-9.624 8.542,-17.983 19.689,-17.983l117.509,0l0,64.736Z" style="fill-opacity:0.75;"/><path d="M117.854,265.237c6.901,0 12.496,4.832 12.496,10.79c0,5.959 -5.595,10.789 -12.496,10.789l-117.854,0l0,-21.579l117.854,0Zm0,-28.771c6.901,0 12.496,4.831 12.496,10.79c0,5.958 -5.595,10.789 -12.496,10.789l-117.854,0l0,-21.579l117.854,0Z" style="fill:url(#_Linear3);"/><path d="M394.491,265.237l117.87,0l0,21.579l-117.87,0c-6.902,0 -12.496,-4.83 -12.496,-10.789c0,-5.958 5.594,-10.79 12.496,-10.79Zm0,-28.771l117.87,0l0,21.579l-117.87,0c-6.902,0 -12.496,-4.831 -12.496,-10.789c0,-5.959 5.594,-10.79 12.496,-10.79Z" style="fill:url(#_Linear4);"/><defs><linearGradient id="_Linear1" x1="0" y1="0" x2="1" y2="0" gradientUnits="userSpaceOnUse" gradientTransform="matrix(2.04975e-15,33.475,-33.475,2.04975e-15,256,369.514)"><stop offset="0" style="stop-color:#fde23c;stop-opacity:1"/><stop offset="1" style="stop-color:#ff7c00;stop-opacity:1"/></linearGradient><linearGradient id="_Linear2" x1="0" y1="0" x2="1" y2="0" gradientUnits="userSpaceOnUse" gradientTransform="matrix(6.675e-15,109.011,-109.011,6.675e-15,256.18,402.989)"><stop offset="0" style="stop-color:#7c4f00;stop-opacity:1"/><stop offset="1" style="stop-color:#4c3300;stop-opacity:1"/></linearGradient><linearGradient id="_Linear3" x1="0" y1="0" x2="1" y2="0" gradientUnits="userSpaceOnUse" gradientTransform="matrix(-107.443,50.3502,-50.3502,-107.443,119.682,236.466)"><stop offset="0" style="stop-color:#fde63f;stop-opacity:1"/><stop offset="1" style="stop-color:#ff8000;stop-opacity:1"/></linearGradient><linearGradient id="_Linear4" x1="0" y1="0" x2="1" y2="0" gradientUnits="userSpaceOnUse" gradientTransform="matrix(118.997,50.3502,-50.3502,118.997,381.995,236.466)"><stop offset="0" style="stop-color:#fde63f;stop-opacity:1"/><stop offset="1" style="stop-color:#ff8000;stop-opacity:1"/></linearGradient></defs></svg>