<?xml version="1.0" encoding="UTF-8" standalone="no"?><!DOCTYPE svg PUBLIC "-//W3C//DTD SVG 1.1//EN" "http://www.w3.org/Graphics/SVG/1.1/DTD/svg11.dtd"><svg width="100%" height="100%" viewBox="0 0 512 512" version="1.1" xmlns="http://www.w3.org/2000/svg" xmlns:xlink="http://www.w3.org/1999/xlink" xml:space="preserve" xmlns:serif="http://www.serif.com/" style="fill-rule:evenodd;clip-rule:evenodd;stroke-linejoin:round;stroke-miterlimit:2;"><circle cx="256" cy="256" r="256" style="fill:#09f;"/><path d="M199.754,6.21c18.102,-4.065 36.925,-6.21 56.246,-6.21c31.027,0 60.773,5.532 88.303,15.662c24.458,20.539 69.329,56.208 107.416,75.39c32.293,38.269 53.576,86.124 58.945,138.661c-42.82,17.239 -85.077,66.313 -94.506,108.287c-5.421,24.131 7.627,61.969 23.563,96.205c-32.72,33.725 -74.632,58.482 -121.676,70.211c-15.727,-21.717 -59.258,-85.194 -61.887,-125.916c-3.584,-55.5 56.25,-136.417 46,-199.5c-8.832,-54.356 -82.256,-147.936 -102.404,-172.79Z" style="fill:#0074cd;"/><path d="M7.658,318.342c-11.001,-42.857 -10.252,-84.329 -0,-124.684c9.464,-37.768 27.329,-72.22 51.488,-101.252c38.78,26.154 86.932,63.007 97.012,90.594c17.416,47.667 -20.847,111.705 -44,163c-9.763,21.63 -28.084,52.025 -46.692,80.905c-27.37,-30.489 -47.536,-67.573 -57.808,-108.563Z" style="fill:#0074cd;"/><path d="M64.579,425.912c16.796,-2.639 32.874,-8.095 41.087,-18.828c19.668,-25.699 -43.088,-70.007 -49.508,-83.584c-23.589,-49.884 36.201,-89.456 63,-104.134c27.083,-14.833 123,-21.95 141,-1.866c18,20.083 -55.667,85.333 -49,118c6.666,32.666 64.666,48.584 89,78c16.538,19.994 37.12,58.721 48.476,81.199c-28.732,11.171 -59.973,17.301 -92.634,17.301c-76.113,0 -144.512,-33.288 -191.421,-86.088Z" style="fill:url(#_Linear1);"/><path d="M355.695,20.168c91.822,38.906 156.305,129.898 156.305,235.832c0,17.726 -1.805,35.034 -5.242,51.749c-13.969,-21.002 -1.939,-71.889 -22.6,-93.249c-27.084,-28 -98,-40.25 -127,-66c-24.977,-22.178 -53.25,-63.75 -47,-88.5c3.173,-12.566 24.908,-27.84 45.537,-39.832Z" style="fill:url(#_Linear2);"/><path d="M477.702,384.008c-13.212,22.817 -29.846,43.411 -49.196,61.077c-24.651,-19.261 -45.996,-44.447 -50.848,-59.585c-7.667,-23.916 28.583,-62.416 48.5,-59.5c15.167,2.221 31.836,34.081 51.544,58.008Z" style="fill:#a4e276;"/><path d="M164.001,17.055c-15.222,17.14 -39.291,42.597 -57.343,53.945c-12.547,7.887 -33.233,18.327 -52.461,27.542c28.324,-36.238 66.19,-64.665 109.804,-81.487Z" style="fill:#a4e276;"/><defs><linearGradient id="_Linear1" x1="0" y1="0" x2="1" y2="0" gradientUnits="userSpaceOnUse" gradientTransform="matrix(-273.5,335,-335,-273.5,243.658,227.5)"><stop offset="0" style="stop-color:#a4e276;stop-opacity:1"/><stop offset="1" style="stop-color:#61d50b;stop-opacity:1"/></linearGradient><linearGradient id="_Linear2" x1="0" y1="0" x2="1" y2="0" gradientUnits="userSpaceOnUse" gradientTransform="matrix(-276.5,192.5,-192.5,-276.5,642.658,12)"><stop offset="0" style="stop-color:#a4e276;stop-opacity:1"/><stop offset="1" style="stop-color:#61d50b;stop-opacity:1"/></linearGradient></defs></svg>