<?xml version="1.0" encoding="UTF-8" standalone="no"?>
<!DOCTYPE svg PUBLIC "-//W3C//DTD SVG 1.1//EN" "http://www.w3.org/Graphics/SVG/1.1/DTD/svg11.dtd">
<svg width="100%" height="100%" viewBox="0 0 1024 1024" version="1.1" xmlns="http://www.w3.org/2000/svg" xmlns:xlink="http://www.w3.org/1999/xlink" xml:space="preserve" xmlns:serif="http://www.serif.com/" style="fill-rule:evenodd;clip-rule:evenodd;stroke-linejoin:round;stroke-miterlimit:2;">
    <g transform="matrix(1.03493,0,0,1.03493,-48.414,-38.0647)">
        <circle cx="541.5" cy="531.5" r="386.5" style="fill:white;"/>
    </g>
    <g transform="matrix(3.5,0,0,3.5,64.4562,64.4271)">
        <path d="M89.907,151.954C85.533,145.017 83,136.802 83,128C83,103.164 103.164,83 128,83C134.236,83 140.178,84.271 145.582,86.57C141.578,89.682 139,94.542 139,100C139,109.383 146.617,117 156,117C161.458,117 166.318,114.422 169.43,110.418C171.729,115.822 173,121.764 173,128C173,152.836 152.836,173 128,173C119.198,173 110.983,170.467 104.046,166.093C105.87,164.282 107,161.772 107,159C107,153.481 102.519,149 97,149C94.228,149 91.718,150.13 89.907,151.954Z"/>
    </g>
</svg>
