<?xml version="1.0" encoding="UTF-8" standalone="no"?>
<!DOCTYPE svg PUBLIC "-//W3C//DTD SVG 1.1//EN" "http://www.w3.org/Graphics/SVG/1.1/DTD/svg11.dtd">
<svg width="100%" height="100%" viewBox="0 0 512 512" version="1.1" xmlns="http://www.w3.org/2000/svg" xmlns:xlink="http://www.w3.org/1999/xlink" xml:space="preserve" xmlns:serif="http://www.serif.com/" style="fill-rule:evenodd;clip-rule:evenodd;stroke-linejoin:round;stroke-miterlimit:2;">
    <g transform="matrix(1,0,0,1,5.5,-6.5)">
        <path d="M233.474,144.331L233.474,44.764C233.474,40.185 235.293,35.794 238.531,32.557C241.769,29.319 246.16,27.5 250.738,27.5L250.741,27.5C255.32,27.5 259.711,29.319 262.948,32.557C266.186,35.794 268.005,40.185 268.005,44.764L268.005,144.331C320.113,151.887 361.362,193.139 368.909,245.235L468.476,245.235C473.054,245.235 477.446,247.054 480.683,250.291C483.921,253.529 485.74,257.92 485.74,262.499C485.74,262.5 485.74,262.5 485.74,262.501C485.74,267.08 483.921,271.471 480.683,274.709C477.446,277.946 473.054,279.765 468.476,279.765L368.908,279.765C361.353,331.868 320.109,373.113 268.005,380.669L268.005,480.236C268.005,484.815 266.186,489.206 262.948,492.443C259.711,495.681 255.32,497.5 250.741,497.5L250.738,497.5C246.16,497.5 241.769,495.681 238.531,492.443C235.293,489.206 233.474,484.815 233.474,480.236L233.474,380.669C181.372,373.113 140.126,331.869 132.571,279.765L33.004,279.765C28.425,279.765 24.034,277.946 20.796,274.709C17.559,271.471 15.74,267.08 15.74,262.501L15.74,262.499C15.74,257.92 17.559,253.529 20.796,250.291C24.034,247.054 28.425,245.235 33.004,245.235L132.571,245.235C140.126,193.132 181.37,151.886 233.474,144.331ZM233.474,347.433C199.488,340.554 172.688,313.754 165.807,279.765L233.474,279.765L233.474,347.433ZM335.672,279.765C328.794,313.751 301.994,340.551 268.005,347.433L268.005,279.765L335.672,279.765ZM233.474,177.567L233.474,245.235L165.807,245.235C172.686,211.248 199.485,184.448 233.474,177.567ZM268.005,177.567C301.991,184.446 328.791,211.245 335.673,245.235L268.005,245.235L268.005,177.567Z" style="fill:url(#_Radial1);"/>
    </g>
    <defs>
        <radialGradient id="_Radial1" cx="0" cy="0" r="1" gradientUnits="userSpaceOnUse" gradientTransform="matrix(-289.673,3.54748e-14,-3.54748e-14,-289.673,250.74,262.5)"><stop offset="0" style="stop-color:rgb(252,0,0);stop-opacity:1"/><stop offset="0.55" style="stop-color:rgb(231,0,0);stop-opacity:1"/><stop offset="1" style="stop-color:rgb(151,0,0);stop-opacity:1"/></radialGradient>
    </defs>
</svg>
