<?xml version="1.0" encoding="UTF-8" standalone="no"?><!DOCTYPE svg PUBLIC "-//W3C//DTD SVG 1.1//EN" "http://www.w3.org/Graphics/SVG/1.1/DTD/svg11.dtd"><svg width="100%" height="100%" viewBox="0 0 512 512" version="1.1" xmlns="http://www.w3.org/2000/svg" xmlns:xlink="http://www.w3.org/1999/xlink" xml:space="preserve" style="fill-rule:evenodd;clip-rule:evenodd;stroke-linejoin:round;stroke-miterlimit:2;"><path d="M176.133,236.854l-160.133,-0l-0,-56.663c-0,-17.593 20.018,-45.214 50.493,-45.214l8.727,-0.184c1.648,-0.453 3.164,-0.695 4.51,-0.695l31.116,-0.058c13.568,-0 25.656,-8.591 30.103,-21.414l11.628,-33.56c4.448,-12.824 16.525,-21.424 30.104,-21.424l154.803,0c13.568,0 23.855,6.726 28.302,19.548l12.088,34.499c4.448,12.823 18.886,21.413 32.454,21.413c0,0 13.539,0.158 29.852,0.347c30.933,0.36 55.819,25.537 55.819,56.472l-0,46.933l-160.135,-0c-18.917,-23.136 -47.68,-37.912 -79.865,-37.912c-32.186,0 -60.948,14.776 -79.866,37.912Z" style="fill:#68b9ff;fill-rule:nonzero;"/><path d="M319.376,220.734l176.623,-0l-0,177.578c-0,14.864 -5.904,29.119 -16.415,39.629c-10.511,10.511 -24.765,16.415 -39.629,16.415l-369.711,0c-30.475,0 -54.244,-35.827 -54.244,-53.42l-0,-180.202l176.622,-0c-24.187,18.881 -39.748,48.304 -39.748,81.332c0,56.917 46.209,103.125 103.125,103.125c56.916,-0 103.125,-46.208 103.125,-103.125c0,-33.028 -15.561,-62.451 -39.748,-81.332Z" style="fill:#0084ff;fill-rule:nonzero;"/><circle cx="256" cy="302.067" r="103.125" style="fill-opacity:0.6;"/><path d="M326.307,302.068c0,20.704 -8.946,39.316 -23.191,52.189c-12.469,11.265 -28.983,18.127 -47.117,18.127c-18.128,-0 -34.648,-6.862 -47.117,-18.128c-14.245,-12.865 -23.199,-31.485 -23.199,-52.189c0,-20.703 8.954,-39.323 23.199,-52.18c12.469,-11.274 28.989,-18.128 47.117,-18.128c18.134,-0 34.648,6.862 47.117,18.128c14.245,12.866 23.191,31.477 23.191,52.181Z" style="fill:#f8faff;fill-rule:nonzero;"/><path d="M211.539,157.892l88.916,-0c11.69,-0 21.167,-9.476 21.167,-21.167l0,-23.292c0,-11.689 -9.476,-21.167 -21.167,-21.167l-88.916,0c-11.689,0 -21.166,9.476 -21.166,21.167l-0,23.292c-0,11.689 9.477,21.167 21.166,21.167Z" style="fill:#ffcf61;fill-rule:nonzero;"/></svg>