<?xml version="1.0" encoding="UTF-8" standalone="no"?><!DOCTYPE svg PUBLIC "-//W3C//DTD SVG 1.1//EN" "http://www.w3.org/Graphics/SVG/1.1/DTD/svg11.dtd"><svg width="100%" height="100%" viewBox="0 0 512 512" version="1.1" xmlns="http://www.w3.org/2000/svg" xmlns:xlink="http://www.w3.org/1999/xlink" xml:space="preserve" style="fill-rule:evenodd;clip-rule:evenodd;stroke-linejoin:round;stroke-miterlimit:2;"><path d="M481.5,116.209c-0,-23.657 -19.189,-42.846 -42.863,-42.846l-364.275,-0c-23.673,-0 -42.862,19.189 -42.862,42.846l-0,278.582c-0,23.657 19.189,42.847 42.862,42.847l364.275,-0c23.674,-0 42.863,-19.19 42.863,-42.847l-0,-278.582Z" style="fill:#eff3f9;"/><path d="M74.362,73.363l364.275,-0c23.674,-0 42.863,19.189 42.863,42.846l-0,42.862l-450,0l-0,-42.862c-0,-23.673 19.189,-42.846 42.862,-42.846Z" style="fill:#559b99;fill-rule:nonzero;"/><path d="M174.568,228.757c6.718,6.686 6.718,17.486 -0,24.188l-46.656,46.671l46.656,46.655c6.718,6.686 6.718,17.502 -0,24.188c-3.311,3.327 -7.698,5.03 -12.086,5.03c-4.371,0 -8.759,-1.687 -12.102,-5.03l-58.757,-58.757c-6.686,-6.686 -6.686,-17.502 0,-24.204l58.757,-58.741c6.702,-6.702 17.518,-6.702 24.188,0Zm188.052,0l58.741,58.757c6.701,6.686 6.701,17.502 -0,24.188l-58.741,58.757c-3.359,3.343 -7.731,5.03 -12.102,5.03c-4.388,0 -8.775,-1.687 -12.086,-5.03c-6.718,-6.686 -6.718,-17.502 0,-24.188l46.655,-46.655l-46.655,-46.671c-6.718,-6.702 -6.718,-17.502 0,-24.188c6.67,-6.702 17.486,-6.702 24.188,0Zm-63.209,-14.978c8.437,4.226 11.876,14.512 7.65,22.95l-70.522,141.026c-3.021,6.011 -9.032,9.45 -15.316,9.45c-2.571,0 -5.159,-0.562 -7.618,-1.767l-0.032,-0.033c-8.437,-4.21 -11.861,-14.512 -7.634,-22.95l70.522,-141.026c4.226,-8.454 14.512,-11.893 22.95,-7.65Z" style="fill:#1d1d1d;"/><circle cx="75.118" cy="116.209" r="16.779" style="fill:#1d1d1d;"/><circle cx="142.264" cy="116.209" r="16.779" style="fill:#1d1d1d;"/><circle cx="209.379" cy="116.209" r="16.779" style="fill:#1d1d1d;"/></svg>